<?xml version="1.0" encoding="UTF-8" standalone="no"?>
<!DOCTYPE svg PUBLIC "-//W3C//DTD SVG 1.1//EN"
 "http://www.w3.org/Graphics/SVG/1.1/DTD/svg11.dtd">
<!-- Generated by graphviz version 2.43.0 (0)
 -->
<!-- Title: AffineTransform.hpp Pages: 1 -->
<svg width="1538pt" height="184pt"
 viewBox="0.00 0.00 1538.00 184.00" xmlns="http://www.w3.org/2000/svg" xmlns:xlink="http://www.w3.org/1999/xlink">
<g id="graph0" class="graph" transform="scale(1 1) rotate(0) translate(4 180)">
<title>AffineTransform.hpp</title>
<polygon fill="white" stroke="transparent" points="-4,4 -4,-180 1534,-180 1534,4 -4,4"/>
<!-- Node1 -->
<g id="node1" class="node">
<title>Node1</title>
<g id="a_node1"><a xlink:title=" ">
<polygon fill="#bfbfbf" stroke="black" points="997,-156.5 997,-175.5 1112,-175.5 1112,-156.5 997,-156.5"/>
<text text-anchor="middle" x="1054.5" y="-163.5" font-family="Helvetica,sans-Serif" font-size="10.00">AffineTransform.hpp</text>
</a>
</g>
</g>
<!-- Node2 -->
<g id="node2" class="node">
<title>Node2</title>
<g id="a_node2"><a target="_parent" xlink:href="../../../cieutils/docs/html/iterator__concepts_8hpp.html.html" xlink:title=" ">
<polygon fill="white" stroke="black" points="637.5,-78.5 637.5,-119.5 769.5,-119.5 769.5,-78.5 637.5,-78.5"/>
<text text-anchor="start" x="645.5" y="-107.5" font-family="Helvetica,sans-Serif" font-size="10.00">packages/compile_time</text>
<text text-anchor="start" x="645.5" y="-96.5" font-family="Helvetica,sans-Serif" font-size="10.00">/packages/concepts/inc</text>
<text text-anchor="middle" x="703.5" y="-85.5" font-family="Helvetica,sans-Serif" font-size="10.00">/iterator_concepts.hpp</text>
</a>
</g>
</g>
<!-- Node1&#45;&gt;Node2 -->
<g id="edge1" class="edge">
<title>Node1&#45;&gt;Node2</title>
<path fill="none" stroke="midnightblue" d="M996.84,-157.29C942.97,-149.71 860.17,-137.08 779.49,-120.12"/>
<polygon fill="midnightblue" stroke="midnightblue" points="780.18,-116.68 769.67,-118.03 778.72,-123.53 780.18,-116.68"/>
</g>
<!-- Node3 -->
<g id="node3" class="node">
<title>Node3</title>
<g id="a_node3"><a xlink:href="kernel_8hpp.html" target="_top" xlink:title=" ">
<polygon fill="white" stroke="black" points="787.5,-84 787.5,-114 889.5,-114 889.5,-84 787.5,-84"/>
<text text-anchor="start" x="795.5" y="-102" font-family="Helvetica,sans-Serif" font-size="10.00">packages/utilities</text>
<text text-anchor="middle" x="838.5" y="-91" font-family="Helvetica,sans-Serif" font-size="10.00">/inc/kernel.hpp</text>
</a>
</g>
</g>
<!-- Node1&#45;&gt;Node3 -->
<g id="edge2" class="edge">
<title>Node1&#45;&gt;Node3</title>
<path fill="none" stroke="midnightblue" d="M1025.82,-156.37C992.56,-146.36 936.95,-129.63 894.94,-116.98"/>
<polygon fill="midnightblue" stroke="midnightblue" points="895.7,-113.56 885.12,-114.03 893.68,-120.26 895.7,-113.56"/>
</g>
<!-- Node14 -->
<g id="node14" class="node">
<title>Node14</title>
<g id="a_node14"><a xlink:href="Expression_8hpp.html" target="_top" xlink:title=" ">
<polygon fill="white" stroke="black" points="1185,-84 1185,-114 1298,-114 1298,-84 1185,-84"/>
<text text-anchor="start" x="1193" y="-102" font-family="Helvetica,sans-Serif" font-size="10.00">packages/maths/inc</text>
<text text-anchor="middle" x="1241.5" y="-91" font-family="Helvetica,sans-Serif" font-size="10.00">/Expression.hpp</text>
</a>
</g>
</g>
<!-- Node1&#45;&gt;Node14 -->
<g id="edge13" class="edge">
<title>Node1&#45;&gt;Node14</title>
<path fill="none" stroke="midnightblue" d="M1079.33,-156.37C1107.76,-146.49 1155.05,-130.05 1191.25,-117.47"/>
<polygon fill="midnightblue" stroke="midnightblue" points="1192.85,-120.62 1201.14,-114.03 1190.55,-114.01 1192.85,-120.62"/>
</g>
<!-- Node18 -->
<g id="node18" class="node">
<title>Node18</title>
<g id="a_node18"><a xlink:title=" ">
<polygon fill="white" stroke="#bfbfbf" points="1316,-84 1316,-114 1461,-114 1461,-84 1316,-84"/>
<text text-anchor="start" x="1324" y="-102" font-family="Helvetica,sans-Serif" font-size="10.00">packages/maths/impl</text>
<text text-anchor="middle" x="1388.5" y="-91" font-family="Helvetica,sans-Serif" font-size="10.00">/AffineTransform_impl.hpp</text>
</a>
</g>
</g>
<!-- Node1&#45;&gt;Node18 -->
<g id="edge18" class="edge">
<title>Node1&#45;&gt;Node18</title>
<path fill="none" stroke="midnightblue" d="M1108.5,-156.46C1159.86,-148.08 1239.2,-134.49 1307.5,-120 1312.81,-118.87 1318.31,-117.65 1323.82,-116.37"/>
<polygon fill="midnightblue" stroke="midnightblue" points="1324.78,-119.74 1333.71,-114.05 1323.18,-112.93 1324.78,-119.74"/>
</g>
<!-- Node4 -->
<g id="node4" class="node">
<title>Node4</title>
<g id="a_node4"><a xlink:title=" ">
<polygon fill="white" stroke="#bfbfbf" points="0,-11.5 0,-30.5 77,-30.5 77,-11.5 0,-11.5"/>
<text text-anchor="middle" x="38.5" y="-18.5" font-family="Helvetica,sans-Serif" font-size="10.00">Eigen/Dense</text>
</a>
</g>
</g>
<!-- Node3&#45;&gt;Node4 -->
<g id="edge3" class="edge">
<title>Node3&#45;&gt;Node4</title>
<path fill="none" stroke="midnightblue" d="M801.47,-83.93C793.96,-81.57 786.05,-79.43 778.5,-78 475.89,-20.79 386.82,-110.23 86.5,-42 79.28,-40.36 71.77,-37.72 64.88,-34.89"/>
<polygon fill="midnightblue" stroke="midnightblue" points="65.92,-31.52 55.36,-30.7 63.1,-37.93 65.92,-31.52"/>
</g>
<!-- Node5 -->
<g id="node5" class="node">
<title>Node5</title>
<g id="a_node5"><a target="_parent" xlink:href="../../../cieutils/docs/html/basic__concepts_8hpp.html.html" xlink:title=" ">
<polygon fill="white" stroke="black" points="95.5,-0.5 95.5,-41.5 227.5,-41.5 227.5,-0.5 95.5,-0.5"/>
<text text-anchor="start" x="103.5" y="-29.5" font-family="Helvetica,sans-Serif" font-size="10.00">packages/compile_time</text>
<text text-anchor="start" x="103.5" y="-18.5" font-family="Helvetica,sans-Serif" font-size="10.00">/packages/concepts/inc</text>
<text text-anchor="middle" x="161.5" y="-7.5" font-family="Helvetica,sans-Serif" font-size="10.00">/basic_concepts.hpp</text>
</a>
</g>
</g>
<!-- Node3&#45;&gt;Node5 -->
<g id="edge4" class="edge">
<title>Node3&#45;&gt;Node5</title>
<path fill="none" stroke="midnightblue" d="M801.13,-83.91C793.72,-81.59 785.93,-79.46 778.5,-78 544.85,-32.09 476.56,-79.94 237.64,-42"/>
<polygon fill="midnightblue" stroke="midnightblue" points="238.03,-38.52 227.6,-40.37 236.91,-45.43 238.03,-38.52"/>
</g>
<!-- Node6 -->
<g id="node6" class="node">
<title>Node6</title>
<g id="a_node6"><a target="_parent" xlink:href="../../../cieutils/docs/html/types_8hpp.html.html" xlink:title=" ">
<polygon fill="white" stroke="black" points="1138.5,-6 1138.5,-36 1248.5,-36 1248.5,-6 1138.5,-6"/>
<text text-anchor="start" x="1146.5" y="-24" font-family="Helvetica,sans-Serif" font-size="10.00">packages/types/inc</text>
<text text-anchor="middle" x="1193.5" y="-13" font-family="Helvetica,sans-Serif" font-size="10.00">/types.hpp</text>
</a>
</g>
</g>
<!-- Node3&#45;&gt;Node6 -->
<g id="edge5" class="edge">
<title>Node3&#45;&gt;Node6</title>
<path fill="none" stroke="midnightblue" d="M889.68,-89.83C947.91,-80.15 1045.67,-62.68 1128.5,-42 1132.32,-41.05 1136.25,-40 1140.19,-38.91"/>
<polygon fill="midnightblue" stroke="midnightblue" points="1141.33,-42.22 1149.98,-36.1 1139.4,-35.49 1141.33,-42.22"/>
</g>
<!-- Node7 -->
<g id="node7" class="node">
<title>Node7</title>
<g id="a_node7"><a target="_parent" xlink:href="../../../cieutils/docs/html/StaticArray_8hpp.html.html" xlink:title=" ">
<polygon fill="white" stroke="black" points="246,-6 246,-36 377,-36 377,-6 246,-6"/>
<text text-anchor="start" x="254" y="-24" font-family="Helvetica,sans-Serif" font-size="10.00">packages/stl_extension</text>
<text text-anchor="middle" x="311.5" y="-13" font-family="Helvetica,sans-Serif" font-size="10.00">/inc/StaticArray.hpp</text>
</a>
</g>
</g>
<!-- Node3&#45;&gt;Node7 -->
<g id="edge6" class="edge">
<title>Node3&#45;&gt;Node7</title>
<path fill="none" stroke="midnightblue" d="M800.77,-83.96C793.47,-81.66 785.81,-79.53 778.5,-78 606.83,-42.03 558.14,-73 385.5,-42 380.01,-41.02 374.34,-39.82 368.7,-38.5"/>
<polygon fill="midnightblue" stroke="midnightblue" points="369.14,-35.01 358.6,-36.03 367.48,-41.81 369.14,-35.01"/>
</g>
<!-- Node8 -->
<g id="node8" class="node">
<title>Node8</title>
<g id="a_node8"><a target="_parent" xlink:href="../../../cieutils/docs/html/StrongTypeDef_8hpp.html.html" xlink:title=" ">
<polygon fill="white" stroke="black" points="395,-6 395,-36 526,-36 526,-6 395,-6"/>
<text text-anchor="start" x="403" y="-24" font-family="Helvetica,sans-Serif" font-size="10.00">packages/stl_extension</text>
<text text-anchor="middle" x="460.5" y="-13" font-family="Helvetica,sans-Serif" font-size="10.00">/inc/StrongTypeDef.hpp</text>
</a>
</g>
</g>
<!-- Node3&#45;&gt;Node8 -->
<g id="edge7" class="edge">
<title>Node3&#45;&gt;Node8</title>
<path fill="none" stroke="midnightblue" d="M799.73,-83.98C792.73,-81.76 785.44,-79.66 778.5,-78 671.87,-52.57 641.82,-64.34 534.5,-42 529.5,-40.96 524.33,-39.78 519.16,-38.53"/>
<polygon fill="midnightblue" stroke="midnightblue" points="519.82,-35.08 509.26,-36.05 518.11,-41.87 519.82,-35.08"/>
</g>
<!-- Node9 -->
<g id="node9" class="node">
<title>Node9</title>
<g id="a_node9"><a target="_parent" xlink:href="../../../linalg/docs/html/StaticEigenMatrix_8hpp.html.html" xlink:title=" ">
<polygon fill="white" stroke="black" points="544,-6 544,-36 671,-36 671,-6 544,-6"/>
<text text-anchor="start" x="552" y="-24" font-family="Helvetica,sans-Serif" font-size="10.00">packages/matrix/inc</text>
<text text-anchor="middle" x="607.5" y="-13" font-family="Helvetica,sans-Serif" font-size="10.00">/StaticEigenMatrix.hpp</text>
</a>
</g>
</g>
<!-- Node3&#45;&gt;Node9 -->
<g id="edge8" class="edge">
<title>Node3&#45;&gt;Node9</title>
<path fill="none" stroke="midnightblue" d="M796.55,-83.98C790.49,-81.97 784.34,-79.93 778.5,-78 738.95,-64.93 694.21,-50.29 660.41,-39.25"/>
<polygon fill="midnightblue" stroke="midnightblue" points="661.33,-35.87 650.74,-36.09 659.16,-42.52 661.33,-35.87"/>
</g>
<!-- Node10 -->
<g id="node10" class="node">
<title>Node10</title>
<g id="a_node10"><a target="_parent" xlink:href="../../../linalg/docs/html/DynamicEigenMatrix_8hpp.html.html" xlink:title=" ">
<polygon fill="white" stroke="black" points="689,-6 689,-36 832,-36 832,-6 689,-6"/>
<text text-anchor="start" x="697" y="-24" font-family="Helvetica,sans-Serif" font-size="10.00">packages/matrix/inc</text>
<text text-anchor="middle" x="760.5" y="-13" font-family="Helvetica,sans-Serif" font-size="10.00">/DynamicEigenMatrix.hpp</text>
</a>
</g>
</g>
<!-- Node3&#45;&gt;Node10 -->
<g id="edge9" class="edge">
<title>Node3&#45;&gt;Node10</title>
<path fill="none" stroke="midnightblue" d="M823.83,-83.7C812.17,-72.35 795.69,-56.28 782.46,-43.39"/>
<polygon fill="midnightblue" stroke="midnightblue" points="784.71,-40.7 775.11,-36.23 779.83,-45.72 784.71,-40.7"/>
</g>
<!-- Node11 -->
<g id="node11" class="node">
<title>Node11</title>
<g id="a_node11"><a target="_parent" xlink:href="../../../linalg/docs/html/SparseEigenMatrix_8hpp.html.html" xlink:title=" ">
<polygon fill="white" stroke="black" points="850.5,-6 850.5,-36 982.5,-36 982.5,-6 850.5,-6"/>
<text text-anchor="start" x="858.5" y="-24" font-family="Helvetica,sans-Serif" font-size="10.00">packages/matrix/inc</text>
<text text-anchor="middle" x="916.5" y="-13" font-family="Helvetica,sans-Serif" font-size="10.00">/SparseEigenMatrix.hpp</text>
</a>
</g>
</g>
<!-- Node3&#45;&gt;Node11 -->
<g id="edge10" class="edge">
<title>Node3&#45;&gt;Node11</title>
<path fill="none" stroke="midnightblue" d="M853.17,-83.7C864.83,-72.35 881.31,-56.28 894.54,-43.39"/>
<polygon fill="midnightblue" stroke="midnightblue" points="897.17,-45.72 901.89,-36.23 892.29,-40.7 897.17,-45.72"/>
</g>
<!-- Node12 -->
<g id="node12" class="node">
<title>Node12</title>
<g id="a_node12"><a xlink:title=" ">
<polygon fill="white" stroke="#bfbfbf" points="1000.5,-11.5 1000.5,-30.5 1042.5,-30.5 1042.5,-11.5 1000.5,-11.5"/>
<text text-anchor="middle" x="1021.5" y="-18.5" font-family="Helvetica,sans-Serif" font-size="10.00">array</text>
</a>
</g>
</g>
<!-- Node3&#45;&gt;Node12 -->
<g id="edge11" class="edge">
<title>Node3&#45;&gt;Node12</title>
<path fill="none" stroke="midnightblue" d="M885.56,-83.98C916.46,-74.01 957.32,-59.34 991.5,-42 994.78,-40.34 998.14,-38.38 1001.36,-36.36"/>
<polygon fill="midnightblue" stroke="midnightblue" points="1003.54,-39.11 1009.92,-30.65 999.66,-33.29 1003.54,-39.11"/>
</g>
<!-- Node13 -->
<g id="node13" class="node">
<title>Node13</title>
<g id="a_node13"><a xlink:title=" ">
<polygon fill="white" stroke="#bfbfbf" points="1061,-11.5 1061,-30.5 1120,-30.5 1120,-11.5 1061,-11.5"/>
<text text-anchor="middle" x="1090.5" y="-18.5" font-family="Helvetica,sans-Serif" font-size="10.00">complex</text>
</a>
</g>
</g>
<!-- Node3&#45;&gt;Node13 -->
<g id="edge12" class="edge">
<title>Node3&#45;&gt;Node13</title>
<path fill="none" stroke="midnightblue" d="M889.83,-87.79C933.59,-78.31 997.76,-62.57 1051.5,-42 1056.52,-40.08 1061.75,-37.69 1066.68,-35.25"/>
<polygon fill="midnightblue" stroke="midnightblue" points="1068.41,-38.29 1075.66,-30.57 1065.18,-32.08 1068.41,-38.29"/>
</g>
<!-- Node14&#45;&gt;Node6 -->
<g id="edge14" class="edge">
<title>Node14&#45;&gt;Node6</title>
<path fill="none" stroke="midnightblue" d="M1232.47,-83.7C1225.57,-72.77 1215.91,-57.48 1207.93,-44.85"/>
<polygon fill="midnightblue" stroke="midnightblue" points="1210.79,-42.82 1202.49,-36.23 1204.87,-46.55 1210.79,-42.82"/>
</g>
<!-- Node15 -->
<g id="node15" class="node">
<title>Node15</title>
<g id="a_node15"><a xlink:title=" ">
<polygon fill="white" stroke="#bfbfbf" points="1267,-11.5 1267,-30.5 1312,-30.5 1312,-11.5 1267,-11.5"/>
<text text-anchor="middle" x="1289.5" y="-18.5" font-family="Helvetica,sans-Serif" font-size="10.00">utility</text>
</a>
</g>
</g>
<!-- Node14&#45;&gt;Node15 -->
<g id="edge15" class="edge">
<title>Node14&#45;&gt;Node15</title>
<path fill="none" stroke="midnightblue" d="M1250.53,-83.7C1258.48,-71.11 1270.09,-52.73 1278.57,-39.31"/>
<polygon fill="midnightblue" stroke="midnightblue" points="1281.71,-40.89 1284.09,-30.56 1275.79,-37.15 1281.71,-40.89"/>
</g>
<!-- Node16 -->
<g id="node16" class="node">
<title>Node16</title>
<g id="a_node16"><a xlink:title=" ">
<polygon fill="white" stroke="#bfbfbf" points="1330.5,-11.5 1330.5,-30.5 1390.5,-30.5 1390.5,-11.5 1330.5,-11.5"/>
<text text-anchor="middle" x="1360.5" y="-18.5" font-family="Helvetica,sans-Serif" font-size="10.00">concepts</text>
</a>
</g>
</g>
<!-- Node14&#45;&gt;Node16 -->
<g id="edge16" class="edge">
<title>Node14&#45;&gt;Node16</title>
<path fill="none" stroke="midnightblue" d="M1263.6,-83.88C1284.92,-70.27 1316.99,-49.79 1338.33,-36.16"/>
<polygon fill="midnightblue" stroke="midnightblue" points="1340.48,-38.94 1347.02,-30.61 1336.71,-33.04 1340.48,-38.94"/>
</g>
<!-- Node17 -->
<g id="node17" class="node">
<title>Node17</title>
<g id="a_node17"><a xlink:title=" ">
<polygon fill="white" stroke="#bfbfbf" points="1409,-6 1409,-36 1530,-36 1530,-6 1409,-6"/>
<text text-anchor="start" x="1417" y="-24" font-family="Helvetica,sans-Serif" font-size="10.00">packages/maths/impl</text>
<text text-anchor="middle" x="1469.5" y="-13" font-family="Helvetica,sans-Serif" font-size="10.00">/Expression_impl.hpp</text>
</a>
</g>
</g>
<!-- Node14&#45;&gt;Node17 -->
<g id="edge17" class="edge">
<title>Node14&#45;&gt;Node17</title>
<path fill="none" stroke="midnightblue" d="M1283.58,-83.97C1321.38,-71.37 1377.02,-52.83 1417.57,-39.31"/>
<polygon fill="midnightblue" stroke="midnightblue" points="1418.9,-42.56 1427.28,-36.07 1416.68,-35.92 1418.9,-42.56"/>
</g>
</g>
</svg>
