<?xml version="1.0" encoding="UTF-8" standalone="no"?>
<!DOCTYPE svg PUBLIC "-//W3C//DTD SVG 1.1//EN"
 "http://www.w3.org/Graphics/SVG/1.1/DTD/svg11.dtd">
<!-- Generated by graphviz version 2.43.0 (0)
 -->
<!-- Title: Assembler.hpp Pages: 1 -->
<svg width="2743pt" height="251pt"
 viewBox="0.00 0.00 2743.00 251.00" xmlns="http://www.w3.org/2000/svg" xmlns:xlink="http://www.w3.org/1999/xlink">
<g id="graph0" class="graph" transform="scale(1 1) rotate(0) translate(4 247)">
<title>Assembler.hpp</title>
<polygon fill="white" stroke="transparent" points="-4,4 -4,-247 2739,-247 2739,4 -4,4"/>
<!-- Node1 -->
<g id="node1" class="node">
<title>Node1</title>
<g id="a_node1"><a xlink:title=" ">
<polygon fill="#bfbfbf" stroke="black" points="2062.5,-223.5 2062.5,-242.5 2151.5,-242.5 2151.5,-223.5 2062.5,-223.5"/>
<text text-anchor="middle" x="2107" y="-230.5" font-family="Helvetica,sans-Serif" font-size="10.00">Assembler.hpp</text>
</a>
</g>
</g>
<!-- Node2 -->
<g id="node2" class="node">
<title>Node2</title>
<g id="a_node2"><a xlink:href="Graph_8hpp.html" target="_top" xlink:title=" ">
<polygon fill="white" stroke="black" points="2011,-156.5 2011,-186.5 2121,-186.5 2121,-156.5 2011,-156.5"/>
<text text-anchor="start" x="2019" y="-174.5" font-family="Helvetica,sans-Serif" font-size="10.00">packages/graph/inc</text>
<text text-anchor="middle" x="2066" y="-163.5" font-family="Helvetica,sans-Serif" font-size="10.00">/Graph.hpp</text>
</a>
</g>
</g>
<!-- Node1&#45;&gt;Node2 -->
<g id="edge1" class="edge">
<title>Node1&#45;&gt;Node2</title>
<path fill="none" stroke="midnightblue" d="M2101.13,-223.48C2095.99,-216.02 2088.29,-204.85 2081.41,-194.87"/>
<polygon fill="midnightblue" stroke="midnightblue" points="2084.22,-192.77 2075.66,-186.52 2078.45,-196.74 2084.22,-192.77"/>
</g>
<!-- Node10 -->
<g id="node10" class="node">
<title>Node10</title>
<g id="a_node10"><a xlink:title=" ">
<polygon fill="white" stroke="#bfbfbf" points="2685,-89.5 2685,-108.5 2735,-108.5 2735,-89.5 2685,-89.5"/>
<text text-anchor="middle" x="2710" y="-96.5" font-family="Helvetica,sans-Serif" font-size="10.00">ranges</text>
</a>
</g>
</g>
<!-- Node1&#45;&gt;Node10 -->
<g id="edge48" class="edge">
<title>Node1&#45;&gt;Node10</title>
<path fill="none" stroke="midnightblue" d="M2110.99,-223.46C2119.19,-207.02 2139.68,-171.22 2169,-156 2269.25,-103.97 2568.14,-153.52 2676,-120 2680.61,-118.57 2685.26,-116.4 2689.58,-114.02"/>
<polygon fill="midnightblue" stroke="midnightblue" points="2691.65,-116.86 2698.36,-108.66 2688,-110.89 2691.65,-116.86"/>
</g>
<!-- Node12 -->
<g id="node12" class="node">
<title>Node12</title>
<g id="a_node12"><a xlink:href="connectivity_8hpp.html" target="_top" xlink:title=" ">
<polygon fill="white" stroke="black" points="1334,-156.5 1334,-186.5 1444,-186.5 1444,-156.5 1334,-156.5"/>
<text text-anchor="start" x="1342" y="-174.5" font-family="Helvetica,sans-Serif" font-size="10.00">packages/graph/inc</text>
<text text-anchor="middle" x="1389" y="-163.5" font-family="Helvetica,sans-Serif" font-size="10.00">/connectivity.hpp</text>
</a>
</g>
</g>
<!-- Node1&#45;&gt;Node12 -->
<g id="edge11" class="edge">
<title>Node1&#45;&gt;Node12</title>
<path fill="none" stroke="midnightblue" d="M2062.36,-228.3C1939.84,-218.15 1597.92,-189.81 1454.08,-177.89"/>
<polygon fill="midnightblue" stroke="midnightblue" points="1454.33,-174.4 1444.07,-177.06 1453.75,-181.38 1454.33,-174.4"/>
</g>
<!-- Node13 -->
<g id="node13" class="node">
<title>Node13</title>
<g id="a_node13"><a xlink:href="Expression_8hpp.html" target="_top" xlink:title=" ">
<polygon fill="white" stroke="black" points="317.5,-84 317.5,-114 430.5,-114 430.5,-84 317.5,-84"/>
<text text-anchor="start" x="325.5" y="-102" font-family="Helvetica,sans-Serif" font-size="10.00">packages/maths/inc</text>
<text text-anchor="middle" x="374" y="-91" font-family="Helvetica,sans-Serif" font-size="10.00">/Expression.hpp</text>
</a>
</g>
</g>
<!-- Node1&#45;&gt;Node13 -->
<g id="edge42" class="edge">
<title>Node1&#45;&gt;Node13</title>
<path fill="none" stroke="midnightblue" d="M2062.44,-229.93C1942.95,-224.27 1605.4,-207.57 1325,-187 990.79,-162.48 907.61,-151.56 574,-120 529.67,-115.81 479.85,-110.82 441.02,-106.88"/>
<polygon fill="midnightblue" stroke="midnightblue" points="441.18,-103.38 430.88,-105.85 440.48,-110.35 441.18,-103.38"/>
</g>
<!-- Node19 -->
<g id="node19" class="node">
<title>Node19</title>
<g id="a_node19"><a target="_parent" xlink:href="../../../cieutils/docs/html/checks_8hpp.html.html" xlink:title=" ">
<polygon fill="white" stroke="black" points="1518.5,-6 1518.5,-36 1637.5,-36 1637.5,-6 1518.5,-6"/>
<text text-anchor="start" x="1526.5" y="-24" font-family="Helvetica,sans-Serif" font-size="10.00">packages/macros/inc</text>
<text text-anchor="middle" x="1578" y="-13" font-family="Helvetica,sans-Serif" font-size="10.00">/checks.hpp</text>
</a>
</g>
</g>
<!-- Node1&#45;&gt;Node19 -->
<g id="edge44" class="edge">
<title>Node1&#45;&gt;Node19</title>
<path fill="none" stroke="midnightblue" d="M2062.3,-225.64C1991.69,-213.98 1852.08,-184.22 1752,-120 1730.81,-106.41 1734.59,-92.48 1714,-78 1690.39,-61.39 1661.11,-48.53 1635.77,-39.35"/>
<polygon fill="midnightblue" stroke="midnightblue" points="1636.87,-36.02 1626.27,-36.01 1634.54,-42.63 1636.87,-36.02"/>
</g>
<!-- Node33 -->
<g id="node33" class="node">
<title>Node33</title>
<g id="a_node33"><a target="_parent" xlink:href="../../../cieutils/docs/html/functional_8hpp.html.html" xlink:title=" ">
<polygon fill="white" stroke="black" points="1573,-78.5 1573,-119.5 1705,-119.5 1705,-78.5 1573,-78.5"/>
<text text-anchor="start" x="1581" y="-107.5" font-family="Helvetica,sans-Serif" font-size="10.00">packages/compile_time</text>
<text text-anchor="start" x="1581" y="-96.5" font-family="Helvetica,sans-Serif" font-size="10.00">/packages/concepts/inc</text>
<text text-anchor="middle" x="1639" y="-85.5" font-family="Helvetica,sans-Serif" font-size="10.00">/functional.hpp</text>
</a>
</g>
</g>
<!-- Node1&#45;&gt;Node33 -->
<g id="edge43" class="edge">
<title>Node1&#45;&gt;Node33</title>
<path fill="none" stroke="midnightblue" d="M2062.47,-230.7C1973.69,-227.5 1778.13,-217.14 1719,-187 1692.88,-173.69 1671,-148.14 1656.76,-128.16"/>
<polygon fill="midnightblue" stroke="midnightblue" points="1659.5,-125.97 1650.95,-119.71 1653.74,-129.93 1659.5,-125.97"/>
</g>
<!-- Node38 -->
<g id="node38" class="node">
<title>Node38</title>
<g id="a_node38"><a xlink:title=" ">
<polygon fill="white" stroke="#bfbfbf" points="2177.5,-162 2177.5,-181 2270.5,-181 2270.5,-162 2177.5,-162"/>
<text text-anchor="middle" x="2224" y="-169" font-family="Helvetica,sans-Serif" font-size="10.00">unordered_map</text>
</a>
</g>
</g>
<!-- Node1&#45;&gt;Node38 -->
<g id="edge45" class="edge">
<title>Node1&#45;&gt;Node38</title>
<path fill="none" stroke="midnightblue" d="M2123.76,-223.48C2143.22,-213.58 2175.55,-197.14 2198.21,-185.62"/>
<polygon fill="midnightblue" stroke="midnightblue" points="2199.94,-188.66 2207.27,-181.01 2196.77,-182.42 2199.94,-188.66"/>
</g>
<!-- Node39 -->
<g id="node39" class="node">
<title>Node39</title>
<g id="a_node39"><a xlink:title=" ">
<polygon fill="white" stroke="#bfbfbf" points="2288.5,-162 2288.5,-181 2335.5,-181 2335.5,-162 2288.5,-162"/>
<text text-anchor="middle" x="2312" y="-169" font-family="Helvetica,sans-Serif" font-size="10.00">vector</text>
</a>
</g>
</g>
<!-- Node1&#45;&gt;Node39 -->
<g id="edge46" class="edge">
<title>Node1&#45;&gt;Node39</title>
<path fill="none" stroke="midnightblue" d="M2147.79,-223.46C2183.22,-215.56 2235.67,-202.68 2280,-187 2281.66,-186.41 2283.35,-185.77 2285.05,-185.1"/>
<polygon fill="midnightblue" stroke="midnightblue" points="2286.79,-188.17 2294.62,-181.03 2284.04,-181.73 2286.79,-188.17"/>
</g>
<!-- Node40 -->
<g id="node40" class="node">
<title>Node40</title>
<g id="a_node40"><a xlink:title=" ">
<polygon fill="white" stroke="#bfbfbf" points="2354,-162 2354,-181 2410,-181 2410,-162 2354,-162"/>
<text text-anchor="middle" x="2382" y="-169" font-family="Helvetica,sans-Serif" font-size="10.00">optional</text>
</a>
</g>
</g>
<!-- Node1&#45;&gt;Node40 -->
<g id="edge47" class="edge">
<title>Node1&#45;&gt;Node40</title>
<path fill="none" stroke="midnightblue" d="M2151.88,-226.07C2200.17,-219.1 2278.93,-206.01 2345,-187 2347.58,-186.26 2350.24,-185.4 2352.88,-184.49"/>
<polygon fill="midnightblue" stroke="midnightblue" points="2354.1,-187.77 2362.26,-181.02 2351.67,-181.21 2354.1,-187.77"/>
</g>
<!-- Node41 -->
<g id="node41" class="node">
<title>Node41</title>
<g id="a_node41"><a xlink:title=" ">
<polygon fill="white" stroke="#bfbfbf" points="2428.5,-156.5 2428.5,-186.5 2547.5,-186.5 2547.5,-156.5 2428.5,-156.5"/>
<text text-anchor="start" x="2436.5" y="-174.5" font-family="Helvetica,sans-Serif" font-size="10.00">packages/graph/impl</text>
<text text-anchor="middle" x="2488" y="-163.5" font-family="Helvetica,sans-Serif" font-size="10.00">/Assembler_impl.hpp</text>
</a>
</g>
</g>
<!-- Node1&#45;&gt;Node41 -->
<g id="edge49" class="edge">
<title>Node1&#45;&gt;Node41</title>
<path fill="none" stroke="midnightblue" d="M2151.58,-226.48C2210.3,-219.01 2317,-204.75 2418.12,-187.08"/>
<polygon fill="midnightblue" stroke="midnightblue" points="2418.96,-190.49 2428.21,-185.31 2417.75,-183.6 2418.96,-190.49"/>
</g>
<!-- Node3 -->
<g id="node3" class="node">
<title>Node3</title>
<g id="a_node3"><a xlink:title=" ">
<polygon fill="white" stroke="#bfbfbf" points="1911,-89.5 1911,-108.5 2003,-108.5 2003,-89.5 1911,-89.5"/>
<text text-anchor="middle" x="1957" y="-96.5" font-family="Helvetica,sans-Serif" font-size="10.00">tsl/robin_map.h</text>
</a>
</g>
</g>
<!-- Node2&#45;&gt;Node3 -->
<g id="edge2" class="edge">
<title>Node2&#45;&gt;Node3</title>
<path fill="none" stroke="midnightblue" d="M2044.2,-156.4C2025.2,-144.11 1997.77,-126.37 1978.77,-114.08"/>
<polygon fill="midnightblue" stroke="midnightblue" points="1980.49,-111.03 1970.19,-108.53 1976.69,-116.9 1980.49,-111.03"/>
</g>
<!-- Node4 -->
<g id="node4" class="node">
<title>Node4</title>
<g id="a_node4"><a xlink:title=" ">
<polygon fill="white" stroke="#bfbfbf" points="2059,-89.5 2059,-108.5 2145,-108.5 2145,-89.5 2059,-89.5"/>
<text text-anchor="middle" x="2102" y="-96.5" font-family="Helvetica,sans-Serif" font-size="10.00">tsl/robin_set.h</text>
</a>
</g>
</g>
<!-- Node2&#45;&gt;Node4 -->
<g id="edge3" class="edge">
<title>Node2&#45;&gt;Node4</title>
<path fill="none" stroke="midnightblue" d="M2073.29,-156.23C2078.94,-145.17 2086.8,-129.77 2092.87,-117.88"/>
<polygon fill="midnightblue" stroke="midnightblue" points="2096.03,-119.39 2097.46,-108.89 2089.79,-116.21 2096.03,-119.39"/>
</g>
<!-- Node5 -->
<g id="node5" class="node">
<title>Node5</title>
<g id="a_node5"><a target="_parent" xlink:href="../../../cieutils/docs/html/OptionalRef_8hpp.html.html" xlink:title=" ">
<polygon fill="white" stroke="black" points="2163.5,-84 2163.5,-114 2294.5,-114 2294.5,-84 2163.5,-84"/>
<text text-anchor="start" x="2171.5" y="-102" font-family="Helvetica,sans-Serif" font-size="10.00">packages/stl_extension</text>
<text text-anchor="middle" x="2229" y="-91" font-family="Helvetica,sans-Serif" font-size="10.00">/inc/OptionalRef.hpp</text>
</a>
</g>
</g>
<!-- Node2&#45;&gt;Node5 -->
<g id="edge4" class="edge">
<title>Node2&#45;&gt;Node5</title>
<path fill="none" stroke="midnightblue" d="M2098.59,-156.4C2124.02,-145.4 2159.54,-130.04 2187.08,-118.13"/>
<polygon fill="midnightblue" stroke="midnightblue" points="2188.67,-121.26 2196.46,-114.07 2185.9,-114.83 2188.67,-121.26"/>
</g>
<!-- Node6 -->
<g id="node6" class="node">
<title>Node6</title>
<g id="a_node6"><a target="_parent" xlink:href="../../../cieutils/docs/html/NoOpIterator_8hpp.html.html" xlink:title=" ">
<polygon fill="white" stroke="black" points="2312.5,-84 2312.5,-114 2443.5,-114 2443.5,-84 2312.5,-84"/>
<text text-anchor="start" x="2320.5" y="-102" font-family="Helvetica,sans-Serif" font-size="10.00">packages/stl_extension</text>
<text text-anchor="middle" x="2378" y="-91" font-family="Helvetica,sans-Serif" font-size="10.00">/inc/NoOpIterator.hpp</text>
</a>
</g>
</g>
<!-- Node2&#45;&gt;Node6 -->
<g id="edge5" class="edge">
<title>Node2&#45;&gt;Node6</title>
<path fill="none" stroke="midnightblue" d="M2121.16,-158.88C2188.63,-144.64 2295.08,-122.15 2304,-120 2308.41,-118.94 2312.96,-117.8 2317.54,-116.63"/>
<polygon fill="midnightblue" stroke="midnightblue" points="2318.74,-119.94 2327.54,-114.03 2316.98,-113.16 2318.74,-119.94"/>
</g>
<!-- Node7 -->
<g id="node7" class="node">
<title>Node7</title>
<g id="a_node7"><a target="_parent" xlink:href="../../../cieutils/docs/html/StrongTypeDef_8hpp.html.html" xlink:title=" ">
<polygon fill="white" stroke="black" points="1965.5,-6 1965.5,-36 2096.5,-36 2096.5,-6 1965.5,-6"/>
<text text-anchor="start" x="1973.5" y="-24" font-family="Helvetica,sans-Serif" font-size="10.00">packages/stl_extension</text>
<text text-anchor="middle" x="2031" y="-13" font-family="Helvetica,sans-Serif" font-size="10.00">/inc/StrongTypeDef.hpp</text>
</a>
</g>
</g>
<!-- Node2&#45;&gt;Node7 -->
<g id="edge6" class="edge">
<title>Node2&#45;&gt;Node7</title>
<path fill="none" stroke="midnightblue" d="M2061.08,-156.48C2057.66,-146.41 2053.18,-132.48 2050,-120 2043.65,-95.06 2038.28,-66.08 2034.88,-46.14"/>
<polygon fill="midnightblue" stroke="midnightblue" points="2038.3,-45.36 2033.2,-36.07 2031.39,-46.51 2038.3,-45.36"/>
</g>
<!-- Node8 -->
<g id="node8" class="node">
<title>Node8</title>
<g id="a_node8"><a target="_parent" xlink:href="../../../cieutils/docs/html/iterator__concepts_8hpp.html.html" xlink:title=" ">
<polygon fill="white" stroke="black" points="1761,-78.5 1761,-119.5 1893,-119.5 1893,-78.5 1761,-78.5"/>
<text text-anchor="start" x="1769" y="-107.5" font-family="Helvetica,sans-Serif" font-size="10.00">packages/compile_time</text>
<text text-anchor="start" x="1769" y="-96.5" font-family="Helvetica,sans-Serif" font-size="10.00">/packages/concepts/inc</text>
<text text-anchor="middle" x="1827" y="-85.5" font-family="Helvetica,sans-Serif" font-size="10.00">/iterator_concepts.hpp</text>
</a>
</g>
</g>
<!-- Node2&#45;&gt;Node8 -->
<g id="edge7" class="edge">
<title>Node2&#45;&gt;Node8</title>
<path fill="none" stroke="midnightblue" d="M2018.5,-156.49C1985.63,-146.79 1941.18,-133.68 1903.38,-122.53"/>
<polygon fill="midnightblue" stroke="midnightblue" points="1904,-119.06 1893.42,-119.59 1902.02,-125.78 1904,-119.06"/>
</g>
<!-- Node9 -->
<g id="node9" class="node">
<title>Node9</title>
<g id="a_node9"><a xlink:title=" ">
<polygon fill="white" stroke="#bfbfbf" points="2461.5,-89.5 2461.5,-108.5 2530.5,-108.5 2530.5,-89.5 2461.5,-89.5"/>
<text text-anchor="middle" x="2496" y="-96.5" font-family="Helvetica,sans-Serif" font-size="10.00">type_traits</text>
</a>
</g>
</g>
<!-- Node2&#45;&gt;Node9 -->
<g id="edge8" class="edge">
<title>Node2&#45;&gt;Node9</title>
<path fill="none" stroke="midnightblue" d="M2121.28,-158.4C2125.91,-157.54 2130.53,-156.72 2135,-156 2275.42,-133.35 2316.07,-158.49 2453,-120 2459.09,-118.29 2465.4,-115.8 2471.25,-113.16"/>
<polygon fill="midnightblue" stroke="midnightblue" points="2473.06,-116.17 2480.54,-108.67 2470.01,-109.87 2473.06,-116.17"/>
</g>
<!-- Node2&#45;&gt;Node10 -->
<g id="edge9" class="edge">
<title>Node2&#45;&gt;Node10</title>
<path fill="none" stroke="midnightblue" d="M2121.24,-158.18C2125.88,-157.36 2130.51,-156.62 2135,-156 2373.73,-123.14 2445.72,-191 2676,-120 2680.62,-118.58 2685.27,-116.42 2689.59,-114.04"/>
<polygon fill="midnightblue" stroke="midnightblue" points="2691.66,-116.88 2698.37,-108.68 2688.01,-110.9 2691.66,-116.88"/>
</g>
<!-- Node11 -->
<g id="node11" class="node">
<title>Node11</title>
<g id="a_node11"><a xlink:title=" ">
<polygon fill="white" stroke="#bfbfbf" points="2549,-84 2549,-114 2667,-114 2667,-84 2549,-84"/>
<text text-anchor="start" x="2557" y="-102" font-family="Helvetica,sans-Serif" font-size="10.00">packages/graph/impl</text>
<text text-anchor="middle" x="2608" y="-91" font-family="Helvetica,sans-Serif" font-size="10.00">/Graph_impl.hpp</text>
</a>
</g>
</g>
<!-- Node2&#45;&gt;Node11 -->
<g id="edge10" class="edge">
<title>Node2&#45;&gt;Node11</title>
<path fill="none" stroke="midnightblue" d="M2121.26,-158.29C2125.89,-157.44 2130.52,-156.67 2135,-156 2313.74,-129.37 2362.45,-153.66 2540,-120 2544.94,-119.06 2550.03,-117.92 2555.1,-116.65"/>
<polygon fill="midnightblue" stroke="midnightblue" points="2556.01,-120.03 2564.78,-114.1 2554.22,-113.27 2556.01,-120.03"/>
</g>
<!-- Node12&#45;&gt;Node3 -->
<g id="edge12" class="edge">
<title>Node12&#45;&gt;Node3</title>
<path fill="none" stroke="midnightblue" d="M1444.01,-169.58C1538.71,-167.02 1738.15,-157.23 1902,-120 1910.52,-118.06 1919.53,-115.17 1927.73,-112.18"/>
<polygon fill="midnightblue" stroke="midnightblue" points="1929.15,-115.38 1937.25,-108.55 1926.66,-108.84 1929.15,-115.38"/>
</g>
<!-- Node12&#45;&gt;Node8 -->
<g id="edge37" class="edge">
<title>Node12&#45;&gt;Node8</title>
<path fill="none" stroke="midnightblue" d="M1444.26,-162.27C1508.97,-152.56 1619.37,-135.72 1714,-120 1725.82,-118.04 1738.33,-115.89 1750.54,-113.76"/>
<polygon fill="midnightblue" stroke="midnightblue" points="1751.47,-117.15 1760.72,-111.97 1750.26,-110.25 1751.47,-117.15"/>
</g>
<!-- Node12&#45;&gt;Node13 -->
<g id="edge13" class="edge">
<title>Node12&#45;&gt;Node13</title>
<path fill="none" stroke="midnightblue" d="M1333.61,-167.79C1201.85,-161.19 859.43,-143.11 574,-120 529.62,-116.41 479.79,-111.43 440.98,-107.34"/>
<polygon fill="midnightblue" stroke="midnightblue" points="441.16,-103.84 430.85,-106.26 440.42,-110.8 441.16,-103.84"/>
</g>
<!-- Node18 -->
<g id="node18" class="node">
<title>Node18</title>
<g id="a_node18"><a xlink:href="BoundaryID_8hpp.html" target="_top" xlink:title=" ">
<polygon fill="white" stroke="black" points="583,-84 583,-114 693,-114 693,-84 583,-84"/>
<text text-anchor="start" x="591" y="-102" font-family="Helvetica,sans-Serif" font-size="10.00">packages/graph/inc</text>
<text text-anchor="middle" x="638" y="-91" font-family="Helvetica,sans-Serif" font-size="10.00">/BoundaryID.hpp</text>
</a>
</g>
</g>
<!-- Node12&#45;&gt;Node18 -->
<g id="edge18" class="edge">
<title>Node12&#45;&gt;Node18</title>
<path fill="none" stroke="midnightblue" d="M1333.78,-165.32C1198.07,-152.58 848.72,-119.78 703.17,-106.12"/>
<polygon fill="midnightblue" stroke="midnightblue" points="703.33,-102.62 693.05,-105.17 702.68,-109.59 703.33,-102.62"/>
</g>
<!-- Node24 -->
<g id="node24" class="node">
<title>Node24</title>
<g id="a_node24"><a xlink:href="kernel_8hpp.html" target="_top" xlink:title=" ">
<polygon fill="white" stroke="black" points="968,-84 968,-114 1070,-114 1070,-84 968,-84"/>
<text text-anchor="start" x="976" y="-102" font-family="Helvetica,sans-Serif" font-size="10.00">packages/utilities</text>
<text text-anchor="middle" x="1019" y="-91" font-family="Helvetica,sans-Serif" font-size="10.00">/inc/kernel.hpp</text>
</a>
</g>
</g>
<!-- Node12&#45;&gt;Node24 -->
<g id="edge25" class="edge">
<title>Node12&#45;&gt;Node24</title>
<path fill="none" stroke="midnightblue" d="M1333.87,-164.23C1271.46,-156.51 1167.02,-141.69 1079,-120 1075.38,-119.11 1071.65,-118.1 1067.93,-117.02"/>
<polygon fill="midnightblue" stroke="midnightblue" points="1068.7,-113.6 1058.11,-114.04 1066.66,-120.29 1068.7,-113.6"/>
</g>
<!-- Node12&#45;&gt;Node33 -->
<g id="edge36" class="edge">
<title>Node12&#45;&gt;Node33</title>
<path fill="none" stroke="midnightblue" d="M1438.69,-156.49C1474.21,-146.47 1522.66,-132.81 1563.02,-121.43"/>
<polygon fill="midnightblue" stroke="midnightblue" points="1564.15,-124.75 1572.82,-118.66 1562.25,-118.01 1564.15,-124.75"/>
</g>
<!-- Node34 -->
<g id="node34" class="node">
<title>Node34</title>
<g id="a_node34"><a target="_parent" xlink:href="../../../cieutils/docs/html/DynamicArray_8hpp.html.html" xlink:title=" ">
<polygon fill="white" stroke="black" points="1088.5,-84 1088.5,-114 1219.5,-114 1219.5,-84 1088.5,-84"/>
<text text-anchor="start" x="1096.5" y="-102" font-family="Helvetica,sans-Serif" font-size="10.00">packages/stl_extension</text>
<text text-anchor="middle" x="1154" y="-91" font-family="Helvetica,sans-Serif" font-size="10.00">/inc/DynamicArray.hpp</text>
</a>
</g>
</g>
<!-- Node12&#45;&gt;Node34 -->
<g id="edge38" class="edge">
<title>Node12&#45;&gt;Node34</title>
<path fill="none" stroke="midnightblue" d="M1342.29,-156.49C1304.45,-145.14 1251,-129.1 1210.7,-117.01"/>
<polygon fill="midnightblue" stroke="midnightblue" points="1211.61,-113.63 1201.02,-114.11 1209.6,-120.33 1211.61,-113.63"/>
</g>
<!-- Node35 -->
<g id="node35" class="node">
<title>Node35</title>
<g id="a_node35"><a target="_parent" xlink:href="../../../cieutils/docs/html/Comparison_8hpp.html.html" xlink:title=" ">
<polygon fill="white" stroke="black" points="1237.5,-84 1237.5,-114 1350.5,-114 1350.5,-84 1237.5,-84"/>
<text text-anchor="start" x="1245.5" y="-102" font-family="Helvetica,sans-Serif" font-size="10.00">packages/maths/inc</text>
<text text-anchor="middle" x="1294" y="-91" font-family="Helvetica,sans-Serif" font-size="10.00">/Comparison.hpp</text>
</a>
</g>
</g>
<!-- Node12&#45;&gt;Node35 -->
<g id="edge39" class="edge">
<title>Node12&#45;&gt;Node35</title>
<path fill="none" stroke="midnightblue" d="M1369.78,-156.23C1355.78,-145.85 1336.63,-131.63 1321.08,-120.1"/>
<polygon fill="midnightblue" stroke="midnightblue" points="1322.99,-117.15 1312.87,-114 1318.82,-122.77 1322.99,-117.15"/>
</g>
<!-- Node36 -->
<g id="node36" class="node">
<title>Node36</title>
<g id="a_node36"><a xlink:title=" ">
<polygon fill="white" stroke="#bfbfbf" points="1369,-89.5 1369,-108.5 1409,-108.5 1409,-89.5 1369,-89.5"/>
<text text-anchor="middle" x="1389" y="-96.5" font-family="Helvetica,sans-Serif" font-size="10.00">span</text>
</a>
</g>
</g>
<!-- Node12&#45;&gt;Node36 -->
<g id="edge40" class="edge">
<title>Node12&#45;&gt;Node36</title>
<path fill="none" stroke="midnightblue" d="M1389,-156.23C1389,-145.5 1389,-130.69 1389,-118.96"/>
<polygon fill="midnightblue" stroke="midnightblue" points="1392.5,-118.89 1389,-108.89 1385.5,-118.89 1392.5,-118.89"/>
</g>
<!-- Node37 -->
<g id="node37" class="node">
<title>Node37</title>
<g id="a_node37"><a xlink:title=" ">
<polygon fill="white" stroke="#bfbfbf" points="1427,-84 1427,-114 1555,-114 1555,-84 1427,-84"/>
<text text-anchor="start" x="1435" y="-102" font-family="Helvetica,sans-Serif" font-size="10.00">packages/graph/impl</text>
<text text-anchor="middle" x="1491" y="-91" font-family="Helvetica,sans-Serif" font-size="10.00">/connectivity_impl.hpp</text>
</a>
</g>
</g>
<!-- Node12&#45;&gt;Node37 -->
<g id="edge41" class="edge">
<title>Node12&#45;&gt;Node37</title>
<path fill="none" stroke="midnightblue" d="M1409.64,-156.23C1424.81,-145.75 1445.61,-131.37 1462.39,-119.78"/>
<polygon fill="midnightblue" stroke="midnightblue" points="1464.5,-122.57 1470.74,-114 1460.52,-116.81 1464.5,-122.57"/>
</g>
<!-- Node14 -->
<g id="node14" class="node">
<title>Node14</title>
<g id="a_node14"><a target="_parent" xlink:href="../../../cieutils/docs/html/types_8hpp.html.html" xlink:title=" ">
<polygon fill="white" stroke="black" points="713,-6 713,-36 823,-36 823,-6 713,-6"/>
<text text-anchor="start" x="721" y="-24" font-family="Helvetica,sans-Serif" font-size="10.00">packages/types/inc</text>
<text text-anchor="middle" x="768" y="-13" font-family="Helvetica,sans-Serif" font-size="10.00">/types.hpp</text>
</a>
</g>
</g>
<!-- Node13&#45;&gt;Node14 -->
<g id="edge14" class="edge">
<title>Node13&#45;&gt;Node14</title>
<path fill="none" stroke="midnightblue" d="M430.63,-90.64C496.54,-81.55 608.45,-64.49 703,-42 707.07,-41.03 711.26,-39.95 715.46,-38.8"/>
<polygon fill="midnightblue" stroke="midnightblue" points="716.55,-42.13 725.21,-36.03 714.64,-35.39 716.55,-42.13"/>
</g>
<!-- Node15 -->
<g id="node15" class="node">
<title>Node15</title>
<g id="a_node15"><a xlink:title=" ">
<polygon fill="white" stroke="#bfbfbf" points="217.5,-11.5 217.5,-30.5 262.5,-30.5 262.5,-11.5 217.5,-11.5"/>
<text text-anchor="middle" x="240" y="-18.5" font-family="Helvetica,sans-Serif" font-size="10.00">utility</text>
</a>
</g>
</g>
<!-- Node13&#45;&gt;Node15 -->
<g id="edge15" class="edge">
<title>Node13&#45;&gt;Node15</title>
<path fill="none" stroke="midnightblue" d="M346.58,-83.81C325.65,-72.8 296.21,-56.96 271,-42 267.88,-40.15 264.61,-38.13 261.43,-36.12"/>
<polygon fill="midnightblue" stroke="midnightblue" points="263.14,-33.06 252.84,-30.59 259.35,-38.94 263.14,-33.06"/>
</g>
<!-- Node16 -->
<g id="node16" class="node">
<title>Node16</title>
<g id="a_node16"><a xlink:title=" ">
<polygon fill="white" stroke="#bfbfbf" points="0,-11.5 0,-30.5 60,-30.5 60,-11.5 0,-11.5"/>
<text text-anchor="middle" x="30" y="-18.5" font-family="Helvetica,sans-Serif" font-size="10.00">concepts</text>
</a>
</g>
</g>
<!-- Node13&#45;&gt;Node16 -->
<g id="edge16" class="edge">
<title>Node13&#45;&gt;Node16</title>
<path fill="none" stroke="midnightblue" d="M317.38,-92.61C255.18,-85.55 152.98,-70.55 69,-42 63.82,-40.24 58.47,-37.89 53.46,-35.42"/>
<polygon fill="midnightblue" stroke="midnightblue" points="54.85,-32.2 44.37,-30.65 51.6,-38.4 54.85,-32.2"/>
</g>
<!-- Node17 -->
<g id="node17" class="node">
<title>Node17</title>
<g id="a_node17"><a xlink:title=" ">
<polygon fill="white" stroke="#bfbfbf" points="78.5,-6 78.5,-36 199.5,-36 199.5,-6 78.5,-6"/>
<text text-anchor="start" x="86.5" y="-24" font-family="Helvetica,sans-Serif" font-size="10.00">packages/maths/impl</text>
<text text-anchor="middle" x="139" y="-13" font-family="Helvetica,sans-Serif" font-size="10.00">/Expression_impl.hpp</text>
</a>
</g>
</g>
<!-- Node13&#45;&gt;Node17 -->
<g id="edge17" class="edge">
<title>Node13&#45;&gt;Node17</title>
<path fill="none" stroke="midnightblue" d="M330.62,-83.97C291.58,-71.35 234.08,-52.75 192.26,-39.22"/>
<polygon fill="midnightblue" stroke="midnightblue" points="193.11,-35.82 182.52,-36.07 190.96,-42.48 193.11,-35.82"/>
</g>
<!-- Node18&#45;&gt;Node14 -->
<g id="edge21" class="edge">
<title>Node18&#45;&gt;Node14</title>
<path fill="none" stroke="midnightblue" d="M662.15,-83.88C682.76,-71.83 712.59,-54.39 735.34,-41.1"/>
<polygon fill="midnightblue" stroke="midnightblue" points="737.12,-44.11 743.98,-36.04 733.58,-38.07 737.12,-44.11"/>
</g>
<!-- Node18&#45;&gt;Node19 -->
<g id="edge19" class="edge">
<title>Node18&#45;&gt;Node19</title>
<path fill="none" stroke="midnightblue" d="M693.09,-94.54C882.93,-82.6 1498.9,-43.77 1509,-42 1514.3,-41.07 1519.77,-39.89 1525.21,-38.57"/>
<polygon fill="midnightblue" stroke="midnightblue" points="1526.1,-41.95 1534.91,-36.05 1524.35,-35.17 1526.1,-41.95"/>
</g>
<!-- Node20 -->
<g id="node20" class="node">
<title>Node20</title>
<g id="a_node20"><a target="_parent" xlink:href="../../../cieutils/docs/html/bit_8hpp.html.html" xlink:title=" ">
<polygon fill="white" stroke="black" points="581.5,-6 581.5,-36 694.5,-36 694.5,-6 581.5,-6"/>
<text text-anchor="start" x="589.5" y="-24" font-family="Helvetica,sans-Serif" font-size="10.00">packages/maths/inc</text>
<text text-anchor="middle" x="638" y="-13" font-family="Helvetica,sans-Serif" font-size="10.00">/bit.hpp</text>
</a>
</g>
</g>
<!-- Node18&#45;&gt;Node20 -->
<g id="edge20" class="edge">
<title>Node18&#45;&gt;Node20</title>
<path fill="none" stroke="midnightblue" d="M638,-83.7C638,-73.2 638,-58.66 638,-46.33"/>
<polygon fill="midnightblue" stroke="midnightblue" points="641.5,-46.23 638,-36.23 634.5,-46.23 641.5,-46.23"/>
</g>
<!-- Node21 -->
<g id="node21" class="node">
<title>Node21</title>
<g id="a_node21"><a xlink:title=" ">
<polygon fill="white" stroke="#bfbfbf" points="280.5,-11.5 280.5,-30.5 337.5,-30.5 337.5,-11.5 280.5,-11.5"/>
<text text-anchor="middle" x="309" y="-18.5" font-family="Helvetica,sans-Serif" font-size="10.00">ostream</text>
</a>
</g>
</g>
<!-- Node18&#45;&gt;Node21 -->
<g id="edge22" class="edge">
<title>Node18&#45;&gt;Node21</title>
<path fill="none" stroke="midnightblue" d="M582.86,-92.52C523.15,-85.42 425.74,-70.43 346,-42 341.18,-40.28 336.23,-38.01 331.58,-35.61"/>
<polygon fill="midnightblue" stroke="midnightblue" points="333.03,-32.41 322.59,-30.65 329.65,-38.54 333.03,-32.41"/>
</g>
<!-- Node22 -->
<g id="node22" class="node">
<title>Node22</title>
<g id="a_node22"><a xlink:title=" ">
<polygon fill="white" stroke="#bfbfbf" points="355.5,-11.5 355.5,-30.5 420.5,-30.5 420.5,-11.5 355.5,-11.5"/>
<text text-anchor="middle" x="388" y="-18.5" font-family="Helvetica,sans-Serif" font-size="10.00">functional</text>
</a>
</g>
</g>
<!-- Node18&#45;&gt;Node22 -->
<g id="edge23" class="edge">
<title>Node18&#45;&gt;Node22</title>
<path fill="none" stroke="midnightblue" d="M582.97,-86.3C540.29,-76.51 480.02,-61.08 429,-42 423.62,-39.99 418,-37.51 412.71,-35"/>
<polygon fill="midnightblue" stroke="midnightblue" points="414.17,-31.81 403.65,-30.52 411.06,-38.09 414.17,-31.81"/>
</g>
<!-- Node23 -->
<g id="node23" class="node">
<title>Node23</title>
<g id="a_node23"><a xlink:title=" ">
<polygon fill="white" stroke="#bfbfbf" points="438.5,-6 438.5,-36 563.5,-36 563.5,-6 438.5,-6"/>
<text text-anchor="start" x="446.5" y="-24" font-family="Helvetica,sans-Serif" font-size="10.00">packages/graph/impl</text>
<text text-anchor="middle" x="501" y="-13" font-family="Helvetica,sans-Serif" font-size="10.00">/BoundaryID_impl.hpp</text>
</a>
</g>
</g>
<!-- Node18&#45;&gt;Node23 -->
<g id="edge24" class="edge">
<title>Node18&#45;&gt;Node23</title>
<path fill="none" stroke="midnightblue" d="M612.55,-83.88C590.73,-71.78 559.11,-54.24 535.1,-40.92"/>
<polygon fill="midnightblue" stroke="midnightblue" points="536.75,-37.83 526.31,-36.04 533.36,-43.95 536.75,-37.83"/>
</g>
<!-- Node24&#45;&gt;Node7 -->
<g id="edge30" class="edge">
<title>Node24&#45;&gt;Node7</title>
<path fill="none" stroke="midnightblue" d="M1055.7,-83.96C1063.3,-81.57 1071.33,-79.41 1079,-78 1463.14,-7.56 1570.98,-101.32 1957,-42 1962.9,-41.09 1969,-39.89 1975.06,-38.52"/>
<polygon fill="midnightblue" stroke="midnightblue" points="1976.25,-41.84 1985.15,-36.09 1974.61,-35.03 1976.25,-41.84"/>
</g>
<!-- Node24&#45;&gt;Node14 -->
<g id="edge28" class="edge">
<title>Node24&#45;&gt;Node14</title>
<path fill="none" stroke="midnightblue" d="M971.3,-83.89C933.48,-72.66 879.31,-56.48 832,-42 828.88,-41.05 825.68,-40.06 822.45,-39.07"/>
<polygon fill="midnightblue" stroke="midnightblue" points="823.33,-35.67 812.74,-36.06 821.25,-42.36 823.33,-35.67"/>
</g>
<!-- Node25 -->
<g id="node25" class="node">
<title>Node25</title>
<g id="a_node25"><a xlink:title=" ">
<polygon fill="white" stroke="#bfbfbf" points="1423.5,-11.5 1423.5,-30.5 1500.5,-30.5 1500.5,-11.5 1423.5,-11.5"/>
<text text-anchor="middle" x="1462" y="-18.5" font-family="Helvetica,sans-Serif" font-size="10.00">Eigen/Dense</text>
</a>
</g>
</g>
<!-- Node24&#45;&gt;Node25 -->
<g id="edge26" class="edge">
<title>Node24&#45;&gt;Node25</title>
<path fill="none" stroke="midnightblue" d="M1057.07,-83.95C1064.28,-81.68 1071.81,-79.57 1079,-78 1225.32,-46.14 1268.94,-79.18 1414,-42 1421.05,-40.19 1428.42,-37.54 1435.21,-34.75"/>
<polygon fill="midnightblue" stroke="midnightblue" points="1436.86,-37.85 1444.64,-30.66 1434.07,-31.43 1436.86,-37.85"/>
</g>
<!-- Node26 -->
<g id="node26" class="node">
<title>Node26</title>
<g id="a_node26"><a target="_parent" xlink:href="../../../cieutils/docs/html/basic__concepts_8hpp.html.html" xlink:title=" ">
<polygon fill="white" stroke="black" points="1051,-0.5 1051,-41.5 1183,-41.5 1183,-0.5 1051,-0.5"/>
<text text-anchor="start" x="1059" y="-29.5" font-family="Helvetica,sans-Serif" font-size="10.00">packages/compile_time</text>
<text text-anchor="start" x="1059" y="-18.5" font-family="Helvetica,sans-Serif" font-size="10.00">/packages/concepts/inc</text>
<text text-anchor="middle" x="1117" y="-7.5" font-family="Helvetica,sans-Serif" font-size="10.00">/basic_concepts.hpp</text>
</a>
</g>
</g>
<!-- Node24&#45;&gt;Node26 -->
<g id="edge27" class="edge">
<title>Node24&#45;&gt;Node26</title>
<path fill="none" stroke="midnightblue" d="M1037.43,-83.7C1050.34,-73.69 1067.97,-60.02 1083.35,-48.09"/>
<polygon fill="midnightblue" stroke="midnightblue" points="1085.87,-50.57 1091.62,-41.68 1081.58,-45.04 1085.87,-50.57"/>
</g>
<!-- Node27 -->
<g id="node27" class="node">
<title>Node27</title>
<g id="a_node27"><a target="_parent" xlink:href="../../../cieutils/docs/html/StaticArray_8hpp.html.html" xlink:title=" ">
<polygon fill="white" stroke="black" points="1655.5,-6 1655.5,-36 1786.5,-36 1786.5,-6 1655.5,-6"/>
<text text-anchor="start" x="1663.5" y="-24" font-family="Helvetica,sans-Serif" font-size="10.00">packages/stl_extension</text>
<text text-anchor="middle" x="1721" y="-13" font-family="Helvetica,sans-Serif" font-size="10.00">/inc/StaticArray.hpp</text>
</a>
</g>
</g>
<!-- Node24&#45;&gt;Node27 -->
<g id="edge29" class="edge">
<title>Node24&#45;&gt;Node27</title>
<path fill="none" stroke="midnightblue" d="M1056.05,-84C1063.55,-81.63 1071.46,-79.47 1079,-78 1326.84,-29.67 1396.8,-82.73 1646,-42 1651.88,-41.04 1657.96,-39.81 1664.01,-38.44"/>
<polygon fill="midnightblue" stroke="midnightblue" points="1665.19,-41.76 1674.1,-36.02 1663.56,-34.95 1665.19,-41.76"/>
</g>
<!-- Node28 -->
<g id="node28" class="node">
<title>Node28</title>
<g id="a_node28"><a target="_parent" xlink:href="../../../linalg/docs/html/StaticEigenMatrix_8hpp.html.html" xlink:title=" ">
<polygon fill="white" stroke="black" points="1278.5,-6 1278.5,-36 1405.5,-36 1405.5,-6 1278.5,-6"/>
<text text-anchor="start" x="1286.5" y="-24" font-family="Helvetica,sans-Serif" font-size="10.00">packages/matrix/inc</text>
<text text-anchor="middle" x="1342" y="-13" font-family="Helvetica,sans-Serif" font-size="10.00">/StaticEigenMatrix.hpp</text>
</a>
</g>
</g>
<!-- Node24&#45;&gt;Node28 -->
<g id="edge31" class="edge">
<title>Node24&#45;&gt;Node28</title>
<path fill="none" stroke="midnightblue" d="M1058.8,-83.9C1065.5,-81.77 1072.41,-79.71 1079,-78 1162.18,-56.36 1185.26,-61.37 1269,-42 1273.44,-40.97 1278.02,-39.86 1282.61,-38.69"/>
<polygon fill="midnightblue" stroke="midnightblue" points="1283.86,-41.99 1292.66,-36.09 1282.1,-35.21 1283.86,-41.99"/>
</g>
<!-- Node29 -->
<g id="node29" class="node">
<title>Node29</title>
<g id="a_node29"><a target="_parent" xlink:href="../../../linalg/docs/html/DynamicEigenMatrix_8hpp.html.html" xlink:title=" ">
<polygon fill="white" stroke="black" points="1804.5,-6 1804.5,-36 1947.5,-36 1947.5,-6 1804.5,-6"/>
<text text-anchor="start" x="1812.5" y="-24" font-family="Helvetica,sans-Serif" font-size="10.00">packages/matrix/inc</text>
<text text-anchor="middle" x="1876" y="-13" font-family="Helvetica,sans-Serif" font-size="10.00">/DynamicEigenMatrix.hpp</text>
</a>
</g>
</g>
<!-- Node24&#45;&gt;Node29 -->
<g id="edge32" class="edge">
<title>Node24&#45;&gt;Node29</title>
<path fill="none" stroke="midnightblue" d="M1056.03,-83.92C1063.54,-81.56 1071.45,-79.42 1079,-78 1392.13,-19.08 1479.77,-88.4 1795,-42 1801.64,-41.02 1808.54,-39.74 1815.37,-38.3"/>
<polygon fill="midnightblue" stroke="midnightblue" points="1816.31,-41.68 1825.31,-36.09 1814.79,-34.85 1816.31,-41.68"/>
</g>
<!-- Node30 -->
<g id="node30" class="node">
<title>Node30</title>
<g id="a_node30"><a target="_parent" xlink:href="../../../linalg/docs/html/SparseEigenMatrix_8hpp.html.html" xlink:title=" ">
<polygon fill="white" stroke="black" points="841,-6 841,-36 973,-36 973,-6 841,-6"/>
<text text-anchor="start" x="849" y="-24" font-family="Helvetica,sans-Serif" font-size="10.00">packages/matrix/inc</text>
<text text-anchor="middle" x="907" y="-13" font-family="Helvetica,sans-Serif" font-size="10.00">/SparseEigenMatrix.hpp</text>
</a>
</g>
</g>
<!-- Node24&#45;&gt;Node30 -->
<g id="edge33" class="edge">
<title>Node24&#45;&gt;Node30</title>
<path fill="none" stroke="midnightblue" d="M998.2,-83.88C980.75,-72.05 955.64,-55.01 936.19,-41.8"/>
<polygon fill="midnightblue" stroke="midnightblue" points="937.93,-38.76 927.69,-36.04 934,-44.55 937.93,-38.76"/>
</g>
<!-- Node31 -->
<g id="node31" class="node">
<title>Node31</title>
<g id="a_node31"><a xlink:title=" ">
<polygon fill="white" stroke="#bfbfbf" points="991,-11.5 991,-30.5 1033,-30.5 1033,-11.5 991,-11.5"/>
<text text-anchor="middle" x="1012" y="-18.5" font-family="Helvetica,sans-Serif" font-size="10.00">array</text>
</a>
</g>
</g>
<!-- Node24&#45;&gt;Node31 -->
<g id="edge34" class="edge">
<title>Node24&#45;&gt;Node31</title>
<path fill="none" stroke="midnightblue" d="M1017.68,-83.7C1016.57,-71.6 1014.96,-54.15 1013.74,-40.89"/>
<polygon fill="midnightblue" stroke="midnightblue" points="1017.19,-40.2 1012.79,-30.56 1010.22,-40.84 1017.19,-40.2"/>
</g>
<!-- Node32 -->
<g id="node32" class="node">
<title>Node32</title>
<g id="a_node32"><a xlink:title=" ">
<polygon fill="white" stroke="#bfbfbf" points="1201.5,-11.5 1201.5,-30.5 1260.5,-30.5 1260.5,-11.5 1201.5,-11.5"/>
<text text-anchor="middle" x="1231" y="-18.5" font-family="Helvetica,sans-Serif" font-size="10.00">complex</text>
</a>
</g>
</g>
<!-- Node24&#45;&gt;Node32 -->
<g id="edge35" class="edge">
<title>Node24&#45;&gt;Node32</title>
<path fill="none" stroke="midnightblue" d="M1060.94,-83.94C1066.99,-81.93 1073.15,-79.91 1079,-78 1129.11,-61.67 1143.27,-62.09 1192,-42 1196.76,-40.04 1201.73,-37.71 1206.47,-35.36"/>
<polygon fill="midnightblue" stroke="midnightblue" points="1208.44,-38.28 1215.72,-30.58 1205.22,-32.06 1208.44,-38.28"/>
</g>
</g>
</svg>
