<?xml version="1.0" encoding="UTF-8" standalone="no"?>
<!DOCTYPE svg PUBLIC "-//W3C//DTD SVG 1.1//EN"
 "http://www.w3.org/Graphics/SVG/1.1/DTD/svg11.dtd">
<!-- Generated by graphviz version 2.43.0 (0)
 -->
<!-- Title: AssemblyMap.hpp Pages: 1 -->
<svg width="791pt" height="106pt"
 viewBox="0.00 0.00 791.00 106.00" xmlns="http://www.w3.org/2000/svg" xmlns:xlink="http://www.w3.org/1999/xlink">
<g id="graph0" class="graph" transform="scale(1 1) rotate(0) translate(4 102)">
<title>AssemblyMap.hpp</title>
<polygon fill="white" stroke="transparent" points="-4,4 -4,-102 787,-102 787,4 -4,4"/>
<!-- Node1 -->
<g id="node1" class="node">
<title>Node1</title>
<g id="a_node1"><a xlink:title=" ">
<polygon fill="#bfbfbf" stroke="black" points="372,-78.5 372,-97.5 479,-97.5 479,-78.5 372,-78.5"/>
<text text-anchor="middle" x="425.5" y="-85.5" font-family="Helvetica,sans-Serif" font-size="10.00">AssemblyMap.hpp</text>
</a>
</g>
</g>
<!-- Node2 -->
<g id="node2" class="node">
<title>Node2</title>
<g id="a_node2"><a target="_parent" xlink:href="../../../cieutils/docs/html/StaticArray_8hpp.html.html" xlink:title=" ">
<polygon fill="white" stroke="black" points="0,-6 0,-36 131,-36 131,-6 0,-6"/>
<text text-anchor="start" x="8" y="-24" font-family="Helvetica,sans-Serif" font-size="10.00">packages/stl_extension</text>
<text text-anchor="middle" x="65.5" y="-13" font-family="Helvetica,sans-Serif" font-size="10.00">/inc/StaticArray.hpp</text>
</a>
</g>
</g>
<!-- Node1&#45;&gt;Node2 -->
<g id="edge1" class="edge">
<title>Node1&#45;&gt;Node2</title>
<path fill="none" stroke="midnightblue" d="M371.88,-80.23C314.37,-72.57 220.5,-58.94 140.5,-42 135.52,-40.95 130.37,-39.77 125.22,-38.52"/>
<polygon fill="midnightblue" stroke="midnightblue" points="125.9,-35.09 115.35,-36.07 124.21,-41.88 125.9,-35.09"/>
</g>
<!-- Node3 -->
<g id="node3" class="node">
<title>Node3</title>
<g id="a_node3"><a target="_parent" xlink:href="../../../cieutils/docs/html/iterator__concepts_8hpp.html.html" xlink:title=" ">
<polygon fill="white" stroke="black" points="149.5,-0.5 149.5,-41.5 281.5,-41.5 281.5,-0.5 149.5,-0.5"/>
<text text-anchor="start" x="157.5" y="-29.5" font-family="Helvetica,sans-Serif" font-size="10.00">packages/compile_time</text>
<text text-anchor="start" x="157.5" y="-18.5" font-family="Helvetica,sans-Serif" font-size="10.00">/packages/concepts/inc</text>
<text text-anchor="middle" x="215.5" y="-7.5" font-family="Helvetica,sans-Serif" font-size="10.00">/iterator_concepts.hpp</text>
</a>
</g>
</g>
<!-- Node1&#45;&gt;Node3 -->
<g id="edge2" class="edge">
<title>Node1&#45;&gt;Node3</title>
<path fill="none" stroke="midnightblue" d="M397.61,-78.37C369.96,-69.81 326.4,-56.33 288.82,-44.69"/>
<polygon fill="midnightblue" stroke="midnightblue" points="289.49,-41.24 278.91,-41.63 287.42,-47.93 289.49,-41.24"/>
</g>
<!-- Node4 -->
<g id="node4" class="node">
<title>Node4</title>
<g id="a_node4"><a target="_parent" xlink:href="../../../cieutils/docs/html/typedefs_8hpp.html.html" xlink:title=" ">
<polygon fill="white" stroke="black" points="300,-6 300,-36 419,-36 419,-6 300,-6"/>
<text text-anchor="start" x="308" y="-24" font-family="Helvetica,sans-Serif" font-size="10.00">packages/macros/inc</text>
<text text-anchor="middle" x="359.5" y="-13" font-family="Helvetica,sans-Serif" font-size="10.00">/typedefs.hpp</text>
</a>
</g>
</g>
<!-- Node1&#45;&gt;Node4 -->
<g id="edge3" class="edge">
<title>Node1&#45;&gt;Node4</title>
<path fill="none" stroke="midnightblue" d="M416.6,-78.23C407.51,-69.28 393.05,-55.04 380.96,-43.13"/>
<polygon fill="midnightblue" stroke="midnightblue" points="383.39,-40.61 373.81,-36.09 378.47,-45.6 383.39,-40.61"/>
</g>
<!-- Node5 -->
<g id="node5" class="node">
<title>Node5</title>
<g id="a_node5"><a target="_parent" xlink:href="../../../cieutils/docs/html/types_8hpp.html.html" xlink:title=" ">
<polygon fill="white" stroke="black" points="437.5,-6 437.5,-36 547.5,-36 547.5,-6 437.5,-6"/>
<text text-anchor="start" x="445.5" y="-24" font-family="Helvetica,sans-Serif" font-size="10.00">packages/types/inc</text>
<text text-anchor="middle" x="492.5" y="-13" font-family="Helvetica,sans-Serif" font-size="10.00">/types.hpp</text>
</a>
</g>
</g>
<!-- Node1&#45;&gt;Node5 -->
<g id="edge4" class="edge">
<title>Node1&#45;&gt;Node5</title>
<path fill="none" stroke="midnightblue" d="M434.54,-78.23C443.76,-69.28 458.44,-55.04 470.72,-43.13"/>
<polygon fill="midnightblue" stroke="midnightblue" points="473.24,-45.56 477.98,-36.09 468.36,-40.54 473.24,-45.56"/>
</g>
<!-- Node6 -->
<g id="node6" class="node">
<title>Node6</title>
<g id="a_node6"><a xlink:title=" ">
<polygon fill="white" stroke="#bfbfbf" points="565.5,-11.5 565.5,-30.5 603.5,-30.5 603.5,-11.5 565.5,-11.5"/>
<text text-anchor="middle" x="584.5" y="-18.5" font-family="Helvetica,sans-Serif" font-size="10.00">map</text>
</a>
</g>
</g>
<!-- Node1&#45;&gt;Node6 -->
<g id="edge5" class="edge">
<title>Node1&#45;&gt;Node6</title>
<path fill="none" stroke="midnightblue" d="M458.88,-78.43C486.02,-70.79 524.86,-58.29 556.5,-42 559.58,-40.41 562.7,-38.52 565.69,-36.54"/>
<polygon fill="midnightblue" stroke="midnightblue" points="567.96,-39.22 574.06,-30.56 563.89,-33.52 567.96,-39.22"/>
</g>
<!-- Node7 -->
<g id="node7" class="node">
<title>Node7</title>
<g id="a_node7"><a xlink:title=" ">
<polygon fill="white" stroke="#bfbfbf" points="622,-6 622,-36 783,-36 783,-6 622,-6"/>
<text text-anchor="start" x="630" y="-24" font-family="Helvetica,sans-Serif" font-size="10.00">packages/utilities</text>
<text text-anchor="middle" x="702.5" y="-13" font-family="Helvetica,sans-Serif" font-size="10.00">/impl/AssemblyMap_impl.hpp</text>
</a>
</g>
</g>
<!-- Node1&#45;&gt;Node7 -->
<g id="edge6" class="edge">
<title>Node1&#45;&gt;Node7</title>
<path fill="none" stroke="midnightblue" d="M462,-78.44C505.29,-68.28 578.41,-51.12 632.68,-38.38"/>
<polygon fill="midnightblue" stroke="midnightblue" points="633.65,-41.75 642.59,-36.06 632.05,-34.94 633.65,-41.75"/>
</g>
</g>
</svg>
