<?xml version="1.0" encoding="UTF-8" standalone="no"?>
<!DOCTYPE svg PUBLIC "-//W3C//DTD SVG 1.1//EN"
 "http://www.w3.org/Graphics/SVG/1.1/DTD/svg11.dtd">
<!-- Generated by graphviz version 2.43.0 (0)
 -->
<!-- Title: AttributeContainer.hpp Pages: 1 -->
<svg width="414pt" height="106pt"
 viewBox="0.00 0.00 413.50 106.00" xmlns="http://www.w3.org/2000/svg" xmlns:xlink="http://www.w3.org/1999/xlink">
<g id="graph0" class="graph" transform="scale(1 1) rotate(0) translate(4 102)">
<title>AttributeContainer.hpp</title>
<polygon fill="white" stroke="transparent" points="-4,4 -4,-102 409.5,-102 409.5,4 -4,4"/>
<!-- Node1 -->
<g id="node1" class="node">
<title>Node1</title>
<g id="a_node1"><a xlink:title=" ">
<polygon fill="#bfbfbf" stroke="black" points="136,-78.5 136,-97.5 263,-97.5 263,-78.5 136,-78.5"/>
<text text-anchor="middle" x="199.5" y="-85.5" font-family="Helvetica,sans-Serif" font-size="10.00">AttributeContainer.hpp</text>
</a>
</g>
</g>
<!-- Node2 -->
<g id="node2" class="node">
<title>Node2</title>
<g id="a_node2"><a target="_parent" xlink:href="../../../cieutils/docs/html/DynamicArray_8hpp.html.html" xlink:title=" ">
<polygon fill="white" stroke="black" points="0,-6 0,-36 131,-36 131,-6 0,-6"/>
<text text-anchor="start" x="8" y="-24" font-family="Helvetica,sans-Serif" font-size="10.00">packages/stl_extension</text>
<text text-anchor="middle" x="65.5" y="-13" font-family="Helvetica,sans-Serif" font-size="10.00">/inc/DynamicArray.hpp</text>
</a>
</g>
</g>
<!-- Node1&#45;&gt;Node2 -->
<g id="edge1" class="edge">
<title>Node1&#45;&gt;Node2</title>
<path fill="none" stroke="midnightblue" d="M181.71,-78.37C161.86,-68.74 129.18,-52.89 103.52,-40.44"/>
<polygon fill="midnightblue" stroke="midnightblue" points="104.94,-37.24 94.42,-36.03 101.89,-43.54 104.94,-37.24"/>
</g>
<!-- Node3 -->
<g id="node3" class="node">
<title>Node3</title>
<g id="a_node3"><a xlink:title=" ">
<polygon fill="white" stroke="#bfbfbf" points="149,-11.5 149,-30.5 190,-30.5 190,-11.5 149,-11.5"/>
<text text-anchor="middle" x="169.5" y="-18.5" font-family="Helvetica,sans-Serif" font-size="10.00">tuple</text>
</a>
</g>
</g>
<!-- Node1&#45;&gt;Node3 -->
<g id="edge2" class="edge">
<title>Node1&#45;&gt;Node3</title>
<path fill="none" stroke="midnightblue" d="M195.45,-78.23C190.96,-68.49 183.57,-52.48 177.82,-40.03"/>
<polygon fill="midnightblue" stroke="midnightblue" points="180.85,-38.24 173.48,-30.63 174.49,-41.17 180.85,-38.24"/>
</g>
<!-- Node4 -->
<g id="node4" class="node">
<title>Node4</title>
<g id="a_node4"><a xlink:title=" ">
<polygon fill="white" stroke="#bfbfbf" points="208,-11.5 208,-30.5 253,-30.5 253,-11.5 208,-11.5"/>
<text text-anchor="middle" x="230.5" y="-18.5" font-family="Helvetica,sans-Serif" font-size="10.00">utility</text>
</a>
</g>
</g>
<!-- Node1&#45;&gt;Node4 -->
<g id="edge3" class="edge">
<title>Node1&#45;&gt;Node4</title>
<path fill="none" stroke="midnightblue" d="M203.68,-78.23C208.38,-68.39 216.12,-52.16 222.08,-39.66"/>
<polygon fill="midnightblue" stroke="midnightblue" points="225.24,-41.16 226.39,-30.63 218.92,-38.15 225.24,-41.16"/>
</g>
<!-- Node5 -->
<g id="node5" class="node">
<title>Node5</title>
<g id="a_node5"><a xlink:title=" ">
<polygon fill="white" stroke="#bfbfbf" points="271.5,-0.5 271.5,-41.5 405.5,-41.5 405.5,-0.5 271.5,-0.5"/>
<text text-anchor="start" x="279.5" y="-29.5" font-family="Helvetica,sans-Serif" font-size="10.00">packages/utilities</text>
<text text-anchor="start" x="279.5" y="-18.5" font-family="Helvetica,sans-Serif" font-size="10.00">/impl/AttributeContainer</text>
<text text-anchor="middle" x="338.5" y="-7.5" font-family="Helvetica,sans-Serif" font-size="10.00">_impl.hpp</text>
</a>
</g>
</g>
<!-- Node1&#45;&gt;Node5 -->
<g id="edge4" class="edge">
<title>Node1&#45;&gt;Node5</title>
<path fill="none" stroke="midnightblue" d="M217.96,-78.37C235.64,-70.1 263.14,-57.24 287.41,-45.89"/>
<polygon fill="midnightblue" stroke="midnightblue" points="288.96,-49.03 296.53,-41.63 285.99,-42.69 288.96,-49.03"/>
</g>
</g>
</svg>
