<?xml version="1.0" encoding="UTF-8" standalone="no"?>
<!DOCTYPE svg PUBLIC "-//W3C//DTD SVG 1.1//EN"
 "http://www.w3.org/Graphics/SVG/1.1/DTD/svg11.dtd">
<!-- Generated by graphviz version 2.43.0 (0)
 -->
<!-- Title: CartesianProduct.hpp Pages: 1 -->
<svg width="441pt" height="173pt"
 viewBox="0.00 0.00 440.50 173.00" xmlns="http://www.w3.org/2000/svg" xmlns:xlink="http://www.w3.org/1999/xlink">
<g id="graph0" class="graph" transform="scale(1 1) rotate(0) translate(4 169)">
<title>CartesianProduct.hpp</title>
<polygon fill="white" stroke="transparent" points="-4,4 -4,-169 436.5,-169 436.5,4 -4,4"/>
<!-- Node1 -->
<g id="node1" class="node">
<title>Node1</title>
<g id="a_node1"><a xlink:title=" ">
<polygon fill="#bfbfbf" stroke="black" points="146.5,-145.5 146.5,-164.5 267.5,-164.5 267.5,-145.5 146.5,-145.5"/>
<text text-anchor="middle" x="207" y="-152.5" font-family="Helvetica,sans-Serif" font-size="10.00">CartesianProduct.hpp</text>
</a>
</g>
</g>
<!-- Node2 -->
<g id="node2" class="node">
<title>Node2</title>
<g id="a_node2"><a target="_parent" xlink:href="../../../cieutils/docs/html/basic__concepts_8hpp.html.html" xlink:title=" ">
<polygon fill="white" stroke="black" points="0,-67.5 0,-108.5 132,-108.5 132,-67.5 0,-67.5"/>
<text text-anchor="start" x="8" y="-96.5" font-family="Helvetica,sans-Serif" font-size="10.00">packages/compile_time</text>
<text text-anchor="start" x="8" y="-85.5" font-family="Helvetica,sans-Serif" font-size="10.00">/packages/concepts/inc</text>
<text text-anchor="middle" x="66" y="-74.5" font-family="Helvetica,sans-Serif" font-size="10.00">/basic_concepts.hpp</text>
</a>
</g>
</g>
<!-- Node1&#45;&gt;Node2 -->
<g id="edge1" class="edge">
<title>Node1&#45;&gt;Node2</title>
<path fill="none" stroke="midnightblue" d="M188.28,-145.37C170.34,-137.1 142.44,-124.24 117.82,-112.89"/>
<polygon fill="midnightblue" stroke="midnightblue" points="119.12,-109.63 108.57,-108.63 116.19,-115.99 119.12,-109.63"/>
</g>
<!-- Node3 -->
<g id="node3" class="node">
<title>Node3</title>
<g id="a_node3"><a xlink:href="Expression_8hpp.html" target="_top" xlink:title=" ">
<polygon fill="white" stroke="black" points="150.5,-73 150.5,-103 263.5,-103 263.5,-73 150.5,-73"/>
<text text-anchor="start" x="158.5" y="-91" font-family="Helvetica,sans-Serif" font-size="10.00">packages/maths/inc</text>
<text text-anchor="middle" x="207" y="-80" font-family="Helvetica,sans-Serif" font-size="10.00">/Expression.hpp</text>
</a>
</g>
</g>
<!-- Node1&#45;&gt;Node3 -->
<g id="edge2" class="edge">
<title>Node1&#45;&gt;Node3</title>
<path fill="none" stroke="midnightblue" d="M207,-145.23C207,-137.04 207,-124.42 207,-113.21"/>
<polygon fill="midnightblue" stroke="midnightblue" points="210.5,-113.09 207,-103.09 203.5,-113.09 210.5,-113.09"/>
</g>
<!-- Node8 -->
<g id="node8" class="node">
<title>Node8</title>
<g id="a_node8"><a xlink:title=" ">
<polygon fill="white" stroke="#bfbfbf" points="281.5,-73 281.5,-103 432.5,-103 432.5,-73 281.5,-73"/>
<text text-anchor="start" x="289.5" y="-91" font-family="Helvetica,sans-Serif" font-size="10.00">packages/maths/impl</text>
<text text-anchor="middle" x="357" y="-80" font-family="Helvetica,sans-Serif" font-size="10.00">/CartesianProduct_impl.hpp</text>
</a>
</g>
</g>
<!-- Node1&#45;&gt;Node8 -->
<g id="edge7" class="edge">
<title>Node1&#45;&gt;Node8</title>
<path fill="none" stroke="midnightblue" d="M226.92,-145.37C249.33,-135.66 286.36,-119.61 315.2,-107.11"/>
<polygon fill="midnightblue" stroke="midnightblue" points="316.84,-110.22 324.63,-103.03 314.06,-103.79 316.84,-110.22"/>
</g>
<!-- Node4 -->
<g id="node4" class="node">
<title>Node4</title>
<g id="a_node4"><a target="_parent" xlink:href="../../../cieutils/docs/html/types_8hpp.html.html" xlink:title=" ">
<polygon fill="white" stroke="black" points="20,-0.5 20,-30.5 130,-30.5 130,-0.5 20,-0.5"/>
<text text-anchor="start" x="28" y="-18.5" font-family="Helvetica,sans-Serif" font-size="10.00">packages/types/inc</text>
<text text-anchor="middle" x="75" y="-7.5" font-family="Helvetica,sans-Serif" font-size="10.00">/types.hpp</text>
</a>
</g>
</g>
<!-- Node3&#45;&gt;Node4 -->
<g id="edge3" class="edge">
<title>Node3&#45;&gt;Node4</title>
<path fill="none" stroke="midnightblue" d="M180.61,-72.9C160.46,-62.14 132.5,-47.21 110.42,-35.42"/>
<polygon fill="midnightblue" stroke="midnightblue" points="111.82,-32.2 101.35,-30.57 108.52,-38.37 111.82,-32.2"/>
</g>
<!-- Node5 -->
<g id="node5" class="node">
<title>Node5</title>
<g id="a_node5"><a xlink:title=" ">
<polygon fill="white" stroke="#bfbfbf" points="148.5,-6 148.5,-25 193.5,-25 193.5,-6 148.5,-6"/>
<text text-anchor="middle" x="171" y="-13" font-family="Helvetica,sans-Serif" font-size="10.00">utility</text>
</a>
</g>
</g>
<!-- Node3&#45;&gt;Node5 -->
<g id="edge4" class="edge">
<title>Node3&#45;&gt;Node5</title>
<path fill="none" stroke="midnightblue" d="M199.71,-72.73C194.06,-61.67 186.2,-46.27 180.13,-34.38"/>
<polygon fill="midnightblue" stroke="midnightblue" points="183.21,-32.71 175.54,-25.39 176.97,-35.89 183.21,-32.71"/>
</g>
<!-- Node6 -->
<g id="node6" class="node">
<title>Node6</title>
<g id="a_node6"><a xlink:title=" ">
<polygon fill="white" stroke="#bfbfbf" points="212,-6 212,-25 272,-25 272,-6 212,-6"/>
<text text-anchor="middle" x="242" y="-13" font-family="Helvetica,sans-Serif" font-size="10.00">concepts</text>
</a>
</g>
</g>
<!-- Node3&#45;&gt;Node6 -->
<g id="edge5" class="edge">
<title>Node3&#45;&gt;Node6</title>
<path fill="none" stroke="midnightblue" d="M214.08,-72.73C219.58,-61.67 227.22,-46.27 233.12,-34.38"/>
<polygon fill="midnightblue" stroke="midnightblue" points="236.27,-35.91 237.58,-25.39 230,-32.79 236.27,-35.91"/>
</g>
<!-- Node7 -->
<g id="node7" class="node">
<title>Node7</title>
<g id="a_node7"><a xlink:title=" ">
<polygon fill="white" stroke="#bfbfbf" points="290.5,-0.5 290.5,-30.5 411.5,-30.5 411.5,-0.5 290.5,-0.5"/>
<text text-anchor="start" x="298.5" y="-18.5" font-family="Helvetica,sans-Serif" font-size="10.00">packages/maths/impl</text>
<text text-anchor="middle" x="351" y="-7.5" font-family="Helvetica,sans-Serif" font-size="10.00">/Expression_impl.hpp</text>
</a>
</g>
</g>
<!-- Node3&#45;&gt;Node7 -->
<g id="edge6" class="edge">
<title>Node3&#45;&gt;Node7</title>
<path fill="none" stroke="midnightblue" d="M235.79,-72.9C257.97,-62.05 288.81,-46.95 313.01,-35.1"/>
<polygon fill="midnightblue" stroke="midnightblue" points="314.81,-38.11 322.26,-30.57 311.74,-31.83 314.81,-38.11"/>
</g>
</g>
</svg>
