<?xml version="1.0" encoding="UTF-8" standalone="no"?>
<!DOCTYPE svg PUBLIC "-//W3C//DTD SVG 1.1//EN"
 "http://www.w3.org/Graphics/SVG/1.1/DTD/svg11.dtd">
<!-- Generated by graphviz version 2.43.0 (0)
 -->
<!-- Title: fem.discretization.basisfunctions.PolynomialBasisFunctions Pages: 1 -->
<!--zoomable 397 -->
<svg id="main" version="1.1" xmlns="http://www.w3.org/2000/svg" xmlns:xlink="http://www.w3.org/1999/xlink" xml:space="preserve" onload="init(evt)">
<style type="text/css"><![CDATA[
.edge:hover path { stroke: red; }
.edge:hover polygon { stroke: red; fill: red; }
]]></style>
<script type="text/javascript"><![CDATA[
var edges = document.getElementsByTagName('g');
if (edges && edges.length) {
  for (var i=0;i<edges.length;i++) {
    if (edges[i].id.substr(0,4)=='edge') {
      edges[i].setAttribute('class','edge');
    }
  }
}
]]></script>
        <defs>
                <circle id="rim" cx="0" cy="0" r="7"/>
                <circle id="rim2" cx="0" cy="0" r="3.5"/>
                <g id="zoomPlus">
                        <use xlink:href="#rim" fill="#404040">
                                <set attributeName="fill" to="#808080" begin="zoomplus.mouseover" end="zoomplus.mouseout"/>
                        </use>
                        <path d="M-4,0h8M0,-4v8" fill="none" stroke="white" stroke-width="1.5" pointer-events="none"/>
                </g>
                <g id="zoomMin">
                        <use xlink:href="#rim" fill="#404040">
                                <set attributeName="fill" to="#808080" begin="zoomminus.mouseover" end="zoomminus.mouseout"/>
                        </use>
                        <path d="M-4,0h8" fill="none" stroke="white" stroke-width="1.5" pointer-events="none"/>
                </g>
                <g id="dirArrow">
                        <path fill="none" stroke="white" stroke-width="1.5" d="M0,-3.0v7 M-2.5,-0.5L0,-3.0L2.5,-0.5"/>
                </g>
               <g id="resetDef">
                       <use xlink:href="#rim2" fill="#404040">
                               <set attributeName="fill" to="#808080" begin="reset.mouseover" end="reset.mouseout"/>
                       </use>
               </g>
        </defs>

<script type="text/javascript">
var viewWidth = 598;
var viewHeight = 397;
var sectionId = 'dynsection-0';
</script>
<script xlink:href="svgpan.js"/>
<svg id="graph" class="graph">
<g id="viewport">
<title>fem.discretization.basisfunctions.PolynomialBasisFunctions</title>
<polygon fill="white" stroke="transparent" points="-4,4 -4,-393 594,-393 594,4 -4,4"/>
<!-- Node1 -->
<g id="node1" class="node">
<title>Node1</title>
<g id="a_node1"><a xlink:title="1D polynomial basis function abstract base class">
<polygon fill="#bfbfbf" stroke="black" points="204,-116.5 204,-184.5 386,-184.5 386,-116.5 204,-116.5"/>
<text text-anchor="start" x="212" y="-172.5" font-family="Helvetica,sans-Serif" font-size="10.00">fem.discretization.basisfunctions.</text>
<text text-anchor="middle" x="295" y="-161.5" font-family="Helvetica,sans-Serif" font-size="10.00">PolynomialBasisFunctions</text>
<polyline fill="none" stroke="black" points="204,-154.5 386,-154.5 "/>
<text text-anchor="start" x="212" y="-142.5" font-family="Helvetica,sans-Serif" font-size="10.00">+ polynomialOrder</text>
<polyline fill="none" stroke="black" points="204,-135.5 386,-135.5 "/>
<text text-anchor="start" x="212" y="-123.5" font-family="Helvetica,sans-Serif" font-size="10.00">+ __init__()</text>
</a>
</g>
</g>
<!-- Node3 -->
<g id="node3" class="node">
<title>Node3</title>
<g id="a_node3"><a xlink:href="classfem_1_1discretization_1_1basisfunctions_1_1HierarchicBasisFunctions.html" target="_top" xlink:title="Legendre polynomials with the constant function replaced by a linear one (using the numpy implementat...">
<polygon fill="white" stroke="black" points="0,-0.5 0,-79.5 182,-79.5 182,-0.5 0,-0.5"/>
<text text-anchor="start" x="8" y="-67.5" font-family="Helvetica,sans-Serif" font-size="10.00">fem.discretization.basisfunctions.</text>
<text text-anchor="middle" x="91" y="-56.5" font-family="Helvetica,sans-Serif" font-size="10.00">HierarchicBasisFunctions</text>
<polyline fill="none" stroke="black" points="0,-49.5 182,-49.5 "/>
<text text-anchor="start" x="8" y="-37.5" font-family="Helvetica,sans-Serif" font-size="10.00">+ polynomialOrder</text>
<polyline fill="none" stroke="black" points="0,-30.5 182,-30.5 "/>
<text text-anchor="start" x="8" y="-18.5" font-family="Helvetica,sans-Serif" font-size="10.00">+ __init__()</text>
<text text-anchor="start" x="8" y="-7.5" font-family="Helvetica,sans-Serif" font-size="10.00">+ derivatives()</text>
</a>
</g>
</g>
<!-- Node1&#45;&gt;Node3 -->
<g id="edge2" class="edge">
<title>Node1&#45;&gt;Node3</title>
<path fill="none" stroke="midnightblue" d="M223.6,-111.52C204.19,-101.2 183.15,-90.01 163.67,-79.65"/>
<polygon fill="none" stroke="midnightblue" points="222.21,-114.75 232.68,-116.36 225.5,-108.57 222.21,-114.75"/>
</g>
<!-- Node4 -->
<g id="node4" class="node">
<title>Node4</title>
<g id="a_node4"><a xlink:href="classfem_1_1discretization_1_1basisfunctions_1_1IntegratedHierarchicBasisFunctions.html" target="_top" xlink:title="Hierarchic basis functions as proposed by Szabó &amp; Babuska For easier assembly, the first and last fun...">
<polygon fill="white" stroke="black" points="200.5,-0.5 200.5,-79.5 389.5,-79.5 389.5,-0.5 200.5,-0.5"/>
<text text-anchor="start" x="208.5" y="-67.5" font-family="Helvetica,sans-Serif" font-size="10.00">fem.discretization.basisfunctions.</text>
<text text-anchor="middle" x="295" y="-56.5" font-family="Helvetica,sans-Serif" font-size="10.00">IntegratedHierarchicBasisFunctions</text>
<polyline fill="none" stroke="black" points="200.5,-49.5 389.5,-49.5 "/>
<text text-anchor="start" x="208.5" y="-37.5" font-family="Helvetica,sans-Serif" font-size="10.00">+ polynomialOrder</text>
<polyline fill="none" stroke="black" points="200.5,-30.5 389.5,-30.5 "/>
<text text-anchor="start" x="208.5" y="-18.5" font-family="Helvetica,sans-Serif" font-size="10.00">+ __init__()</text>
<text text-anchor="start" x="208.5" y="-7.5" font-family="Helvetica,sans-Serif" font-size="10.00">+ derivatives()</text>
</a>
</g>
</g>
<!-- Node1&#45;&gt;Node4 -->
<g id="edge3" class="edge">
<title>Node1&#45;&gt;Node4</title>
<path fill="none" stroke="midnightblue" d="M295,-106.27C295,-97.48 295,-88.28 295,-79.65"/>
<polygon fill="none" stroke="midnightblue" points="291.5,-106.36 295,-116.36 298.5,-106.36 291.5,-106.36"/>
</g>
<!-- Node5 -->
<g id="node5" class="node">
<title>Node5</title>
<g id="a_node5"><a xlink:href="classfem_1_1discretization_1_1basisfunctions_1_1LinearBasisFunctions.html" target="_top" xlink:title="Classic linear basis functions.">
<polygon fill="white" stroke="black" points="408,-0.5 408,-79.5 590,-79.5 590,-0.5 408,-0.5"/>
<text text-anchor="start" x="416" y="-67.5" font-family="Helvetica,sans-Serif" font-size="10.00">fem.discretization.basisfunctions.</text>
<text text-anchor="middle" x="499" y="-56.5" font-family="Helvetica,sans-Serif" font-size="10.00">LinearBasisFunctions</text>
<polyline fill="none" stroke="black" points="408,-49.5 590,-49.5 "/>
<text text-anchor="middle" x="499" y="-37.5" font-family="Helvetica,sans-Serif" font-size="10.00"> </text>
<polyline fill="none" stroke="black" points="408,-30.5 590,-30.5 "/>
<text text-anchor="start" x="416" y="-18.5" font-family="Helvetica,sans-Serif" font-size="10.00">+ __init__()</text>
<text text-anchor="start" x="416" y="-7.5" font-family="Helvetica,sans-Serif" font-size="10.00">+ derivatives()</text>
</a>
</g>
</g>
<!-- Node1&#45;&gt;Node5 -->
<g id="edge4" class="edge">
<title>Node1&#45;&gt;Node5</title>
<path fill="none" stroke="midnightblue" d="M366.4,-111.52C385.81,-101.2 406.85,-90.01 426.33,-79.65"/>
<polygon fill="none" stroke="midnightblue" points="364.5,-108.57 357.32,-116.36 367.79,-114.75 364.5,-108.57"/>
</g>
<!-- Node2 -->
<g id="node2" class="node">
<title>Node2</title>
<g id="a_node2"><a xlink:href="classfem_1_1discretization_1_1basisfunctions_1_1BasisFunctions.html" target="_top" xlink:title="Abstract base class for a matching collection of 1D basis functions.">
<polygon fill="white" stroke="black" points="204,-221.5 204,-388.5 386,-388.5 386,-221.5 204,-221.5"/>
<text text-anchor="start" x="212" y="-376.5" font-family="Helvetica,sans-Serif" font-size="10.00">fem.discretization.basisfunctions.</text>
<text text-anchor="middle" x="295" y="-365.5" font-family="Helvetica,sans-Serif" font-size="10.00">BasisFunctions</text>
<polyline fill="none" stroke="black" points="204,-358.5 386,-358.5 "/>
<text text-anchor="start" x="212" y="-346.5" font-family="Helvetica,sans-Serif" font-size="10.00">+ dtype</text>
<text text-anchor="start" x="212" y="-335.5" font-family="Helvetica,sans-Serif" font-size="10.00">+ domain</text>
<polyline fill="none" stroke="black" points="204,-328.5 386,-328.5 "/>
<text text-anchor="start" x="212" y="-316.5" font-family="Helvetica,sans-Serif" font-size="10.00">+ __init__()</text>
<text text-anchor="start" x="212" y="-305.5" font-family="Helvetica,sans-Serif" font-size="10.00">+ evaluate()</text>
<text text-anchor="start" x="212" y="-294.5" font-family="Helvetica,sans-Serif" font-size="10.00">+ evaluateAll()</text>
<text text-anchor="start" x="212" y="-283.5" font-family="Helvetica,sans-Serif" font-size="10.00">+ __call__()</text>
<text text-anchor="start" x="212" y="-272.5" font-family="Helvetica,sans-Serif" font-size="10.00">+ __iter__()</text>
<text text-anchor="start" x="212" y="-261.5" font-family="Helvetica,sans-Serif" font-size="10.00">+ __next__()</text>
<text text-anchor="start" x="212" y="-250.5" font-family="Helvetica,sans-Serif" font-size="10.00">+ __len__()</text>
<text text-anchor="start" x="212" y="-239.5" font-family="Helvetica,sans-Serif" font-size="10.00">+ __getitem__()</text>
<text text-anchor="start" x="212" y="-228.5" font-family="Helvetica,sans-Serif" font-size="10.00">+ nodalFunctions()</text>
</a>
</g>
</g>
<!-- Node2&#45;&gt;Node1 -->
<g id="edge1" class="edge">
<title>Node2&#45;&gt;Node1</title>
<path fill="none" stroke="midnightblue" d="M295,-210.89C295,-201.63 295,-192.72 295,-184.74"/>
<polygon fill="none" stroke="midnightblue" points="291.5,-211.06 295,-221.06 298.5,-211.06 291.5,-211.06"/>
</g>
</g>
</svg>
        <g id="navigator" transform="translate(0 0)" fill="#404254">
                <rect fill="#f2f5e9" fill-opacity="0.5" stroke="#606060" stroke-width=".5" x="0" y="0" width="60" height="60"/>
                <use id="zoomplus" xlink:href="#zoomPlus" x="17" y="9" onmousedown="handleZoom(evt,'in')"/>
                <use id="zoomminus" xlink:href="#zoomMin" x="42" y="9" onmousedown="handleZoom(evt,'out')"/>
                <use id="reset" xlink:href="#resetDef" x="30" y="36" onmousedown="handleReset()"/>
                <g id="arrowUp" xlink:href="#dirArrow" transform="translate(30 24)" onmousedown="handlePan(0,-1)">
                  <use xlink:href="#rim" fill="#404040">
                        <set attributeName="fill" to="#808080" begin="arrowUp.mouseover" end="arrowUp.mouseout"/>
                  </use>
                  <path fill="none" stroke="white" stroke-width="1.5" d="M0,-3.0v7 M-2.5,-0.5L0,-3.0L2.5,-0.5"/>
                </g>
                <g id="arrowRight" xlink:href="#dirArrow" transform="rotate(90) translate(36 -43)" onmousedown="handlePan(1,0)">
                  <use xlink:href="#rim" fill="#404040">
                        <set attributeName="fill" to="#808080" begin="arrowRight.mouseover" end="arrowRight.mouseout"/>
                  </use>
                  <path fill="none" stroke="white" stroke-width="1.5" d="M0,-3.0v7 M-2.5,-0.5L0,-3.0L2.5,-0.5"/>
                </g>
                <g id="arrowDown" xlink:href="#dirArrow" transform="rotate(180) translate(-30 -48)" onmousedown="handlePan(0,1)">
                  <use xlink:href="#rim" fill="#404040">
                        <set attributeName="fill" to="#808080" begin="arrowDown.mouseover" end="arrowDown.mouseout"/>
                  </use>
                  <path fill="none" stroke="white" stroke-width="1.5" d="M0,-3.0v7 M-2.5,-0.5L0,-3.0L2.5,-0.5"/>
                </g>
                <g id="arrowLeft" xlink:href="#dirArrow" transform="rotate(270) translate(-36 17)" onmousedown="handlePan(-1,0)">
                  <use xlink:href="#rim" fill="#404040">
                        <set attributeName="fill" to="#808080" begin="arrowLeft.mouseover" end="arrowLeft.mouseout"/>
                  </use>
                  <path fill="none" stroke="white" stroke-width="1.5" d="M0,-3.0v7 M-2.5,-0.5L0,-3.0L2.5,-0.5"/>
                </g>
        </g>
        <svg viewBox="0 0 15 15" width="100%" height="30px" preserveAspectRatio="xMaxYMin meet">
         <g id="arrow_out" transform="scale(0.3 0.3)">
          <a xlink:href="classfem_1_1discretization_1_1basisfunctions_1_1PolynomialBasisFunctions__inherit__graph_org.svg" target="_base">
           <rect id="button" ry="5" rx="5" y="6" x="6" height="38" width="38"
                fill="#f2f5e9" fill-opacity="0.5" stroke="#606060" stroke-width="1.0"/>
           <path id="arrow"
             d="M 11.500037,31.436501 C 11.940474,20.09759 22.043105,11.32322 32.158766,21.979434 L 37.068811,17.246167 C 37.068811,17.246167 37.088388,32 37.088388,32 L 22.160133,31.978069 C 22.160133,31.978069 26.997745,27.140456 26.997745,27.140456 C 18.528582,18.264221 13.291696,25.230495 11.500037,31.436501 z"
             style="fill:#404040;"/>
          </a>
         </g>
        </svg>
</svg>
