<?xml version="1.0" encoding="UTF-8" standalone="no"?>
<!DOCTYPE svg PUBLIC "-//W3C//DTD SVG 1.1//EN"
 "http://www.w3.org/Graphics/SVG/1.1/DTD/svg11.dtd">
<!-- Generated by graphviz version 2.43.0 (0)
 -->
<!-- Title: fem.discretization.element.Element Pages: 1 -->
<svg width="352pt" height="551pt"
 viewBox="0.00 0.00 351.50 551.00" xmlns="http://www.w3.org/2000/svg" xmlns:xlink="http://www.w3.org/1999/xlink">
<g id="graph0" class="graph" transform="scale(1 1) rotate(0) translate(4 547)">
<title>fem.discretization.element.Element</title>
<polygon fill="white" stroke="transparent" points="-4,4 -4,-547 347.5,-547 347.5,4 -4,4"/>
<!-- Node1 -->
<g id="node1" class="node">
<title>Node1</title>
<g id="a_node1"><a xlink:title="Element base class.">
<polygon fill="#bfbfbf" stroke="black" points="90,-353.5 90,-542.5 242,-542.5 242,-353.5 90,-353.5"/>
<text text-anchor="start" x="98" y="-530.5" font-family="Helvetica,sans-Serif" font-size="10.00">fem.discretization.element.</text>
<text text-anchor="middle" x="166" y="-519.5" font-family="Helvetica,sans-Serif" font-size="10.00">Element</text>
<polyline fill="none" stroke="black" points="90,-512.5 242,-512.5 "/>
<text text-anchor="start" x="98" y="-500.5" font-family="Helvetica,sans-Serif" font-size="10.00">+ basisFunctions</text>
<text text-anchor="start" x="98" y="-489.5" font-family="Helvetica,sans-Serif" font-size="10.00">+ domain</text>
<text text-anchor="start" x="98" y="-478.5" font-family="Helvetica,sans-Serif" font-size="10.00">+ DoFs</text>
<text text-anchor="start" x="98" y="-467.5" font-family="Helvetica,sans-Serif" font-size="10.00">+ load</text>
<text text-anchor="start" x="98" y="-456.5" font-family="Helvetica,sans-Serif" font-size="10.00">+ integrator</text>
<text text-anchor="start" x="98" y="-445.5" font-family="Helvetica,sans-Serif" font-size="10.00">+ basisDerivatives</text>
<polyline fill="none" stroke="black" points="90,-438.5 242,-438.5 "/>
<text text-anchor="start" x="98" y="-426.5" font-family="Helvetica,sans-Serif" font-size="10.00">+ __init__()</text>
<text text-anchor="start" x="98" y="-415.5" font-family="Helvetica,sans-Serif" font-size="10.00">+ copy()</text>
<text text-anchor="start" x="98" y="-404.5" font-family="Helvetica,sans-Serif" font-size="10.00">+ updateGlobalMatrix()</text>
<text text-anchor="start" x="98" y="-393.5" font-family="Helvetica,sans-Serif" font-size="10.00">+ updateGlobalVector()</text>
<text text-anchor="start" x="98" y="-382.5" font-family="Helvetica,sans-Serif" font-size="10.00">+ integrateStiffness()</text>
<text text-anchor="start" x="98" y="-371.5" font-family="Helvetica,sans-Serif" font-size="10.00">+ integrateMass()</text>
<text text-anchor="start" x="98" y="-360.5" font-family="Helvetica,sans-Serif" font-size="10.00">+ integrateLoad()</text>
</a>
</g>
</g>
<!-- Node2 -->
<g id="node2" class="node">
<title>Node2</title>
<g id="a_node2"><a xlink:href="classfem_1_1discretization_1_1element_1_1Element1D.html" target="_top" xlink:title=" ">
<polygon fill="white" stroke="black" points="90,-193.5 90,-316.5 242,-316.5 242,-193.5 90,-193.5"/>
<text text-anchor="start" x="98" y="-304.5" font-family="Helvetica,sans-Serif" font-size="10.00">fem.discretization.element.</text>
<text text-anchor="middle" x="166" y="-293.5" font-family="Helvetica,sans-Serif" font-size="10.00">Element1D</text>
<polyline fill="none" stroke="black" points="90,-286.5 242,-286.5 "/>
<text text-anchor="start" x="98" y="-274.5" font-family="Helvetica,sans-Serif" font-size="10.00">+ domain</text>
<polyline fill="none" stroke="black" points="90,-267.5 242,-267.5 "/>
<text text-anchor="start" x="98" y="-255.5" font-family="Helvetica,sans-Serif" font-size="10.00">+ __init__()</text>
<text text-anchor="start" x="98" y="-244.5" font-family="Helvetica,sans-Serif" font-size="10.00">+ copy()</text>
<text text-anchor="start" x="98" y="-233.5" font-family="Helvetica,sans-Serif" font-size="10.00">+ toGlobalCoordinates()</text>
<text text-anchor="start" x="98" y="-222.5" font-family="Helvetica,sans-Serif" font-size="10.00">+ toLocalCoordinates()</text>
<text text-anchor="start" x="98" y="-211.5" font-family="Helvetica,sans-Serif" font-size="10.00">+ __call__()</text>
<text text-anchor="start" x="98" y="-200.5" font-family="Helvetica,sans-Serif" font-size="10.00">+ derivative()</text>
</a>
</g>
</g>
<!-- Node1&#45;&gt;Node2 -->
<g id="edge1" class="edge">
<title>Node1&#45;&gt;Node2</title>
<path fill="none" stroke="midnightblue" d="M166,-343.23C166,-334.19 166,-325.26 166,-316.75"/>
<polygon fill="none" stroke="midnightblue" points="162.5,-343.46 166,-353.46 169.5,-343.46 162.5,-343.46"/>
</g>
<!-- Node3 -->
<g id="node3" class="node">
<title>Node3</title>
<g id="a_node3"><a xlink:href="classfem_1_1discretization_1_1element_1_1LinearHeatElement1D.html" target="_top" xlink:title="Most basic element for the Poisson equation.">
<polygon fill="white" stroke="black" points="0,-17 0,-140 152,-140 152,-17 0,-17"/>
<text text-anchor="start" x="8" y="-128" font-family="Helvetica,sans-Serif" font-size="10.00">fem.discretization.element.</text>
<text text-anchor="middle" x="76" y="-117" font-family="Helvetica,sans-Serif" font-size="10.00">LinearHeatElement1D</text>
<polyline fill="none" stroke="black" points="0,-110 152,-110 "/>
<text text-anchor="start" x="8" y="-98" font-family="Helvetica,sans-Serif" font-size="10.00">+ capacity</text>
<text text-anchor="start" x="8" y="-87" font-family="Helvetica,sans-Serif" font-size="10.00">+ conductivity</text>
<polyline fill="none" stroke="black" points="0,-80 152,-80 "/>
<text text-anchor="start" x="8" y="-68" font-family="Helvetica,sans-Serif" font-size="10.00">+ __init__()</text>
<text text-anchor="start" x="8" y="-57" font-family="Helvetica,sans-Serif" font-size="10.00">+ copy()</text>
<text text-anchor="start" x="8" y="-46" font-family="Helvetica,sans-Serif" font-size="10.00">+ integrateStiffness()</text>
<text text-anchor="start" x="8" y="-35" font-family="Helvetica,sans-Serif" font-size="10.00">+ integrateMass()</text>
<text text-anchor="start" x="8" y="-24" font-family="Helvetica,sans-Serif" font-size="10.00">+ integrateLoad()</text>
</a>
</g>
</g>
<!-- Node2&#45;&gt;Node3 -->
<g id="edge2" class="edge">
<title>Node2&#45;&gt;Node3</title>
<path fill="none" stroke="midnightblue" d="M130.13,-184.46C122.59,-169.83 114.68,-154.51 107.32,-140.23"/>
<polygon fill="none" stroke="midnightblue" points="127.08,-186.17 134.77,-193.46 133.3,-182.97 127.08,-186.17"/>
</g>
<!-- Node4 -->
<g id="node4" class="node">
<title>Node4</title>
<g id="a_node4"><a xlink:href="classfem_1_1discretization_1_1element_1_1NonlinearHeatElement1D.html" target="_top" xlink:title="Basic heat element with temperature&#45;dependent coefficients.">
<polygon fill="white" stroke="black" points="170.5,-0.5 170.5,-156.5 343.5,-156.5 343.5,-0.5 170.5,-0.5"/>
<text text-anchor="start" x="178.5" y="-144.5" font-family="Helvetica,sans-Serif" font-size="10.00">fem.discretization.element.</text>
<text text-anchor="middle" x="257" y="-133.5" font-family="Helvetica,sans-Serif" font-size="10.00">NonlinearHeatElement1D</text>
<polyline fill="none" stroke="black" points="170.5,-126.5 343.5,-126.5 "/>
<text text-anchor="start" x="178.5" y="-114.5" font-family="Helvetica,sans-Serif" font-size="10.00">+ capacity</text>
<text text-anchor="start" x="178.5" y="-103.5" font-family="Helvetica,sans-Serif" font-size="10.00">+ capacityDerivative</text>
<text text-anchor="start" x="178.5" y="-92.5" font-family="Helvetica,sans-Serif" font-size="10.00">+ conductivity</text>
<text text-anchor="start" x="178.5" y="-81.5" font-family="Helvetica,sans-Serif" font-size="10.00">+ conductivityDerivative</text>
<polyline fill="none" stroke="black" points="170.5,-74.5 343.5,-74.5 "/>
<text text-anchor="start" x="178.5" y="-62.5" font-family="Helvetica,sans-Serif" font-size="10.00">+ __init__()</text>
<text text-anchor="start" x="178.5" y="-51.5" font-family="Helvetica,sans-Serif" font-size="10.00">+ copy()</text>
<text text-anchor="start" x="178.5" y="-40.5" font-family="Helvetica,sans-Serif" font-size="10.00">+ integrateStiffness()</text>
<text text-anchor="start" x="178.5" y="-29.5" font-family="Helvetica,sans-Serif" font-size="10.00">+ integrateMass()</text>
<text text-anchor="start" x="178.5" y="-18.5" font-family="Helvetica,sans-Serif" font-size="10.00">+ integrateLoad()</text>
<text text-anchor="start" x="178.5" y="-7.5" font-family="Helvetica,sans-Serif" font-size="10.00">+ integrateGeometricStiffness()</text>
</a>
</g>
</g>
<!-- Node2&#45;&gt;Node4 -->
<g id="edge3" class="edge">
<title>Node2&#45;&gt;Node4</title>
<path fill="none" stroke="midnightblue" d="M202.29,-184.4C207.07,-175.24 211.99,-165.81 216.83,-156.53"/>
<polygon fill="none" stroke="midnightblue" points="199.09,-182.97 197.57,-193.46 205.3,-186.21 199.09,-182.97"/>
</g>
</g>
</svg>
