<?xml version="1.0" encoding="UTF-8" standalone="no"?>
<!DOCTYPE svg PUBLIC "-//W3C//DTD SVG 1.1//EN"
 "http://www.w3.org/Graphics/SVG/1.1/DTD/svg11.dtd">
<!-- Generated by graphviz version 2.43.0 (0)
 -->
<!-- Title: cie::fem::maths::LagrangePolynomial&lt; TValue &gt; Pages: 1 -->
<!--zoomable 745 -->
<svg id="main" version="1.1" xmlns="http://www.w3.org/2000/svg" xmlns:xlink="http://www.w3.org/1999/xlink" xml:space="preserve" onload="init(evt)">
<style type="text/css"><![CDATA[
.edge:hover path { stroke: red; }
.edge:hover polygon { stroke: red; fill: red; }
]]></style>
<script type="text/javascript"><![CDATA[
var edges = document.getElementsByTagName('g');
if (edges && edges.length) {
  for (var i=0;i<edges.length;i++) {
    if (edges[i].id.substr(0,4)=='edge') {
      edges[i].setAttribute('class','edge');
    }
  }
}
]]></script>
        <defs>
                <circle id="rim" cx="0" cy="0" r="7"/>
                <circle id="rim2" cx="0" cy="0" r="3.5"/>
                <g id="zoomPlus">
                        <use xlink:href="#rim" fill="#404040">
                                <set attributeName="fill" to="#808080" begin="zoomplus.mouseover" end="zoomplus.mouseout"/>
                        </use>
                        <path d="M-4,0h8M0,-4v8" fill="none" stroke="white" stroke-width="1.5" pointer-events="none"/>
                </g>
                <g id="zoomMin">
                        <use xlink:href="#rim" fill="#404040">
                                <set attributeName="fill" to="#808080" begin="zoomminus.mouseover" end="zoomminus.mouseout"/>
                        </use>
                        <path d="M-4,0h8" fill="none" stroke="white" stroke-width="1.5" pointer-events="none"/>
                </g>
                <g id="dirArrow">
                        <path fill="none" stroke="white" stroke-width="1.5" d="M0,-3.0v7 M-2.5,-0.5L0,-3.0L2.5,-0.5"/>
                </g>
               <g id="resetDef">
                       <use xlink:href="#rim2" fill="#404040">
                               <set attributeName="fill" to="#808080" begin="reset.mouseover" end="reset.mouseout"/>
                       </use>
               </g>
        </defs>

<script type="text/javascript">
var viewWidth = 307;
var viewHeight = 745;
var sectionId = 'dynsection-1';
</script>
<script xlink:href="svgpan.js"/>
<svg id="graph" class="graph">
<g id="viewport">
<title>cie::fem::maths::LagrangePolynomial&lt; TValue &gt;</title>
<polygon fill="white" stroke="transparent" points="-4,4 -4,-741 303,-741 303,4 -4,4"/>
<!-- Node1 -->
<g id="node1" class="node">
<title>Node1</title>
<g id="a_node1"><a xlink:title=" ">
<polygon fill="#bfbfbf" stroke="black" points="20,-0.5 20,-79.5 164,-79.5 164,-0.5 20,-0.5"/>
<text text-anchor="start" x="28" y="-67.5" font-family="Helvetica,sans-Serif" font-size="10.00">cie::fem::maths::Lagrange</text>
<text text-anchor="middle" x="92" y="-56.5" font-family="Helvetica,sans-Serif" font-size="10.00">Polynomial&lt; TValue &gt;</text>
<polyline fill="none" stroke="black" points="20,-49.5 164,-49.5 "/>
<text text-anchor="middle" x="92" y="-37.5" font-family="Helvetica,sans-Serif" font-size="10.00"> </text>
<polyline fill="none" stroke="black" points="20,-30.5 164,-30.5 "/>
<text text-anchor="start" x="28" y="-18.5" font-family="Helvetica,sans-Serif" font-size="10.00">+ LagrangePolynomial()</text>
<text text-anchor="start" x="28" y="-7.5" font-family="Helvetica,sans-Serif" font-size="10.00">+ LagrangePolynomial()</text>
</a>
</g>
</g>
<!-- Node2 -->
<g id="node2" class="node">
<title>Node2</title>
<g id="a_node2"><a xlink:href="classcie_1_1fem_1_1maths_1_1Polynomial.html" target="_top" xlink:title="Expression representing a scalar polynomial.">
<polygon fill="white" stroke="black" points="15,-117.5 15,-284.5 169,-284.5 169,-117.5 15,-117.5"/>
<text text-anchor="start" x="23" y="-272.5" font-family="Helvetica,sans-Serif" font-size="10.00">cie::fem::maths::Polynomial</text>
<text text-anchor="middle" x="92" y="-261.5" font-family="Helvetica,sans-Serif" font-size="10.00">&lt; TValue &gt;</text>
<polyline fill="none" stroke="black" points="15,-254.5 169,-254.5 "/>
<text text-anchor="middle" x="92" y="-242.5" font-family="Helvetica,sans-Serif" font-size="10.00"> </text>
<polyline fill="none" stroke="black" points="15,-235.5 169,-235.5 "/>
<text text-anchor="start" x="23" y="-223.5" font-family="Helvetica,sans-Serif" font-size="10.00">+ Polynomial()</text>
<text text-anchor="start" x="23" y="-212.5" font-family="Helvetica,sans-Serif" font-size="10.00">+ Polynomial()</text>
<text text-anchor="start" x="23" y="-201.5" font-family="Helvetica,sans-Serif" font-size="10.00">+ Polynomial()</text>
<text text-anchor="start" x="23" y="-190.5" font-family="Helvetica,sans-Serif" font-size="10.00">+ Polynomial()</text>
<text text-anchor="start" x="23" y="-179.5" font-family="Helvetica,sans-Serif" font-size="10.00">+ Polynomial()</text>
<text text-anchor="start" x="23" y="-168.5" font-family="Helvetica,sans-Serif" font-size="10.00">+ operator=()</text>
<text text-anchor="start" x="23" y="-157.5" font-family="Helvetica,sans-Serif" font-size="10.00">+ operator=()</text>
<text text-anchor="start" x="23" y="-146.5" font-family="Helvetica,sans-Serif" font-size="10.00">+ evaluate()</text>
<text text-anchor="start" x="23" y="-135.5" font-family="Helvetica,sans-Serif" font-size="10.00">+ size()</text>
<text text-anchor="start" x="23" y="-124.5" font-family="Helvetica,sans-Serif" font-size="10.00">+ makeDerivative()</text>
</a>
</g>
</g>
<!-- Node2&#45;&gt;Node1 -->
<g id="edge1" class="edge">
<title>Node2&#45;&gt;Node1</title>
<path fill="none" stroke="midnightblue" d="M92,-107.13C92,-97.51 92,-88.15 92,-79.64"/>
<polygon fill="none" stroke="midnightblue" points="88.5,-107.24 92,-117.24 95.5,-107.24 88.5,-107.24"/>
</g>
<!-- Node3 -->
<g id="node3" class="node">
<title>Node3</title>
<g id="a_node3"><a xlink:href="structcie_1_1fem_1_1maths_1_1ExpressionTraits.html" target="_top" xlink:title=" ">
<polygon fill="white" stroke="black" points="0,-387.5 0,-455.5 152,-455.5 152,-387.5 0,-387.5"/>
<text text-anchor="start" x="8" y="-443.5" font-family="Helvetica,sans-Serif" font-size="10.00">cie::fem::maths::Expression</text>
<text text-anchor="middle" x="76" y="-432.5" font-family="Helvetica,sans-Serif" font-size="10.00">Traits&lt; TValue &gt;</text>
<polyline fill="none" stroke="black" points="0,-425.5 152,-425.5 "/>
<text text-anchor="middle" x="76" y="-413.5" font-family="Helvetica,sans-Serif" font-size="10.00"> </text>
<polyline fill="none" stroke="black" points="0,-406.5 152,-406.5 "/>
<text text-anchor="middle" x="76" y="-394.5" font-family="Helvetica,sans-Serif" font-size="10.00"> </text>
</a>
</g>
</g>
<!-- Node3&#45;&gt;Node2 -->
<g id="edge2" class="edge">
<title>Node3&#45;&gt;Node2</title>
<path fill="none" stroke="midnightblue" d="M79.17,-377.26C81.1,-350.84 83.64,-316.19 85.95,-284.67"/>
<polygon fill="none" stroke="midnightblue" points="75.67,-377.09 78.43,-387.31 82.65,-377.6 75.67,-377.09"/>
</g>
<!-- Node4 -->
<g id="node4" class="node">
<title>Node4</title>
<g id="a_node4"><a target="_parent" xlink:href="../../../cieutils/docs/html/classcie_1_1STLContainerBase.html" xlink:title=" ">
<polygon fill="white" stroke="black" points="170.5,-332.5 170.5,-510.5 295.5,-510.5 295.5,-332.5 170.5,-332.5"/>
<text text-anchor="start" x="178.5" y="-498.5" font-family="Helvetica,sans-Serif" font-size="10.00">cie::STLContainerBase</text>
<text text-anchor="middle" x="233" y="-487.5" font-family="Helvetica,sans-Serif" font-size="10.00">&lt; TValue &gt;</text>
<polyline fill="none" stroke="black" points="170.5,-480.5 295.5,-480.5 "/>
<text text-anchor="middle" x="233" y="-468.5" font-family="Helvetica,sans-Serif" font-size="10.00"> </text>
<polyline fill="none" stroke="black" points="170.5,-461.5 295.5,-461.5 "/>
<text text-anchor="start" x="178.5" y="-449.5" font-family="Helvetica,sans-Serif" font-size="10.00">+ STLContainerBase()</text>
<text text-anchor="start" x="178.5" y="-438.5" font-family="Helvetica,sans-Serif" font-size="10.00">+ STLContainerBase()</text>
<text text-anchor="start" x="178.5" y="-427.5" font-family="Helvetica,sans-Serif" font-size="10.00">+ STLContainerBase()</text>
<text text-anchor="start" x="178.5" y="-416.5" font-family="Helvetica,sans-Serif" font-size="10.00">+ STLContainerBase()</text>
<text text-anchor="start" x="178.5" y="-405.5" font-family="Helvetica,sans-Serif" font-size="10.00">+ STLContainerBase()</text>
<text text-anchor="start" x="178.5" y="-394.5" font-family="Helvetica,sans-Serif" font-size="10.00">+ STLContainerBase()</text>
<text text-anchor="start" x="178.5" y="-383.5" font-family="Helvetica,sans-Serif" font-size="10.00">+ STLContainerBase()</text>
<text text-anchor="start" x="178.5" y="-372.5" font-family="Helvetica,sans-Serif" font-size="10.00">+ STLContainerBase()</text>
<text text-anchor="start" x="178.5" y="-361.5" font-family="Helvetica,sans-Serif" font-size="10.00">+ STLContainerBase()</text>
<text text-anchor="start" x="178.5" y="-350.5" font-family="Helvetica,sans-Serif" font-size="10.00">+ STLContainerBase()</text>
<text text-anchor="start" x="178.5" y="-339.5" font-family="Helvetica,sans-Serif" font-size="10.00">and 37 more...</text>
</a>
</g>
</g>
<!-- Node4&#45;&gt;Node2 -->
<g id="edge3" class="edge">
<title>Node4&#45;&gt;Node2</title>
<path fill="none" stroke="#404040" d="M176.06,-332.26C168.11,-319.95 159.93,-307.27 151.94,-294.89"/>
<polygon fill="none" stroke="#404040" points="151.78,-294.64 145.17,-291.77 145.28,-284.56 151.89,-287.43 151.78,-294.64"/>
<text text-anchor="middle" x="198.5" y="-306" font-family="Helvetica,sans-Serif" font-size="10.00"> #_coefficients</text>
</g>
<!-- Node5 -->
<g id="node5" class="node">
<title>Node5</title>
<g id="a_node5"><a target="_parent" xlink:href="../../../cieutils/docs/html/classcie_1_1STLContainerBase.html" xlink:title=" ">
<polygon fill="white" stroke="black" points="167,-558.5 167,-736.5 299,-736.5 299,-558.5 167,-558.5"/>
<text text-anchor="start" x="175" y="-724.5" font-family="Helvetica,sans-Serif" font-size="10.00">cie::STLContainerBase</text>
<text text-anchor="middle" x="233" y="-713.5" font-family="Helvetica,sans-Serif" font-size="10.00">&lt; TBase &gt;</text>
<polyline fill="none" stroke="black" points="167,-706.5 299,-706.5 "/>
<text text-anchor="middle" x="233" y="-694.5" font-family="Helvetica,sans-Serif" font-size="10.00"> </text>
<polyline fill="none" stroke="black" points="167,-687.5 299,-687.5 "/>
<text text-anchor="start" x="175" y="-675.5" font-family="Helvetica,sans-Serif" font-size="10.00">+ STLContainerBase()</text>
<text text-anchor="start" x="175" y="-664.5" font-family="Helvetica,sans-Serif" font-size="10.00">+ STLContainerBase()</text>
<text text-anchor="start" x="175" y="-653.5" font-family="Helvetica,sans-Serif" font-size="10.00">+ STLContainerBase()</text>
<text text-anchor="start" x="175" y="-642.5" font-family="Helvetica,sans-Serif" font-size="10.00">+ STLContainerBase()</text>
<text text-anchor="start" x="175" y="-631.5" font-family="Helvetica,sans-Serif" font-size="10.00">+ STLContainerBase()</text>
<text text-anchor="start" x="175" y="-620.5" font-family="Helvetica,sans-Serif" font-size="10.00">+ STLContainerBase()</text>
<text text-anchor="start" x="175" y="-609.5" font-family="Helvetica,sans-Serif" font-size="10.00">+ operator=()</text>
<text text-anchor="start" x="175" y="-598.5" font-family="Helvetica,sans-Serif" font-size="10.00">+ operator=()</text>
<text text-anchor="start" x="175" y="-587.5" font-family="Helvetica,sans-Serif" font-size="10.00">+ ~STLContainerBase()</text>
<text text-anchor="start" x="175" y="-576.5" font-family="Helvetica,sans-Serif" font-size="10.00">+ size()</text>
<text text-anchor="start" x="175" y="-565.5" font-family="Helvetica,sans-Serif" font-size="10.00">and 37 more...</text>
</a>
</g>
</g>
<!-- Node5&#45;&gt;Node4 -->
<g id="edge4" class="edge">
<title>Node5&#45;&gt;Node4</title>
<path fill="none" stroke="orange" d="M233,-547.93C233,-535.51 233,-522.87 233,-510.63"/>
<polygon fill="orange" stroke="orange" points="229.5,-548.29 233,-558.29 236.5,-548.29 229.5,-548.29"/>
<text text-anchor="middle" x="262.5" y="-532" font-family="Helvetica,sans-Serif" font-size="10.00"> &lt; TValue &gt;</text>
</g>
</g>
</svg>
        <g id="navigator" transform="translate(0 0)" fill="#404254">
                <rect fill="#f2f5e9" fill-opacity="0.5" stroke="#606060" stroke-width=".5" x="0" y="0" width="60" height="60"/>
                <use id="zoomplus" xlink:href="#zoomPlus" x="17" y="9" onmousedown="handleZoom(evt,'in')"/>
                <use id="zoomminus" xlink:href="#zoomMin" x="42" y="9" onmousedown="handleZoom(evt,'out')"/>
                <use id="reset" xlink:href="#resetDef" x="30" y="36" onmousedown="handleReset()"/>
                <g id="arrowUp" xlink:href="#dirArrow" transform="translate(30 24)" onmousedown="handlePan(0,-1)">
                  <use xlink:href="#rim" fill="#404040">
                        <set attributeName="fill" to="#808080" begin="arrowUp.mouseover" end="arrowUp.mouseout"/>
                  </use>
                  <path fill="none" stroke="white" stroke-width="1.5" d="M0,-3.0v7 M-2.5,-0.5L0,-3.0L2.5,-0.5"/>
                </g>
                <g id="arrowRight" xlink:href="#dirArrow" transform="rotate(90) translate(36 -43)" onmousedown="handlePan(1,0)">
                  <use xlink:href="#rim" fill="#404040">
                        <set attributeName="fill" to="#808080" begin="arrowRight.mouseover" end="arrowRight.mouseout"/>
                  </use>
                  <path fill="none" stroke="white" stroke-width="1.5" d="M0,-3.0v7 M-2.5,-0.5L0,-3.0L2.5,-0.5"/>
                </g>
                <g id="arrowDown" xlink:href="#dirArrow" transform="rotate(180) translate(-30 -48)" onmousedown="handlePan(0,1)">
                  <use xlink:href="#rim" fill="#404040">
                        <set attributeName="fill" to="#808080" begin="arrowDown.mouseover" end="arrowDown.mouseout"/>
                  </use>
                  <path fill="none" stroke="white" stroke-width="1.5" d="M0,-3.0v7 M-2.5,-0.5L0,-3.0L2.5,-0.5"/>
                </g>
                <g id="arrowLeft" xlink:href="#dirArrow" transform="rotate(270) translate(-36 17)" onmousedown="handlePan(-1,0)">
                  <use xlink:href="#rim" fill="#404040">
                        <set attributeName="fill" to="#808080" begin="arrowLeft.mouseover" end="arrowLeft.mouseout"/>
                  </use>
                  <path fill="none" stroke="white" stroke-width="1.5" d="M0,-3.0v7 M-2.5,-0.5L0,-3.0L2.5,-0.5"/>
                </g>
        </g>
        <svg viewBox="0 0 15 15" width="100%" height="30px" preserveAspectRatio="xMaxYMin meet">
         <g id="arrow_out" transform="scale(0.3 0.3)">
          <a xlink:href="classcie_1_1fem_1_1maths_1_1LagrangePolynomial__coll__graph_org.svg" target="_base">
           <rect id="button" ry="5" rx="5" y="6" x="6" height="38" width="38"
                fill="#f2f5e9" fill-opacity="0.5" stroke="#606060" stroke-width="1.0"/>
           <path id="arrow"
             d="M 11.500037,31.436501 C 11.940474,20.09759 22.043105,11.32322 32.158766,21.979434 L 37.068811,17.246167 C 37.068811,17.246167 37.088388,32 37.088388,32 L 22.160133,31.978069 C 22.160133,31.978069 26.997745,27.140456 26.997745,27.140456 C 18.528582,18.264221 13.291696,25.230495 11.500037,31.436501 z"
             style="fill:#404040;"/>
          </a>
         </g>
        </svg>
</svg>
