<?xml version="1.0" encoding="UTF-8" standalone="no"?>
<!DOCTYPE svg PUBLIC "-//W3C//DTD SVG 1.1//EN"
 "http://www.w3.org/Graphics/SVG/1.1/DTD/svg11.dtd">
<!-- Generated by graphviz version 2.43.0 (0)
 -->
<!-- Title: wrn.relax.HomogeneousRelaxation Pages: 1 -->
<svg width="196pt" height="375pt"
 viewBox="0.00 0.00 196.00 375.00" xmlns="http://www.w3.org/2000/svg" xmlns:xlink="http://www.w3.org/1999/xlink">
<g id="graph0" class="graph" transform="scale(1 1) rotate(0) translate(4 371)">
<title>wrn.relax.HomogeneousRelaxation</title>
<polygon fill="white" stroke="transparent" points="-4,4 -4,-371 192,-371 192,4 -4,4"/>
<!-- Node1 -->
<g id="node1" class="node">
<title>Node1</title>
<g id="a_node1"><a xlink:title=" ">
<polygon fill="#bfbfbf" stroke="black" points="0,-0.5 0,-101.5 188,-101.5 188,-0.5 0,-0.5"/>
<text text-anchor="middle" x="94" y="-89.5" font-family="Helvetica,sans-Serif" font-size="10.00">wrn.relax.HomogeneousRelaxation</text>
<polyline fill="none" stroke="black" points="0,-82.5 188,-82.5 "/>
<text text-anchor="middle" x="94" y="-70.5" font-family="Helvetica,sans-Serif" font-size="10.00"> </text>
<polyline fill="none" stroke="black" points="0,-63.5 188,-63.5 "/>
<text text-anchor="start" x="8" y="-51.5" font-family="Helvetica,sans-Serif" font-size="10.00">+ __init__()</text>
<text text-anchor="start" x="8" y="-40.5" font-family="Helvetica,sans-Serif" font-size="10.00">+ solution()</text>
<text text-anchor="start" x="8" y="-29.5" font-family="Helvetica,sans-Serif" font-size="10.00">+ partitioner()</text>
<text text-anchor="start" x="8" y="-18.5" font-family="Helvetica,sans-Serif" font-size="10.00">+ getTimeIntegrator()</text>
<text text-anchor="start" x="8" y="-7.5" font-family="Helvetica,sans-Serif" font-size="10.00">+ relax()</text>
</a>
</g>
</g>
<!-- Node2 -->
<g id="node2" class="node">
<title>Node2</title>
<g id="a_node2"><a xlink:href="classwrn_1_1relax_1_1WaveformRelaxation.html" target="_top" xlink:title=" ">
<polygon fill="white" stroke="black" points="10,-138.5 10,-272.5 178,-272.5 178,-138.5 10,-138.5"/>
<text text-anchor="middle" x="94" y="-260.5" font-family="Helvetica,sans-Serif" font-size="10.00">wrn.relax.WaveformRelaxation</text>
<polyline fill="none" stroke="black" points="10,-253.5 178,-253.5 "/>
<text text-anchor="middle" x="94" y="-241.5" font-family="Helvetica,sans-Serif" font-size="10.00"> </text>
<polyline fill="none" stroke="black" points="10,-234.5 178,-234.5 "/>
<text text-anchor="start" x="18" y="-222.5" font-family="Helvetica,sans-Serif" font-size="10.00">+ __init__()</text>
<text text-anchor="start" x="18" y="-211.5" font-family="Helvetica,sans-Serif" font-size="10.00">+ partitioner()</text>
<text text-anchor="start" x="18" y="-200.5" font-family="Helvetica,sans-Serif" font-size="10.00">+ solution()</text>
<text text-anchor="start" x="18" y="-189.5" font-family="Helvetica,sans-Serif" font-size="10.00">+ getTimeIntegrator()</text>
<text text-anchor="start" x="18" y="-178.5" font-family="Helvetica,sans-Serif" font-size="10.00">+ relax()</text>
<text text-anchor="start" x="18" y="-167.5" font-family="Helvetica,sans-Serif" font-size="10.00">+ solve()</text>
<text text-anchor="start" x="18" y="-156.5" font-family="Helvetica,sans-Serif" font-size="10.00">+ model()</text>
<text text-anchor="start" x="18" y="-145.5" font-family="Helvetica,sans-Serif" font-size="10.00">+ partitionedModel()</text>
</a>
</g>
</g>
<!-- Node2&#45;&gt;Node1 -->
<g id="edge1" class="edge">
<title>Node2&#45;&gt;Node1</title>
<path fill="none" stroke="midnightblue" d="M94,-128.27C94,-119.19 94,-110.11 94,-101.55"/>
<polygon fill="none" stroke="midnightblue" points="90.5,-128.5 94,-138.5 97.5,-128.5 90.5,-128.5"/>
</g>
<!-- Node3 -->
<g id="node3" class="node">
<title>Node3</title>
<g id="a_node3"><a target="_parent" xlink:href="../../../cieutils/docs/html/classmetaclass.html" xlink:title=" ">
<polygon fill="white" stroke="black" points="14.5,-309.5 14.5,-366.5 81.5,-366.5 81.5,-309.5 14.5,-309.5"/>
<text text-anchor="middle" x="48" y="-354.5" font-family="Helvetica,sans-Serif" font-size="10.00">metaclass</text>
<polyline fill="none" stroke="black" points="14.5,-347.5 81.5,-347.5 "/>
<text text-anchor="middle" x="48" y="-335.5" font-family="Helvetica,sans-Serif" font-size="10.00"> </text>
<polyline fill="none" stroke="black" points="14.5,-328.5 81.5,-328.5 "/>
<text text-anchor="middle" x="48" y="-316.5" font-family="Helvetica,sans-Serif" font-size="10.00"> </text>
</a>
</g>
</g>
<!-- Node3&#45;&gt;Node2 -->
<g id="edge2" class="edge">
<title>Node3&#45;&gt;Node2</title>
<path fill="none" stroke="midnightblue" d="M61.14,-299.72C64.15,-291.19 67.43,-281.87 70.72,-272.53"/>
<polygon fill="none" stroke="midnightblue" points="57.78,-298.73 57.76,-309.32 64.38,-301.06 57.78,-298.73"/>
</g>
<!-- Node4 -->
<g id="node4" class="node">
<title>Node4</title>
<g id="a_node4"><a xlink:title=" ">
<polygon fill="white" stroke="#bfbfbf" points="100,-309.5 100,-366.5 182,-366.5 182,-309.5 100,-309.5"/>
<text text-anchor="middle" x="141" y="-354.5" font-family="Helvetica,sans-Serif" font-size="10.00">abc.ABCMeta</text>
<polyline fill="none" stroke="#bfbfbf" points="100,-347.5 182,-347.5 "/>
<text text-anchor="middle" x="141" y="-335.5" font-family="Helvetica,sans-Serif" font-size="10.00"> </text>
<polyline fill="none" stroke="#bfbfbf" points="100,-328.5 182,-328.5 "/>
<text text-anchor="middle" x="141" y="-316.5" font-family="Helvetica,sans-Serif" font-size="10.00"> </text>
</a>
</g>
</g>
<!-- Node4&#45;&gt;Node2 -->
<g id="edge3" class="edge">
<title>Node4&#45;&gt;Node2</title>
<path fill="none" stroke="midnightblue" d="M127.57,-299.72C124.5,-291.19 121.15,-281.87 117.78,-272.53"/>
<polygon fill="none" stroke="midnightblue" points="124.35,-301.1 131.03,-309.32 130.94,-298.73 124.35,-301.1"/>
</g>
</g>
</svg>
