<?xml version="1.0" encoding="UTF-8" standalone="no"?>
<!DOCTYPE svg PUBLIC "-//W3C//DTD SVG 1.1//EN"
 "http://www.w3.org/Graphics/SVG/1.1/DTD/svg11.dtd">
<!-- Generated by graphviz version 2.43.0 (0)
 -->
<!-- Title: fem.discretization.boundaryconditions.NeumannBoundary Pages: 1 -->
<svg width="215pt" height="248pt"
 viewBox="0.00 0.00 215.00 248.00" xmlns="http://www.w3.org/2000/svg" xmlns:xlink="http://www.w3.org/1999/xlink">
<g id="graph0" class="graph" transform="scale(1 1) rotate(0) translate(4 244)">
<title>fem.discretization.boundaryconditions.NeumannBoundary</title>
<polygon fill="white" stroke="transparent" points="-4,4 -4,-244 211,-244 211,4 -4,4"/>
<!-- Node1 -->
<g id="node1" class="node">
<title>Node1</title>
<g id="a_node1"><a xlink:title=" ">
<polygon fill="#bfbfbf" stroke="black" points="0,-0.5 0,-68.5 207,-68.5 207,-0.5 0,-0.5"/>
<text text-anchor="start" x="8" y="-56.5" font-family="Helvetica,sans-Serif" font-size="10.00">fem.discretization.boundaryconditions.</text>
<text text-anchor="middle" x="103.5" y="-45.5" font-family="Helvetica,sans-Serif" font-size="10.00">NeumannBoundary</text>
<polyline fill="none" stroke="black" points="0,-38.5 207,-38.5 "/>
<text text-anchor="start" x="8" y="-26.5" font-family="Helvetica,sans-Serif" font-size="10.00">+ BCType</text>
<polyline fill="none" stroke="black" points="0,-19.5 207,-19.5 "/>
<text text-anchor="start" x="8" y="-7.5" font-family="Helvetica,sans-Serif" font-size="10.00">+ __init__()</text>
</a>
</g>
</g>
<!-- Node2 -->
<g id="node2" class="node">
<title>Node2</title>
<g id="a_node2"><a xlink:href="classfem_1_1discretization_1_1boundaryconditions_1_1BoundaryCondition.html" target="_top" xlink:title="Boundary condition base class.">
<polygon fill="white" stroke="black" points="0,-105.5 0,-239.5 207,-239.5 207,-105.5 0,-105.5"/>
<text text-anchor="start" x="8" y="-227.5" font-family="Helvetica,sans-Serif" font-size="10.00">fem.discretization.boundaryconditions.</text>
<text text-anchor="middle" x="103.5" y="-216.5" font-family="Helvetica,sans-Serif" font-size="10.00">BoundaryCondition</text>
<polyline fill="none" stroke="black" points="0,-209.5 207,-209.5 "/>
<text text-anchor="start" x="8" y="-197.5" font-family="Helvetica,sans-Serif" font-size="10.00">+ DoF</text>
<text text-anchor="start" x="8" y="-186.5" font-family="Helvetica,sans-Serif" font-size="10.00">+ position</text>
<text text-anchor="start" x="8" y="-175.5" font-family="Helvetica,sans-Serif" font-size="10.00">+ value</text>
<text text-anchor="start" x="8" y="-164.5" font-family="Helvetica,sans-Serif" font-size="10.00">+ elementIDs</text>
<text text-anchor="start" x="8" y="-153.5" font-family="Helvetica,sans-Serif" font-size="10.00">+ BCType</text>
<text text-anchor="start" x="8" y="-142.5" font-family="Helvetica,sans-Serif" font-size="10.00">+ applied</text>
<polyline fill="none" stroke="black" points="0,-135.5 207,-135.5 "/>
<text text-anchor="start" x="8" y="-123.5" font-family="Helvetica,sans-Serif" font-size="10.00">+ __init__()</text>
<text text-anchor="start" x="8" y="-112.5" font-family="Helvetica,sans-Serif" font-size="10.00">+ initialize()</text>
</a>
</g>
</g>
<!-- Node2&#45;&gt;Node1 -->
<g id="edge1" class="edge">
<title>Node2&#45;&gt;Node1</title>
<path fill="none" stroke="midnightblue" d="M103.5,-95.37C103.5,-86.08 103.5,-77 103.5,-68.83"/>
<polygon fill="none" stroke="midnightblue" points="100,-95.49 103.5,-105.49 107,-95.49 100,-95.49"/>
</g>
</g>
</svg>
