<?xml version="1.0" encoding="UTF-8" standalone="no"?>
<!DOCTYPE svg PUBLIC "-//W3C//DTD SVG 1.1//EN"
 "http://www.w3.org/Graphics/SVG/1.1/DTD/svg11.dtd">
<!-- Generated by graphviz version 2.43.0 (0)
 -->
<!-- Title: cie::fem::Partition&lt; TVertexAttributes, TPolytopeAttributes &gt; Pages: 1 -->
<svg width="264pt" height="570pt"
 viewBox="0.00 0.00 263.50 570.00" xmlns="http://www.w3.org/2000/svg" xmlns:xlink="http://www.w3.org/1999/xlink">
<g id="graph0" class="graph" transform="scale(1 1) rotate(0) translate(4 566)">
<title>cie::fem::Partition&lt; TVertexAttributes, TPolytopeAttributes &gt;</title>
<polygon fill="white" stroke="transparent" points="-4,4 -4,-566 259.5,-566 259.5,4 -4,4"/>
<!-- Node1 -->
<g id="node1" class="node">
<title>Node1</title>
<g id="a_node1"><a xlink:title=" ">
<polygon fill="#bfbfbf" stroke="black" points="13.5,-0.5 13.5,-101.5 141.5,-101.5 141.5,-0.5 13.5,-0.5"/>
<text text-anchor="start" x="21.5" y="-89.5" font-family="Helvetica,sans-Serif" font-size="10.00">cie::fem::Partition</text>
<text text-anchor="start" x="21.5" y="-78.5" font-family="Helvetica,sans-Serif" font-size="10.00">&lt; TVertexAttributes,</text>
<text text-anchor="middle" x="77.5" y="-67.5" font-family="Helvetica,sans-Serif" font-size="10.00"> TPolytopeAttributes &gt;</text>
<polyline fill="none" stroke="black" points="13.5,-60.5 141.5,-60.5 "/>
<text text-anchor="middle" x="77.5" y="-48.5" font-family="Helvetica,sans-Serif" font-size="10.00"> </text>
<polyline fill="none" stroke="black" points="13.5,-41.5 141.5,-41.5 "/>
<text text-anchor="start" x="21.5" y="-29.5" font-family="Helvetica,sans-Serif" font-size="10.00">+ Partition()</text>
<text text-anchor="start" x="21.5" y="-18.5" font-family="Helvetica,sans-Serif" font-size="10.00">+ Partition()</text>
<text text-anchor="start" x="21.5" y="-7.5" font-family="Helvetica,sans-Serif" font-size="10.00">+ Partition()</text>
</a>
</g>
</g>
<!-- Node2 -->
<g id="node2" class="node">
<title>Node2</title>
<g id="a_node2"><a xlink:href="classcie_1_1fem_1_1PartitionBase.html" target="_top" xlink:title=" ">
<polygon fill="white" stroke="black" points="14,-139.5 14,-262.5 141,-262.5 141,-139.5 14,-139.5"/>
<text text-anchor="middle" x="77.5" y="-250.5" font-family="Helvetica,sans-Serif" font-size="10.00">cie::fem::PartitionBase</text>
<polyline fill="none" stroke="black" points="14,-243.5 141,-243.5 "/>
<text text-anchor="middle" x="77.5" y="-231.5" font-family="Helvetica,sans-Serif" font-size="10.00"> </text>
<polyline fill="none" stroke="black" points="14,-224.5 141,-224.5 "/>
<text text-anchor="start" x="22" y="-212.5" font-family="Helvetica,sans-Serif" font-size="10.00">+ PartitionBase()</text>
<text text-anchor="start" x="22" y="-201.5" font-family="Helvetica,sans-Serif" font-size="10.00">+ PartitionBase()</text>
<text text-anchor="start" x="22" y="-190.5" font-family="Helvetica,sans-Serif" font-size="10.00">+ PartitionBase()</text>
<text text-anchor="start" x="22" y="-179.5" font-family="Helvetica,sans-Serif" font-size="10.00">+ PartitionBase()</text>
<text text-anchor="start" x="22" y="-168.5" font-family="Helvetica,sans-Serif" font-size="10.00">+ operator=()</text>
<text text-anchor="start" x="22" y="-157.5" font-family="Helvetica,sans-Serif" font-size="10.00">+ operator=()</text>
<text text-anchor="start" x="22" y="-146.5" font-family="Helvetica,sans-Serif" font-size="10.00">+ ~PartitionBase()</text>
</a>
</g>
</g>
<!-- Node2&#45;&gt;Node1 -->
<g id="edge1" class="edge">
<title>Node2&#45;&gt;Node1</title>
<path fill="none" stroke="midnightblue" d="M77.5,-129.37C77.5,-120.1 77.5,-110.75 77.5,-101.92"/>
<polygon fill="none" stroke="midnightblue" points="74,-129.38 77.5,-139.38 81,-129.38 74,-129.38"/>
</g>
<!-- Node3 -->
<g id="node3" class="node">
<title>Node3</title>
<g id="a_node3"><a target="_parent" xlink:href="../../../cieutils/docs/html/classcie_1_1utils_1_1NamedObject.html" xlink:title=" ">
<polygon fill="white" stroke="black" points="0,-300.5 0,-456.5 131,-456.5 131,-300.5 0,-300.5"/>
<text text-anchor="middle" x="65.5" y="-444.5" font-family="Helvetica,sans-Serif" font-size="10.00">cie::utils::NamedObject</text>
<polyline fill="none" stroke="black" points="0,-437.5 131,-437.5 "/>
<text text-anchor="middle" x="65.5" y="-425.5" font-family="Helvetica,sans-Serif" font-size="10.00"> </text>
<polyline fill="none" stroke="black" points="0,-418.5 131,-418.5 "/>
<text text-anchor="start" x="8" y="-406.5" font-family="Helvetica,sans-Serif" font-size="10.00">+ NamedObject()</text>
<text text-anchor="start" x="8" y="-395.5" font-family="Helvetica,sans-Serif" font-size="10.00">+ NamedObject()</text>
<text text-anchor="start" x="8" y="-384.5" font-family="Helvetica,sans-Serif" font-size="10.00">+ NamedObject()</text>
<text text-anchor="start" x="8" y="-373.5" font-family="Helvetica,sans-Serif" font-size="10.00">+ NamedObject()</text>
<text text-anchor="start" x="8" y="-362.5" font-family="Helvetica,sans-Serif" font-size="10.00">+ operator=()</text>
<text text-anchor="start" x="8" y="-351.5" font-family="Helvetica,sans-Serif" font-size="10.00">+ operator=()</text>
<text text-anchor="start" x="8" y="-340.5" font-family="Helvetica,sans-Serif" font-size="10.00">+ name()</text>
<text text-anchor="start" x="8" y="-329.5" font-family="Helvetica,sans-Serif" font-size="10.00">+ setName()</text>
<text text-anchor="start" x="8" y="-318.5" font-family="Helvetica,sans-Serif" font-size="10.00">+ setName()</text>
<text text-anchor="start" x="8" y="-307.5" font-family="Helvetica,sans-Serif" font-size="10.00">+ ~NamedObject()</text>
</a>
</g>
</g>
<!-- Node3&#45;&gt;Node2 -->
<g id="edge2" class="edge">
<title>Node3&#45;&gt;Node2</title>
<path fill="none" stroke="midnightblue" d="M71.47,-290.19C72.11,-280.87 72.74,-271.56 73.35,-262.65"/>
<polygon fill="none" stroke="midnightblue" points="67.97,-290.05 70.78,-300.27 74.95,-290.53 67.97,-290.05"/>
</g>
<!-- Node4 -->
<g id="node4" class="node">
<title>Node4</title>
<g id="a_node4"><a target="_parent" xlink:href="../../../cieutils/docs/html/classcie_1_1utils_1_1IDObject.html" xlink:title=" ">
<polygon fill="white" stroke="black" points="149.5,-306 149.5,-451 255.5,-451 255.5,-306 149.5,-306"/>
<text text-anchor="start" x="157.5" y="-439" font-family="Helvetica,sans-Serif" font-size="10.00">cie::utils::IDObject</text>
<text text-anchor="middle" x="202.5" y="-428" font-family="Helvetica,sans-Serif" font-size="10.00">&lt; class &gt;</text>
<polyline fill="none" stroke="black" points="149.5,-421 255.5,-421 "/>
<text text-anchor="middle" x="202.5" y="-409" font-family="Helvetica,sans-Serif" font-size="10.00"> </text>
<polyline fill="none" stroke="black" points="149.5,-402 255.5,-402 "/>
<text text-anchor="start" x="157.5" y="-390" font-family="Helvetica,sans-Serif" font-size="10.00">+ IDObject()</text>
<text text-anchor="start" x="157.5" y="-379" font-family="Helvetica,sans-Serif" font-size="10.00">+ IDObject()</text>
<text text-anchor="start" x="157.5" y="-368" font-family="Helvetica,sans-Serif" font-size="10.00">+ IDObject()</text>
<text text-anchor="start" x="157.5" y="-357" font-family="Helvetica,sans-Serif" font-size="10.00">+ IDObject()</text>
<text text-anchor="start" x="157.5" y="-346" font-family="Helvetica,sans-Serif" font-size="10.00">+ operator=()</text>
<text text-anchor="start" x="157.5" y="-335" font-family="Helvetica,sans-Serif" font-size="10.00">+ operator=()</text>
<text text-anchor="start" x="157.5" y="-324" font-family="Helvetica,sans-Serif" font-size="10.00">+ setID()</text>
<text text-anchor="start" x="157.5" y="-313" font-family="Helvetica,sans-Serif" font-size="10.00">+ getID()</text>
</a>
</g>
</g>
<!-- Node4&#45;&gt;Node2 -->
<g id="edge3" class="edge">
<title>Node4&#45;&gt;Node2</title>
<path fill="none" stroke="midnightblue" d="M145.46,-297.42C137.16,-285.77 128.73,-273.93 120.77,-262.75"/>
<polygon fill="none" stroke="midnightblue" points="142.83,-299.75 151.48,-305.86 148.53,-295.69 142.83,-299.75"/>
</g>
<!-- Node5 -->
<g id="node5" class="node">
<title>Node5</title>
<g id="a_node5"><a xlink:title=" ">
<polygon fill="white" stroke="#bfbfbf" points="186,-504.5 186,-561.5 219,-561.5 219,-504.5 186,-504.5"/>
<text text-anchor="middle" x="202.5" y="-549.5" font-family="Helvetica,sans-Serif" font-size="10.00">TID</text>
<polyline fill="none" stroke="#bfbfbf" points="186,-542.5 219,-542.5 "/>
<text text-anchor="middle" x="202.5" y="-530.5" font-family="Helvetica,sans-Serif" font-size="10.00"> </text>
<polyline fill="none" stroke="#bfbfbf" points="186,-523.5 219,-523.5 "/>
<text text-anchor="middle" x="202.5" y="-511.5" font-family="Helvetica,sans-Serif" font-size="10.00"> </text>
</a>
</g>
</g>
<!-- Node5&#45;&gt;Node4 -->
<g id="edge4" class="edge">
<title>Node5&#45;&gt;Node4</title>
<path fill="none" stroke="#404040" d="M202.5,-504.38C202.5,-492.53 202.5,-477.99 202.5,-463.07"/>
<polygon fill="none" stroke="#404040" points="202.5,-463.07 198.5,-457.07 202.5,-451.07 206.5,-457.07 202.5,-463.07"/>
<text text-anchor="middle" x="215.5" y="-478" font-family="Helvetica,sans-Serif" font-size="10.00"> #_id</text>
</g>
</g>
</svg>
