<?xml version="1.0" encoding="UTF-8" standalone="no"?>
<!DOCTYPE svg PUBLIC "-//W3C//DTD SVG 1.1//EN"
 "http://www.w3.org/Graphics/SVG/1.1/DTD/svg11.dtd">
<!-- Generated by graphviz version 2.43.0 (0)
 -->
<!-- Title: fem.discretization.boundaryconditions.BoundaryCondition Pages: 1 -->
<svg width="440pt" height="353pt"
 viewBox="0.00 0.00 440.00 353.00" xmlns="http://www.w3.org/2000/svg" xmlns:xlink="http://www.w3.org/1999/xlink">
<g id="graph0" class="graph" transform="scale(1 1) rotate(0) translate(4 349)">
<title>fem.discretization.boundaryconditions.BoundaryCondition</title>
<polygon fill="white" stroke="transparent" points="-4,4 -4,-349 436,-349 436,4 -4,4"/>
<!-- Node1 -->
<g id="node1" class="node">
<title>Node1</title>
<g id="a_node1"><a xlink:title="Boundary condition base class.">
<polygon fill="#bfbfbf" stroke="black" points="112,-210.5 112,-344.5 319,-344.5 319,-210.5 112,-210.5"/>
<text text-anchor="start" x="120" y="-332.5" font-family="Helvetica,sans-Serif" font-size="10.00">fem.discretization.boundaryconditions.</text>
<text text-anchor="middle" x="215.5" y="-321.5" font-family="Helvetica,sans-Serif" font-size="10.00">BoundaryCondition</text>
<polyline fill="none" stroke="black" points="112,-314.5 319,-314.5 "/>
<text text-anchor="start" x="120" y="-302.5" font-family="Helvetica,sans-Serif" font-size="10.00">+ DoF</text>
<text text-anchor="start" x="120" y="-291.5" font-family="Helvetica,sans-Serif" font-size="10.00">+ position</text>
<text text-anchor="start" x="120" y="-280.5" font-family="Helvetica,sans-Serif" font-size="10.00">+ value</text>
<text text-anchor="start" x="120" y="-269.5" font-family="Helvetica,sans-Serif" font-size="10.00">+ elementIDs</text>
<text text-anchor="start" x="120" y="-258.5" font-family="Helvetica,sans-Serif" font-size="10.00">+ BCType</text>
<text text-anchor="start" x="120" y="-247.5" font-family="Helvetica,sans-Serif" font-size="10.00">+ applied</text>
<polyline fill="none" stroke="black" points="112,-240.5 319,-240.5 "/>
<text text-anchor="start" x="120" y="-228.5" font-family="Helvetica,sans-Serif" font-size="10.00">+ __init__()</text>
<text text-anchor="start" x="120" y="-217.5" font-family="Helvetica,sans-Serif" font-size="10.00">+ initialize()</text>
</a>
</g>
</g>
<!-- Node2 -->
<g id="node2" class="node">
<title>Node2</title>
<g id="a_node2"><a xlink:href="classfem_1_1discretization_1_1boundaryconditions_1_1NeumannBoundary.html" target="_top" xlink:title=" ">
<polygon fill="white" stroke="black" points="0,-105.5 0,-173.5 207,-173.5 207,-105.5 0,-105.5"/>
<text text-anchor="start" x="8" y="-161.5" font-family="Helvetica,sans-Serif" font-size="10.00">fem.discretization.boundaryconditions.</text>
<text text-anchor="middle" x="103.5" y="-150.5" font-family="Helvetica,sans-Serif" font-size="10.00">NeumannBoundary</text>
<polyline fill="none" stroke="black" points="0,-143.5 207,-143.5 "/>
<text text-anchor="start" x="8" y="-131.5" font-family="Helvetica,sans-Serif" font-size="10.00">+ BCType</text>
<polyline fill="none" stroke="black" points="0,-124.5 207,-124.5 "/>
<text text-anchor="start" x="8" y="-112.5" font-family="Helvetica,sans-Serif" font-size="10.00">+ __init__()</text>
</a>
</g>
</g>
<!-- Node1&#45;&gt;Node2 -->
<g id="edge1" class="edge">
<title>Node1&#45;&gt;Node2</title>
<path fill="none" stroke="midnightblue" d="M154.76,-202.74C146.43,-192.63 138.25,-182.69 130.95,-173.83"/>
<polygon fill="none" stroke="midnightblue" points="152.08,-205 161.14,-210.49 157.49,-200.55 152.08,-205"/>
</g>
<!-- Node3 -->
<g id="node3" class="node">
<title>Node3</title>
<g id="a_node3"><a xlink:href="classfem_1_1discretization_1_1boundaryconditions_1_1PenaltyBoundaryCondition.html" target="_top" xlink:title=" ">
<polygon fill="white" stroke="black" points="225,-105.5 225,-173.5 432,-173.5 432,-105.5 225,-105.5"/>
<text text-anchor="start" x="233" y="-161.5" font-family="Helvetica,sans-Serif" font-size="10.00">fem.discretization.boundaryconditions.</text>
<text text-anchor="middle" x="328.5" y="-150.5" font-family="Helvetica,sans-Serif" font-size="10.00">PenaltyBoundaryCondition</text>
<polyline fill="none" stroke="black" points="225,-143.5 432,-143.5 "/>
<text text-anchor="start" x="233" y="-131.5" font-family="Helvetica,sans-Serif" font-size="10.00">+ penaltyValue</text>
<polyline fill="none" stroke="black" points="225,-124.5 432,-124.5 "/>
<text text-anchor="start" x="233" y="-112.5" font-family="Helvetica,sans-Serif" font-size="10.00">+ __init__()</text>
</a>
</g>
</g>
<!-- Node1&#45;&gt;Node3 -->
<g id="edge2" class="edge">
<title>Node1&#45;&gt;Node3</title>
<path fill="none" stroke="midnightblue" d="M276.78,-202.74C285.18,-192.63 293.44,-182.69 300.81,-173.83"/>
<polygon fill="none" stroke="midnightblue" points="274.04,-200.56 270.34,-210.49 279.43,-205.04 274.04,-200.56"/>
</g>
<!-- Node4 -->
<g id="node4" class="node">
<title>Node4</title>
<g id="a_node4"><a xlink:href="classfem_1_1discretization_1_1boundaryconditions_1_1DirichletBoundary.html" target="_top" xlink:title=" ">
<polygon fill="white" stroke="black" points="225,-0.5 225,-68.5 432,-68.5 432,-0.5 225,-0.5"/>
<text text-anchor="start" x="233" y="-56.5" font-family="Helvetica,sans-Serif" font-size="10.00">fem.discretization.boundaryconditions.</text>
<text text-anchor="middle" x="328.5" y="-45.5" font-family="Helvetica,sans-Serif" font-size="10.00">DirichletBoundary</text>
<polyline fill="none" stroke="black" points="225,-38.5 432,-38.5 "/>
<text text-anchor="start" x="233" y="-26.5" font-family="Helvetica,sans-Serif" font-size="10.00">+ BCType</text>
<polyline fill="none" stroke="black" points="225,-19.5 432,-19.5 "/>
<text text-anchor="start" x="233" y="-7.5" font-family="Helvetica,sans-Serif" font-size="10.00">+ __init__()</text>
</a>
</g>
</g>
<!-- Node3&#45;&gt;Node4 -->
<g id="edge3" class="edge">
<title>Node3&#45;&gt;Node4</title>
<path fill="none" stroke="midnightblue" d="M328.5,-95.14C328.5,-86.26 328.5,-77.04 328.5,-68.59"/>
<polygon fill="none" stroke="midnightblue" points="325,-95.34 328.5,-105.34 332,-95.34 325,-95.34"/>
</g>
</g>
</svg>
