<?xml version="1.0" encoding="UTF-8" standalone="no"?>
<!DOCTYPE svg PUBLIC "-//W3C//DTD SVG 1.1//EN"
 "http://www.w3.org/Graphics/SVG/1.1/DTD/svg11.dtd">
<!-- Generated by graphviz version 2.43.0 (0)
 -->
<!-- Title: fem.discretization.basisfunctions.IntegratedHierarchicBasisFunctions Pages: 1 -->
<svg width="197pt" height="397pt"
 viewBox="0.00 0.00 197.00 397.00" xmlns="http://www.w3.org/2000/svg" xmlns:xlink="http://www.w3.org/1999/xlink">
<g id="graph0" class="graph" transform="scale(1 1) rotate(0) translate(4 393)">
<title>fem.discretization.basisfunctions.IntegratedHierarchicBasisFunctions</title>
<polygon fill="white" stroke="transparent" points="-4,4 -4,-393 193,-393 193,4 -4,4"/>
<!-- Node1 -->
<g id="node1" class="node">
<title>Node1</title>
<g id="a_node1"><a xlink:title="Hierarchic basis functions as proposed by Szabó &amp; Babuska For easier assembly, the first and last fun...">
<polygon fill="#bfbfbf" stroke="black" points="0,-0.5 0,-79.5 189,-79.5 189,-0.5 0,-0.5"/>
<text text-anchor="start" x="8" y="-67.5" font-family="Helvetica,sans-Serif" font-size="10.00">fem.discretization.basisfunctions.</text>
<text text-anchor="middle" x="94.5" y="-56.5" font-family="Helvetica,sans-Serif" font-size="10.00">IntegratedHierarchicBasisFunctions</text>
<polyline fill="none" stroke="black" points="0,-49.5 189,-49.5 "/>
<text text-anchor="start" x="8" y="-37.5" font-family="Helvetica,sans-Serif" font-size="10.00">+ polynomialOrder</text>
<polyline fill="none" stroke="black" points="0,-30.5 189,-30.5 "/>
<text text-anchor="start" x="8" y="-18.5" font-family="Helvetica,sans-Serif" font-size="10.00">+ __init__()</text>
<text text-anchor="start" x="8" y="-7.5" font-family="Helvetica,sans-Serif" font-size="10.00">+ derivatives()</text>
</a>
</g>
</g>
<!-- Node2 -->
<g id="node2" class="node">
<title>Node2</title>
<g id="a_node2"><a xlink:href="classfem_1_1discretization_1_1basisfunctions_1_1PolynomialBasisFunctions.html" target="_top" xlink:title="1D polynomial basis function abstract base class">
<polygon fill="white" stroke="black" points="3.5,-116.5 3.5,-184.5 185.5,-184.5 185.5,-116.5 3.5,-116.5"/>
<text text-anchor="start" x="11.5" y="-172.5" font-family="Helvetica,sans-Serif" font-size="10.00">fem.discretization.basisfunctions.</text>
<text text-anchor="middle" x="94.5" y="-161.5" font-family="Helvetica,sans-Serif" font-size="10.00">PolynomialBasisFunctions</text>
<polyline fill="none" stroke="black" points="3.5,-154.5 185.5,-154.5 "/>
<text text-anchor="start" x="11.5" y="-142.5" font-family="Helvetica,sans-Serif" font-size="10.00">+ polynomialOrder</text>
<polyline fill="none" stroke="black" points="3.5,-135.5 185.5,-135.5 "/>
<text text-anchor="start" x="11.5" y="-123.5" font-family="Helvetica,sans-Serif" font-size="10.00">+ __init__()</text>
</a>
</g>
</g>
<!-- Node2&#45;&gt;Node1 -->
<g id="edge1" class="edge">
<title>Node2&#45;&gt;Node1</title>
<path fill="none" stroke="midnightblue" d="M94.5,-106.27C94.5,-97.48 94.5,-88.28 94.5,-79.65"/>
<polygon fill="none" stroke="midnightblue" points="91,-106.36 94.5,-116.36 98,-106.36 91,-106.36"/>
</g>
<!-- Node3 -->
<g id="node3" class="node">
<title>Node3</title>
<g id="a_node3"><a xlink:href="classfem_1_1discretization_1_1basisfunctions_1_1BasisFunctions.html" target="_top" xlink:title="Abstract base class for a matching collection of 1D basis functions.">
<polygon fill="white" stroke="black" points="3.5,-221.5 3.5,-388.5 185.5,-388.5 185.5,-221.5 3.5,-221.5"/>
<text text-anchor="start" x="11.5" y="-376.5" font-family="Helvetica,sans-Serif" font-size="10.00">fem.discretization.basisfunctions.</text>
<text text-anchor="middle" x="94.5" y="-365.5" font-family="Helvetica,sans-Serif" font-size="10.00">BasisFunctions</text>
<polyline fill="none" stroke="black" points="3.5,-358.5 185.5,-358.5 "/>
<text text-anchor="start" x="11.5" y="-346.5" font-family="Helvetica,sans-Serif" font-size="10.00">+ dtype</text>
<text text-anchor="start" x="11.5" y="-335.5" font-family="Helvetica,sans-Serif" font-size="10.00">+ domain</text>
<polyline fill="none" stroke="black" points="3.5,-328.5 185.5,-328.5 "/>
<text text-anchor="start" x="11.5" y="-316.5" font-family="Helvetica,sans-Serif" font-size="10.00">+ __init__()</text>
<text text-anchor="start" x="11.5" y="-305.5" font-family="Helvetica,sans-Serif" font-size="10.00">+ evaluate()</text>
<text text-anchor="start" x="11.5" y="-294.5" font-family="Helvetica,sans-Serif" font-size="10.00">+ evaluateAll()</text>
<text text-anchor="start" x="11.5" y="-283.5" font-family="Helvetica,sans-Serif" font-size="10.00">+ __call__()</text>
<text text-anchor="start" x="11.5" y="-272.5" font-family="Helvetica,sans-Serif" font-size="10.00">+ __iter__()</text>
<text text-anchor="start" x="11.5" y="-261.5" font-family="Helvetica,sans-Serif" font-size="10.00">+ __next__()</text>
<text text-anchor="start" x="11.5" y="-250.5" font-family="Helvetica,sans-Serif" font-size="10.00">+ __len__()</text>
<text text-anchor="start" x="11.5" y="-239.5" font-family="Helvetica,sans-Serif" font-size="10.00">+ __getitem__()</text>
<text text-anchor="start" x="11.5" y="-228.5" font-family="Helvetica,sans-Serif" font-size="10.00">+ nodalFunctions()</text>
</a>
</g>
</g>
<!-- Node3&#45;&gt;Node2 -->
<g id="edge2" class="edge">
<title>Node3&#45;&gt;Node2</title>
<path fill="none" stroke="midnightblue" d="M94.5,-210.89C94.5,-201.63 94.5,-192.72 94.5,-184.74"/>
<polygon fill="none" stroke="midnightblue" points="91,-211.06 94.5,-221.06 98,-211.06 91,-211.06"/>
</g>
</g>
</svg>
