<?xml version="1.0" encoding="UTF-8" standalone="no"?>
<!DOCTYPE svg PUBLIC "-//W3C//DTD SVG 1.1//EN"
 "http://www.w3.org/Graphics/SVG/1.1/DTD/svg11.dtd">
<!-- Generated by graphviz version 2.43.0 (0)
 -->
<!-- Title: cie::fem::maths::AffineTransform&lt; TValue, Dimension &gt; Pages: 1 -->
<svg width="184pt" height="248pt"
 viewBox="0.00 0.00 184.00 248.00" xmlns="http://www.w3.org/2000/svg" xmlns:xlink="http://www.w3.org/1999/xlink">
<g id="graph0" class="graph" transform="scale(1 1) rotate(0) translate(4 244)">
<title>cie::fem::maths::AffineTransform&lt; TValue, Dimension &gt;</title>
<polygon fill="white" stroke="transparent" points="-4,4 -4,-244 180,-244 180,4 -4,4"/>
<!-- Node1 -->
<g id="node1" class="node">
<title>Node1</title>
<g id="a_node1"><a xlink:title="Class representing an affine transformation.">
<polygon fill="#bfbfbf" stroke="black" points="0,-0.5 0,-134.5 176,-134.5 176,-0.5 0,-0.5"/>
<text text-anchor="start" x="8" y="-122.5" font-family="Helvetica,sans-Serif" font-size="10.00">cie::fem::maths::AffineTransform</text>
<text text-anchor="middle" x="88" y="-111.5" font-family="Helvetica,sans-Serif" font-size="10.00">&lt; TValue, Dimension &gt;</text>
<polyline fill="none" stroke="black" points="0,-104.5 176,-104.5 "/>
<text text-anchor="middle" x="88" y="-92.5" font-family="Helvetica,sans-Serif" font-size="10.00"> </text>
<polyline fill="none" stroke="black" points="0,-85.5 176,-85.5 "/>
<text text-anchor="start" x="8" y="-73.5" font-family="Helvetica,sans-Serif" font-size="10.00">+ AffineTransform()</text>
<text text-anchor="start" x="8" y="-62.5" font-family="Helvetica,sans-Serif" font-size="10.00">+ AffineTransform()</text>
<text text-anchor="start" x="8" y="-51.5" font-family="Helvetica,sans-Serif" font-size="10.00">+ evaluate()</text>
<text text-anchor="start" x="8" y="-40.5" font-family="Helvetica,sans-Serif" font-size="10.00">+ size()</text>
<text text-anchor="start" x="8" y="-29.5" font-family="Helvetica,sans-Serif" font-size="10.00">+ makeDerivative()</text>
<text text-anchor="start" x="8" y="-18.5" font-family="Helvetica,sans-Serif" font-size="10.00">+ makeInverse()</text>
<text text-anchor="start" x="8" y="-7.5" font-family="Helvetica,sans-Serif" font-size="10.00">+ getTransformationMatrix()</text>
</a>
</g>
</g>
<!-- Node2 -->
<g id="node2" class="node">
<title>Node2</title>
<g id="a_node2"><a xlink:href="structcie_1_1fem_1_1maths_1_1ExpressionTraits.html" target="_top" xlink:title=" ">
<polygon fill="white" stroke="black" points="12,-171.5 12,-239.5 164,-239.5 164,-171.5 12,-171.5"/>
<text text-anchor="start" x="20" y="-227.5" font-family="Helvetica,sans-Serif" font-size="10.00">cie::fem::maths::Expression</text>
<text text-anchor="middle" x="88" y="-216.5" font-family="Helvetica,sans-Serif" font-size="10.00">Traits&lt; TValue &gt;</text>
<polyline fill="none" stroke="black" points="12,-209.5 164,-209.5 "/>
<text text-anchor="middle" x="88" y="-197.5" font-family="Helvetica,sans-Serif" font-size="10.00"> </text>
<polyline fill="none" stroke="black" points="12,-190.5 164,-190.5 "/>
<text text-anchor="middle" x="88" y="-178.5" font-family="Helvetica,sans-Serif" font-size="10.00"> </text>
</a>
</g>
</g>
<!-- Node2&#45;&gt;Node1 -->
<g id="edge1" class="edge">
<title>Node2&#45;&gt;Node1</title>
<path fill="none" stroke="#8b1a1a" d="M88,-160.96C88,-152.57 88,-143.6 88,-134.68"/>
<polygon fill="none" stroke="#8b1a1a" points="84.5,-161.23 88,-171.23 91.5,-161.23 84.5,-161.23"/>
</g>
</g>
</svg>
