<?xml version="1.0" encoding="UTF-8" standalone="no"?>
<!DOCTYPE svg PUBLIC "-//W3C//DTD SVG 1.1//EN"
 "http://www.w3.org/Graphics/SVG/1.1/DTD/svg11.dtd">
<!-- Generated by graphviz version 2.43.0 (0)
 -->
<!-- Title: object Pages: 1 -->
<svg width="1490pt" height="303pt"
 viewBox="0.00 0.00 1490.00 303.00" xmlns="http://www.w3.org/2000/svg" xmlns:xlink="http://www.w3.org/1999/xlink">
<g id="graph0" class="graph" transform="scale(1 1) rotate(0) translate(4 299)">
<title>object</title>
<polygon fill="white" stroke="transparent" points="-4,4 -4,-299 1486,-299 1486,4 -4,4"/>
<!-- Node1 -->
<g id="node1" class="node">
<title>Node1</title>
<g id="a_node1"><a xlink:title=" ">
<polygon fill="#bfbfbf" stroke="black" points="773.5,-237.5 773.5,-294.5 820.5,-294.5 820.5,-237.5 773.5,-237.5"/>
<text text-anchor="middle" x="797" y="-282.5" font-family="Helvetica,sans-Serif" font-size="10.00">object</text>
<polyline fill="none" stroke="black" points="773.5,-275.5 820.5,-275.5 "/>
<text text-anchor="middle" x="797" y="-263.5" font-family="Helvetica,sans-Serif" font-size="10.00"> </text>
<polyline fill="none" stroke="black" points="773.5,-256.5 820.5,-256.5 "/>
<text text-anchor="middle" x="797" y="-244.5" font-family="Helvetica,sans-Serif" font-size="10.00"> </text>
</a>
</g>
</g>
<!-- Node2 -->
<g id="node2" class="node">
<title>Node2</title>
<g id="a_node2"><a xlink:href="classoptcontrol_1_1autograd__parabolic_1_1parabolicProblem.html" target="_top" xlink:title=" ">
<polygon fill="white" stroke="black" points="0,-0.5 0,-200.5 164,-200.5 164,-0.5 0,-0.5"/>
<text text-anchor="start" x="8" y="-188.5" font-family="Helvetica,sans-Serif" font-size="10.00">optcontrol.autograd</text>
<text text-anchor="middle" x="82" y="-177.5" font-family="Helvetica,sans-Serif" font-size="10.00">_parabolic.parabolicProblem</text>
<polyline fill="none" stroke="black" points="0,-170.5 164,-170.5 "/>
<text text-anchor="start" x="8" y="-158.5" font-family="Helvetica,sans-Serif" font-size="10.00">+ l</text>
<text text-anchor="start" x="8" y="-147.5" font-family="Helvetica,sans-Serif" font-size="10.00">+ nTime</text>
<text text-anchor="start" x="8" y="-136.5" font-family="Helvetica,sans-Serif" font-size="10.00">+ dt</text>
<text text-anchor="start" x="8" y="-125.5" font-family="Helvetica,sans-Serif" font-size="10.00">+ theta</text>
<text text-anchor="start" x="8" y="-114.5" font-family="Helvetica,sans-Serif" font-size="10.00">+ pausetime</text>
<text text-anchor="start" x="8" y="-103.5" font-family="Helvetica,sans-Serif" font-size="10.00">+ k</text>
<text text-anchor="start" x="8" y="-92.5" font-family="Helvetica,sans-Serif" font-size="10.00">+ c</text>
<text text-anchor="start" x="8" y="-81.5" font-family="Helvetica,sans-Serif" font-size="10.00">+ stationaryDistributedSource</text>
<text text-anchor="start" x="8" y="-70.5" font-family="Helvetica,sans-Serif" font-size="10.00">+ transientDistributedSource</text>
<text text-anchor="start" x="8" y="-59.5" font-family="Helvetica,sans-Serif" font-size="10.00">+ leftNeumannBoundaryFlux</text>
<text text-anchor="start" x="8" y="-48.5" font-family="Helvetica,sans-Serif" font-size="10.00">and 33 more...</text>
<polyline fill="none" stroke="black" points="0,-41.5 164,-41.5 "/>
<text text-anchor="start" x="8" y="-29.5" font-family="Helvetica,sans-Serif" font-size="10.00">+ __init__()</text>
<text text-anchor="start" x="8" y="-18.5" font-family="Helvetica,sans-Serif" font-size="10.00">+ __call__()</text>
<text text-anchor="start" x="8" y="-7.5" font-family="Helvetica,sans-Serif" font-size="10.00">+ plotSim()</text>
</a>
</g>
</g>
<!-- Node1&#45;&gt;Node2 -->
<g id="edge1" class="edge">
<title>Node1&#45;&gt;Node2</title>
<path fill="none" stroke="midnightblue" d="M763.03,-264.66C648.51,-263.04 277.85,-253.75 173,-201 169.97,-199.47 166.99,-197.8 164.06,-196.01"/>
<polygon fill="none" stroke="midnightblue" points="763.26,-268.17 773.3,-264.8 763.35,-261.17 763.26,-268.17"/>
</g>
<!-- Node3 -->
<g id="node3" class="node">
<title>Node3</title>
<g id="a_node3"><a xlink:href="classoptcontrol_1_1numeric_1_1basisfunctions_1_1GridTensorProduct.html" target="_top" xlink:title=" ">
<polygon fill="white" stroke="black" points="182.5,-55.5 182.5,-145.5 389.5,-145.5 389.5,-55.5 182.5,-55.5"/>
<text text-anchor="start" x="190.5" y="-133.5" font-family="Helvetica,sans-Serif" font-size="10.00">optcontrol.numeric.basisfunctions.</text>
<text text-anchor="middle" x="286" y="-122.5" font-family="Helvetica,sans-Serif" font-size="10.00">GridTensorProduct</text>
<polyline fill="none" stroke="black" points="182.5,-115.5 389.5,-115.5 "/>
<text text-anchor="start" x="190.5" y="-103.5" font-family="Helvetica,sans-Serif" font-size="10.00">+ basisFunctions</text>
<polyline fill="none" stroke="black" points="182.5,-96.5 389.5,-96.5 "/>
<text text-anchor="start" x="190.5" y="-84.5" font-family="Helvetica,sans-Serif" font-size="10.00">+ __init__()</text>
<text text-anchor="start" x="190.5" y="-73.5" font-family="Helvetica,sans-Serif" font-size="10.00">+ evaluate()</text>
<text text-anchor="start" x="190.5" y="-62.5" font-family="Helvetica,sans-Serif" font-size="10.00">+ createNumberingForOrderTemplate()</text>
</a>
</g>
</g>
<!-- Node1&#45;&gt;Node3 -->
<g id="edge2" class="edge">
<title>Node1&#45;&gt;Node3</title>
<path fill="none" stroke="midnightblue" d="M762.97,-265.8C691.66,-266.18 522.82,-260.17 398,-201 370.27,-187.85 344.31,-165.69 324.37,-145.61"/>
<polygon fill="none" stroke="midnightblue" points="763.2,-269.3 773.16,-265.7 763.13,-262.3 763.2,-269.3"/>
</g>
<!-- Node4 -->
<g id="node4" class="node">
<title>Node4</title>
<g id="a_node4"><a xlink:href="classoptcontrol_1_1numeric_1_1basisfunctions_1_1IntegratedLegendre.html" target="_top" xlink:title="Integrated legendre basis functions.">
<polygon fill="white" stroke="black" points="407.5,-39 407.5,-162 592.5,-162 592.5,-39 407.5,-39"/>
<text text-anchor="start" x="415.5" y="-150" font-family="Helvetica,sans-Serif" font-size="10.00">optcontrol.numeric.basisfunctions.</text>
<text text-anchor="middle" x="500" y="-139" font-family="Helvetica,sans-Serif" font-size="10.00">IntegratedLegendre</text>
<polyline fill="none" stroke="black" points="407.5,-132 592.5,-132 "/>
<text text-anchor="start" x="415.5" y="-120" font-family="Helvetica,sans-Serif" font-size="10.00">+ maxFactorIndex</text>
<text text-anchor="start" x="415.5" y="-109" font-family="Helvetica,sans-Serif" font-size="10.00">+ factors</text>
<text text-anchor="start" x="415.5" y="-98" font-family="Helvetica,sans-Serif" font-size="10.00">+ oneOverJ</text>
<text text-anchor="start" x="415.5" y="-87" font-family="Helvetica,sans-Serif" font-size="10.00">+ twoJminusOne</text>
<text text-anchor="start" x="415.5" y="-76" font-family="Helvetica,sans-Serif" font-size="10.00">+ JminusOne</text>
<polyline fill="none" stroke="black" points="407.5,-69 592.5,-69 "/>
<text text-anchor="start" x="415.5" y="-57" font-family="Helvetica,sans-Serif" font-size="10.00">+ __init__()</text>
<text text-anchor="start" x="415.5" y="-46" font-family="Helvetica,sans-Serif" font-size="10.00">+ __call__()</text>
</a>
</g>
</g>
<!-- Node1&#45;&gt;Node4 -->
<g id="edge3" class="edge">
<title>Node1&#45;&gt;Node4</title>
<path fill="none" stroke="midnightblue" d="M763.57,-258.99C722.88,-250.62 653.18,-232.76 601,-201 583.65,-190.44 567,-176.36 552.39,-162.11"/>
<polygon fill="none" stroke="midnightblue" points="763.01,-262.45 773.5,-260.97 764.37,-255.58 763.01,-262.45"/>
</g>
<!-- Node5 -->
<g id="node5" class="node">
<title>Node5</title>
<g id="a_node5"><a xlink:href="classoptcontrol_1_1numeric_1_1basisfunctions_1_1Lagrange.html" target="_top" xlink:title="Lagrange basis functions.">
<polygon fill="white" stroke="black" points="610.5,-55.5 610.5,-145.5 795.5,-145.5 795.5,-55.5 610.5,-55.5"/>
<text text-anchor="start" x="618.5" y="-133.5" font-family="Helvetica,sans-Serif" font-size="10.00">optcontrol.numeric.basisfunctions.</text>
<text text-anchor="middle" x="703" y="-122.5" font-family="Helvetica,sans-Serif" font-size="10.00">Lagrange</text>
<polyline fill="none" stroke="black" points="610.5,-115.5 795.5,-115.5 "/>
<text text-anchor="start" x="618.5" y="-103.5" font-family="Helvetica,sans-Serif" font-size="10.00">+ samplePointProvider</text>
<text text-anchor="start" x="618.5" y="-92.5" font-family="Helvetica,sans-Serif" font-size="10.00">+ coefficients</text>
<polyline fill="none" stroke="black" points="610.5,-85.5 795.5,-85.5 "/>
<text text-anchor="start" x="618.5" y="-73.5" font-family="Helvetica,sans-Serif" font-size="10.00">+ __init__()</text>
<text text-anchor="start" x="618.5" y="-62.5" font-family="Helvetica,sans-Serif" font-size="10.00">+ __call__()</text>
</a>
</g>
</g>
<!-- Node1&#45;&gt;Node5 -->
<g id="edge4" class="edge">
<title>Node1&#45;&gt;Node5</title>
<path fill="none" stroke="midnightblue" d="M775.9,-228.31C761.85,-203.86 743.3,-171.6 728.43,-145.73"/>
<polygon fill="none" stroke="midnightblue" points="773.04,-230.34 781.05,-237.26 779.1,-226.85 773.04,-230.34"/>
</g>
<!-- Node6 -->
<g id="node6" class="node">
<title>Node6</title>
<g id="a_node6"><a xlink:href="classoptcontrol_1_1numeric_1_1functors_1_1FunctorBinaryOperation.html" target="_top" xlink:title=" ">
<polygon fill="white" stroke="black" points="813.5,-50 813.5,-151 968.5,-151 968.5,-50 813.5,-50"/>
<text text-anchor="start" x="821.5" y="-139" font-family="Helvetica,sans-Serif" font-size="10.00">optcontrol.numeric.functors.</text>
<text text-anchor="middle" x="891" y="-128" font-family="Helvetica,sans-Serif" font-size="10.00">FunctorBinaryOperation</text>
<polyline fill="none" stroke="black" points="813.5,-121 968.5,-121 "/>
<text text-anchor="start" x="821.5" y="-109" font-family="Helvetica,sans-Serif" font-size="10.00">+ f1</text>
<text text-anchor="start" x="821.5" y="-98" font-family="Helvetica,sans-Serif" font-size="10.00">+ f2</text>
<text text-anchor="start" x="821.5" y="-87" font-family="Helvetica,sans-Serif" font-size="10.00">+ op</text>
<polyline fill="none" stroke="black" points="813.5,-80 968.5,-80 "/>
<text text-anchor="start" x="821.5" y="-68" font-family="Helvetica,sans-Serif" font-size="10.00">+ __init__()</text>
<text text-anchor="start" x="821.5" y="-57" font-family="Helvetica,sans-Serif" font-size="10.00">+ __call__()</text>
</a>
</g>
</g>
<!-- Node1&#45;&gt;Node6 -->
<g id="edge5" class="edge">
<title>Node1&#45;&gt;Node6</title>
<path fill="none" stroke="midnightblue" d="M817.94,-228.58C831.03,-205.81 848.08,-176.16 862.41,-151.23"/>
<polygon fill="none" stroke="midnightblue" points="814.9,-226.85 812.95,-237.26 820.96,-230.34 814.9,-226.85"/>
</g>
<!-- Node7 -->
<g id="node7" class="node">
<title>Node7</title>
<g id="a_node7"><a xlink:href="classoptcontrol_1_1numeric_1_1functors_1_1FunctorUnaryOperation.html" target="_top" xlink:title=" ">
<polygon fill="white" stroke="black" points="986.5,-55.5 986.5,-145.5 1141.5,-145.5 1141.5,-55.5 986.5,-55.5"/>
<text text-anchor="start" x="994.5" y="-133.5" font-family="Helvetica,sans-Serif" font-size="10.00">optcontrol.numeric.functors.</text>
<text text-anchor="middle" x="1064" y="-122.5" font-family="Helvetica,sans-Serif" font-size="10.00">FunctorUnaryOperation</text>
<polyline fill="none" stroke="black" points="986.5,-115.5 1141.5,-115.5 "/>
<text text-anchor="start" x="994.5" y="-103.5" font-family="Helvetica,sans-Serif" font-size="10.00">+ f</text>
<text text-anchor="start" x="994.5" y="-92.5" font-family="Helvetica,sans-Serif" font-size="10.00">+ op</text>
<polyline fill="none" stroke="black" points="986.5,-85.5 1141.5,-85.5 "/>
<text text-anchor="start" x="994.5" y="-73.5" font-family="Helvetica,sans-Serif" font-size="10.00">+ __init__()</text>
<text text-anchor="start" x="994.5" y="-62.5" font-family="Helvetica,sans-Serif" font-size="10.00">+ __call__()</text>
</a>
</g>
</g>
<!-- Node1&#45;&gt;Node7 -->
<g id="edge6" class="edge">
<title>Node1&#45;&gt;Node7</title>
<path fill="none" stroke="midnightblue" d="M830.88,-258.52C869.15,-250.02 932.08,-232.35 978,-201 999.59,-186.26 1019.07,-164.8 1034.01,-145.58"/>
<polygon fill="none" stroke="midnightblue" points="829.82,-255.17 820.77,-260.68 831.28,-262.02 829.82,-255.17"/>
</g>
<!-- Node8 -->
<g id="node8" class="node">
<title>Node8</title>
<g id="a_node8"><a xlink:href="classoptcontrol_1_1numeric_1_1integration_1_1IntegrationPointProvider.html" target="_top" xlink:title=" ">
<polygon fill="white" stroke="black" points="1160,-55.5 1160,-145.5 1328,-145.5 1328,-55.5 1160,-55.5"/>
<text text-anchor="start" x="1168" y="-133.5" font-family="Helvetica,sans-Serif" font-size="10.00">optcontrol.numeric.integration.</text>
<text text-anchor="middle" x="1244" y="-122.5" font-family="Helvetica,sans-Serif" font-size="10.00">IntegrationPointProvider</text>
<polyline fill="none" stroke="black" points="1160,-115.5 1328,-115.5 "/>
<text text-anchor="start" x="1168" y="-103.5" font-family="Helvetica,sans-Serif" font-size="10.00">+ provider</text>
<text text-anchor="start" x="1168" y="-92.5" font-family="Helvetica,sans-Serif" font-size="10.00">+ integrationPoints</text>
<polyline fill="none" stroke="black" points="1160,-85.5 1328,-85.5 "/>
<text text-anchor="start" x="1168" y="-73.5" font-family="Helvetica,sans-Serif" font-size="10.00">+ __init__()</text>
<text text-anchor="start" x="1168" y="-62.5" font-family="Helvetica,sans-Serif" font-size="10.00">+ __call__()</text>
</a>
</g>
</g>
<!-- Node1&#45;&gt;Node8 -->
<g id="edge7" class="edge">
<title>Node1&#45;&gt;Node8</title>
<path fill="none" stroke="midnightblue" d="M830.8,-265.76C896.61,-265.82 1044.77,-258.9 1151,-201 1175.4,-187.7 1196.99,-165.65 1213.21,-145.68"/>
<polygon fill="none" stroke="midnightblue" points="830.62,-262.26 820.6,-265.69 830.58,-269.26 830.62,-262.26"/>
</g>
<!-- Node9 -->
<g id="node9" class="node">
<title>Node9</title>
<g id="a_node9"><a xlink:href="classoptcontrol_1_1plotter_1_1plotter.html" target="_top" xlink:title=" ">
<polygon fill="white" stroke="black" points="1346,-44.5 1346,-156.5 1482,-156.5 1482,-44.5 1346,-44.5"/>
<text text-anchor="middle" x="1414" y="-144.5" font-family="Helvetica,sans-Serif" font-size="10.00">optcontrol.plotter.plotter</text>
<polyline fill="none" stroke="black" points="1346,-137.5 1482,-137.5 "/>
<text text-anchor="start" x="1354" y="-125.5" font-family="Helvetica,sans-Serif" font-size="10.00">+ ax</text>
<text text-anchor="start" x="1354" y="-114.5" font-family="Helvetica,sans-Serif" font-size="10.00">+ plotHandles</text>
<text text-anchor="start" x="1354" y="-103.5" font-family="Helvetica,sans-Serif" font-size="10.00">+ plotHandles</text>
<polyline fill="none" stroke="black" points="1346,-96.5 1482,-96.5 "/>
<text text-anchor="start" x="1354" y="-84.5" font-family="Helvetica,sans-Serif" font-size="10.00">+ __init__()</text>
<text text-anchor="start" x="1354" y="-73.5" font-family="Helvetica,sans-Serif" font-size="10.00">+ plot()</text>
<text text-anchor="start" x="1354" y="-62.5" font-family="Helvetica,sans-Serif" font-size="10.00">+ update()</text>
<text text-anchor="start" x="1354" y="-51.5" font-family="Helvetica,sans-Serif" font-size="10.00">+ close()</text>
</a>
</g>
</g>
<!-- Node1&#45;&gt;Node9 -->
<g id="edge8" class="edge">
<title>Node1&#45;&gt;Node9</title>
<path fill="none" stroke="midnightblue" d="M830.94,-264.36C935.32,-261.89 1249.72,-250.41 1337,-201 1355.53,-190.51 1371.12,-173.58 1383.31,-156.63"/>
<polygon fill="none" stroke="midnightblue" points="830.59,-260.87 820.67,-264.59 830.75,-267.87 830.59,-260.87"/>
</g>
</g>
</svg>
