<?xml version="1.0" encoding="UTF-8" standalone="no"?>
<!DOCTYPE svg PUBLIC "-//W3C//DTD SVG 1.1//EN"
 "http://www.w3.org/Graphics/SVG/1.1/DTD/svg11.dtd">
<!-- Generated by graphviz version 2.43.0 (0)
 -->
<!-- Title: cie::fem::maths::ScaleTranslateTransform&lt; TValue, Dimension &gt; Pages: 1 -->
<svg width="187pt" height="237pt"
 viewBox="0.00 0.00 187.00 237.00" xmlns="http://www.w3.org/2000/svg" xmlns:xlink="http://www.w3.org/1999/xlink">
<g id="graph0" class="graph" transform="scale(1 1) rotate(0) translate(4 233)">
<title>cie::fem::maths::ScaleTranslateTransform&lt; TValue, Dimension &gt;</title>
<polygon fill="white" stroke="transparent" points="-4,4 -4,-233 183,-233 183,4 -4,4"/>
<!-- Node1 -->
<g id="node1" class="node">
<title>Node1</title>
<g id="a_node1"><a xlink:title="Class representing independent scaling along orthogonal coordinate axes, followed by a translation.">
<polygon fill="#bfbfbf" stroke="black" points="0,-0.5 0,-123.5 179,-123.5 179,-0.5 0,-0.5"/>
<text text-anchor="start" x="8" y="-111.5" font-family="Helvetica,sans-Serif" font-size="10.00">cie::fem::maths::ScaleTranslate</text>
<text text-anchor="middle" x="89.5" y="-100.5" font-family="Helvetica,sans-Serif" font-size="10.00">Transform&lt; TValue, Dimension &gt;</text>
<polyline fill="none" stroke="black" points="0,-93.5 179,-93.5 "/>
<text text-anchor="middle" x="89.5" y="-81.5" font-family="Helvetica,sans-Serif" font-size="10.00"> </text>
<polyline fill="none" stroke="black" points="0,-74.5 179,-74.5 "/>
<text text-anchor="start" x="8" y="-62.5" font-family="Helvetica,sans-Serif" font-size="10.00">+ ScaleTranslateTransform()</text>
<text text-anchor="start" x="8" y="-51.5" font-family="Helvetica,sans-Serif" font-size="10.00">+ ScaleTranslateTransform()</text>
<text text-anchor="start" x="8" y="-40.5" font-family="Helvetica,sans-Serif" font-size="10.00">+ evaluate()</text>
<text text-anchor="start" x="8" y="-29.5" font-family="Helvetica,sans-Serif" font-size="10.00">+ size()</text>
<text text-anchor="start" x="8" y="-18.5" font-family="Helvetica,sans-Serif" font-size="10.00">+ makeDerivative()</text>
<text text-anchor="start" x="8" y="-7.5" font-family="Helvetica,sans-Serif" font-size="10.00">+ makeInverse()</text>
</a>
</g>
</g>
<!-- Node2 -->
<g id="node2" class="node">
<title>Node2</title>
<g id="a_node2"><a xlink:href="structcie_1_1fem_1_1maths_1_1ExpressionTraits.html" target="_top" xlink:title=" ">
<polygon fill="white" stroke="black" points="13.5,-160.5 13.5,-228.5 165.5,-228.5 165.5,-160.5 13.5,-160.5"/>
<text text-anchor="start" x="21.5" y="-216.5" font-family="Helvetica,sans-Serif" font-size="10.00">cie::fem::maths::Expression</text>
<text text-anchor="middle" x="89.5" y="-205.5" font-family="Helvetica,sans-Serif" font-size="10.00">Traits&lt; TValue &gt;</text>
<polyline fill="none" stroke="black" points="13.5,-198.5 165.5,-198.5 "/>
<text text-anchor="middle" x="89.5" y="-186.5" font-family="Helvetica,sans-Serif" font-size="10.00"> </text>
<polyline fill="none" stroke="black" points="13.5,-179.5 165.5,-179.5 "/>
<text text-anchor="middle" x="89.5" y="-167.5" font-family="Helvetica,sans-Serif" font-size="10.00"> </text>
</a>
</g>
</g>
<!-- Node2&#45;&gt;Node1 -->
<g id="edge1" class="edge">
<title>Node2&#45;&gt;Node1</title>
<path fill="none" stroke="#8b1a1a" d="M89.5,-150.17C89.5,-141.65 89.5,-132.57 89.5,-123.61"/>
<polygon fill="none" stroke="#8b1a1a" points="86,-150.23 89.5,-160.23 93,-150.23 86,-150.23"/>
</g>
</g>
</svg>
