<?xml version="1.0" encoding="UTF-8" standalone="no"?>
<!DOCTYPE svg PUBLIC "-//W3C//DTD SVG 1.1//EN"
 "http://www.w3.org/Graphics/SVG/1.1/DTD/svg11.dtd">
<!-- Generated by graphviz version 2.43.0 (0)
 -->
<!-- Title: fem.discretization.boundaryconditions.DirichletBoundary Pages: 1 -->
<svg width="215pt" height="353pt"
 viewBox="0.00 0.00 215.00 353.00" xmlns="http://www.w3.org/2000/svg" xmlns:xlink="http://www.w3.org/1999/xlink">
<g id="graph0" class="graph" transform="scale(1 1) rotate(0) translate(4 349)">
<title>fem.discretization.boundaryconditions.DirichletBoundary</title>
<polygon fill="white" stroke="transparent" points="-4,4 -4,-349 211,-349 211,4 -4,4"/>
<!-- Node1 -->
<g id="node1" class="node">
<title>Node1</title>
<g id="a_node1"><a xlink:title=" ">
<polygon fill="#bfbfbf" stroke="black" points="0,-0.5 0,-68.5 207,-68.5 207,-0.5 0,-0.5"/>
<text text-anchor="start" x="8" y="-56.5" font-family="Helvetica,sans-Serif" font-size="10.00">fem.discretization.boundaryconditions.</text>
<text text-anchor="middle" x="103.5" y="-45.5" font-family="Helvetica,sans-Serif" font-size="10.00">DirichletBoundary</text>
<polyline fill="none" stroke="black" points="0,-38.5 207,-38.5 "/>
<text text-anchor="start" x="8" y="-26.5" font-family="Helvetica,sans-Serif" font-size="10.00">+ BCType</text>
<polyline fill="none" stroke="black" points="0,-19.5 207,-19.5 "/>
<text text-anchor="start" x="8" y="-7.5" font-family="Helvetica,sans-Serif" font-size="10.00">+ __init__()</text>
</a>
</g>
</g>
<!-- Node2 -->
<g id="node2" class="node">
<title>Node2</title>
<g id="a_node2"><a xlink:href="classfem_1_1discretization_1_1boundaryconditions_1_1PenaltyBoundaryCondition.html" target="_top" xlink:title=" ">
<polygon fill="white" stroke="black" points="0,-105.5 0,-173.5 207,-173.5 207,-105.5 0,-105.5"/>
<text text-anchor="start" x="8" y="-161.5" font-family="Helvetica,sans-Serif" font-size="10.00">fem.discretization.boundaryconditions.</text>
<text text-anchor="middle" x="103.5" y="-150.5" font-family="Helvetica,sans-Serif" font-size="10.00">PenaltyBoundaryCondition</text>
<polyline fill="none" stroke="black" points="0,-143.5 207,-143.5 "/>
<text text-anchor="start" x="8" y="-131.5" font-family="Helvetica,sans-Serif" font-size="10.00">+ penaltyValue</text>
<polyline fill="none" stroke="black" points="0,-124.5 207,-124.5 "/>
<text text-anchor="start" x="8" y="-112.5" font-family="Helvetica,sans-Serif" font-size="10.00">+ __init__()</text>
</a>
</g>
</g>
<!-- Node2&#45;&gt;Node1 -->
<g id="edge1" class="edge">
<title>Node2&#45;&gt;Node1</title>
<path fill="none" stroke="midnightblue" d="M103.5,-95.14C103.5,-86.26 103.5,-77.04 103.5,-68.59"/>
<polygon fill="none" stroke="midnightblue" points="100,-95.34 103.5,-105.34 107,-95.34 100,-95.34"/>
</g>
<!-- Node3 -->
<g id="node3" class="node">
<title>Node3</title>
<g id="a_node3"><a xlink:href="classfem_1_1discretization_1_1boundaryconditions_1_1BoundaryCondition.html" target="_top" xlink:title="Boundary condition base class.">
<polygon fill="white" stroke="black" points="0,-210.5 0,-344.5 207,-344.5 207,-210.5 0,-210.5"/>
<text text-anchor="start" x="8" y="-332.5" font-family="Helvetica,sans-Serif" font-size="10.00">fem.discretization.boundaryconditions.</text>
<text text-anchor="middle" x="103.5" y="-321.5" font-family="Helvetica,sans-Serif" font-size="10.00">BoundaryCondition</text>
<polyline fill="none" stroke="black" points="0,-314.5 207,-314.5 "/>
<text text-anchor="start" x="8" y="-302.5" font-family="Helvetica,sans-Serif" font-size="10.00">+ DoF</text>
<text text-anchor="start" x="8" y="-291.5" font-family="Helvetica,sans-Serif" font-size="10.00">+ position</text>
<text text-anchor="start" x="8" y="-280.5" font-family="Helvetica,sans-Serif" font-size="10.00">+ value</text>
<text text-anchor="start" x="8" y="-269.5" font-family="Helvetica,sans-Serif" font-size="10.00">+ elementIDs</text>
<text text-anchor="start" x="8" y="-258.5" font-family="Helvetica,sans-Serif" font-size="10.00">+ BCType</text>
<text text-anchor="start" x="8" y="-247.5" font-family="Helvetica,sans-Serif" font-size="10.00">+ applied</text>
<polyline fill="none" stroke="black" points="0,-240.5 207,-240.5 "/>
<text text-anchor="start" x="8" y="-228.5" font-family="Helvetica,sans-Serif" font-size="10.00">+ __init__()</text>
<text text-anchor="start" x="8" y="-217.5" font-family="Helvetica,sans-Serif" font-size="10.00">+ initialize()</text>
</a>
</g>
</g>
<!-- Node3&#45;&gt;Node2 -->
<g id="edge2" class="edge">
<title>Node3&#45;&gt;Node2</title>
<path fill="none" stroke="midnightblue" d="M103.5,-200.37C103.5,-191.08 103.5,-182 103.5,-173.83"/>
<polygon fill="none" stroke="midnightblue" points="100,-200.49 103.5,-210.49 107,-200.49 100,-200.49"/>
</g>
</g>
</svg>
