<?xml version="1.0" encoding="UTF-8" standalone="no"?>
<!DOCTYPE svg PUBLIC "-//W3C//DTD SVG 1.1//EN"
 "http://www.w3.org/Graphics/SVG/1.1/DTD/svg11.dtd">
<!-- Generated by graphviz version 2.43.0 (0)
 -->
<!-- Title: fem.optcontrol.adjointelement.AdjointHeatElement1D Pages: 1 -->
<svg width="202pt" height="292pt"
 viewBox="0.00 0.00 202.00 292.00" xmlns="http://www.w3.org/2000/svg" xmlns:xlink="http://www.w3.org/1999/xlink">
<g id="graph0" class="graph" transform="scale(1 1) rotate(0) translate(4 288)">
<title>fem.optcontrol.adjointelement.AdjointHeatElement1D</title>
<polygon fill="white" stroke="transparent" points="-4,4 -4,-288 198,-288 198,4 -4,4"/>
<!-- Node1 -->
<g id="node1" class="node">
<title>Node1</title>
<g id="a_node1"><a xlink:title="Element type for AdjointModel The coefficients (capacity, conductivity) don&#39;t depend on the solution ...">
<polygon fill="#bfbfbf" stroke="black" points="0,-0.5 0,-189.5 194,-189.5 194,-0.5 0,-0.5"/>
<text text-anchor="start" x="8" y="-177.5" font-family="Helvetica,sans-Serif" font-size="10.00">fem.optcontrol.adjointelement.</text>
<text text-anchor="middle" x="97" y="-166.5" font-family="Helvetica,sans-Serif" font-size="10.00">AdjointHeatElement1D</text>
<polyline fill="none" stroke="black" points="0,-159.5 194,-159.5 "/>
<text text-anchor="start" x="8" y="-147.5" font-family="Helvetica,sans-Serif" font-size="10.00">+ element</text>
<text text-anchor="start" x="8" y="-136.5" font-family="Helvetica,sans-Serif" font-size="10.00">+ solutionField</text>
<text text-anchor="start" x="8" y="-125.5" font-family="Helvetica,sans-Serif" font-size="10.00">+ derivativeField</text>
<text text-anchor="start" x="8" y="-114.5" font-family="Helvetica,sans-Serif" font-size="10.00">+ forwardSolution</text>
<text text-anchor="start" x="8" y="-103.5" font-family="Helvetica,sans-Serif" font-size="10.00">+ timeIndex</text>
<polyline fill="none" stroke="black" points="0,-96.5 194,-96.5 "/>
<text text-anchor="start" x="8" y="-84.5" font-family="Helvetica,sans-Serif" font-size="10.00">+ __init__()</text>
<text text-anchor="start" x="8" y="-73.5" font-family="Helvetica,sans-Serif" font-size="10.00">+ capacity()</text>
<text text-anchor="start" x="8" y="-62.5" font-family="Helvetica,sans-Serif" font-size="10.00">+ conductivity()</text>
<text text-anchor="start" x="8" y="-51.5" font-family="Helvetica,sans-Serif" font-size="10.00">+ conductivityDerivative()</text>
<text text-anchor="start" x="8" y="-40.5" font-family="Helvetica,sans-Serif" font-size="10.00">+ integrateNonsymmetricStiffness()</text>
<text text-anchor="start" x="8" y="-29.5" font-family="Helvetica,sans-Serif" font-size="10.00">+ integrateMass()</text>
<text text-anchor="start" x="8" y="-18.5" font-family="Helvetica,sans-Serif" font-size="10.00">+ integrateStiffness()</text>
<text text-anchor="start" x="8" y="-7.5" font-family="Helvetica,sans-Serif" font-size="10.00">+ integrateLoad()</text>
</a>
</g>
</g>
<!-- Node2 -->
<g id="node2" class="node">
<title>Node2</title>
<g id="a_node2"><a xlink:title=" ">
<polygon fill="white" stroke="#bfbfbf" points="61.5,-226.5 61.5,-283.5 132.5,-283.5 132.5,-226.5 61.5,-226.5"/>
<text text-anchor="middle" x="97" y="-271.5" font-family="Helvetica,sans-Serif" font-size="10.00">Element1D</text>
<polyline fill="none" stroke="#bfbfbf" points="61.5,-264.5 132.5,-264.5 "/>
<text text-anchor="middle" x="97" y="-252.5" font-family="Helvetica,sans-Serif" font-size="10.00"> </text>
<polyline fill="none" stroke="#bfbfbf" points="61.5,-245.5 132.5,-245.5 "/>
<text text-anchor="middle" x="97" y="-233.5" font-family="Helvetica,sans-Serif" font-size="10.00"> </text>
</a>
</g>
</g>
<!-- Node2&#45;&gt;Node1 -->
<g id="edge1" class="edge">
<title>Node2&#45;&gt;Node1</title>
<path fill="none" stroke="midnightblue" d="M97,-216.22C97,-208.01 97,-198.99 97,-189.68"/>
<polygon fill="none" stroke="midnightblue" points="93.5,-216.48 97,-226.48 100.5,-216.48 93.5,-216.48"/>
</g>
</g>
</svg>
