<?xml version="1.0" encoding="UTF-8" standalone="no"?>
<!DOCTYPE svg PUBLIC "-//W3C//DTD SVG 1.1//EN"
 "http://www.w3.org/Graphics/SVG/1.1/DTD/svg11.dtd">
<!-- Generated by graphviz version 2.43.0 (0)
 -->
<!-- Title: cie::fem::maths::AnsatzSpace&lt; TScalarExpression, Dim &gt; Pages: 1 -->
<svg width="193pt" height="376pt"
 viewBox="0.00 0.00 192.50 376.00" xmlns="http://www.w3.org/2000/svg" xmlns:xlink="http://www.w3.org/1999/xlink">
<g id="graph0" class="graph" transform="scale(1 1) rotate(0) translate(4 372)">
<title>cie::fem::maths::AnsatzSpace&lt; TScalarExpression, Dim &gt;</title>
<polygon fill="white" stroke="transparent" points="-4,4 -4,-372 188.5,-372 188.5,4 -4,4"/>
<!-- Node1 -->
<g id="node1" class="node">
<title>Node1</title>
<g id="a_node1"><a xlink:title="A set of multidimensional functions constructed from the cartesian product of a set of scalar basis f...">
<polygon fill="#bfbfbf" stroke="black" points="0,-0.5 0,-123.5 161,-123.5 161,-0.5 0,-0.5"/>
<text text-anchor="start" x="8" y="-111.5" font-family="Helvetica,sans-Serif" font-size="10.00">cie::fem::maths::AnsatzSpace</text>
<text text-anchor="middle" x="80.5" y="-100.5" font-family="Helvetica,sans-Serif" font-size="10.00">&lt; TScalarExpression, Dim &gt;</text>
<polyline fill="none" stroke="black" points="0,-93.5 161,-93.5 "/>
<text text-anchor="start" x="8" y="-81.5" font-family="Helvetica,sans-Serif" font-size="10.00">+ Dimension</text>
<polyline fill="none" stroke="black" points="0,-74.5 161,-74.5 "/>
<text text-anchor="start" x="8" y="-62.5" font-family="Helvetica,sans-Serif" font-size="10.00">+ AnsatzSpace()</text>
<text text-anchor="start" x="8" y="-51.5" font-family="Helvetica,sans-Serif" font-size="10.00">+ AnsatzSpace()</text>
<text text-anchor="start" x="8" y="-40.5" font-family="Helvetica,sans-Serif" font-size="10.00">+ AnsatzSpace()</text>
<text text-anchor="start" x="8" y="-29.5" font-family="Helvetica,sans-Serif" font-size="10.00">+ evaluate()</text>
<text text-anchor="start" x="8" y="-18.5" font-family="Helvetica,sans-Serif" font-size="10.00">+ makeDerivative()</text>
<text text-anchor="start" x="8" y="-7.5" font-family="Helvetica,sans-Serif" font-size="10.00">+ size()</text>
</a>
</g>
</g>
<!-- Node2 -->
<g id="node2" class="node">
<title>Node2</title>
<g id="a_node2"><a xlink:href="structcie_1_1fem_1_1maths_1_1ExpressionTraits.html" target="_top" xlink:title=" ">
<polygon fill="white" stroke="black" points="4.5,-161.5 4.5,-240.5 156.5,-240.5 156.5,-161.5 4.5,-161.5"/>
<text text-anchor="start" x="12.5" y="-228.5" font-family="Helvetica,sans-Serif" font-size="10.00">cie::fem::maths::Expression</text>
<text text-anchor="start" x="12.5" y="-217.5" font-family="Helvetica,sans-Serif" font-size="10.00">Traits&lt; TScalarExpression</text>
<text text-anchor="middle" x="80.5" y="-206.5" font-family="Helvetica,sans-Serif" font-size="10.00">::Value &gt;</text>
<polyline fill="none" stroke="black" points="4.5,-199.5 156.5,-199.5 "/>
<text text-anchor="middle" x="80.5" y="-187.5" font-family="Helvetica,sans-Serif" font-size="10.00"> </text>
<polyline fill="none" stroke="black" points="4.5,-180.5 156.5,-180.5 "/>
<text text-anchor="middle" x="80.5" y="-168.5" font-family="Helvetica,sans-Serif" font-size="10.00"> </text>
</a>
</g>
</g>
<!-- Node2&#45;&gt;Node1 -->
<g id="edge1" class="edge">
<title>Node2&#45;&gt;Node1</title>
<path fill="none" stroke="midnightblue" d="M80.5,-151.21C80.5,-142.25 80.5,-132.79 80.5,-123.53"/>
<polygon fill="none" stroke="midnightblue" points="77,-151.47 80.5,-161.47 84,-151.47 77,-151.47"/>
</g>
<!-- Node3 -->
<g id="node3" class="node">
<title>Node3</title>
<g id="a_node3"><a xlink:href="structcie_1_1fem_1_1maths_1_1ExpressionTraits.html" target="_top" xlink:title=" ">
<polygon fill="white" stroke="black" points="4.5,-299.5 4.5,-367.5 156.5,-367.5 156.5,-299.5 4.5,-299.5"/>
<text text-anchor="start" x="12.5" y="-355.5" font-family="Helvetica,sans-Serif" font-size="10.00">cie::fem::maths::Expression</text>
<text text-anchor="middle" x="80.5" y="-344.5" font-family="Helvetica,sans-Serif" font-size="10.00">Traits&lt; TValue &gt;</text>
<polyline fill="none" stroke="black" points="4.5,-337.5 156.5,-337.5 "/>
<text text-anchor="middle" x="80.5" y="-325.5" font-family="Helvetica,sans-Serif" font-size="10.00"> </text>
<polyline fill="none" stroke="black" points="4.5,-318.5 156.5,-318.5 "/>
<text text-anchor="middle" x="80.5" y="-306.5" font-family="Helvetica,sans-Serif" font-size="10.00"> </text>
</a>
</g>
</g>
<!-- Node3&#45;&gt;Node2 -->
<g id="edge2" class="edge">
<title>Node3&#45;&gt;Node2</title>
<path fill="none" stroke="orange" d="M80.5,-288.81C80.5,-273.26 80.5,-255.87 80.5,-240.77"/>
<polygon fill="orange" stroke="orange" points="77,-289.23 80.5,-299.23 84,-289.23 77,-289.23"/>
<text text-anchor="start" x="80.5" y="-273" font-family="Helvetica,sans-Serif" font-size="10.00"> &lt; TScalarExpression</text>
<text text-anchor="middle" x="132.5" y="-262" font-family="Helvetica,sans-Serif" font-size="10.00">::Value &gt;</text>
</g>
</g>
</svg>
