<?xml version="1.0" encoding="UTF-8" standalone="no"?>
<!DOCTYPE svg PUBLIC "-//W3C//DTD SVG 1.1//EN"
 "http://www.w3.org/Graphics/SVG/1.1/DTD/svg11.dtd">
<!-- Generated by graphviz version 2.43.0 (0)
 -->
<!-- Title: cie::fem::Quadrature&lt; TValue, Dimension &gt; Pages: 1 -->
<svg width="313pt" height="459pt"
 viewBox="0.00 0.00 313.00 459.00" xmlns="http://www.w3.org/2000/svg" xmlns:xlink="http://www.w3.org/1999/xlink">
<g id="graph0" class="graph" transform="scale(1 1) rotate(0) translate(4 455)">
<title>cie::fem::Quadrature&lt; TValue, Dimension &gt;</title>
<polygon fill="white" stroke="transparent" points="-4,4 -4,-455 309,-455 309,4 -4,4"/>
<!-- Node1 -->
<g id="node1" class="node">
<title>Node1</title>
<g id="a_node1"><a xlink:title=" ">
<polygon fill="#bfbfbf" stroke="black" points="8.5,-0.5 8.5,-123.5 151.5,-123.5 151.5,-0.5 8.5,-0.5"/>
<text text-anchor="start" x="16.5" y="-111.5" font-family="Helvetica,sans-Serif" font-size="10.00">cie::fem::Quadrature</text>
<text text-anchor="middle" x="80" y="-100.5" font-family="Helvetica,sans-Serif" font-size="10.00">&lt; TValue, Dimension &gt;</text>
<polyline fill="none" stroke="black" points="8.5,-93.5 151.5,-93.5 "/>
<text text-anchor="middle" x="80" y="-81.5" font-family="Helvetica,sans-Serif" font-size="10.00"> </text>
<polyline fill="none" stroke="black" points="8.5,-74.5 151.5,-74.5 "/>
<text text-anchor="start" x="16.5" y="-62.5" font-family="Helvetica,sans-Serif" font-size="10.00">+ Quadrature()</text>
<text text-anchor="start" x="16.5" y="-51.5" font-family="Helvetica,sans-Serif" font-size="10.00">+ Quadrature()</text>
<text text-anchor="start" x="16.5" y="-40.5" font-family="Helvetica,sans-Serif" font-size="10.00">+ evaluate()</text>
<text text-anchor="start" x="16.5" y="-29.5" font-family="Helvetica,sans-Serif" font-size="10.00">+ evaluate()</text>
<text text-anchor="start" x="16.5" y="-18.5" font-family="Helvetica,sans-Serif" font-size="10.00">+ getIntegrationPoints()</text>
<text text-anchor="start" x="16.5" y="-7.5" font-family="Helvetica,sans-Serif" font-size="10.00">+ getIntegrationWeights()</text>
</a>
</g>
</g>
<!-- Node2 -->
<g id="node2" class="node">
<title>Node2</title>
<g id="a_node2"><a xlink:href="structcie_1_1fem_1_1Kernel.html" target="_top" xlink:title=" ">
<polygon fill="white" stroke="black" points="0,-161.5 0,-229.5 160,-229.5 160,-161.5 0,-161.5"/>
<text text-anchor="start" x="8" y="-217.5" font-family="Helvetica,sans-Serif" font-size="10.00">cie::fem::Kernel&lt; Dimension,</text>
<text text-anchor="middle" x="80" y="-206.5" font-family="Helvetica,sans-Serif" font-size="10.00"> TValue &gt;</text>
<polyline fill="none" stroke="black" points="0,-199.5 160,-199.5 "/>
<text text-anchor="middle" x="80" y="-187.5" font-family="Helvetica,sans-Serif" font-size="10.00"> </text>
<polyline fill="none" stroke="black" points="0,-180.5 160,-180.5 "/>
<text text-anchor="middle" x="80" y="-168.5" font-family="Helvetica,sans-Serif" font-size="10.00"> </text>
</a>
</g>
</g>
<!-- Node2&#45;&gt;Node1 -->
<g id="edge1" class="edge">
<title>Node2&#45;&gt;Node1</title>
<path fill="none" stroke="midnightblue" d="M80,-151.25C80,-142.39 80,-132.91 80,-123.57"/>
<polygon fill="none" stroke="midnightblue" points="76.5,-151.32 80,-161.32 83.5,-151.32 76.5,-151.32"/>
</g>
<!-- Node3 -->
<g id="node3" class="node">
<title>Node3</title>
<g id="a_node3"><a xlink:title=" ">
<polygon fill="white" stroke="#bfbfbf" points="32,-393.5 32,-450.5 128,-450.5 128,-393.5 32,-393.5"/>
<text text-anchor="middle" x="80" y="-438.5" font-family="Helvetica,sans-Serif" font-size="10.00">static const Size</text>
<polyline fill="none" stroke="#bfbfbf" points="32,-431.5 128,-431.5 "/>
<text text-anchor="middle" x="80" y="-419.5" font-family="Helvetica,sans-Serif" font-size="10.00"> </text>
<polyline fill="none" stroke="#bfbfbf" points="32,-412.5 128,-412.5 "/>
<text text-anchor="middle" x="80" y="-400.5" font-family="Helvetica,sans-Serif" font-size="10.00"> </text>
</a>
</g>
</g>
<!-- Node3&#45;&gt;Node2 -->
<g id="edge2" class="edge">
<title>Node3&#45;&gt;Node2</title>
<path fill="none" stroke="#404040" d="M76.79,-393.26C75.31,-379.14 73.73,-361.68 73,-346 71.57,-315.37 71.67,-307.64 73,-277 73.5,-265.58 74.39,-253.26 75.37,-241.79"/>
<polygon fill="none" stroke="#404040" points="75.38,-241.7 71.93,-235.36 76.46,-229.75 79.9,-236.08 75.38,-241.7"/>
<text text-anchor="middle" x="104.5" y="-309" font-family="Helvetica,sans-Serif" font-size="10.00"> +dimension</text>
</g>
<!-- Node4 -->
<g id="node4" class="node">
<title>Node4</title>
<g id="a_node4"><a xlink:href="structcie_1_1fem_1_1Kernel.html" target="_top" xlink:title=" ">
<polygon fill="white" stroke="black" points="145,-277.5 145,-345.5 305,-345.5 305,-277.5 145,-277.5"/>
<text text-anchor="start" x="153" y="-333.5" font-family="Helvetica,sans-Serif" font-size="10.00">cie::fem::Kernel&lt; Dimension,</text>
<text text-anchor="middle" x="225" y="-322.5" font-family="Helvetica,sans-Serif" font-size="10.00"> NT &gt;</text>
<polyline fill="none" stroke="black" points="145,-315.5 305,-315.5 "/>
<text text-anchor="middle" x="225" y="-303.5" font-family="Helvetica,sans-Serif" font-size="10.00"> </text>
<polyline fill="none" stroke="black" points="145,-296.5 305,-296.5 "/>
<text text-anchor="middle" x="225" y="-284.5" font-family="Helvetica,sans-Serif" font-size="10.00"> </text>
</a>
</g>
</g>
<!-- Node3&#45;&gt;Node4 -->
<g id="edge4" class="edge">
<title>Node3&#45;&gt;Node4</title>
<path fill="none" stroke="#404040" d="M116.96,-393.34C133.39,-381.05 153.05,-366.34 171.06,-352.86"/>
<polygon fill="none" stroke="#404040" points="171.27,-352.71 173.67,-345.91 180.87,-345.52 178.47,-352.32 171.27,-352.71"/>
<text text-anchor="middle" x="183.5" y="-367" font-family="Helvetica,sans-Serif" font-size="10.00"> +dimension</text>
</g>
<!-- Node4&#45;&gt;Node2 -->
<g id="edge3" class="edge">
<title>Node4&#45;&gt;Node2</title>
<path fill="none" stroke="orange" d="M174.45,-270.76C157.37,-257.33 138.49,-242.49 122.13,-229.62"/>
<polygon fill="orange" stroke="orange" points="172.65,-273.79 182.67,-277.22 176.97,-268.29 172.65,-273.79"/>
<text text-anchor="middle" x="215" y="-251" font-family="Helvetica,sans-Serif" font-size="10.00"> &lt; Dimension, TValue &gt;</text>
</g>
</g>
</svg>
