<?xml version="1.0" encoding="UTF-8" standalone="no"?>
<!DOCTYPE svg PUBLIC "-//W3C//DTD SVG 1.1//EN"
 "http://www.w3.org/Graphics/SVG/1.1/DTD/svg11.dtd">
<!-- Generated by graphviz version 2.43.0 (0)
 -->
<!-- Title: cie::fem::Graph&lt; TVertexData, TEdgeData &gt;::Edge Pages: 1 -->
<svg width="171pt" height="248pt"
 viewBox="0.00 0.00 171.00 248.00" xmlns="http://www.w3.org/2000/svg" xmlns:xlink="http://www.w3.org/1999/xlink">
<g id="graph0" class="graph" transform="scale(1 1) rotate(0) translate(4 244)">
<title>cie::fem::Graph&lt; TVertexData, TEdgeData &gt;::Edge</title>
<polygon fill="white" stroke="transparent" points="-4,4 -4,-244 167,-244 167,4 -4,4"/>
<!-- Node1 -->
<g id="node1" class="node">
<title>Node1</title>
<g id="a_node1"><a xlink:title="Edge type of Graph.">
<polygon fill="#bfbfbf" stroke="black" points="11.5,-0.5 11.5,-112.5 151.5,-112.5 151.5,-0.5 11.5,-0.5"/>
<text text-anchor="start" x="19.5" y="-100.5" font-family="Helvetica,sans-Serif" font-size="10.00">cie::fem::Graph&lt; TVertex</text>
<text text-anchor="middle" x="81.5" y="-89.5" font-family="Helvetica,sans-Serif" font-size="10.00">Data, TEdgeData &gt;::Edge</text>
<polyline fill="none" stroke="black" points="11.5,-82.5 151.5,-82.5 "/>
<text text-anchor="middle" x="81.5" y="-70.5" font-family="Helvetica,sans-Serif" font-size="10.00"> </text>
<polyline fill="none" stroke="black" points="11.5,-63.5 151.5,-63.5 "/>
<text text-anchor="start" x="19.5" y="-51.5" font-family="Helvetica,sans-Serif" font-size="10.00">+ Edge()</text>
<text text-anchor="start" x="19.5" y="-40.5" font-family="Helvetica,sans-Serif" font-size="10.00">+ source()</text>
<text text-anchor="start" x="19.5" y="-29.5" font-family="Helvetica,sans-Serif" font-size="10.00">+ target()</text>
<text text-anchor="start" x="19.5" y="-18.5" font-family="Helvetica,sans-Serif" font-size="10.00">+ data()</text>
<text text-anchor="start" x="19.5" y="-7.5" font-family="Helvetica,sans-Serif" font-size="10.00">+ data()</text>
</a>
</g>
</g>
<!-- Node2 -->
<g id="node2" class="node">
<title>Node2</title>
<g id="a_node2"><a xlink:title=" ">
<polygon fill="white" stroke="#bfbfbf" points="0,-149.5 0,-239.5 163,-239.5 163,-149.5 0,-149.5"/>
<text text-anchor="start" x="8" y="-227.5" font-family="Helvetica,sans-Serif" font-size="10.00">cie::fem::Graph&lt; TVertex</text>
<text text-anchor="start" x="8" y="-216.5" font-family="Helvetica,sans-Serif" font-size="10.00">Data, TEdgeData &gt;::ItemBase</text>
<text text-anchor="middle" x="81.5" y="-205.5" font-family="Helvetica,sans-Serif" font-size="10.00">&lt; TID &gt;</text>
<polyline fill="none" stroke="#bfbfbf" points="0,-198.5 163,-198.5 "/>
<text text-anchor="middle" x="81.5" y="-186.5" font-family="Helvetica,sans-Serif" font-size="10.00"> </text>
<polyline fill="none" stroke="#bfbfbf" points="0,-179.5 163,-179.5 "/>
<text text-anchor="start" x="8" y="-167.5" font-family="Helvetica,sans-Serif" font-size="10.00">+ ItemBase()</text>
<text text-anchor="start" x="8" y="-156.5" font-family="Helvetica,sans-Serif" font-size="10.00">+ id()</text>
</a>
</g>
</g>
<!-- Node2&#45;&gt;Node1 -->
<g id="edge1" class="edge">
<title>Node2&#45;&gt;Node1</title>
<path fill="none" stroke="midnightblue" d="M81.5,-139.31C81.5,-130.61 81.5,-121.59 81.5,-112.87"/>
<polygon fill="none" stroke="midnightblue" points="78,-139.34 81.5,-149.34 85,-139.34 78,-139.34"/>
</g>
</g>
</svg>
