<?xml version="1.0" encoding="UTF-8" standalone="no"?>
<!DOCTYPE svg PUBLIC "-//W3C//DTD SVG 1.1//EN"
 "http://www.w3.org/Graphics/SVG/1.1/DTD/svg11.dtd">
<!-- Generated by graphviz version 2.43.0 (0)
 -->
<!-- Title: wrn.time_integration.TimeIntegrator Pages: 1 -->
<svg width="181pt" height="287pt"
 viewBox="0.00 0.00 180.50 287.00" xmlns="http://www.w3.org/2000/svg" xmlns:xlink="http://www.w3.org/1999/xlink">
<g id="graph0" class="graph" transform="scale(1 1) rotate(0) translate(4 283)">
<title>wrn.time_integration.TimeIntegrator</title>
<polygon fill="white" stroke="transparent" points="-4,4 -4,-283 176.5,-283 176.5,4 -4,4"/>
<!-- Node1 -->
<g id="node1" class="node">
<title>Node1</title>
<g id="a_node1"><a xlink:title=" ">
<polygon fill="#bfbfbf" stroke="black" points="11.5,-116.5 11.5,-184.5 157.5,-184.5 157.5,-116.5 11.5,-116.5"/>
<text text-anchor="start" x="19.5" y="-172.5" font-family="Helvetica,sans-Serif" font-size="10.00">wrn.time_integration.Time</text>
<text text-anchor="middle" x="84.5" y="-161.5" font-family="Helvetica,sans-Serif" font-size="10.00">Integrator</text>
<polyline fill="none" stroke="black" points="11.5,-154.5 157.5,-154.5 "/>
<text text-anchor="middle" x="84.5" y="-142.5" font-family="Helvetica,sans-Serif" font-size="10.00"> </text>
<polyline fill="none" stroke="black" points="11.5,-135.5 157.5,-135.5 "/>
<text text-anchor="start" x="19.5" y="-123.5" font-family="Helvetica,sans-Serif" font-size="10.00">+ integrate()</text>
</a>
</g>
</g>
<!-- Node4 -->
<g id="node4" class="node">
<title>Node4</title>
<g id="a_node4"><a xlink:href="classwrn_1_1time__integration_1_1NewmarkTimeIntegrator.html" target="_top" xlink:title=" ">
<polygon fill="white" stroke="black" points="0,-0.5 0,-79.5 169,-79.5 169,-0.5 0,-0.5"/>
<text text-anchor="start" x="8" y="-67.5" font-family="Helvetica,sans-Serif" font-size="10.00">wrn.time_integration.Newmark</text>
<text text-anchor="middle" x="84.5" y="-56.5" font-family="Helvetica,sans-Serif" font-size="10.00">TimeIntegrator</text>
<polyline fill="none" stroke="black" points="0,-49.5 169,-49.5 "/>
<text text-anchor="middle" x="84.5" y="-37.5" font-family="Helvetica,sans-Serif" font-size="10.00"> </text>
<polyline fill="none" stroke="black" points="0,-30.5 169,-30.5 "/>
<text text-anchor="start" x="8" y="-18.5" font-family="Helvetica,sans-Serif" font-size="10.00">+ __init__()</text>
<text text-anchor="start" x="8" y="-7.5" font-family="Helvetica,sans-Serif" font-size="10.00">+ integrate()</text>
</a>
</g>
</g>
<!-- Node1&#45;&gt;Node4 -->
<g id="edge3" class="edge">
<title>Node1&#45;&gt;Node4</title>
<path fill="none" stroke="midnightblue" d="M84.5,-106.27C84.5,-97.48 84.5,-88.28 84.5,-79.65"/>
<polygon fill="none" stroke="midnightblue" points="81,-106.36 84.5,-116.36 88,-106.36 81,-106.36"/>
</g>
<!-- Node2 -->
<g id="node2" class="node">
<title>Node2</title>
<g id="a_node2"><a target="_parent" xlink:href="../../../cieutils/docs/html/classmetaclass.html" xlink:title=" ">
<polygon fill="white" stroke="black" points="5,-221.5 5,-278.5 72,-278.5 72,-221.5 5,-221.5"/>
<text text-anchor="middle" x="38.5" y="-266.5" font-family="Helvetica,sans-Serif" font-size="10.00">metaclass</text>
<polyline fill="none" stroke="black" points="5,-259.5 72,-259.5 "/>
<text text-anchor="middle" x="38.5" y="-247.5" font-family="Helvetica,sans-Serif" font-size="10.00"> </text>
<polyline fill="none" stroke="black" points="5,-240.5 72,-240.5 "/>
<text text-anchor="middle" x="38.5" y="-228.5" font-family="Helvetica,sans-Serif" font-size="10.00"> </text>
</a>
</g>
</g>
<!-- Node2&#45;&gt;Node1 -->
<g id="edge1" class="edge">
<title>Node2&#45;&gt;Node1</title>
<path fill="none" stroke="midnightblue" d="M55.86,-212.2C60.11,-203.2 64.63,-193.61 68.8,-184.79"/>
<polygon fill="none" stroke="midnightblue" points="52.66,-210.78 51.56,-221.32 58.99,-213.77 52.66,-210.78"/>
</g>
<!-- Node3 -->
<g id="node3" class="node">
<title>Node3</title>
<g id="a_node3"><a xlink:title=" ">
<polygon fill="white" stroke="#bfbfbf" points="90.5,-221.5 90.5,-278.5 172.5,-278.5 172.5,-221.5 90.5,-221.5"/>
<text text-anchor="middle" x="131.5" y="-266.5" font-family="Helvetica,sans-Serif" font-size="10.00">abc.ABCMeta</text>
<polyline fill="none" stroke="#bfbfbf" points="90.5,-259.5 172.5,-259.5 "/>
<text text-anchor="middle" x="131.5" y="-247.5" font-family="Helvetica,sans-Serif" font-size="10.00"> </text>
<polyline fill="none" stroke="#bfbfbf" points="90.5,-240.5 172.5,-240.5 "/>
<text text-anchor="middle" x="131.5" y="-228.5" font-family="Helvetica,sans-Serif" font-size="10.00"> </text>
</a>
</g>
</g>
<!-- Node3&#45;&gt;Node1 -->
<g id="edge2" class="edge">
<title>Node3&#45;&gt;Node1</title>
<path fill="none" stroke="midnightblue" d="M113.76,-212.2C109.42,-203.2 104.8,-193.61 100.55,-184.79"/>
<polygon fill="none" stroke="midnightblue" points="110.66,-213.83 118.16,-221.32 116.97,-210.79 110.66,-213.83"/>
</g>
</g>
</svg>
