<?xml version="1.0" encoding="UTF-8" standalone="no"?>
<!DOCTYPE svg PUBLIC "-//W3C//DTD SVG 1.1//EN"
 "http://www.w3.org/Graphics/SVG/1.1/DTD/svg11.dtd">
<!-- Generated by graphviz version 2.43.0 (0)
 -->
<!-- Title: cie::fem::maths::Polynomial&lt; TValue &gt; Pages: 1 -->
<svg width="307pt" height="628pt"
 viewBox="0.00 0.00 307.00 628.00" xmlns="http://www.w3.org/2000/svg" xmlns:xlink="http://www.w3.org/1999/xlink">
<g id="graph0" class="graph" transform="scale(1 1) rotate(0) translate(4 624)">
<title>cie::fem::maths::Polynomial&lt; TValue &gt;</title>
<polygon fill="white" stroke="transparent" points="-4,4 -4,-624 303,-624 303,4 -4,4"/>
<!-- Node1 -->
<g id="node1" class="node">
<title>Node1</title>
<g id="a_node1"><a xlink:title="Expression representing a scalar polynomial.">
<polygon fill="#bfbfbf" stroke="black" points="15,-0.5 15,-167.5 169,-167.5 169,-0.5 15,-0.5"/>
<text text-anchor="start" x="23" y="-155.5" font-family="Helvetica,sans-Serif" font-size="10.00">cie::fem::maths::Polynomial</text>
<text text-anchor="middle" x="92" y="-144.5" font-family="Helvetica,sans-Serif" font-size="10.00">&lt; TValue &gt;</text>
<polyline fill="none" stroke="black" points="15,-137.5 169,-137.5 "/>
<text text-anchor="middle" x="92" y="-125.5" font-family="Helvetica,sans-Serif" font-size="10.00"> </text>
<polyline fill="none" stroke="black" points="15,-118.5 169,-118.5 "/>
<text text-anchor="start" x="23" y="-106.5" font-family="Helvetica,sans-Serif" font-size="10.00">+ Polynomial()</text>
<text text-anchor="start" x="23" y="-95.5" font-family="Helvetica,sans-Serif" font-size="10.00">+ Polynomial()</text>
<text text-anchor="start" x="23" y="-84.5" font-family="Helvetica,sans-Serif" font-size="10.00">+ Polynomial()</text>
<text text-anchor="start" x="23" y="-73.5" font-family="Helvetica,sans-Serif" font-size="10.00">+ Polynomial()</text>
<text text-anchor="start" x="23" y="-62.5" font-family="Helvetica,sans-Serif" font-size="10.00">+ Polynomial()</text>
<text text-anchor="start" x="23" y="-51.5" font-family="Helvetica,sans-Serif" font-size="10.00">+ operator=()</text>
<text text-anchor="start" x="23" y="-40.5" font-family="Helvetica,sans-Serif" font-size="10.00">+ operator=()</text>
<text text-anchor="start" x="23" y="-29.5" font-family="Helvetica,sans-Serif" font-size="10.00">+ evaluate()</text>
<text text-anchor="start" x="23" y="-18.5" font-family="Helvetica,sans-Serif" font-size="10.00">+ size()</text>
<text text-anchor="start" x="23" y="-7.5" font-family="Helvetica,sans-Serif" font-size="10.00">+ makeDerivative()</text>
</a>
</g>
</g>
<!-- Node2 -->
<g id="node2" class="node">
<title>Node2</title>
<g id="a_node2"><a xlink:href="structcie_1_1fem_1_1maths_1_1ExpressionTraits.html" target="_top" xlink:title=" ">
<polygon fill="white" stroke="black" points="0,-270.5 0,-338.5 152,-338.5 152,-270.5 0,-270.5"/>
<text text-anchor="start" x="8" y="-326.5" font-family="Helvetica,sans-Serif" font-size="10.00">cie::fem::maths::Expression</text>
<text text-anchor="middle" x="76" y="-315.5" font-family="Helvetica,sans-Serif" font-size="10.00">Traits&lt; TValue &gt;</text>
<polyline fill="none" stroke="black" points="0,-308.5 152,-308.5 "/>
<text text-anchor="middle" x="76" y="-296.5" font-family="Helvetica,sans-Serif" font-size="10.00"> </text>
<polyline fill="none" stroke="black" points="0,-289.5 152,-289.5 "/>
<text text-anchor="middle" x="76" y="-277.5" font-family="Helvetica,sans-Serif" font-size="10.00"> </text>
</a>
</g>
</g>
<!-- Node2&#45;&gt;Node1 -->
<g id="edge1" class="edge">
<title>Node2&#45;&gt;Node1</title>
<path fill="none" stroke="midnightblue" d="M79.17,-260.26C81.1,-233.84 83.64,-199.19 85.95,-167.67"/>
<polygon fill="none" stroke="midnightblue" points="75.67,-260.09 78.43,-270.31 82.65,-260.6 75.67,-260.09"/>
</g>
<!-- Node3 -->
<g id="node3" class="node">
<title>Node3</title>
<g id="a_node3"><a target="_parent" xlink:href="../../../cieutils/docs/html/classcie_1_1STLContainerBase.html" xlink:title=" ">
<polygon fill="white" stroke="black" points="170.5,-215.5 170.5,-393.5 295.5,-393.5 295.5,-215.5 170.5,-215.5"/>
<text text-anchor="start" x="178.5" y="-381.5" font-family="Helvetica,sans-Serif" font-size="10.00">cie::STLContainerBase</text>
<text text-anchor="middle" x="233" y="-370.5" font-family="Helvetica,sans-Serif" font-size="10.00">&lt; TValue &gt;</text>
<polyline fill="none" stroke="black" points="170.5,-363.5 295.5,-363.5 "/>
<text text-anchor="middle" x="233" y="-351.5" font-family="Helvetica,sans-Serif" font-size="10.00"> </text>
<polyline fill="none" stroke="black" points="170.5,-344.5 295.5,-344.5 "/>
<text text-anchor="start" x="178.5" y="-332.5" font-family="Helvetica,sans-Serif" font-size="10.00">+ STLContainerBase()</text>
<text text-anchor="start" x="178.5" y="-321.5" font-family="Helvetica,sans-Serif" font-size="10.00">+ STLContainerBase()</text>
<text text-anchor="start" x="178.5" y="-310.5" font-family="Helvetica,sans-Serif" font-size="10.00">+ STLContainerBase()</text>
<text text-anchor="start" x="178.5" y="-299.5" font-family="Helvetica,sans-Serif" font-size="10.00">+ STLContainerBase()</text>
<text text-anchor="start" x="178.5" y="-288.5" font-family="Helvetica,sans-Serif" font-size="10.00">+ STLContainerBase()</text>
<text text-anchor="start" x="178.5" y="-277.5" font-family="Helvetica,sans-Serif" font-size="10.00">+ STLContainerBase()</text>
<text text-anchor="start" x="178.5" y="-266.5" font-family="Helvetica,sans-Serif" font-size="10.00">+ STLContainerBase()</text>
<text text-anchor="start" x="178.5" y="-255.5" font-family="Helvetica,sans-Serif" font-size="10.00">+ STLContainerBase()</text>
<text text-anchor="start" x="178.5" y="-244.5" font-family="Helvetica,sans-Serif" font-size="10.00">+ STLContainerBase()</text>
<text text-anchor="start" x="178.5" y="-233.5" font-family="Helvetica,sans-Serif" font-size="10.00">+ STLContainerBase()</text>
<text text-anchor="start" x="178.5" y="-222.5" font-family="Helvetica,sans-Serif" font-size="10.00">and 37 more...</text>
</a>
</g>
</g>
<!-- Node3&#45;&gt;Node1 -->
<g id="edge2" class="edge">
<title>Node3&#45;&gt;Node1</title>
<path fill="none" stroke="#404040" d="M176.06,-215.26C168.11,-202.95 159.93,-190.27 151.94,-177.89"/>
<polygon fill="none" stroke="#404040" points="151.78,-177.64 145.17,-174.77 145.28,-167.56 151.89,-170.43 151.78,-177.64"/>
<text text-anchor="middle" x="198.5" y="-189" font-family="Helvetica,sans-Serif" font-size="10.00"> #_coefficients</text>
</g>
<!-- Node4 -->
<g id="node4" class="node">
<title>Node4</title>
<g id="a_node4"><a target="_parent" xlink:href="../../../cieutils/docs/html/classcie_1_1STLContainerBase.html" xlink:title=" ">
<polygon fill="white" stroke="black" points="167,-441.5 167,-619.5 299,-619.5 299,-441.5 167,-441.5"/>
<text text-anchor="start" x="175" y="-607.5" font-family="Helvetica,sans-Serif" font-size="10.00">cie::STLContainerBase</text>
<text text-anchor="middle" x="233" y="-596.5" font-family="Helvetica,sans-Serif" font-size="10.00">&lt; TBase &gt;</text>
<polyline fill="none" stroke="black" points="167,-589.5 299,-589.5 "/>
<text text-anchor="middle" x="233" y="-577.5" font-family="Helvetica,sans-Serif" font-size="10.00"> </text>
<polyline fill="none" stroke="black" points="167,-570.5 299,-570.5 "/>
<text text-anchor="start" x="175" y="-558.5" font-family="Helvetica,sans-Serif" font-size="10.00">+ STLContainerBase()</text>
<text text-anchor="start" x="175" y="-547.5" font-family="Helvetica,sans-Serif" font-size="10.00">+ STLContainerBase()</text>
<text text-anchor="start" x="175" y="-536.5" font-family="Helvetica,sans-Serif" font-size="10.00">+ STLContainerBase()</text>
<text text-anchor="start" x="175" y="-525.5" font-family="Helvetica,sans-Serif" font-size="10.00">+ STLContainerBase()</text>
<text text-anchor="start" x="175" y="-514.5" font-family="Helvetica,sans-Serif" font-size="10.00">+ STLContainerBase()</text>
<text text-anchor="start" x="175" y="-503.5" font-family="Helvetica,sans-Serif" font-size="10.00">+ STLContainerBase()</text>
<text text-anchor="start" x="175" y="-492.5" font-family="Helvetica,sans-Serif" font-size="10.00">+ operator=()</text>
<text text-anchor="start" x="175" y="-481.5" font-family="Helvetica,sans-Serif" font-size="10.00">+ operator=()</text>
<text text-anchor="start" x="175" y="-470.5" font-family="Helvetica,sans-Serif" font-size="10.00">+ ~STLContainerBase()</text>
<text text-anchor="start" x="175" y="-459.5" font-family="Helvetica,sans-Serif" font-size="10.00">+ size()</text>
<text text-anchor="start" x="175" y="-448.5" font-family="Helvetica,sans-Serif" font-size="10.00">and 37 more...</text>
</a>
</g>
</g>
<!-- Node4&#45;&gt;Node3 -->
<g id="edge3" class="edge">
<title>Node4&#45;&gt;Node3</title>
<path fill="none" stroke="orange" d="M233,-430.93C233,-418.51 233,-405.87 233,-393.63"/>
<polygon fill="orange" stroke="orange" points="229.5,-431.29 233,-441.29 236.5,-431.29 229.5,-431.29"/>
<text text-anchor="middle" x="262.5" y="-415" font-family="Helvetica,sans-Serif" font-size="10.00"> &lt; TValue &gt;</text>
</g>
</g>
</svg>
