<?xml version="1.0" encoding="UTF-8" standalone="no"?>
<!DOCTYPE svg PUBLIC "-//W3C//DTD SVG 1.1//EN"
 "http://www.w3.org/Graphics/SVG/1.1/DTD/svg11.dtd">
<!-- Generated by graphviz version 2.43.0 (0)
 -->
<!-- Title: cie::fem::maths::WrappedExpression&lt; TExpression &gt; Pages: 1 -->
<svg width="253pt" height="438pt"
 viewBox="0.00 0.00 253.00 438.00" xmlns="http://www.w3.org/2000/svg" xmlns:xlink="http://www.w3.org/1999/xlink">
<g id="graph0" class="graph" transform="scale(1 1) rotate(0) translate(4 434)">
<title>cie::fem::maths::WrappedExpression&lt; TExpression &gt;</title>
<polygon fill="white" stroke="transparent" points="-4,4 -4,-434 249,-434 249,4 -4,4"/>
<!-- Node1 -->
<g id="node1" class="node">
<title>Node1</title>
<g id="a_node1"><a xlink:title=" ">
<polygon fill="#bfbfbf" stroke="black" points="4,-0.5 4,-68.5 156,-68.5 156,-0.5 4,-0.5"/>
<text text-anchor="start" x="12" y="-56.5" font-family="Helvetica,sans-Serif" font-size="10.00">cie::fem::maths::Wrapped</text>
<text text-anchor="middle" x="80" y="-45.5" font-family="Helvetica,sans-Serif" font-size="10.00">Expression&lt; TExpression &gt;</text>
<polyline fill="none" stroke="black" points="4,-38.5 156,-38.5 "/>
<text text-anchor="middle" x="80" y="-26.5" font-family="Helvetica,sans-Serif" font-size="10.00"> </text>
<polyline fill="none" stroke="black" points="4,-19.5 156,-19.5 "/>
<text text-anchor="middle" x="80" y="-7.5" font-family="Helvetica,sans-Serif" font-size="10.00"> </text>
</a>
</g>
</g>
<!-- Node2 -->
<g id="node2" class="node">
<title>Node2</title>
<g id="a_node2"><a xlink:href="structcie_1_1fem_1_1maths_1_1DynamicExpression.html" target="_top" xlink:title=" ">
<polygon fill="white" stroke="black" points="8.5,-106.5 8.5,-196.5 151.5,-196.5 151.5,-106.5 8.5,-106.5"/>
<text text-anchor="start" x="16.5" y="-184.5" font-family="Helvetica,sans-Serif" font-size="10.00">cie::fem::maths::Dynamic</text>
<text text-anchor="start" x="16.5" y="-173.5" font-family="Helvetica,sans-Serif" font-size="10.00">Expression&lt; TExpression</text>
<text text-anchor="middle" x="80" y="-162.5" font-family="Helvetica,sans-Serif" font-size="10.00">::Value &gt;</text>
<polyline fill="none" stroke="black" points="8.5,-155.5 151.5,-155.5 "/>
<text text-anchor="middle" x="80" y="-143.5" font-family="Helvetica,sans-Serif" font-size="10.00"> </text>
<polyline fill="none" stroke="black" points="8.5,-136.5 151.5,-136.5 "/>
<text text-anchor="start" x="16.5" y="-124.5" font-family="Helvetica,sans-Serif" font-size="10.00">+ evaluate()</text>
<text text-anchor="start" x="16.5" y="-113.5" font-family="Helvetica,sans-Serif" font-size="10.00">+ makeDerivative()</text>
</a>
</g>
</g>
<!-- Node2&#45;&gt;Node1 -->
<g id="edge1" class="edge">
<title>Node2&#45;&gt;Node1</title>
<path fill="none" stroke="midnightblue" d="M80,-96.23C80,-86.8 80,-77.26 80,-68.62"/>
<polygon fill="none" stroke="midnightblue" points="76.5,-96.37 80,-106.37 83.5,-96.37 76.5,-96.37"/>
</g>
<!-- Node3 -->
<g id="node3" class="node">
<title>Node3</title>
<g id="a_node3"><a xlink:href="structcie_1_1fem_1_1maths_1_1ExpressionTraits.html" target="_top" xlink:title=" ">
<polygon fill="white" stroke="black" points="0,-361.5 0,-429.5 152,-429.5 152,-361.5 0,-361.5"/>
<text text-anchor="start" x="8" y="-417.5" font-family="Helvetica,sans-Serif" font-size="10.00">cie::fem::maths::Expression</text>
<text text-anchor="middle" x="76" y="-406.5" font-family="Helvetica,sans-Serif" font-size="10.00">Traits&lt; TValue &gt;</text>
<polyline fill="none" stroke="black" points="0,-399.5 152,-399.5 "/>
<text text-anchor="middle" x="76" y="-387.5" font-family="Helvetica,sans-Serif" font-size="10.00"> </text>
<polyline fill="none" stroke="black" points="0,-380.5 152,-380.5 "/>
<text text-anchor="middle" x="76" y="-368.5" font-family="Helvetica,sans-Serif" font-size="10.00"> </text>
</a>
</g>
</g>
<!-- Node3&#45;&gt;Node2 -->
<g id="edge2" class="edge">
<title>Node3&#45;&gt;Node2</title>
<path fill="none" stroke="midnightblue" d="M76.71,-351.35C77.43,-307.74 78.54,-240.7 79.27,-196.72"/>
<polygon fill="none" stroke="midnightblue" points="73.21,-351.3 76.55,-361.36 80.21,-351.42 73.21,-351.3"/>
</g>
<!-- Node4 -->
<g id="node4" class="node">
<title>Node4</title>
<g id="a_node4"><a xlink:href="structcie_1_1fem_1_1maths_1_1DynamicExpression.html" target="_top" xlink:title=" ">
<polygon fill="white" stroke="black" points="92.5,-244.5 92.5,-323.5 235.5,-323.5 235.5,-244.5 92.5,-244.5"/>
<text text-anchor="start" x="100.5" y="-311.5" font-family="Helvetica,sans-Serif" font-size="10.00">cie::fem::maths::Dynamic</text>
<text text-anchor="middle" x="164" y="-300.5" font-family="Helvetica,sans-Serif" font-size="10.00">Expression&lt; TValue &gt;</text>
<polyline fill="none" stroke="black" points="92.5,-293.5 235.5,-293.5 "/>
<text text-anchor="middle" x="164" y="-281.5" font-family="Helvetica,sans-Serif" font-size="10.00"> </text>
<polyline fill="none" stroke="black" points="92.5,-274.5 235.5,-274.5 "/>
<text text-anchor="start" x="100.5" y="-262.5" font-family="Helvetica,sans-Serif" font-size="10.00">+ evaluate()</text>
<text text-anchor="start" x="100.5" y="-251.5" font-family="Helvetica,sans-Serif" font-size="10.00">+ makeDerivative()</text>
</a>
</g>
</g>
<!-- Node3&#45;&gt;Node4 -->
<g id="edge4" class="edge">
<title>Node3&#45;&gt;Node4</title>
<path fill="none" stroke="midnightblue" d="M109.04,-353.38C116.83,-343.69 125.11,-333.39 132.81,-323.81"/>
<polygon fill="none" stroke="midnightblue" points="106.18,-351.36 102.64,-361.35 111.63,-355.75 106.18,-351.36"/>
</g>
<!-- Node4&#45;&gt;Node2 -->
<g id="edge3" class="edge">
<title>Node4&#45;&gt;Node2</title>
<path fill="none" stroke="orange" d="M133.51,-235.62C125.36,-222.98 116.6,-209.36 108.57,-196.88"/>
<polygon fill="orange" stroke="orange" points="130.67,-237.68 139.02,-244.2 136.56,-233.9 130.67,-237.68"/>
<text text-anchor="middle" x="186" y="-218" font-family="Helvetica,sans-Serif" font-size="10.00"> &lt; TExpression::Value &gt;</text>
</g>
</g>
</svg>
