<?xml version="1.0" encoding="UTF-8" standalone="no"?>
<!DOCTYPE svg PUBLIC "-//W3C//DTD SVG 1.1//EN"
 "http://www.w3.org/Graphics/SVG/1.1/DTD/svg11.dtd">
<!-- Generated by graphviz version 2.43.0 (0)
 -->
<!-- Title: wrn.partitioning.GaussSeidelPartitioner Pages: 1 -->
<svg width="178pt" height="265pt"
 viewBox="0.00 0.00 178.00 265.00" xmlns="http://www.w3.org/2000/svg" xmlns:xlink="http://www.w3.org/1999/xlink">
<g id="graph0" class="graph" transform="scale(1 1) rotate(0) translate(4 261)">
<title>wrn.partitioning.GaussSeidelPartitioner</title>
<polygon fill="white" stroke="transparent" points="-4,4 -4,-261 174,-261 174,4 -4,4"/>
<!-- Node1 -->
<g id="node1" class="node">
<title>Node1</title>
<g id="a_node1"><a xlink:title=" ">
<polygon fill="#bfbfbf" stroke="black" points="2,-0.5 2,-68.5 159,-68.5 159,-0.5 2,-0.5"/>
<text text-anchor="start" x="10" y="-56.5" font-family="Helvetica,sans-Serif" font-size="10.00">wrn.partitioning.GaussSeidel</text>
<text text-anchor="middle" x="80.5" y="-45.5" font-family="Helvetica,sans-Serif" font-size="10.00">Partitioner</text>
<polyline fill="none" stroke="black" points="2,-38.5 159,-38.5 "/>
<text text-anchor="middle" x="80.5" y="-26.5" font-family="Helvetica,sans-Serif" font-size="10.00"> </text>
<polyline fill="none" stroke="black" points="2,-19.5 159,-19.5 "/>
<text text-anchor="start" x="10" y="-7.5" font-family="Helvetica,sans-Serif" font-size="10.00">+ partition()</text>
</a>
</g>
</g>
<!-- Node2 -->
<g id="node2" class="node">
<title>Node2</title>
<g id="a_node2"><a xlink:href="classwrn_1_1partitioning_1_1Partitioner.html" target="_top" xlink:title=" ">
<polygon fill="white" stroke="black" points="7,-105.5 7,-162.5 154,-162.5 154,-105.5 7,-105.5"/>
<text text-anchor="middle" x="80.5" y="-150.5" font-family="Helvetica,sans-Serif" font-size="10.00">wrn.partitioning.Partitioner</text>
<polyline fill="none" stroke="black" points="7,-143.5 154,-143.5 "/>
<text text-anchor="middle" x="80.5" y="-131.5" font-family="Helvetica,sans-Serif" font-size="10.00"> </text>
<polyline fill="none" stroke="black" points="7,-124.5 154,-124.5 "/>
<text text-anchor="start" x="15" y="-112.5" font-family="Helvetica,sans-Serif" font-size="10.00">+ partition()</text>
</a>
</g>
</g>
<!-- Node2&#45;&gt;Node1 -->
<g id="edge1" class="edge">
<title>Node2&#45;&gt;Node1</title>
<path fill="none" stroke="midnightblue" d="M80.5,-95.06C80.5,-86.39 80.5,-77.24 80.5,-68.79"/>
<polygon fill="none" stroke="midnightblue" points="77,-95.32 80.5,-105.32 84,-95.32 77,-95.32"/>
</g>
<!-- Node3 -->
<g id="node3" class="node">
<title>Node3</title>
<g id="a_node3"><a target="_parent" xlink:href="../../../cieutils/docs/html/classmetaclass.html" xlink:title=" ">
<polygon fill="white" stroke="black" points="0,-199.5 0,-256.5 67,-256.5 67,-199.5 0,-199.5"/>
<text text-anchor="middle" x="33.5" y="-244.5" font-family="Helvetica,sans-Serif" font-size="10.00">metaclass</text>
<polyline fill="none" stroke="black" points="0,-237.5 67,-237.5 "/>
<text text-anchor="middle" x="33.5" y="-225.5" font-family="Helvetica,sans-Serif" font-size="10.00"> </text>
<polyline fill="none" stroke="black" points="0,-218.5 67,-218.5 "/>
<text text-anchor="middle" x="33.5" y="-206.5" font-family="Helvetica,sans-Serif" font-size="10.00"> </text>
</a>
</g>
</g>
<!-- Node3&#45;&gt;Node2 -->
<g id="edge2" class="edge">
<title>Node3&#45;&gt;Node2</title>
<path fill="none" stroke="midnightblue" d="M52.21,-190.37C56.95,-181.11 61.95,-171.32 66.41,-162.58"/>
<polygon fill="none" stroke="midnightblue" points="49.03,-188.9 47.6,-199.4 55.27,-192.08 49.03,-188.9"/>
</g>
<!-- Node4 -->
<g id="node4" class="node">
<title>Node4</title>
<g id="a_node4"><a xlink:title=" ">
<polygon fill="white" stroke="#bfbfbf" points="85,-199.5 85,-256.5 170,-256.5 170,-199.5 85,-199.5"/>
<text text-anchor="middle" x="127.5" y="-244.5" font-family="Helvetica,sans-Serif" font-size="10.00">abc::ABCMeta</text>
<polyline fill="none" stroke="#bfbfbf" points="85,-237.5 170,-237.5 "/>
<text text-anchor="middle" x="127.5" y="-225.5" font-family="Helvetica,sans-Serif" font-size="10.00"> </text>
<polyline fill="none" stroke="#bfbfbf" points="85,-218.5 170,-218.5 "/>
<text text-anchor="middle" x="127.5" y="-206.5" font-family="Helvetica,sans-Serif" font-size="10.00"> </text>
</a>
</g>
</g>
<!-- Node4&#45;&gt;Node2 -->
<g id="edge3" class="edge">
<title>Node4&#45;&gt;Node2</title>
<path fill="none" stroke="midnightblue" d="M108.79,-190.37C104.05,-181.11 99.05,-171.32 94.59,-162.58"/>
<polygon fill="none" stroke="midnightblue" points="105.73,-192.08 113.4,-199.4 111.97,-188.9 105.73,-192.08"/>
</g>
</g>
</svg>
