<?xml version="1.0" encoding="UTF-8" standalone="no"?>
<!DOCTYPE svg PUBLIC "-//W3C//DTD SVG 1.1//EN"
 "http://www.w3.org/Graphics/SVG/1.1/DTD/svg11.dtd">
<!-- Generated by graphviz version 2.43.0 (0)
 -->
<!-- Title: cie::fem::GaussLegendreQuadrature&lt; NT &gt; Pages: 1 -->
<svg width="200pt" height="270pt"
 viewBox="0.00 0.00 200.00 270.00" xmlns="http://www.w3.org/2000/svg" xmlns:xlink="http://www.w3.org/1999/xlink">
<g id="graph0" class="graph" transform="scale(1 1) rotate(0) translate(4 266)">
<title>cie::fem::GaussLegendreQuadrature&lt; NT &gt;</title>
<polygon fill="white" stroke="transparent" points="-4,4 -4,-266 196,-266 196,4 -4,4"/>
<!-- Node1 -->
<g id="node1" class="node">
<title>Node1</title>
<g id="a_node1"><a xlink:title=" ">
<polygon fill="#bfbfbf" stroke="black" points="0,-0.5 0,-79.5 192,-79.5 192,-0.5 0,-0.5"/>
<text text-anchor="start" x="8" y="-67.5" font-family="Helvetica,sans-Serif" font-size="10.00">cie::fem::GaussLegendreQuadrature</text>
<text text-anchor="middle" x="96" y="-56.5" font-family="Helvetica,sans-Serif" font-size="10.00">&lt; NT &gt;</text>
<polyline fill="none" stroke="black" points="0,-49.5 192,-49.5 "/>
<text text-anchor="middle" x="96" y="-37.5" font-family="Helvetica,sans-Serif" font-size="10.00"> </text>
<polyline fill="none" stroke="black" points="0,-30.5 192,-30.5 "/>
<text text-anchor="start" x="8" y="-18.5" font-family="Helvetica,sans-Serif" font-size="10.00">+ GaussLegendreQuadrature()</text>
<text text-anchor="start" x="8" y="-7.5" font-family="Helvetica,sans-Serif" font-size="10.00">+ GaussLegendreQuadrature()</text>
</a>
</g>
</g>
<!-- Node2 -->
<g id="node2" class="node">
<title>Node2</title>
<g id="a_node2"><a xlink:href="classcie_1_1fem_1_1QuadratureBase.html" target="_top" xlink:title=" ">
<polygon fill="white" stroke="black" points="25.5,-116.5 25.5,-261.5 166.5,-261.5 166.5,-116.5 25.5,-116.5"/>
<text text-anchor="start" x="33.5" y="-249.5" font-family="Helvetica,sans-Serif" font-size="10.00">cie::fem::QuadratureBase</text>
<text text-anchor="middle" x="96" y="-238.5" font-family="Helvetica,sans-Serif" font-size="10.00">&lt; NT &gt;</text>
<polyline fill="none" stroke="black" points="25.5,-231.5 166.5,-231.5 "/>
<text text-anchor="middle" x="96" y="-219.5" font-family="Helvetica,sans-Serif" font-size="10.00"> </text>
<polyline fill="none" stroke="black" points="25.5,-212.5 166.5,-212.5 "/>
<text text-anchor="start" x="33.5" y="-200.5" font-family="Helvetica,sans-Serif" font-size="10.00">+ numberOfNodes()</text>
<text text-anchor="start" x="33.5" y="-189.5" font-family="Helvetica,sans-Serif" font-size="10.00">+ order()</text>
<text text-anchor="start" x="33.5" y="-178.5" font-family="Helvetica,sans-Serif" font-size="10.00">+ nodes()</text>
<text text-anchor="start" x="33.5" y="-167.5" font-family="Helvetica,sans-Serif" font-size="10.00">+ weights()</text>
<text text-anchor="start" x="33.5" y="-156.5" font-family="Helvetica,sans-Serif" font-size="10.00"># QuadratureBase()</text>
<text text-anchor="start" x="33.5" y="-145.5" font-family="Helvetica,sans-Serif" font-size="10.00"># QuadratureBase()</text>
<text text-anchor="start" x="33.5" y="-134.5" font-family="Helvetica,sans-Serif" font-size="10.00"># QuadratureBase()</text>
<text text-anchor="start" x="33.5" y="-123.5" font-family="Helvetica,sans-Serif" font-size="10.00"># QuadratureBase()</text>
</a>
</g>
</g>
<!-- Node2&#45;&gt;Node1 -->
<g id="edge1" class="edge">
<title>Node2&#45;&gt;Node1</title>
<path fill="none" stroke="midnightblue" d="M96,-105.95C96,-96.9 96,-88.02 96,-79.87"/>
<polygon fill="none" stroke="midnightblue" points="92.5,-106.22 96,-116.22 99.5,-106.22 92.5,-106.22"/>
</g>
</g>
</svg>
