<?xml version="1.0" encoding="UTF-8" standalone="no"?>
<!DOCTYPE svg PUBLIC "-//W3C//DTD SVG 1.1//EN"
 "http://www.w3.org/Graphics/SVG/1.1/DTD/svg11.dtd">
<!-- Generated by graphviz version 2.43.0 (0)
 -->
<!-- Title: wrn.relax.HeterogeneousJacobiRelaxation Pages: 1 -->
<svg width="181pt" height="386pt"
 viewBox="0.00 0.00 180.50 386.00" xmlns="http://www.w3.org/2000/svg" xmlns:xlink="http://www.w3.org/1999/xlink">
<g id="graph0" class="graph" transform="scale(1 1) rotate(0) translate(4 382)">
<title>wrn.relax.HeterogeneousJacobiRelaxation</title>
<polygon fill="white" stroke="transparent" points="-4,4 -4,-382 176.5,-382 176.5,4 -4,4"/>
<!-- Node1 -->
<g id="node1" class="node">
<title>Node1</title>
<g id="a_node1"><a xlink:title=" ">
<polygon fill="#bfbfbf" stroke="black" points="0,-0.5 0,-112.5 169,-112.5 169,-0.5 0,-0.5"/>
<text text-anchor="start" x="8" y="-100.5" font-family="Helvetica,sans-Serif" font-size="10.00">wrn.relax.HeterogeneousJacobi</text>
<text text-anchor="middle" x="84.5" y="-89.5" font-family="Helvetica,sans-Serif" font-size="10.00">Relaxation</text>
<polyline fill="none" stroke="black" points="0,-82.5 169,-82.5 "/>
<text text-anchor="middle" x="84.5" y="-70.5" font-family="Helvetica,sans-Serif" font-size="10.00"> </text>
<polyline fill="none" stroke="black" points="0,-63.5 169,-63.5 "/>
<text text-anchor="start" x="8" y="-51.5" font-family="Helvetica,sans-Serif" font-size="10.00">+ __init__()</text>
<text text-anchor="start" x="8" y="-40.5" font-family="Helvetica,sans-Serif" font-size="10.00">+ solution()</text>
<text text-anchor="start" x="8" y="-29.5" font-family="Helvetica,sans-Serif" font-size="10.00">+ partitioner()</text>
<text text-anchor="start" x="8" y="-18.5" font-family="Helvetica,sans-Serif" font-size="10.00">+ getTimeIntegrator()</text>
<text text-anchor="start" x="8" y="-7.5" font-family="Helvetica,sans-Serif" font-size="10.00">+ relax()</text>
</a>
</g>
</g>
<!-- Node2 -->
<g id="node2" class="node">
<title>Node2</title>
<g id="a_node2"><a xlink:href="classwrn_1_1relax_1_1WaveformRelaxation.html" target="_top" xlink:title=" ">
<polygon fill="white" stroke="black" points="0.5,-149.5 0.5,-283.5 168.5,-283.5 168.5,-149.5 0.5,-149.5"/>
<text text-anchor="middle" x="84.5" y="-271.5" font-family="Helvetica,sans-Serif" font-size="10.00">wrn.relax.WaveformRelaxation</text>
<polyline fill="none" stroke="black" points="0.5,-264.5 168.5,-264.5 "/>
<text text-anchor="middle" x="84.5" y="-252.5" font-family="Helvetica,sans-Serif" font-size="10.00"> </text>
<polyline fill="none" stroke="black" points="0.5,-245.5 168.5,-245.5 "/>
<text text-anchor="start" x="8.5" y="-233.5" font-family="Helvetica,sans-Serif" font-size="10.00">+ __init__()</text>
<text text-anchor="start" x="8.5" y="-222.5" font-family="Helvetica,sans-Serif" font-size="10.00">+ partitioner()</text>
<text text-anchor="start" x="8.5" y="-211.5" font-family="Helvetica,sans-Serif" font-size="10.00">+ solution()</text>
<text text-anchor="start" x="8.5" y="-200.5" font-family="Helvetica,sans-Serif" font-size="10.00">+ getTimeIntegrator()</text>
<text text-anchor="start" x="8.5" y="-189.5" font-family="Helvetica,sans-Serif" font-size="10.00">+ relax()</text>
<text text-anchor="start" x="8.5" y="-178.5" font-family="Helvetica,sans-Serif" font-size="10.00">+ solve()</text>
<text text-anchor="start" x="8.5" y="-167.5" font-family="Helvetica,sans-Serif" font-size="10.00">+ model()</text>
<text text-anchor="start" x="8.5" y="-156.5" font-family="Helvetica,sans-Serif" font-size="10.00">+ partitionedModel()</text>
</a>
</g>
</g>
<!-- Node2&#45;&gt;Node1 -->
<g id="edge1" class="edge">
<title>Node2&#45;&gt;Node1</title>
<path fill="none" stroke="midnightblue" d="M84.5,-139.35C84.5,-130.4 84.5,-121.4 84.5,-112.82"/>
<polygon fill="none" stroke="midnightblue" points="81,-139.41 84.5,-149.41 88,-139.41 81,-139.41"/>
</g>
<!-- Node3 -->
<g id="node3" class="node">
<title>Node3</title>
<g id="a_node3"><a target="_parent" xlink:href="../../../cieutils/docs/html/classmetaclass.html" xlink:title=" ">
<polygon fill="white" stroke="black" points="5,-320.5 5,-377.5 72,-377.5 72,-320.5 5,-320.5"/>
<text text-anchor="middle" x="38.5" y="-365.5" font-family="Helvetica,sans-Serif" font-size="10.00">metaclass</text>
<polyline fill="none" stroke="black" points="5,-358.5 72,-358.5 "/>
<text text-anchor="middle" x="38.5" y="-346.5" font-family="Helvetica,sans-Serif" font-size="10.00"> </text>
<polyline fill="none" stroke="black" points="5,-339.5 72,-339.5 "/>
<text text-anchor="middle" x="38.5" y="-327.5" font-family="Helvetica,sans-Serif" font-size="10.00"> </text>
</a>
</g>
</g>
<!-- Node3&#45;&gt;Node2 -->
<g id="edge2" class="edge">
<title>Node3&#45;&gt;Node2</title>
<path fill="none" stroke="midnightblue" d="M51.64,-310.72C54.65,-302.19 57.93,-292.87 61.22,-283.53"/>
<polygon fill="none" stroke="midnightblue" points="48.28,-309.73 48.26,-320.32 54.88,-312.06 48.28,-309.73"/>
</g>
<!-- Node4 -->
<g id="node4" class="node">
<title>Node4</title>
<g id="a_node4"><a xlink:title=" ">
<polygon fill="white" stroke="#bfbfbf" points="90.5,-320.5 90.5,-377.5 172.5,-377.5 172.5,-320.5 90.5,-320.5"/>
<text text-anchor="middle" x="131.5" y="-365.5" font-family="Helvetica,sans-Serif" font-size="10.00">abc.ABCMeta</text>
<polyline fill="none" stroke="#bfbfbf" points="90.5,-358.5 172.5,-358.5 "/>
<text text-anchor="middle" x="131.5" y="-346.5" font-family="Helvetica,sans-Serif" font-size="10.00"> </text>
<polyline fill="none" stroke="#bfbfbf" points="90.5,-339.5 172.5,-339.5 "/>
<text text-anchor="middle" x="131.5" y="-327.5" font-family="Helvetica,sans-Serif" font-size="10.00"> </text>
</a>
</g>
</g>
<!-- Node4&#45;&gt;Node2 -->
<g id="edge3" class="edge">
<title>Node4&#45;&gt;Node2</title>
<path fill="none" stroke="midnightblue" d="M118.07,-310.72C115,-302.19 111.65,-292.87 108.28,-283.53"/>
<polygon fill="none" stroke="midnightblue" points="114.85,-312.1 121.53,-320.32 121.44,-309.73 114.85,-312.1"/>
</g>
</g>
</svg>
