<?xml version="1.0" encoding="UTF-8" standalone="no"?>
<!DOCTYPE svg PUBLIC "-//W3C//DTD SVG 1.1//EN"
 "http://www.w3.org/Graphics/SVG/1.1/DTD/svg11.dtd">
<!-- Generated by graphviz version 2.43.0 (0)
 -->
<!-- Title: wrn.partitioning.JacobiPartitioner Pages: 1 -->
<svg width="186pt" height="254pt"
 viewBox="0.00 0.00 185.50 254.00" xmlns="http://www.w3.org/2000/svg" xmlns:xlink="http://www.w3.org/1999/xlink">
<g id="graph0" class="graph" transform="scale(1 1) rotate(0) translate(4 250)">
<title>wrn.partitioning.JacobiPartitioner</title>
<polygon fill="white" stroke="transparent" points="-4,4 -4,-250 181.5,-250 181.5,4 -4,4"/>
<!-- Node1 -->
<g id="node1" class="node">
<title>Node1</title>
<g id="a_node1"><a xlink:title=" ">
<polygon fill="#bfbfbf" stroke="black" points="0,-0.5 0,-57.5 176,-57.5 176,-0.5 0,-0.5"/>
<text text-anchor="middle" x="88" y="-45.5" font-family="Helvetica,sans-Serif" font-size="10.00">wrn.partitioning.JacobiPartitioner</text>
<polyline fill="none" stroke="black" points="0,-38.5 176,-38.5 "/>
<text text-anchor="middle" x="88" y="-26.5" font-family="Helvetica,sans-Serif" font-size="10.00"> </text>
<polyline fill="none" stroke="black" points="0,-19.5 176,-19.5 "/>
<text text-anchor="start" x="8" y="-7.5" font-family="Helvetica,sans-Serif" font-size="10.00">+ partition()</text>
</a>
</g>
</g>
<!-- Node2 -->
<g id="node2" class="node">
<title>Node2</title>
<g id="a_node2"><a xlink:href="classwrn_1_1partitioning_1_1Partitioner.html" target="_top" xlink:title=" ">
<polygon fill="white" stroke="black" points="14.5,-94.5 14.5,-151.5 161.5,-151.5 161.5,-94.5 14.5,-94.5"/>
<text text-anchor="middle" x="88" y="-139.5" font-family="Helvetica,sans-Serif" font-size="10.00">wrn.partitioning.Partitioner</text>
<polyline fill="none" stroke="black" points="14.5,-132.5 161.5,-132.5 "/>
<text text-anchor="middle" x="88" y="-120.5" font-family="Helvetica,sans-Serif" font-size="10.00"> </text>
<polyline fill="none" stroke="black" points="14.5,-113.5 161.5,-113.5 "/>
<text text-anchor="start" x="22.5" y="-101.5" font-family="Helvetica,sans-Serif" font-size="10.00">+ partition()</text>
</a>
</g>
</g>
<!-- Node2&#45;&gt;Node1 -->
<g id="edge1" class="edge">
<title>Node2&#45;&gt;Node1</title>
<path fill="none" stroke="midnightblue" d="M88,-84.21C88,-75.29 88,-65.95 88,-57.58"/>
<polygon fill="none" stroke="midnightblue" points="84.5,-84.4 88,-94.4 91.5,-84.4 84.5,-84.4"/>
</g>
<!-- Node3 -->
<g id="node3" class="node">
<title>Node3</title>
<g id="a_node3"><a target="_parent" xlink:href="../../../cieutils/docs/html/classmetaclass.html" xlink:title=" ">
<polygon fill="white" stroke="black" points="7.5,-188.5 7.5,-245.5 74.5,-245.5 74.5,-188.5 7.5,-188.5"/>
<text text-anchor="middle" x="41" y="-233.5" font-family="Helvetica,sans-Serif" font-size="10.00">metaclass</text>
<polyline fill="none" stroke="black" points="7.5,-226.5 74.5,-226.5 "/>
<text text-anchor="middle" x="41" y="-214.5" font-family="Helvetica,sans-Serif" font-size="10.00"> </text>
<polyline fill="none" stroke="black" points="7.5,-207.5 74.5,-207.5 "/>
<text text-anchor="middle" x="41" y="-195.5" font-family="Helvetica,sans-Serif" font-size="10.00"> </text>
</a>
</g>
</g>
<!-- Node3&#45;&gt;Node2 -->
<g id="edge2" class="edge">
<title>Node3&#45;&gt;Node2</title>
<path fill="none" stroke="midnightblue" d="M59.71,-179.37C64.45,-170.11 69.45,-160.32 73.91,-151.58"/>
<polygon fill="none" stroke="midnightblue" points="56.53,-177.9 55.1,-188.4 62.77,-181.08 56.53,-177.9"/>
</g>
<!-- Node4 -->
<g id="node4" class="node">
<title>Node4</title>
<g id="a_node4"><a xlink:title=" ">
<polygon fill="white" stroke="#bfbfbf" points="92.5,-188.5 92.5,-245.5 177.5,-245.5 177.5,-188.5 92.5,-188.5"/>
<text text-anchor="middle" x="135" y="-233.5" font-family="Helvetica,sans-Serif" font-size="10.00">abc::ABCMeta</text>
<polyline fill="none" stroke="#bfbfbf" points="92.5,-226.5 177.5,-226.5 "/>
<text text-anchor="middle" x="135" y="-214.5" font-family="Helvetica,sans-Serif" font-size="10.00"> </text>
<polyline fill="none" stroke="#bfbfbf" points="92.5,-207.5 177.5,-207.5 "/>
<text text-anchor="middle" x="135" y="-195.5" font-family="Helvetica,sans-Serif" font-size="10.00"> </text>
</a>
</g>
</g>
<!-- Node4&#45;&gt;Node2 -->
<g id="edge3" class="edge">
<title>Node4&#45;&gt;Node2</title>
<path fill="none" stroke="midnightblue" d="M116.29,-179.37C111.55,-170.11 106.55,-160.32 102.09,-151.58"/>
<polygon fill="none" stroke="midnightblue" points="113.23,-181.08 120.9,-188.4 119.47,-177.9 113.23,-181.08"/>
</g>
</g>
</svg>
