<?xml version="1.0" encoding="UTF-8" standalone="no"?>
<!DOCTYPE svg PUBLIC "-//W3C//DTD SVG 1.1//EN"
 "http://www.w3.org/Graphics/SVG/1.1/DTD/svg11.dtd">
<!-- Generated by graphviz version 2.43.0 (0)
 -->
<!-- Title: wrn.partitioning.Partitioner Pages: 1 -->
<svg width="360pt" height="265pt"
 viewBox="0.00 0.00 359.50 265.00" xmlns="http://www.w3.org/2000/svg" xmlns:xlink="http://www.w3.org/1999/xlink">
<g id="graph0" class="graph" transform="scale(1 1) rotate(0) translate(4 261)">
<title>wrn.partitioning.Partitioner</title>
<polygon fill="white" stroke="transparent" points="-4,4 -4,-261 355.5,-261 355.5,4 -4,4"/>
<!-- Node1 -->
<g id="node1" class="node">
<title>Node1</title>
<g id="a_node1"><a xlink:title=" ">
<polygon fill="#bfbfbf" stroke="black" points="97,-105.5 97,-162.5 244,-162.5 244,-105.5 97,-105.5"/>
<text text-anchor="middle" x="170.5" y="-150.5" font-family="Helvetica,sans-Serif" font-size="10.00">wrn.partitioning.Partitioner</text>
<polyline fill="none" stroke="black" points="97,-143.5 244,-143.5 "/>
<text text-anchor="middle" x="170.5" y="-131.5" font-family="Helvetica,sans-Serif" font-size="10.00"> </text>
<polyline fill="none" stroke="black" points="97,-124.5 244,-124.5 "/>
<text text-anchor="start" x="105" y="-112.5" font-family="Helvetica,sans-Serif" font-size="10.00">+ partition()</text>
</a>
</g>
</g>
<!-- Node4 -->
<g id="node4" class="node">
<title>Node4</title>
<g id="a_node4"><a xlink:href="classwrn_1_1partitioning_1_1GaussSeidelPartitioner.html" target="_top" xlink:title=" ">
<polygon fill="white" stroke="black" points="0,-0.5 0,-68.5 157,-68.5 157,-0.5 0,-0.5"/>
<text text-anchor="start" x="8" y="-56.5" font-family="Helvetica,sans-Serif" font-size="10.00">wrn.partitioning.GaussSeidel</text>
<text text-anchor="middle" x="78.5" y="-45.5" font-family="Helvetica,sans-Serif" font-size="10.00">Partitioner</text>
<polyline fill="none" stroke="black" points="0,-38.5 157,-38.5 "/>
<text text-anchor="middle" x="78.5" y="-26.5" font-family="Helvetica,sans-Serif" font-size="10.00"> </text>
<polyline fill="none" stroke="black" points="0,-19.5 157,-19.5 "/>
<text text-anchor="start" x="8" y="-7.5" font-family="Helvetica,sans-Serif" font-size="10.00">+ partition()</text>
</a>
</g>
</g>
<!-- Node1&#45;&gt;Node4 -->
<g id="edge3" class="edge">
<title>Node1&#45;&gt;Node4</title>
<path fill="none" stroke="midnightblue" d="M137.38,-97.9C128.43,-88.41 118.77,-78.17 109.91,-68.79"/>
<polygon fill="none" stroke="midnightblue" points="134.97,-100.45 144.38,-105.32 140.07,-95.65 134.97,-100.45"/>
</g>
<!-- Node5 -->
<g id="node5" class="node">
<title>Node5</title>
<g id="a_node5"><a xlink:href="classwrn_1_1partitioning_1_1JacobiPartitioner.html" target="_top" xlink:title=" ">
<polygon fill="white" stroke="black" points="175.5,-6 175.5,-63 351.5,-63 351.5,-6 175.5,-6"/>
<text text-anchor="middle" x="263.5" y="-51" font-family="Helvetica,sans-Serif" font-size="10.00">wrn.partitioning.JacobiPartitioner</text>
<polyline fill="none" stroke="black" points="175.5,-44 351.5,-44 "/>
<text text-anchor="middle" x="263.5" y="-32" font-family="Helvetica,sans-Serif" font-size="10.00"> </text>
<polyline fill="none" stroke="black" points="175.5,-25 351.5,-25 "/>
<text text-anchor="start" x="183.5" y="-13" font-family="Helvetica,sans-Serif" font-size="10.00">+ partition()</text>
</a>
</g>
</g>
<!-- Node1&#45;&gt;Node5 -->
<g id="edge4" class="edge">
<title>Node1&#45;&gt;Node5</title>
<path fill="none" stroke="midnightblue" d="M203.88,-98C214.78,-86.58 226.72,-74.06 237.03,-63.25"/>
<polygon fill="none" stroke="midnightblue" points="201.27,-95.67 196.9,-105.32 206.34,-100.5 201.27,-95.67"/>
</g>
<!-- Node2 -->
<g id="node2" class="node">
<title>Node2</title>
<g id="a_node2"><a target="_parent" xlink:href="../../../cieutils/docs/html/classmetaclass.html" xlink:title=" ">
<polygon fill="white" stroke="black" points="90,-199.5 90,-256.5 157,-256.5 157,-199.5 90,-199.5"/>
<text text-anchor="middle" x="123.5" y="-244.5" font-family="Helvetica,sans-Serif" font-size="10.00">metaclass</text>
<polyline fill="none" stroke="black" points="90,-237.5 157,-237.5 "/>
<text text-anchor="middle" x="123.5" y="-225.5" font-family="Helvetica,sans-Serif" font-size="10.00"> </text>
<polyline fill="none" stroke="black" points="90,-218.5 157,-218.5 "/>
<text text-anchor="middle" x="123.5" y="-206.5" font-family="Helvetica,sans-Serif" font-size="10.00"> </text>
</a>
</g>
</g>
<!-- Node2&#45;&gt;Node1 -->
<g id="edge1" class="edge">
<title>Node2&#45;&gt;Node1</title>
<path fill="none" stroke="midnightblue" d="M142.21,-190.37C146.95,-181.11 151.95,-171.32 156.41,-162.58"/>
<polygon fill="none" stroke="midnightblue" points="139.03,-188.9 137.6,-199.4 145.27,-192.08 139.03,-188.9"/>
</g>
<!-- Node3 -->
<g id="node3" class="node">
<title>Node3</title>
<g id="a_node3"><a xlink:title=" ">
<polygon fill="white" stroke="#bfbfbf" points="175,-199.5 175,-256.5 260,-256.5 260,-199.5 175,-199.5"/>
<text text-anchor="middle" x="217.5" y="-244.5" font-family="Helvetica,sans-Serif" font-size="10.00">abc::ABCMeta</text>
<polyline fill="none" stroke="#bfbfbf" points="175,-237.5 260,-237.5 "/>
<text text-anchor="middle" x="217.5" y="-225.5" font-family="Helvetica,sans-Serif" font-size="10.00"> </text>
<polyline fill="none" stroke="#bfbfbf" points="175,-218.5 260,-218.5 "/>
<text text-anchor="middle" x="217.5" y="-206.5" font-family="Helvetica,sans-Serif" font-size="10.00"> </text>
</a>
</g>
</g>
<!-- Node3&#45;&gt;Node1 -->
<g id="edge2" class="edge">
<title>Node3&#45;&gt;Node1</title>
<path fill="none" stroke="midnightblue" d="M198.79,-190.37C194.05,-181.11 189.05,-171.32 184.59,-162.58"/>
<polygon fill="none" stroke="midnightblue" points="195.73,-192.08 203.4,-199.4 201.97,-188.9 195.73,-192.08"/>
</g>
</g>
</svg>
