<?xml version="1.0" encoding="UTF-8" standalone="no"?>
<!DOCTYPE svg PUBLIC "-//W3C//DTD SVG 1.1//EN"
 "http://www.w3.org/Graphics/SVG/1.1/DTD/svg11.dtd">
<!-- Generated by graphviz version 2.43.0 (0)
 -->
<!-- Title: wrn.relax.WaveformRelaxation Pages: 1 -->
<svg width="384pt" height="386pt"
 viewBox="0.00 0.00 383.50 386.00" xmlns="http://www.w3.org/2000/svg" xmlns:xlink="http://www.w3.org/1999/xlink">
<g id="graph0" class="graph" transform="scale(1 1) rotate(0) translate(4 382)">
<title>wrn.relax.WaveformRelaxation</title>
<polygon fill="white" stroke="transparent" points="-4,4 -4,-382 379.5,-382 379.5,4 -4,4"/>
<!-- Node1 -->
<g id="node1" class="node">
<title>Node1</title>
<g id="a_node1"><a xlink:title=" ">
<polygon fill="#bfbfbf" stroke="black" points="98.5,-149.5 98.5,-283.5 266.5,-283.5 266.5,-149.5 98.5,-149.5"/>
<text text-anchor="middle" x="182.5" y="-271.5" font-family="Helvetica,sans-Serif" font-size="10.00">wrn.relax.WaveformRelaxation</text>
<polyline fill="none" stroke="black" points="98.5,-264.5 266.5,-264.5 "/>
<text text-anchor="middle" x="182.5" y="-252.5" font-family="Helvetica,sans-Serif" font-size="10.00"> </text>
<polyline fill="none" stroke="black" points="98.5,-245.5 266.5,-245.5 "/>
<text text-anchor="start" x="106.5" y="-233.5" font-family="Helvetica,sans-Serif" font-size="10.00">+ __init__()</text>
<text text-anchor="start" x="106.5" y="-222.5" font-family="Helvetica,sans-Serif" font-size="10.00">+ partitioner()</text>
<text text-anchor="start" x="106.5" y="-211.5" font-family="Helvetica,sans-Serif" font-size="10.00">+ solution()</text>
<text text-anchor="start" x="106.5" y="-200.5" font-family="Helvetica,sans-Serif" font-size="10.00">+ getTimeIntegrator()</text>
<text text-anchor="start" x="106.5" y="-189.5" font-family="Helvetica,sans-Serif" font-size="10.00">+ relax()</text>
<text text-anchor="start" x="106.5" y="-178.5" font-family="Helvetica,sans-Serif" font-size="10.00">+ solve()</text>
<text text-anchor="start" x="106.5" y="-167.5" font-family="Helvetica,sans-Serif" font-size="10.00">+ model()</text>
<text text-anchor="start" x="106.5" y="-156.5" font-family="Helvetica,sans-Serif" font-size="10.00">+ partitionedModel()</text>
</a>
</g>
</g>
<!-- Node4 -->
<g id="node4" class="node">
<title>Node4</title>
<g id="a_node4"><a xlink:href="classwrn_1_1relax_1_1HeterogeneousJacobiRelaxation.html" target="_top" xlink:title=" ">
<polygon fill="white" stroke="black" points="0,-0.5 0,-112.5 169,-112.5 169,-0.5 0,-0.5"/>
<text text-anchor="start" x="8" y="-100.5" font-family="Helvetica,sans-Serif" font-size="10.00">wrn.relax.HeterogeneousJacobi</text>
<text text-anchor="middle" x="84.5" y="-89.5" font-family="Helvetica,sans-Serif" font-size="10.00">Relaxation</text>
<polyline fill="none" stroke="black" points="0,-82.5 169,-82.5 "/>
<text text-anchor="middle" x="84.5" y="-70.5" font-family="Helvetica,sans-Serif" font-size="10.00"> </text>
<polyline fill="none" stroke="black" points="0,-63.5 169,-63.5 "/>
<text text-anchor="start" x="8" y="-51.5" font-family="Helvetica,sans-Serif" font-size="10.00">+ __init__()</text>
<text text-anchor="start" x="8" y="-40.5" font-family="Helvetica,sans-Serif" font-size="10.00">+ solution()</text>
<text text-anchor="start" x="8" y="-29.5" font-family="Helvetica,sans-Serif" font-size="10.00">+ partitioner()</text>
<text text-anchor="start" x="8" y="-18.5" font-family="Helvetica,sans-Serif" font-size="10.00">+ getTimeIntegrator()</text>
<text text-anchor="start" x="8" y="-7.5" font-family="Helvetica,sans-Serif" font-size="10.00">+ relax()</text>
</a>
</g>
</g>
<!-- Node1&#45;&gt;Node4 -->
<g id="edge3" class="edge">
<title>Node1&#45;&gt;Node4</title>
<path fill="none" stroke="midnightblue" d="M136.16,-140.79C130.32,-131.37 124.42,-121.86 118.81,-112.82"/>
<polygon fill="none" stroke="midnightblue" points="133.26,-142.76 141.51,-149.41 139.21,-139.07 133.26,-142.76"/>
</g>
<!-- Node5 -->
<g id="node5" class="node">
<title>Node5</title>
<g id="a_node5"><a xlink:href="classwrn_1_1relax_1_1HomogeneousRelaxation.html" target="_top" xlink:title=" ">
<polygon fill="white" stroke="black" points="187.5,-6 187.5,-107 375.5,-107 375.5,-6 187.5,-6"/>
<text text-anchor="middle" x="281.5" y="-95" font-family="Helvetica,sans-Serif" font-size="10.00">wrn.relax.HomogeneousRelaxation</text>
<polyline fill="none" stroke="black" points="187.5,-88 375.5,-88 "/>
<text text-anchor="middle" x="281.5" y="-76" font-family="Helvetica,sans-Serif" font-size="10.00"> </text>
<polyline fill="none" stroke="black" points="187.5,-69 375.5,-69 "/>
<text text-anchor="start" x="195.5" y="-57" font-family="Helvetica,sans-Serif" font-size="10.00">+ __init__()</text>
<text text-anchor="start" x="195.5" y="-46" font-family="Helvetica,sans-Serif" font-size="10.00">+ solution()</text>
<text text-anchor="start" x="195.5" y="-35" font-family="Helvetica,sans-Serif" font-size="10.00">+ partitioner()</text>
<text text-anchor="start" x="195.5" y="-24" font-family="Helvetica,sans-Serif" font-size="10.00">+ getTimeIntegrator()</text>
<text text-anchor="start" x="195.5" y="-13" font-family="Helvetica,sans-Serif" font-size="10.00">+ relax()</text>
</a>
</g>
</g>
<!-- Node1&#45;&gt;Node5 -->
<g id="edge4" class="edge">
<title>Node1&#45;&gt;Node5</title>
<path fill="none" stroke="midnightblue" d="M229.3,-140.8C236.39,-129.49 243.55,-118.07 250.2,-107.46"/>
<polygon fill="none" stroke="midnightblue" points="226.26,-139.08 223.91,-149.41 232.19,-142.79 226.26,-139.08"/>
</g>
<!-- Node2 -->
<g id="node2" class="node">
<title>Node2</title>
<g id="a_node2"><a target="_parent" xlink:href="../../../cieutils/docs/html/classmetaclass.html" xlink:title=" ">
<polygon fill="white" stroke="black" points="103,-320.5 103,-377.5 170,-377.5 170,-320.5 103,-320.5"/>
<text text-anchor="middle" x="136.5" y="-365.5" font-family="Helvetica,sans-Serif" font-size="10.00">metaclass</text>
<polyline fill="none" stroke="black" points="103,-358.5 170,-358.5 "/>
<text text-anchor="middle" x="136.5" y="-346.5" font-family="Helvetica,sans-Serif" font-size="10.00"> </text>
<polyline fill="none" stroke="black" points="103,-339.5 170,-339.5 "/>
<text text-anchor="middle" x="136.5" y="-327.5" font-family="Helvetica,sans-Serif" font-size="10.00"> </text>
</a>
</g>
</g>
<!-- Node2&#45;&gt;Node1 -->
<g id="edge1" class="edge">
<title>Node2&#45;&gt;Node1</title>
<path fill="none" stroke="midnightblue" d="M149.64,-310.72C152.65,-302.19 155.93,-292.87 159.22,-283.53"/>
<polygon fill="none" stroke="midnightblue" points="146.28,-309.73 146.26,-320.32 152.88,-312.06 146.28,-309.73"/>
</g>
<!-- Node3 -->
<g id="node3" class="node">
<title>Node3</title>
<g id="a_node3"><a xlink:title=" ">
<polygon fill="white" stroke="#bfbfbf" points="188.5,-320.5 188.5,-377.5 270.5,-377.5 270.5,-320.5 188.5,-320.5"/>
<text text-anchor="middle" x="229.5" y="-365.5" font-family="Helvetica,sans-Serif" font-size="10.00">abc.ABCMeta</text>
<polyline fill="none" stroke="#bfbfbf" points="188.5,-358.5 270.5,-358.5 "/>
<text text-anchor="middle" x="229.5" y="-346.5" font-family="Helvetica,sans-Serif" font-size="10.00"> </text>
<polyline fill="none" stroke="#bfbfbf" points="188.5,-339.5 270.5,-339.5 "/>
<text text-anchor="middle" x="229.5" y="-327.5" font-family="Helvetica,sans-Serif" font-size="10.00"> </text>
</a>
</g>
</g>
<!-- Node3&#45;&gt;Node1 -->
<g id="edge2" class="edge">
<title>Node3&#45;&gt;Node1</title>
<path fill="none" stroke="midnightblue" d="M216.07,-310.72C213,-302.19 209.65,-292.87 206.28,-283.53"/>
<polygon fill="none" stroke="midnightblue" points="212.85,-312.1 219.53,-320.32 219.44,-309.73 212.85,-312.1"/>
</g>
</g>
</svg>
