<?xml version="1.0" encoding="UTF-8" standalone="no"?>
<!DOCTYPE svg PUBLIC "-//W3C//DTD SVG 1.1//EN"
 "http://www.w3.org/Graphics/SVG/1.1/DTD/svg11.dtd">
<!-- Generated by graphviz version 2.43.0 (0)
 -->
<!-- Title: cie::fem::AnsatzMap&lt; TValue &gt; Pages: 1 -->
<svg width="274pt" height="331pt"
 viewBox="0.00 0.00 273.50 331.00" xmlns="http://www.w3.org/2000/svg" xmlns:xlink="http://www.w3.org/1999/xlink">
<g id="graph0" class="graph" transform="scale(1 1) rotate(0) translate(4 327)">
<title>cie::fem::AnsatzMap&lt; TValue &gt;</title>
<polygon fill="white" stroke="transparent" points="-4,4 -4,-327 269.5,-327 269.5,4 -4,4"/>
<!-- Node1 -->
<g id="node1" class="node">
<title>Node1</title>
<g id="a_node1"><a xlink:title="Utility class for matching ansatz functions on different boundaries to preserve continuity.">
<polygon fill="#bfbfbf" stroke="black" points="74,-0.5 74,-90.5 190,-90.5 190,-0.5 74,-0.5"/>
<text text-anchor="start" x="82" y="-78.5" font-family="Helvetica,sans-Serif" font-size="10.00">cie::fem::AnsatzMap</text>
<text text-anchor="middle" x="132" y="-67.5" font-family="Helvetica,sans-Serif" font-size="10.00">&lt; TValue &gt;</text>
<polyline fill="none" stroke="black" points="74,-60.5 190,-60.5 "/>
<text text-anchor="middle" x="132" y="-48.5" font-family="Helvetica,sans-Serif" font-size="10.00"> </text>
<polyline fill="none" stroke="black" points="74,-41.5 190,-41.5 "/>
<text text-anchor="start" x="82" y="-29.5" font-family="Helvetica,sans-Serif" font-size="10.00">+ requires()</text>
<text text-anchor="start" x="82" y="-18.5" font-family="Helvetica,sans-Serif" font-size="10.00">+ getPairs()</text>
<text text-anchor="start" x="82" y="-7.5" font-family="Helvetica,sans-Serif" font-size="10.00">+ getPairCount()</text>
</a>
</g>
</g>
<!-- Node2 -->
<g id="node2" class="node">
<title>Node2</title>
<g id="a_node2"><a target="_parent" xlink:href="../../../cieutils/docs/html/classcie_1_1utils_1_1Comparison.html" xlink:title=" ">
<polygon fill="white" stroke="black" points="0,-138.5 0,-206.5 122,-206.5 122,-138.5 0,-138.5"/>
<text text-anchor="start" x="8" y="-194.5" font-family="Helvetica,sans-Serif" font-size="10.00">cie::utils::Comparison</text>
<text text-anchor="middle" x="61" y="-183.5" font-family="Helvetica,sans-Serif" font-size="10.00">&lt; TValue &gt;</text>
<polyline fill="none" stroke="black" points="0,-176.5 122,-176.5 "/>
<text text-anchor="middle" x="61" y="-164.5" font-family="Helvetica,sans-Serif" font-size="10.00"> </text>
<polyline fill="none" stroke="black" points="0,-157.5 122,-157.5 "/>
<text text-anchor="middle" x="61" y="-145.5" font-family="Helvetica,sans-Serif" font-size="10.00"> </text>
</a>
</g>
</g>
<!-- Node2&#45;&gt;Node1 -->
<g id="edge1" class="edge">
<title>Node2&#45;&gt;Node1</title>
<path fill="none" stroke="#404040" d="M79.84,-138.33C86.32,-126.92 93.77,-113.81 100.96,-101.15"/>
<polygon fill="none" stroke="#404040" points="100.99,-101.09 100.48,-93.9 106.92,-90.66 107.43,-97.85 100.99,-101.09"/>
<text text-anchor="middle" x="131.5" y="-112" font-family="Helvetica,sans-Serif" font-size="10.00"> +comparison</text>
</g>
<!-- Node3 -->
<g id="node3" class="node">
<title>Node3</title>
<g id="a_node3"><a target="_parent" xlink:href="../../../cieutils/docs/html/classcie_1_1utils_1_1Comparison.html" xlink:title=" ">
<polygon fill="white" stroke="black" points="0,-254.5 0,-322.5 122,-322.5 122,-254.5 0,-254.5"/>
<text text-anchor="start" x="8" y="-310.5" font-family="Helvetica,sans-Serif" font-size="10.00">cie::utils::Comparison</text>
<text text-anchor="middle" x="61" y="-299.5" font-family="Helvetica,sans-Serif" font-size="10.00">&lt; class &gt;</text>
<polyline fill="none" stroke="black" points="0,-292.5 122,-292.5 "/>
<text text-anchor="middle" x="61" y="-280.5" font-family="Helvetica,sans-Serif" font-size="10.00"> </text>
<polyline fill="none" stroke="black" points="0,-273.5 122,-273.5 "/>
<text text-anchor="middle" x="61" y="-261.5" font-family="Helvetica,sans-Serif" font-size="10.00"> </text>
</a>
</g>
</g>
<!-- Node3&#45;&gt;Node2 -->
<g id="edge2" class="edge">
<title>Node3&#45;&gt;Node2</title>
<path fill="none" stroke="orange" d="M61,-244.06C61,-231.64 61,-218.32 61,-206.62"/>
<polygon fill="orange" stroke="orange" points="57.5,-244.22 61,-254.22 64.5,-244.22 57.5,-244.22"/>
<text text-anchor="middle" x="90.5" y="-228" font-family="Helvetica,sans-Serif" font-size="10.00"> &lt; TValue &gt;</text>
</g>
<!-- Node4 -->
<g id="node4" class="node">
<title>Node4</title>
<g id="a_node4"><a xlink:title=" ">
<polygon fill="white" stroke="#bfbfbf" points="140.5,-144 140.5,-201 265.5,-201 265.5,-144 140.5,-144"/>
<text text-anchor="middle" x="203" y="-189" font-family="Helvetica,sans-Serif" font-size="10.00">span&lt; const TValue &gt;</text>
<polyline fill="none" stroke="#bfbfbf" points="140.5,-182 265.5,-182 "/>
<text text-anchor="middle" x="203" y="-170" font-family="Helvetica,sans-Serif" font-size="10.00"> </text>
<polyline fill="none" stroke="#bfbfbf" points="140.5,-163 265.5,-163 "/>
<text text-anchor="middle" x="203" y="-151" font-family="Helvetica,sans-Serif" font-size="10.00"> </text>
</a>
</g>
</g>
<!-- Node4&#45;&gt;Node1 -->
<g id="edge3" class="edge">
<title>Node4&#45;&gt;Node1</title>
<path fill="none" stroke="#404040" d="M188.9,-143.92C183.18,-132.97 176.42,-120.31 170,-109 168.52,-106.39 166.99,-103.73 165.43,-101.05"/>
<polygon fill="none" stroke="#404040" points="165.42,-101.03 158.92,-97.89 159.32,-90.69 165.81,-93.83 165.42,-101.03"/>
<text text-anchor="middle" x="201.5" y="-112" font-family="Helvetica,sans-Serif" font-size="10.00"> +samples</text>
</g>
</g>
</svg>
