<?xml version="1.0" encoding="UTF-8" standalone="no"?>
<!DOCTYPE svg PUBLIC "-//W3C//DTD SVG 1.1//EN"
 "http://www.w3.org/Graphics/SVG/1.1/DTD/svg11.dtd">
<!-- Generated by graphviz version 2.43.0 (0)
 -->
<!-- Title: cie::fem::Graph&lt; TVertexData, TEdgeData &gt;::Vertex Pages: 1 -->
<svg width="171pt" height="226pt"
 viewBox="0.00 0.00 171.00 226.00" xmlns="http://www.w3.org/2000/svg" xmlns:xlink="http://www.w3.org/1999/xlink">
<g id="graph0" class="graph" transform="scale(1 1) rotate(0) translate(4 222)">
<title>cie::fem::Graph&lt; TVertexData, TEdgeData &gt;::Vertex</title>
<polygon fill="white" stroke="transparent" points="-4,4 -4,-222 167,-222 167,4 -4,4"/>
<!-- Node1 -->
<g id="node1" class="node">
<title>Node1</title>
<g id="a_node1"><a xlink:title="Vertex type of Graph.">
<polygon fill="#bfbfbf" stroke="black" points="7.5,-0.5 7.5,-90.5 155.5,-90.5 155.5,-0.5 7.5,-0.5"/>
<text text-anchor="start" x="15.5" y="-78.5" font-family="Helvetica,sans-Serif" font-size="10.00">cie::fem::Graph&lt; TVertex</text>
<text text-anchor="middle" x="81.5" y="-67.5" font-family="Helvetica,sans-Serif" font-size="10.00">Data, TEdgeData &gt;::Vertex</text>
<polyline fill="none" stroke="black" points="7.5,-60.5 155.5,-60.5 "/>
<text text-anchor="middle" x="81.5" y="-48.5" font-family="Helvetica,sans-Serif" font-size="10.00"> </text>
<polyline fill="none" stroke="black" points="7.5,-41.5 155.5,-41.5 "/>
<text text-anchor="start" x="15.5" y="-29.5" font-family="Helvetica,sans-Serif" font-size="10.00">+ Vertex()</text>
<text text-anchor="start" x="15.5" y="-18.5" font-family="Helvetica,sans-Serif" font-size="10.00">+ data()</text>
<text text-anchor="start" x="15.5" y="-7.5" font-family="Helvetica,sans-Serif" font-size="10.00">+ data()</text>
</a>
</g>
</g>
<!-- Node2 -->
<g id="node2" class="node">
<title>Node2</title>
<g id="a_node2"><a xlink:title=" ">
<polygon fill="white" stroke="#bfbfbf" points="0,-127.5 0,-217.5 163,-217.5 163,-127.5 0,-127.5"/>
<text text-anchor="start" x="8" y="-205.5" font-family="Helvetica,sans-Serif" font-size="10.00">cie::fem::Graph&lt; TVertex</text>
<text text-anchor="start" x="8" y="-194.5" font-family="Helvetica,sans-Serif" font-size="10.00">Data, TEdgeData &gt;::ItemBase</text>
<text text-anchor="middle" x="81.5" y="-183.5" font-family="Helvetica,sans-Serif" font-size="10.00">&lt; TID &gt;</text>
<polyline fill="none" stroke="#bfbfbf" points="0,-176.5 163,-176.5 "/>
<text text-anchor="middle" x="81.5" y="-164.5" font-family="Helvetica,sans-Serif" font-size="10.00"> </text>
<polyline fill="none" stroke="#bfbfbf" points="0,-157.5 163,-157.5 "/>
<text text-anchor="start" x="8" y="-145.5" font-family="Helvetica,sans-Serif" font-size="10.00">+ ItemBase()</text>
<text text-anchor="start" x="8" y="-134.5" font-family="Helvetica,sans-Serif" font-size="10.00">+ id()</text>
</a>
</g>
</g>
<!-- Node2&#45;&gt;Node1 -->
<g id="edge1" class="edge">
<title>Node2&#45;&gt;Node1</title>
<path fill="none" stroke="midnightblue" d="M81.5,-117.16C81.5,-108.28 81.5,-99.18 81.5,-90.59"/>
<polygon fill="none" stroke="midnightblue" points="78,-117.43 81.5,-127.43 85,-117.43 78,-117.43"/>
</g>
</g>
</svg>
