<?xml version="1.0" encoding="UTF-8" standalone="no"?>
<!DOCTYPE svg PUBLIC "-//W3C//DTD SVG 1.1//EN"
 "http://www.w3.org/Graphics/SVG/1.1/DTD/svg11.dtd">
<!-- Generated by graphviz version 2.43.0 (0)
 -->
<!-- Title: optcontrol.numeric.basisfunctions.GridTensorProduct Pages: 1 -->
<svg width="215pt" height="193pt"
 viewBox="0.00 0.00 215.00 193.00" xmlns="http://www.w3.org/2000/svg" xmlns:xlink="http://www.w3.org/1999/xlink">
<g id="graph0" class="graph" transform="scale(1 1) rotate(0) translate(4 189)">
<title>optcontrol.numeric.basisfunctions.GridTensorProduct</title>
<polygon fill="white" stroke="transparent" points="-4,4 -4,-189 211,-189 211,4 -4,4"/>
<!-- Node1 -->
<g id="node1" class="node">
<title>Node1</title>
<g id="a_node1"><a xlink:title=" ">
<polygon fill="#bfbfbf" stroke="black" points="0,-0.5 0,-90.5 207,-90.5 207,-0.5 0,-0.5"/>
<text text-anchor="start" x="8" y="-78.5" font-family="Helvetica,sans-Serif" font-size="10.00">optcontrol.numeric.basisfunctions.</text>
<text text-anchor="middle" x="103.5" y="-67.5" font-family="Helvetica,sans-Serif" font-size="10.00">GridTensorProduct</text>
<polyline fill="none" stroke="black" points="0,-60.5 207,-60.5 "/>
<text text-anchor="start" x="8" y="-48.5" font-family="Helvetica,sans-Serif" font-size="10.00">+ basisFunctions</text>
<polyline fill="none" stroke="black" points="0,-41.5 207,-41.5 "/>
<text text-anchor="start" x="8" y="-29.5" font-family="Helvetica,sans-Serif" font-size="10.00">+ __init__()</text>
<text text-anchor="start" x="8" y="-18.5" font-family="Helvetica,sans-Serif" font-size="10.00">+ evaluate()</text>
<text text-anchor="start" x="8" y="-7.5" font-family="Helvetica,sans-Serif" font-size="10.00">+ createNumberingForOrderTemplate()</text>
</a>
</g>
</g>
<!-- Node2 -->
<g id="node2" class="node">
<title>Node2</title>
<g id="a_node2"><a xlink:href="classobject.html" target="_top" xlink:title=" ">
<polygon fill="white" stroke="black" points="80,-127.5 80,-184.5 127,-184.5 127,-127.5 80,-127.5"/>
<text text-anchor="middle" x="103.5" y="-172.5" font-family="Helvetica,sans-Serif" font-size="10.00">object</text>
<polyline fill="none" stroke="black" points="80,-165.5 127,-165.5 "/>
<text text-anchor="middle" x="103.5" y="-153.5" font-family="Helvetica,sans-Serif" font-size="10.00"> </text>
<polyline fill="none" stroke="black" points="80,-146.5 127,-146.5 "/>
<text text-anchor="middle" x="103.5" y="-134.5" font-family="Helvetica,sans-Serif" font-size="10.00"> </text>
</a>
</g>
</g>
<!-- Node2&#45;&gt;Node1 -->
<g id="edge1" class="edge">
<title>Node2&#45;&gt;Node1</title>
<path fill="none" stroke="midnightblue" d="M103.5,-117.21C103.5,-108.61 103.5,-99.39 103.5,-90.55"/>
<polygon fill="none" stroke="midnightblue" points="100,-117.34 103.5,-127.34 107,-117.34 100,-117.34"/>
</g>
</g>
</svg>
