<?xml version="1.0" encoding="UTF-8" standalone="no"?>
<!DOCTYPE svg PUBLIC "-//W3C//DTD SVG 1.1//EN"
 "http://www.w3.org/Graphics/SVG/1.1/DTD/svg11.dtd">
<!-- Generated by graphviz version 2.43.0 (0)
 -->
<!-- Title: cie::fem::maths::ScaleTranslateTransformDerivative&lt; TValue, Dimension &gt; Pages: 1 -->
<svg width="214pt" height="226pt"
 viewBox="0.00 0.00 214.00 226.00" xmlns="http://www.w3.org/2000/svg" xmlns:xlink="http://www.w3.org/1999/xlink">
<g id="graph0" class="graph" transform="scale(1 1) rotate(0) translate(4 222)">
<title>cie::fem::maths::ScaleTranslateTransformDerivative&lt; TValue, Dimension &gt;</title>
<polygon fill="white" stroke="transparent" points="-4,4 -4,-222 210,-222 210,4 -4,4"/>
<!-- Node1 -->
<g id="node1" class="node">
<title>Node1</title>
<g id="a_node1"><a xlink:title=" ">
<polygon fill="#bfbfbf" stroke="black" points="0,-0.5 0,-112.5 206,-112.5 206,-0.5 0,-0.5"/>
<text text-anchor="start" x="8" y="-100.5" font-family="Helvetica,sans-Serif" font-size="10.00">cie::fem::maths::ScaleTranslate</text>
<text text-anchor="start" x="8" y="-89.5" font-family="Helvetica,sans-Serif" font-size="10.00">TransformDerivative&lt; TValue,</text>
<text text-anchor="middle" x="103" y="-78.5" font-family="Helvetica,sans-Serif" font-size="10.00"> Dimension &gt;</text>
<polyline fill="none" stroke="black" points="0,-71.5 206,-71.5 "/>
<text text-anchor="middle" x="103" y="-59.5" font-family="Helvetica,sans-Serif" font-size="10.00"> </text>
<polyline fill="none" stroke="black" points="0,-52.5 206,-52.5 "/>
<text text-anchor="start" x="8" y="-40.5" font-family="Helvetica,sans-Serif" font-size="10.00">+ ScaleTranslateTransformDerivative()</text>
<text text-anchor="start" x="8" y="-29.5" font-family="Helvetica,sans-Serif" font-size="10.00">+ evaluate()</text>
<text text-anchor="start" x="8" y="-18.5" font-family="Helvetica,sans-Serif" font-size="10.00">+ evaluateDeterminant()</text>
<text text-anchor="start" x="8" y="-7.5" font-family="Helvetica,sans-Serif" font-size="10.00">+ size()</text>
</a>
</g>
</g>
<!-- Node2 -->
<g id="node2" class="node">
<title>Node2</title>
<g id="a_node2"><a xlink:href="structcie_1_1fem_1_1maths_1_1ExpressionTraits.html" target="_top" xlink:title=" ">
<polygon fill="white" stroke="black" points="27,-149.5 27,-217.5 179,-217.5 179,-149.5 27,-149.5"/>
<text text-anchor="start" x="35" y="-205.5" font-family="Helvetica,sans-Serif" font-size="10.00">cie::fem::maths::Expression</text>
<text text-anchor="middle" x="103" y="-194.5" font-family="Helvetica,sans-Serif" font-size="10.00">Traits&lt; TValue &gt;</text>
<polyline fill="none" stroke="black" points="27,-187.5 179,-187.5 "/>
<text text-anchor="middle" x="103" y="-175.5" font-family="Helvetica,sans-Serif" font-size="10.00"> </text>
<polyline fill="none" stroke="black" points="27,-168.5 179,-168.5 "/>
<text text-anchor="middle" x="103" y="-156.5" font-family="Helvetica,sans-Serif" font-size="10.00"> </text>
</a>
</g>
</g>
<!-- Node2&#45;&gt;Node1 -->
<g id="edge1" class="edge">
<title>Node2&#45;&gt;Node1</title>
<path fill="none" stroke="midnightblue" d="M103,-139.18C103,-130.6 103,-121.49 103,-112.59"/>
<polygon fill="none" stroke="midnightblue" points="99.5,-139.33 103,-149.33 106.5,-139.33 99.5,-139.33"/>
</g>
</g>
</svg>
