<?xml version="1.0" encoding="UTF-8" standalone="no"?>
<!DOCTYPE svg PUBLIC "-//W3C//DTD SVG 1.1//EN"
 "http://www.w3.org/Graphics/SVG/1.1/DTD/svg11.dtd">
<!-- Generated by graphviz version 2.43.0 (0)
 -->
<!-- Title: wrn.partitioning.Partitioner Pages: 1 -->
<svg width="178pt" height="160pt"
 viewBox="0.00 0.00 178.00 160.00" xmlns="http://www.w3.org/2000/svg" xmlns:xlink="http://www.w3.org/1999/xlink">
<g id="graph0" class="graph" transform="scale(1 1) rotate(0) translate(4 156)">
<title>wrn.partitioning.Partitioner</title>
<polygon fill="white" stroke="transparent" points="-4,4 -4,-156 174,-156 174,4 -4,4"/>
<!-- Node1 -->
<g id="node1" class="node">
<title>Node1</title>
<g id="a_node1"><a xlink:title=" ">
<polygon fill="#bfbfbf" stroke="black" points="7,-0.5 7,-57.5 154,-57.5 154,-0.5 7,-0.5"/>
<text text-anchor="middle" x="80.5" y="-45.5" font-family="Helvetica,sans-Serif" font-size="10.00">wrn.partitioning.Partitioner</text>
<polyline fill="none" stroke="black" points="7,-38.5 154,-38.5 "/>
<text text-anchor="middle" x="80.5" y="-26.5" font-family="Helvetica,sans-Serif" font-size="10.00"> </text>
<polyline fill="none" stroke="black" points="7,-19.5 154,-19.5 "/>
<text text-anchor="start" x="15" y="-7.5" font-family="Helvetica,sans-Serif" font-size="10.00">+ partition()</text>
</a>
</g>
</g>
<!-- Node2 -->
<g id="node2" class="node">
<title>Node2</title>
<g id="a_node2"><a target="_parent" xlink:href="../../../cieutils/docs/html/classmetaclass.html" xlink:title=" ">
<polygon fill="white" stroke="black" points="0,-94.5 0,-151.5 67,-151.5 67,-94.5 0,-94.5"/>
<text text-anchor="middle" x="33.5" y="-139.5" font-family="Helvetica,sans-Serif" font-size="10.00">metaclass</text>
<polyline fill="none" stroke="black" points="0,-132.5 67,-132.5 "/>
<text text-anchor="middle" x="33.5" y="-120.5" font-family="Helvetica,sans-Serif" font-size="10.00"> </text>
<polyline fill="none" stroke="black" points="0,-113.5 67,-113.5 "/>
<text text-anchor="middle" x="33.5" y="-101.5" font-family="Helvetica,sans-Serif" font-size="10.00"> </text>
</a>
</g>
</g>
<!-- Node2&#45;&gt;Node1 -->
<g id="edge1" class="edge">
<title>Node2&#45;&gt;Node1</title>
<path fill="none" stroke="midnightblue" d="M52.21,-85.37C56.95,-76.11 61.95,-66.32 66.41,-57.58"/>
<polygon fill="none" stroke="midnightblue" points="49.03,-83.9 47.6,-94.4 55.27,-87.08 49.03,-83.9"/>
</g>
<!-- Node3 -->
<g id="node3" class="node">
<title>Node3</title>
<g id="a_node3"><a xlink:title=" ">
<polygon fill="white" stroke="#bfbfbf" points="85,-94.5 85,-151.5 170,-151.5 170,-94.5 85,-94.5"/>
<text text-anchor="middle" x="127.5" y="-139.5" font-family="Helvetica,sans-Serif" font-size="10.00">abc::ABCMeta</text>
<polyline fill="none" stroke="#bfbfbf" points="85,-132.5 170,-132.5 "/>
<text text-anchor="middle" x="127.5" y="-120.5" font-family="Helvetica,sans-Serif" font-size="10.00"> </text>
<polyline fill="none" stroke="#bfbfbf" points="85,-113.5 170,-113.5 "/>
<text text-anchor="middle" x="127.5" y="-101.5" font-family="Helvetica,sans-Serif" font-size="10.00"> </text>
</a>
</g>
</g>
<!-- Node3&#45;&gt;Node1 -->
<g id="edge2" class="edge">
<title>Node3&#45;&gt;Node1</title>
<path fill="none" stroke="midnightblue" d="M108.79,-85.37C104.05,-76.11 99.05,-66.32 94.59,-57.58"/>
<polygon fill="none" stroke="midnightblue" points="105.73,-87.08 113.4,-94.4 111.97,-83.9 105.73,-87.08"/>
</g>
</g>
</svg>
