<?xml version="1.0" encoding="UTF-8" standalone="no"?>
<!DOCTYPE svg PUBLIC "-//W3C//DTD SVG 1.1//EN"
 "http://www.w3.org/Graphics/SVG/1.1/DTD/svg11.dtd">
<!-- Generated by graphviz version 2.43.0 (0)
 -->
<!-- Title: fem.discretization.basisfunctions.PolynomialBasisFunctions Pages: 1 -->
<svg width="598pt" height="397pt"
 viewBox="0.00 0.00 598.00 397.00" xmlns="http://www.w3.org/2000/svg" xmlns:xlink="http://www.w3.org/1999/xlink">
<g id="graph0" class="graph" transform="scale(1 1) rotate(0) translate(4 393)">
<title>fem.discretization.basisfunctions.PolynomialBasisFunctions</title>
<polygon fill="white" stroke="transparent" points="-4,4 -4,-393 594,-393 594,4 -4,4"/>
<!-- Node1 -->
<g id="node1" class="node">
<title>Node1</title>
<g id="a_node1"><a xlink:title="1D polynomial basis function abstract base class">
<polygon fill="#bfbfbf" stroke="black" points="204,-116.5 204,-184.5 386,-184.5 386,-116.5 204,-116.5"/>
<text text-anchor="start" x="212" y="-172.5" font-family="Helvetica,sans-Serif" font-size="10.00">fem.discretization.basisfunctions.</text>
<text text-anchor="middle" x="295" y="-161.5" font-family="Helvetica,sans-Serif" font-size="10.00">PolynomialBasisFunctions</text>
<polyline fill="none" stroke="black" points="204,-154.5 386,-154.5 "/>
<text text-anchor="start" x="212" y="-142.5" font-family="Helvetica,sans-Serif" font-size="10.00">+ polynomialOrder</text>
<polyline fill="none" stroke="black" points="204,-135.5 386,-135.5 "/>
<text text-anchor="start" x="212" y="-123.5" font-family="Helvetica,sans-Serif" font-size="10.00">+ __init__()</text>
</a>
</g>
</g>
<!-- Node3 -->
<g id="node3" class="node">
<title>Node3</title>
<g id="a_node3"><a xlink:href="classfem_1_1discretization_1_1basisfunctions_1_1HierarchicBasisFunctions.html" target="_top" xlink:title="Legendre polynomials with the constant function replaced by a linear one (using the numpy implementat...">
<polygon fill="white" stroke="black" points="0,-0.5 0,-79.5 182,-79.5 182,-0.5 0,-0.5"/>
<text text-anchor="start" x="8" y="-67.5" font-family="Helvetica,sans-Serif" font-size="10.00">fem.discretization.basisfunctions.</text>
<text text-anchor="middle" x="91" y="-56.5" font-family="Helvetica,sans-Serif" font-size="10.00">HierarchicBasisFunctions</text>
<polyline fill="none" stroke="black" points="0,-49.5 182,-49.5 "/>
<text text-anchor="start" x="8" y="-37.5" font-family="Helvetica,sans-Serif" font-size="10.00">+ polynomialOrder</text>
<polyline fill="none" stroke="black" points="0,-30.5 182,-30.5 "/>
<text text-anchor="start" x="8" y="-18.5" font-family="Helvetica,sans-Serif" font-size="10.00">+ __init__()</text>
<text text-anchor="start" x="8" y="-7.5" font-family="Helvetica,sans-Serif" font-size="10.00">+ derivatives()</text>
</a>
</g>
</g>
<!-- Node1&#45;&gt;Node3 -->
<g id="edge2" class="edge">
<title>Node1&#45;&gt;Node3</title>
<path fill="none" stroke="midnightblue" d="M223.6,-111.52C204.19,-101.2 183.15,-90.01 163.67,-79.65"/>
<polygon fill="none" stroke="midnightblue" points="222.21,-114.75 232.68,-116.36 225.5,-108.57 222.21,-114.75"/>
</g>
<!-- Node4 -->
<g id="node4" class="node">
<title>Node4</title>
<g id="a_node4"><a xlink:href="classfem_1_1discretization_1_1basisfunctions_1_1IntegratedHierarchicBasisFunctions.html" target="_top" xlink:title="Hierarchic basis functions as proposed by Szabó &amp; Babuska For easier assembly, the first and last fun...">
<polygon fill="white" stroke="black" points="200.5,-0.5 200.5,-79.5 389.5,-79.5 389.5,-0.5 200.5,-0.5"/>
<text text-anchor="start" x="208.5" y="-67.5" font-family="Helvetica,sans-Serif" font-size="10.00">fem.discretization.basisfunctions.</text>
<text text-anchor="middle" x="295" y="-56.5" font-family="Helvetica,sans-Serif" font-size="10.00">IntegratedHierarchicBasisFunctions</text>
<polyline fill="none" stroke="black" points="200.5,-49.5 389.5,-49.5 "/>
<text text-anchor="start" x="208.5" y="-37.5" font-family="Helvetica,sans-Serif" font-size="10.00">+ polynomialOrder</text>
<polyline fill="none" stroke="black" points="200.5,-30.5 389.5,-30.5 "/>
<text text-anchor="start" x="208.5" y="-18.5" font-family="Helvetica,sans-Serif" font-size="10.00">+ __init__()</text>
<text text-anchor="start" x="208.5" y="-7.5" font-family="Helvetica,sans-Serif" font-size="10.00">+ derivatives()</text>
</a>
</g>
</g>
<!-- Node1&#45;&gt;Node4 -->
<g id="edge3" class="edge">
<title>Node1&#45;&gt;Node4</title>
<path fill="none" stroke="midnightblue" d="M295,-106.27C295,-97.48 295,-88.28 295,-79.65"/>
<polygon fill="none" stroke="midnightblue" points="291.5,-106.36 295,-116.36 298.5,-106.36 291.5,-106.36"/>
</g>
<!-- Node5 -->
<g id="node5" class="node">
<title>Node5</title>
<g id="a_node5"><a xlink:href="classfem_1_1discretization_1_1basisfunctions_1_1LinearBasisFunctions.html" target="_top" xlink:title="Classic linear basis functions.">
<polygon fill="white" stroke="black" points="408,-0.5 408,-79.5 590,-79.5 590,-0.5 408,-0.5"/>
<text text-anchor="start" x="416" y="-67.5" font-family="Helvetica,sans-Serif" font-size="10.00">fem.discretization.basisfunctions.</text>
<text text-anchor="middle" x="499" y="-56.5" font-family="Helvetica,sans-Serif" font-size="10.00">LinearBasisFunctions</text>
<polyline fill="none" stroke="black" points="408,-49.5 590,-49.5 "/>
<text text-anchor="middle" x="499" y="-37.5" font-family="Helvetica,sans-Serif" font-size="10.00"> </text>
<polyline fill="none" stroke="black" points="408,-30.5 590,-30.5 "/>
<text text-anchor="start" x="416" y="-18.5" font-family="Helvetica,sans-Serif" font-size="10.00">+ __init__()</text>
<text text-anchor="start" x="416" y="-7.5" font-family="Helvetica,sans-Serif" font-size="10.00">+ derivatives()</text>
</a>
</g>
</g>
<!-- Node1&#45;&gt;Node5 -->
<g id="edge4" class="edge">
<title>Node1&#45;&gt;Node5</title>
<path fill="none" stroke="midnightblue" d="M366.4,-111.52C385.81,-101.2 406.85,-90.01 426.33,-79.65"/>
<polygon fill="none" stroke="midnightblue" points="364.5,-108.57 357.32,-116.36 367.79,-114.75 364.5,-108.57"/>
</g>
<!-- Node2 -->
<g id="node2" class="node">
<title>Node2</title>
<g id="a_node2"><a xlink:href="classfem_1_1discretization_1_1basisfunctions_1_1BasisFunctions.html" target="_top" xlink:title="Abstract base class for a matching collection of 1D basis functions.">
<polygon fill="white" stroke="black" points="204,-221.5 204,-388.5 386,-388.5 386,-221.5 204,-221.5"/>
<text text-anchor="start" x="212" y="-376.5" font-family="Helvetica,sans-Serif" font-size="10.00">fem.discretization.basisfunctions.</text>
<text text-anchor="middle" x="295" y="-365.5" font-family="Helvetica,sans-Serif" font-size="10.00">BasisFunctions</text>
<polyline fill="none" stroke="black" points="204,-358.5 386,-358.5 "/>
<text text-anchor="start" x="212" y="-346.5" font-family="Helvetica,sans-Serif" font-size="10.00">+ dtype</text>
<text text-anchor="start" x="212" y="-335.5" font-family="Helvetica,sans-Serif" font-size="10.00">+ domain</text>
<polyline fill="none" stroke="black" points="204,-328.5 386,-328.5 "/>
<text text-anchor="start" x="212" y="-316.5" font-family="Helvetica,sans-Serif" font-size="10.00">+ __init__()</text>
<text text-anchor="start" x="212" y="-305.5" font-family="Helvetica,sans-Serif" font-size="10.00">+ evaluate()</text>
<text text-anchor="start" x="212" y="-294.5" font-family="Helvetica,sans-Serif" font-size="10.00">+ evaluateAll()</text>
<text text-anchor="start" x="212" y="-283.5" font-family="Helvetica,sans-Serif" font-size="10.00">+ __call__()</text>
<text text-anchor="start" x="212" y="-272.5" font-family="Helvetica,sans-Serif" font-size="10.00">+ __iter__()</text>
<text text-anchor="start" x="212" y="-261.5" font-family="Helvetica,sans-Serif" font-size="10.00">+ __next__()</text>
<text text-anchor="start" x="212" y="-250.5" font-family="Helvetica,sans-Serif" font-size="10.00">+ __len__()</text>
<text text-anchor="start" x="212" y="-239.5" font-family="Helvetica,sans-Serif" font-size="10.00">+ __getitem__()</text>
<text text-anchor="start" x="212" y="-228.5" font-family="Helvetica,sans-Serif" font-size="10.00">+ nodalFunctions()</text>
</a>
</g>
</g>
<!-- Node2&#45;&gt;Node1 -->
<g id="edge1" class="edge">
<title>Node2&#45;&gt;Node1</title>
<path fill="none" stroke="midnightblue" d="M295,-210.89C295,-201.63 295,-192.72 295,-184.74"/>
<polygon fill="none" stroke="midnightblue" points="291.5,-211.06 295,-221.06 298.5,-211.06 291.5,-211.06"/>
</g>
</g>
</svg>
