<?xml version="1.0" encoding="UTF-8" standalone="no"?>
<!DOCTYPE svg PUBLIC "-//W3C//DTD SVG 1.1//EN"
 "http://www.w3.org/Graphics/SVG/1.1/DTD/svg11.dtd">
<!-- Generated by graphviz version 2.43.0 (0)
 -->
<!-- Title: optcontrol.plotter.plotter Pages: 1 -->
<svg width="163pt" height="204pt"
 viewBox="0.00 0.00 163.00 204.00" xmlns="http://www.w3.org/2000/svg" xmlns:xlink="http://www.w3.org/1999/xlink">
<g id="graph0" class="graph" transform="scale(1 1) rotate(0) translate(4 200)">
<title>optcontrol.plotter.plotter</title>
<polygon fill="white" stroke="transparent" points="-4,4 -4,-200 159,-200 159,4 -4,4"/>
<!-- Node1 -->
<g id="node1" class="node">
<title>Node1</title>
<g id="a_node1"><a xlink:title=" ">
<polygon fill="#bfbfbf" stroke="black" points="0,-0.5 0,-90.5 136,-90.5 136,-0.5 0,-0.5"/>
<text text-anchor="middle" x="68" y="-78.5" font-family="Helvetica,sans-Serif" font-size="10.00">optcontrol.plotter.plotter</text>
<polyline fill="none" stroke="black" points="0,-71.5 136,-71.5 "/>
<text text-anchor="start" x="8" y="-59.5" font-family="Helvetica,sans-Serif" font-size="10.00">+ ax</text>
<polyline fill="none" stroke="black" points="0,-52.5 136,-52.5 "/>
<text text-anchor="start" x="8" y="-40.5" font-family="Helvetica,sans-Serif" font-size="10.00">+ __init__()</text>
<text text-anchor="start" x="8" y="-29.5" font-family="Helvetica,sans-Serif" font-size="10.00">+ plot()</text>
<text text-anchor="start" x="8" y="-18.5" font-family="Helvetica,sans-Serif" font-size="10.00">+ update()</text>
<text text-anchor="start" x="8" y="-7.5" font-family="Helvetica,sans-Serif" font-size="10.00">+ close()</text>
</a>
</g>
</g>
<!-- Node2 -->
<g id="node2" class="node">
<title>Node2</title>
<g id="a_node2"><a xlink:href="classobject.html" target="_top" xlink:title=" ">
<polygon fill="white" stroke="black" points="15.5,-138.5 15.5,-195.5 62.5,-195.5 62.5,-138.5 15.5,-138.5"/>
<text text-anchor="middle" x="39" y="-183.5" font-family="Helvetica,sans-Serif" font-size="10.00">object</text>
<polyline fill="none" stroke="black" points="15.5,-176.5 62.5,-176.5 "/>
<text text-anchor="middle" x="39" y="-164.5" font-family="Helvetica,sans-Serif" font-size="10.00"> </text>
<polyline fill="none" stroke="black" points="15.5,-157.5 62.5,-157.5 "/>
<text text-anchor="middle" x="39" y="-145.5" font-family="Helvetica,sans-Serif" font-size="10.00"> </text>
</a>
</g>
</g>
<!-- Node2&#45;&gt;Node1 -->
<g id="edge1" class="edge">
<title>Node2&#45;&gt;Node1</title>
<path fill="none" stroke="midnightblue" d="M48.16,-128.26C51.04,-116.4 54.24,-103.19 57.22,-90.91"/>
<polygon fill="none" stroke="midnightblue" points="44.68,-127.74 45.73,-138.28 51.49,-129.39 44.68,-127.74"/>
</g>
<!-- Node3 -->
<g id="node3" class="node">
<title>Node3</title>
<g id="a_node3"><a xlink:title=" ">
<polygon fill="white" stroke="#bfbfbf" points="81,-138.5 81,-195.5 113,-195.5 113,-138.5 81,-138.5"/>
<text text-anchor="middle" x="97" y="-183.5" font-family="Helvetica,sans-Serif" font-size="10.00">list</text>
<polyline fill="none" stroke="#bfbfbf" points="81,-176.5 113,-176.5 "/>
<text text-anchor="middle" x="97" y="-164.5" font-family="Helvetica,sans-Serif" font-size="10.00"> </text>
<polyline fill="none" stroke="#bfbfbf" points="81,-157.5 113,-157.5 "/>
<text text-anchor="middle" x="97" y="-145.5" font-family="Helvetica,sans-Serif" font-size="10.00"> </text>
</a>
</g>
</g>
<!-- Node3&#45;&gt;Node1 -->
<g id="edge2" class="edge">
<title>Node3&#45;&gt;Node1</title>
<path fill="none" stroke="#404040" d="M90.27,-138.28C87.69,-127.62 84.63,-115.03 81.63,-102.65"/>
<polygon fill="none" stroke="#404040" points="81.61,-102.57 76.31,-97.69 78.78,-90.91 84.08,-95.8 81.61,-102.57"/>
<text text-anchor="middle" x="120" y="-112" font-family="Helvetica,sans-Serif" font-size="10.00"> +plotHandles</text>
</g>
</g>
</svg>
