<?xml version="1.0" encoding="UTF-8" standalone="no"?>
<!DOCTYPE svg PUBLIC "-//W3C//DTD SVG 1.1//EN"
 "http://www.w3.org/Graphics/SVG/1.1/DTD/svg11.dtd">
<!-- Generated by graphviz version 2.43.0 (0)
 -->
<!-- Title: cie::fem::maths::LagrangePolynomial&lt; TValue &gt; Pages: 1 -->
<svg width="307pt" height="745pt"
 viewBox="0.00 0.00 307.00 745.00" xmlns="http://www.w3.org/2000/svg" xmlns:xlink="http://www.w3.org/1999/xlink">
<g id="graph0" class="graph" transform="scale(1 1) rotate(0) translate(4 741)">
<title>cie::fem::maths::LagrangePolynomial&lt; TValue &gt;</title>
<polygon fill="white" stroke="transparent" points="-4,4 -4,-741 303,-741 303,4 -4,4"/>
<!-- Node1 -->
<g id="node1" class="node">
<title>Node1</title>
<g id="a_node1"><a xlink:title=" ">
<polygon fill="#bfbfbf" stroke="black" points="20,-0.5 20,-79.5 164,-79.5 164,-0.5 20,-0.5"/>
<text text-anchor="start" x="28" y="-67.5" font-family="Helvetica,sans-Serif" font-size="10.00">cie::fem::maths::Lagrange</text>
<text text-anchor="middle" x="92" y="-56.5" font-family="Helvetica,sans-Serif" font-size="10.00">Polynomial&lt; TValue &gt;</text>
<polyline fill="none" stroke="black" points="20,-49.5 164,-49.5 "/>
<text text-anchor="middle" x="92" y="-37.5" font-family="Helvetica,sans-Serif" font-size="10.00"> </text>
<polyline fill="none" stroke="black" points="20,-30.5 164,-30.5 "/>
<text text-anchor="start" x="28" y="-18.5" font-family="Helvetica,sans-Serif" font-size="10.00">+ LagrangePolynomial()</text>
<text text-anchor="start" x="28" y="-7.5" font-family="Helvetica,sans-Serif" font-size="10.00">+ LagrangePolynomial()</text>
</a>
</g>
</g>
<!-- Node2 -->
<g id="node2" class="node">
<title>Node2</title>
<g id="a_node2"><a xlink:href="classcie_1_1fem_1_1maths_1_1Polynomial.html" target="_top" xlink:title="Expression representing a scalar polynomial.">
<polygon fill="white" stroke="black" points="15,-117.5 15,-284.5 169,-284.5 169,-117.5 15,-117.5"/>
<text text-anchor="start" x="23" y="-272.5" font-family="Helvetica,sans-Serif" font-size="10.00">cie::fem::maths::Polynomial</text>
<text text-anchor="middle" x="92" y="-261.5" font-family="Helvetica,sans-Serif" font-size="10.00">&lt; TValue &gt;</text>
<polyline fill="none" stroke="black" points="15,-254.5 169,-254.5 "/>
<text text-anchor="middle" x="92" y="-242.5" font-family="Helvetica,sans-Serif" font-size="10.00"> </text>
<polyline fill="none" stroke="black" points="15,-235.5 169,-235.5 "/>
<text text-anchor="start" x="23" y="-223.5" font-family="Helvetica,sans-Serif" font-size="10.00">+ Polynomial()</text>
<text text-anchor="start" x="23" y="-212.5" font-family="Helvetica,sans-Serif" font-size="10.00">+ Polynomial()</text>
<text text-anchor="start" x="23" y="-201.5" font-family="Helvetica,sans-Serif" font-size="10.00">+ Polynomial()</text>
<text text-anchor="start" x="23" y="-190.5" font-family="Helvetica,sans-Serif" font-size="10.00">+ Polynomial()</text>
<text text-anchor="start" x="23" y="-179.5" font-family="Helvetica,sans-Serif" font-size="10.00">+ Polynomial()</text>
<text text-anchor="start" x="23" y="-168.5" font-family="Helvetica,sans-Serif" font-size="10.00">+ operator=()</text>
<text text-anchor="start" x="23" y="-157.5" font-family="Helvetica,sans-Serif" font-size="10.00">+ operator=()</text>
<text text-anchor="start" x="23" y="-146.5" font-family="Helvetica,sans-Serif" font-size="10.00">+ evaluate()</text>
<text text-anchor="start" x="23" y="-135.5" font-family="Helvetica,sans-Serif" font-size="10.00">+ size()</text>
<text text-anchor="start" x="23" y="-124.5" font-family="Helvetica,sans-Serif" font-size="10.00">+ makeDerivative()</text>
</a>
</g>
</g>
<!-- Node2&#45;&gt;Node1 -->
<g id="edge1" class="edge">
<title>Node2&#45;&gt;Node1</title>
<path fill="none" stroke="midnightblue" d="M92,-107.13C92,-97.51 92,-88.15 92,-79.64"/>
<polygon fill="none" stroke="midnightblue" points="88.5,-107.24 92,-117.24 95.5,-107.24 88.5,-107.24"/>
</g>
<!-- Node3 -->
<g id="node3" class="node">
<title>Node3</title>
<g id="a_node3"><a xlink:href="structcie_1_1fem_1_1maths_1_1ExpressionTraits.html" target="_top" xlink:title=" ">
<polygon fill="white" stroke="black" points="0,-387.5 0,-455.5 152,-455.5 152,-387.5 0,-387.5"/>
<text text-anchor="start" x="8" y="-443.5" font-family="Helvetica,sans-Serif" font-size="10.00">cie::fem::maths::Expression</text>
<text text-anchor="middle" x="76" y="-432.5" font-family="Helvetica,sans-Serif" font-size="10.00">Traits&lt; TValue &gt;</text>
<polyline fill="none" stroke="black" points="0,-425.5 152,-425.5 "/>
<text text-anchor="middle" x="76" y="-413.5" font-family="Helvetica,sans-Serif" font-size="10.00"> </text>
<polyline fill="none" stroke="black" points="0,-406.5 152,-406.5 "/>
<text text-anchor="middle" x="76" y="-394.5" font-family="Helvetica,sans-Serif" font-size="10.00"> </text>
</a>
</g>
</g>
<!-- Node3&#45;&gt;Node2 -->
<g id="edge2" class="edge">
<title>Node3&#45;&gt;Node2</title>
<path fill="none" stroke="midnightblue" d="M79.17,-377.26C81.1,-350.84 83.64,-316.19 85.95,-284.67"/>
<polygon fill="none" stroke="midnightblue" points="75.67,-377.09 78.43,-387.31 82.65,-377.6 75.67,-377.09"/>
</g>
<!-- Node4 -->
<g id="node4" class="node">
<title>Node4</title>
<g id="a_node4"><a target="_parent" xlink:href="../../../cieutils/docs/html/classcie_1_1STLContainerBase.html" xlink:title=" ">
<polygon fill="white" stroke="black" points="170.5,-332.5 170.5,-510.5 295.5,-510.5 295.5,-332.5 170.5,-332.5"/>
<text text-anchor="start" x="178.5" y="-498.5" font-family="Helvetica,sans-Serif" font-size="10.00">cie::STLContainerBase</text>
<text text-anchor="middle" x="233" y="-487.5" font-family="Helvetica,sans-Serif" font-size="10.00">&lt; TValue &gt;</text>
<polyline fill="none" stroke="black" points="170.5,-480.5 295.5,-480.5 "/>
<text text-anchor="middle" x="233" y="-468.5" font-family="Helvetica,sans-Serif" font-size="10.00"> </text>
<polyline fill="none" stroke="black" points="170.5,-461.5 295.5,-461.5 "/>
<text text-anchor="start" x="178.5" y="-449.5" font-family="Helvetica,sans-Serif" font-size="10.00">+ STLContainerBase()</text>
<text text-anchor="start" x="178.5" y="-438.5" font-family="Helvetica,sans-Serif" font-size="10.00">+ STLContainerBase()</text>
<text text-anchor="start" x="178.5" y="-427.5" font-family="Helvetica,sans-Serif" font-size="10.00">+ STLContainerBase()</text>
<text text-anchor="start" x="178.5" y="-416.5" font-family="Helvetica,sans-Serif" font-size="10.00">+ STLContainerBase()</text>
<text text-anchor="start" x="178.5" y="-405.5" font-family="Helvetica,sans-Serif" font-size="10.00">+ STLContainerBase()</text>
<text text-anchor="start" x="178.5" y="-394.5" font-family="Helvetica,sans-Serif" font-size="10.00">+ STLContainerBase()</text>
<text text-anchor="start" x="178.5" y="-383.5" font-family="Helvetica,sans-Serif" font-size="10.00">+ STLContainerBase()</text>
<text text-anchor="start" x="178.5" y="-372.5" font-family="Helvetica,sans-Serif" font-size="10.00">+ STLContainerBase()</text>
<text text-anchor="start" x="178.5" y="-361.5" font-family="Helvetica,sans-Serif" font-size="10.00">+ STLContainerBase()</text>
<text text-anchor="start" x="178.5" y="-350.5" font-family="Helvetica,sans-Serif" font-size="10.00">+ STLContainerBase()</text>
<text text-anchor="start" x="178.5" y="-339.5" font-family="Helvetica,sans-Serif" font-size="10.00">and 37 more...</text>
</a>
</g>
</g>
<!-- Node4&#45;&gt;Node2 -->
<g id="edge3" class="edge">
<title>Node4&#45;&gt;Node2</title>
<path fill="none" stroke="#404040" d="M176.06,-332.26C168.11,-319.95 159.93,-307.27 151.94,-294.89"/>
<polygon fill="none" stroke="#404040" points="151.78,-294.64 145.17,-291.77 145.28,-284.56 151.89,-287.43 151.78,-294.64"/>
<text text-anchor="middle" x="198.5" y="-306" font-family="Helvetica,sans-Serif" font-size="10.00"> #_coefficients</text>
</g>
<!-- Node5 -->
<g id="node5" class="node">
<title>Node5</title>
<g id="a_node5"><a target="_parent" xlink:href="../../../cieutils/docs/html/classcie_1_1STLContainerBase.html" xlink:title=" ">
<polygon fill="white" stroke="black" points="167,-558.5 167,-736.5 299,-736.5 299,-558.5 167,-558.5"/>
<text text-anchor="start" x="175" y="-724.5" font-family="Helvetica,sans-Serif" font-size="10.00">cie::STLContainerBase</text>
<text text-anchor="middle" x="233" y="-713.5" font-family="Helvetica,sans-Serif" font-size="10.00">&lt; TBase &gt;</text>
<polyline fill="none" stroke="black" points="167,-706.5 299,-706.5 "/>
<text text-anchor="middle" x="233" y="-694.5" font-family="Helvetica,sans-Serif" font-size="10.00"> </text>
<polyline fill="none" stroke="black" points="167,-687.5 299,-687.5 "/>
<text text-anchor="start" x="175" y="-675.5" font-family="Helvetica,sans-Serif" font-size="10.00">+ STLContainerBase()</text>
<text text-anchor="start" x="175" y="-664.5" font-family="Helvetica,sans-Serif" font-size="10.00">+ STLContainerBase()</text>
<text text-anchor="start" x="175" y="-653.5" font-family="Helvetica,sans-Serif" font-size="10.00">+ STLContainerBase()</text>
<text text-anchor="start" x="175" y="-642.5" font-family="Helvetica,sans-Serif" font-size="10.00">+ STLContainerBase()</text>
<text text-anchor="start" x="175" y="-631.5" font-family="Helvetica,sans-Serif" font-size="10.00">+ STLContainerBase()</text>
<text text-anchor="start" x="175" y="-620.5" font-family="Helvetica,sans-Serif" font-size="10.00">+ STLContainerBase()</text>
<text text-anchor="start" x="175" y="-609.5" font-family="Helvetica,sans-Serif" font-size="10.00">+ operator=()</text>
<text text-anchor="start" x="175" y="-598.5" font-family="Helvetica,sans-Serif" font-size="10.00">+ operator=()</text>
<text text-anchor="start" x="175" y="-587.5" font-family="Helvetica,sans-Serif" font-size="10.00">+ ~STLContainerBase()</text>
<text text-anchor="start" x="175" y="-576.5" font-family="Helvetica,sans-Serif" font-size="10.00">+ size()</text>
<text text-anchor="start" x="175" y="-565.5" font-family="Helvetica,sans-Serif" font-size="10.00">and 37 more...</text>
</a>
</g>
</g>
<!-- Node5&#45;&gt;Node4 -->
<g id="edge4" class="edge">
<title>Node5&#45;&gt;Node4</title>
<path fill="none" stroke="orange" d="M233,-547.93C233,-535.51 233,-522.87 233,-510.63"/>
<polygon fill="orange" stroke="orange" points="229.5,-548.29 233,-558.29 236.5,-548.29 229.5,-548.29"/>
<text text-anchor="middle" x="262.5" y="-532" font-family="Helvetica,sans-Serif" font-size="10.00"> &lt; TValue &gt;</text>
</g>
</g>
</svg>
