<?xml version="1.0" encoding="UTF-8" standalone="no"?>
<!DOCTYPE svg PUBLIC "-//W3C//DTD SVG 1.1//EN"
 "http://www.w3.org/Graphics/SVG/1.1/DTD/svg11.dtd">
<!-- Generated by graphviz version 2.43.0 (0)
 -->
<!-- Title: fem.discretization.element.NonlinearHeatElement1D Pages: 1 -->
<svg width="181pt" height="551pt"
 viewBox="0.00 0.00 181.00 551.00" xmlns="http://www.w3.org/2000/svg" xmlns:xlink="http://www.w3.org/1999/xlink">
<g id="graph0" class="graph" transform="scale(1 1) rotate(0) translate(4 547)">
<title>fem.discretization.element.NonlinearHeatElement1D</title>
<polygon fill="white" stroke="transparent" points="-4,4 -4,-547 177,-547 177,4 -4,4"/>
<!-- Node1 -->
<g id="node1" class="node">
<title>Node1</title>
<g id="a_node1"><a xlink:title="Basic heat element with temperature&#45;dependent coefficients.">
<polygon fill="#bfbfbf" stroke="black" points="0,-0.5 0,-156.5 173,-156.5 173,-0.5 0,-0.5"/>
<text text-anchor="start" x="8" y="-144.5" font-family="Helvetica,sans-Serif" font-size="10.00">fem.discretization.element.</text>
<text text-anchor="middle" x="86.5" y="-133.5" font-family="Helvetica,sans-Serif" font-size="10.00">NonlinearHeatElement1D</text>
<polyline fill="none" stroke="black" points="0,-126.5 173,-126.5 "/>
<text text-anchor="start" x="8" y="-114.5" font-family="Helvetica,sans-Serif" font-size="10.00">+ capacity</text>
<text text-anchor="start" x="8" y="-103.5" font-family="Helvetica,sans-Serif" font-size="10.00">+ capacityDerivative</text>
<text text-anchor="start" x="8" y="-92.5" font-family="Helvetica,sans-Serif" font-size="10.00">+ conductivity</text>
<text text-anchor="start" x="8" y="-81.5" font-family="Helvetica,sans-Serif" font-size="10.00">+ conductivityDerivative</text>
<polyline fill="none" stroke="black" points="0,-74.5 173,-74.5 "/>
<text text-anchor="start" x="8" y="-62.5" font-family="Helvetica,sans-Serif" font-size="10.00">+ __init__()</text>
<text text-anchor="start" x="8" y="-51.5" font-family="Helvetica,sans-Serif" font-size="10.00">+ copy()</text>
<text text-anchor="start" x="8" y="-40.5" font-family="Helvetica,sans-Serif" font-size="10.00">+ integrateStiffness()</text>
<text text-anchor="start" x="8" y="-29.5" font-family="Helvetica,sans-Serif" font-size="10.00">+ integrateMass()</text>
<text text-anchor="start" x="8" y="-18.5" font-family="Helvetica,sans-Serif" font-size="10.00">+ integrateLoad()</text>
<text text-anchor="start" x="8" y="-7.5" font-family="Helvetica,sans-Serif" font-size="10.00">+ integrateGeometricStiffness()</text>
</a>
</g>
</g>
<!-- Node2 -->
<g id="node2" class="node">
<title>Node2</title>
<g id="a_node2"><a xlink:href="classfem_1_1discretization_1_1element_1_1Element1D.html" target="_top" xlink:title=" ">
<polygon fill="white" stroke="black" points="10.5,-193.5 10.5,-316.5 162.5,-316.5 162.5,-193.5 10.5,-193.5"/>
<text text-anchor="start" x="18.5" y="-304.5" font-family="Helvetica,sans-Serif" font-size="10.00">fem.discretization.element.</text>
<text text-anchor="middle" x="86.5" y="-293.5" font-family="Helvetica,sans-Serif" font-size="10.00">Element1D</text>
<polyline fill="none" stroke="black" points="10.5,-286.5 162.5,-286.5 "/>
<text text-anchor="start" x="18.5" y="-274.5" font-family="Helvetica,sans-Serif" font-size="10.00">+ domain</text>
<polyline fill="none" stroke="black" points="10.5,-267.5 162.5,-267.5 "/>
<text text-anchor="start" x="18.5" y="-255.5" font-family="Helvetica,sans-Serif" font-size="10.00">+ __init__()</text>
<text text-anchor="start" x="18.5" y="-244.5" font-family="Helvetica,sans-Serif" font-size="10.00">+ copy()</text>
<text text-anchor="start" x="18.5" y="-233.5" font-family="Helvetica,sans-Serif" font-size="10.00">+ toGlobalCoordinates()</text>
<text text-anchor="start" x="18.5" y="-222.5" font-family="Helvetica,sans-Serif" font-size="10.00">+ toLocalCoordinates()</text>
<text text-anchor="start" x="18.5" y="-211.5" font-family="Helvetica,sans-Serif" font-size="10.00">+ __call__()</text>
<text text-anchor="start" x="18.5" y="-200.5" font-family="Helvetica,sans-Serif" font-size="10.00">+ derivative()</text>
</a>
</g>
</g>
<!-- Node2&#45;&gt;Node1 -->
<g id="edge1" class="edge">
<title>Node2&#45;&gt;Node1</title>
<path fill="none" stroke="midnightblue" d="M86.5,-183.26C86.5,-174.46 86.5,-165.42 86.5,-156.53"/>
<polygon fill="none" stroke="midnightblue" points="83,-183.46 86.5,-193.46 90,-183.46 83,-183.46"/>
</g>
<!-- Node3 -->
<g id="node3" class="node">
<title>Node3</title>
<g id="a_node3"><a xlink:href="classfem_1_1discretization_1_1element_1_1Element.html" target="_top" xlink:title="Element base class.">
<polygon fill="white" stroke="black" points="10.5,-353.5 10.5,-542.5 162.5,-542.5 162.5,-353.5 10.5,-353.5"/>
<text text-anchor="start" x="18.5" y="-530.5" font-family="Helvetica,sans-Serif" font-size="10.00">fem.discretization.element.</text>
<text text-anchor="middle" x="86.5" y="-519.5" font-family="Helvetica,sans-Serif" font-size="10.00">Element</text>
<polyline fill="none" stroke="black" points="10.5,-512.5 162.5,-512.5 "/>
<text text-anchor="start" x="18.5" y="-500.5" font-family="Helvetica,sans-Serif" font-size="10.00">+ basisFunctions</text>
<text text-anchor="start" x="18.5" y="-489.5" font-family="Helvetica,sans-Serif" font-size="10.00">+ domain</text>
<text text-anchor="start" x="18.5" y="-478.5" font-family="Helvetica,sans-Serif" font-size="10.00">+ DoFs</text>
<text text-anchor="start" x="18.5" y="-467.5" font-family="Helvetica,sans-Serif" font-size="10.00">+ load</text>
<text text-anchor="start" x="18.5" y="-456.5" font-family="Helvetica,sans-Serif" font-size="10.00">+ integrator</text>
<text text-anchor="start" x="18.5" y="-445.5" font-family="Helvetica,sans-Serif" font-size="10.00">+ basisDerivatives</text>
<polyline fill="none" stroke="black" points="10.5,-438.5 162.5,-438.5 "/>
<text text-anchor="start" x="18.5" y="-426.5" font-family="Helvetica,sans-Serif" font-size="10.00">+ __init__()</text>
<text text-anchor="start" x="18.5" y="-415.5" font-family="Helvetica,sans-Serif" font-size="10.00">+ copy()</text>
<text text-anchor="start" x="18.5" y="-404.5" font-family="Helvetica,sans-Serif" font-size="10.00">+ updateGlobalMatrix()</text>
<text text-anchor="start" x="18.5" y="-393.5" font-family="Helvetica,sans-Serif" font-size="10.00">+ updateGlobalVector()</text>
<text text-anchor="start" x="18.5" y="-382.5" font-family="Helvetica,sans-Serif" font-size="10.00">+ integrateStiffness()</text>
<text text-anchor="start" x="18.5" y="-371.5" font-family="Helvetica,sans-Serif" font-size="10.00">+ integrateMass()</text>
<text text-anchor="start" x="18.5" y="-360.5" font-family="Helvetica,sans-Serif" font-size="10.00">+ integrateLoad()</text>
</a>
</g>
</g>
<!-- Node3&#45;&gt;Node2 -->
<g id="edge2" class="edge">
<title>Node3&#45;&gt;Node2</title>
<path fill="none" stroke="midnightblue" d="M86.5,-343.23C86.5,-334.19 86.5,-325.26 86.5,-316.75"/>
<polygon fill="none" stroke="midnightblue" points="83,-343.46 86.5,-353.46 90,-343.46 83,-343.46"/>
</g>
</g>
</svg>
