<?xml version="1.0" encoding="UTF-8" standalone="no"?>
<!DOCTYPE svg PUBLIC "-//W3C//DTD SVG 1.1//EN"
 "http://www.w3.org/Graphics/SVG/1.1/DTD/svg11.dtd">
<!-- Generated by graphviz version 2.43.0 (0)
 -->
<!-- Title: cie::fem::PartitionBase Pages: 1 -->
<svg width="264pt" height="431pt"
 viewBox="0.00 0.00 263.50 431.00" xmlns="http://www.w3.org/2000/svg" xmlns:xlink="http://www.w3.org/1999/xlink">
<g id="graph0" class="graph" transform="scale(1 1) rotate(0) translate(4 427)">
<title>cie::fem::PartitionBase</title>
<polygon fill="white" stroke="transparent" points="-4,4 -4,-427 259.5,-427 259.5,4 -4,4"/>
<!-- Node1 -->
<g id="node1" class="node">
<title>Node1</title>
<g id="a_node1"><a xlink:title=" ">
<polygon fill="#bfbfbf" stroke="black" points="14,-0.5 14,-123.5 141,-123.5 141,-0.5 14,-0.5"/>
<text text-anchor="middle" x="77.5" y="-111.5" font-family="Helvetica,sans-Serif" font-size="10.00">cie::fem::PartitionBase</text>
<polyline fill="none" stroke="black" points="14,-104.5 141,-104.5 "/>
<text text-anchor="middle" x="77.5" y="-92.5" font-family="Helvetica,sans-Serif" font-size="10.00"> </text>
<polyline fill="none" stroke="black" points="14,-85.5 141,-85.5 "/>
<text text-anchor="start" x="22" y="-73.5" font-family="Helvetica,sans-Serif" font-size="10.00">+ PartitionBase()</text>
<text text-anchor="start" x="22" y="-62.5" font-family="Helvetica,sans-Serif" font-size="10.00">+ PartitionBase()</text>
<text text-anchor="start" x="22" y="-51.5" font-family="Helvetica,sans-Serif" font-size="10.00">+ PartitionBase()</text>
<text text-anchor="start" x="22" y="-40.5" font-family="Helvetica,sans-Serif" font-size="10.00">+ PartitionBase()</text>
<text text-anchor="start" x="22" y="-29.5" font-family="Helvetica,sans-Serif" font-size="10.00">+ operator=()</text>
<text text-anchor="start" x="22" y="-18.5" font-family="Helvetica,sans-Serif" font-size="10.00">+ operator=()</text>
<text text-anchor="start" x="22" y="-7.5" font-family="Helvetica,sans-Serif" font-size="10.00">+ ~PartitionBase()</text>
</a>
</g>
</g>
<!-- Node2 -->
<g id="node2" class="node">
<title>Node2</title>
<g id="a_node2"><a target="_parent" xlink:href="../../../cieutils/docs/html/classcie_1_1utils_1_1NamedObject.html" xlink:title=" ">
<polygon fill="white" stroke="black" points="0,-161.5 0,-317.5 131,-317.5 131,-161.5 0,-161.5"/>
<text text-anchor="middle" x="65.5" y="-305.5" font-family="Helvetica,sans-Serif" font-size="10.00">cie::utils::NamedObject</text>
<polyline fill="none" stroke="black" points="0,-298.5 131,-298.5 "/>
<text text-anchor="middle" x="65.5" y="-286.5" font-family="Helvetica,sans-Serif" font-size="10.00"> </text>
<polyline fill="none" stroke="black" points="0,-279.5 131,-279.5 "/>
<text text-anchor="start" x="8" y="-267.5" font-family="Helvetica,sans-Serif" font-size="10.00">+ NamedObject()</text>
<text text-anchor="start" x="8" y="-256.5" font-family="Helvetica,sans-Serif" font-size="10.00">+ NamedObject()</text>
<text text-anchor="start" x="8" y="-245.5" font-family="Helvetica,sans-Serif" font-size="10.00">+ NamedObject()</text>
<text text-anchor="start" x="8" y="-234.5" font-family="Helvetica,sans-Serif" font-size="10.00">+ NamedObject()</text>
<text text-anchor="start" x="8" y="-223.5" font-family="Helvetica,sans-Serif" font-size="10.00">+ operator=()</text>
<text text-anchor="start" x="8" y="-212.5" font-family="Helvetica,sans-Serif" font-size="10.00">+ operator=()</text>
<text text-anchor="start" x="8" y="-201.5" font-family="Helvetica,sans-Serif" font-size="10.00">+ name()</text>
<text text-anchor="start" x="8" y="-190.5" font-family="Helvetica,sans-Serif" font-size="10.00">+ setName()</text>
<text text-anchor="start" x="8" y="-179.5" font-family="Helvetica,sans-Serif" font-size="10.00">+ setName()</text>
<text text-anchor="start" x="8" y="-168.5" font-family="Helvetica,sans-Serif" font-size="10.00">+ ~NamedObject()</text>
</a>
</g>
</g>
<!-- Node2&#45;&gt;Node1 -->
<g id="edge1" class="edge">
<title>Node2&#45;&gt;Node1</title>
<path fill="none" stroke="midnightblue" d="M71.47,-151.19C72.11,-141.87 72.74,-132.56 73.35,-123.65"/>
<polygon fill="none" stroke="midnightblue" points="67.97,-151.05 70.78,-161.27 74.95,-151.53 67.97,-151.05"/>
</g>
<!-- Node3 -->
<g id="node3" class="node">
<title>Node3</title>
<g id="a_node3"><a target="_parent" xlink:href="../../../cieutils/docs/html/classcie_1_1utils_1_1IDObject.html" xlink:title=" ">
<polygon fill="white" stroke="black" points="149.5,-167 149.5,-312 255.5,-312 255.5,-167 149.5,-167"/>
<text text-anchor="start" x="157.5" y="-300" font-family="Helvetica,sans-Serif" font-size="10.00">cie::utils::IDObject</text>
<text text-anchor="middle" x="202.5" y="-289" font-family="Helvetica,sans-Serif" font-size="10.00">&lt; class &gt;</text>
<polyline fill="none" stroke="black" points="149.5,-282 255.5,-282 "/>
<text text-anchor="middle" x="202.5" y="-270" font-family="Helvetica,sans-Serif" font-size="10.00"> </text>
<polyline fill="none" stroke="black" points="149.5,-263 255.5,-263 "/>
<text text-anchor="start" x="157.5" y="-251" font-family="Helvetica,sans-Serif" font-size="10.00">+ IDObject()</text>
<text text-anchor="start" x="157.5" y="-240" font-family="Helvetica,sans-Serif" font-size="10.00">+ IDObject()</text>
<text text-anchor="start" x="157.5" y="-229" font-family="Helvetica,sans-Serif" font-size="10.00">+ IDObject()</text>
<text text-anchor="start" x="157.5" y="-218" font-family="Helvetica,sans-Serif" font-size="10.00">+ IDObject()</text>
<text text-anchor="start" x="157.5" y="-207" font-family="Helvetica,sans-Serif" font-size="10.00">+ operator=()</text>
<text text-anchor="start" x="157.5" y="-196" font-family="Helvetica,sans-Serif" font-size="10.00">+ operator=()</text>
<text text-anchor="start" x="157.5" y="-185" font-family="Helvetica,sans-Serif" font-size="10.00">+ setID()</text>
<text text-anchor="start" x="157.5" y="-174" font-family="Helvetica,sans-Serif" font-size="10.00">+ getID()</text>
</a>
</g>
</g>
<!-- Node3&#45;&gt;Node1 -->
<g id="edge2" class="edge">
<title>Node3&#45;&gt;Node1</title>
<path fill="none" stroke="midnightblue" d="M145.46,-158.42C137.16,-146.77 128.73,-134.93 120.77,-123.75"/>
<polygon fill="none" stroke="midnightblue" points="142.83,-160.75 151.48,-166.86 148.53,-156.69 142.83,-160.75"/>
</g>
<!-- Node4 -->
<g id="node4" class="node">
<title>Node4</title>
<g id="a_node4"><a xlink:title=" ">
<polygon fill="white" stroke="#bfbfbf" points="186,-365.5 186,-422.5 219,-422.5 219,-365.5 186,-365.5"/>
<text text-anchor="middle" x="202.5" y="-410.5" font-family="Helvetica,sans-Serif" font-size="10.00">TID</text>
<polyline fill="none" stroke="#bfbfbf" points="186,-403.5 219,-403.5 "/>
<text text-anchor="middle" x="202.5" y="-391.5" font-family="Helvetica,sans-Serif" font-size="10.00"> </text>
<polyline fill="none" stroke="#bfbfbf" points="186,-384.5 219,-384.5 "/>
<text text-anchor="middle" x="202.5" y="-372.5" font-family="Helvetica,sans-Serif" font-size="10.00"> </text>
</a>
</g>
</g>
<!-- Node4&#45;&gt;Node3 -->
<g id="edge3" class="edge">
<title>Node4&#45;&gt;Node3</title>
<path fill="none" stroke="#404040" d="M202.5,-365.38C202.5,-353.53 202.5,-338.99 202.5,-324.07"/>
<polygon fill="none" stroke="#404040" points="202.5,-324.07 198.5,-318.07 202.5,-312.07 206.5,-318.07 202.5,-324.07"/>
<text text-anchor="middle" x="215.5" y="-339" font-family="Helvetica,sans-Serif" font-size="10.00"> #_id</text>
</g>
</g>
</svg>
