<?xml version="1.0" encoding="UTF-8" standalone="no"?>
<!DOCTYPE svg PUBLIC "-//W3C//DTD SVG 1.1//EN"
 "http://www.w3.org/Graphics/SVG/1.1/DTD/svg11.dtd">
<!-- Generated by graphviz version 2.43.0 (0)
 -->
<!-- Title: cie::fem::maths::AnsatzSpaceDerivative&lt; TScalarExpression, Dim &gt; Pages: 1 -->
<svg width="215pt" height="343pt"
 viewBox="0.00 0.00 215.00 343.00" xmlns="http://www.w3.org/2000/svg" xmlns:xlink="http://www.w3.org/1999/xlink">
<g id="graph0" class="graph" transform="scale(1 1) rotate(0) translate(4 339)">
<title>cie::fem::maths::AnsatzSpaceDerivative&lt; TScalarExpression, Dim &gt;</title>
<polygon fill="white" stroke="transparent" points="-4,4 -4,-339 211,-339 211,4 -4,4"/>
<!-- Node1 -->
<g id="node1" class="node">
<title>Node1</title>
<g id="a_node1"><a xlink:title=" ">
<polygon fill="#bfbfbf" stroke="black" points="0,-0.5 0,-90.5 206,-90.5 206,-0.5 0,-0.5"/>
<text text-anchor="start" x="8" y="-78.5" font-family="Helvetica,sans-Serif" font-size="10.00">cie::fem::maths::AnsatzSpace</text>
<text text-anchor="middle" x="103" y="-67.5" font-family="Helvetica,sans-Serif" font-size="10.00">Derivative&lt; TScalarExpression, Dim &gt;</text>
<polyline fill="none" stroke="black" points="0,-60.5 206,-60.5 "/>
<text text-anchor="start" x="8" y="-48.5" font-family="Helvetica,sans-Serif" font-size="10.00">+ Dimension</text>
<polyline fill="none" stroke="black" points="0,-41.5 206,-41.5 "/>
<text text-anchor="start" x="8" y="-29.5" font-family="Helvetica,sans-Serif" font-size="10.00">+ AnsatzSpaceDerivative()</text>
<text text-anchor="start" x="8" y="-18.5" font-family="Helvetica,sans-Serif" font-size="10.00">+ evaluate()</text>
<text text-anchor="start" x="8" y="-7.5" font-family="Helvetica,sans-Serif" font-size="10.00">+ size()</text>
</a>
</g>
</g>
<!-- Node2 -->
<g id="node2" class="node">
<title>Node2</title>
<g id="a_node2"><a xlink:href="structcie_1_1fem_1_1maths_1_1ExpressionTraits.html" target="_top" xlink:title=" ">
<polygon fill="white" stroke="black" points="27,-128.5 27,-207.5 179,-207.5 179,-128.5 27,-128.5"/>
<text text-anchor="start" x="35" y="-195.5" font-family="Helvetica,sans-Serif" font-size="10.00">cie::fem::maths::Expression</text>
<text text-anchor="start" x="35" y="-184.5" font-family="Helvetica,sans-Serif" font-size="10.00">Traits&lt; TScalarExpression</text>
<text text-anchor="middle" x="103" y="-173.5" font-family="Helvetica,sans-Serif" font-size="10.00">::Value &gt;</text>
<polyline fill="none" stroke="black" points="27,-166.5 179,-166.5 "/>
<text text-anchor="middle" x="103" y="-154.5" font-family="Helvetica,sans-Serif" font-size="10.00"> </text>
<polyline fill="none" stroke="black" points="27,-147.5 179,-147.5 "/>
<text text-anchor="middle" x="103" y="-135.5" font-family="Helvetica,sans-Serif" font-size="10.00"> </text>
</a>
</g>
</g>
<!-- Node2&#45;&gt;Node1 -->
<g id="edge1" class="edge">
<title>Node2&#45;&gt;Node1</title>
<path fill="none" stroke="midnightblue" d="M103,-118.14C103,-109.05 103,-99.6 103,-90.66"/>
<polygon fill="none" stroke="midnightblue" points="99.5,-118.21 103,-128.21 106.5,-118.21 99.5,-118.21"/>
</g>
<!-- Node3 -->
<g id="node3" class="node">
<title>Node3</title>
<g id="a_node3"><a xlink:href="structcie_1_1fem_1_1maths_1_1ExpressionTraits.html" target="_top" xlink:title=" ">
<polygon fill="white" stroke="black" points="27,-266.5 27,-334.5 179,-334.5 179,-266.5 27,-266.5"/>
<text text-anchor="start" x="35" y="-322.5" font-family="Helvetica,sans-Serif" font-size="10.00">cie::fem::maths::Expression</text>
<text text-anchor="middle" x="103" y="-311.5" font-family="Helvetica,sans-Serif" font-size="10.00">Traits&lt; TValue &gt;</text>
<polyline fill="none" stroke="black" points="27,-304.5 179,-304.5 "/>
<text text-anchor="middle" x="103" y="-292.5" font-family="Helvetica,sans-Serif" font-size="10.00"> </text>
<polyline fill="none" stroke="black" points="27,-285.5 179,-285.5 "/>
<text text-anchor="middle" x="103" y="-273.5" font-family="Helvetica,sans-Serif" font-size="10.00"> </text>
</a>
</g>
</g>
<!-- Node3&#45;&gt;Node2 -->
<g id="edge2" class="edge">
<title>Node3&#45;&gt;Node2</title>
<path fill="none" stroke="orange" d="M103,-255.81C103,-240.26 103,-222.87 103,-207.77"/>
<polygon fill="orange" stroke="orange" points="99.5,-256.23 103,-266.23 106.5,-256.23 99.5,-256.23"/>
<text text-anchor="start" x="103" y="-240" font-family="Helvetica,sans-Serif" font-size="10.00"> &lt; TScalarExpression</text>
<text text-anchor="middle" x="155" y="-229" font-family="Helvetica,sans-Serif" font-size="10.00">::Value &gt;</text>
</g>
</g>
</svg>
