<?xml version="1.0" encoding="UTF-8" standalone="no"?>
<!DOCTYPE svg PUBLIC "-//W3C//DTD SVG 1.1//EN"
 "http://www.w3.org/Graphics/SVG/1.1/DTD/svg11.dtd">
<!-- Generated by graphviz version 2.43.0 (0)
 -->
<!-- Title: cie::fem::maths::AnsatzSpace&lt; TScalarExpression, Dim &gt; Pages: 1 -->
<svg width="247pt" height="386pt"
 viewBox="0.00 0.00 247.00 386.00" xmlns="http://www.w3.org/2000/svg" xmlns:xlink="http://www.w3.org/1999/xlink">
<g id="graph0" class="graph" transform="scale(1 1) rotate(0) translate(4 382)">
<title>cie::fem::maths::AnsatzSpace&lt; TScalarExpression, Dim &gt;</title>
<polygon fill="white" stroke="transparent" points="-4,4 -4,-382 243,-382 243,4 -4,4"/>
<!-- Node1 -->
<g id="node1" class="node">
<title>Node1</title>
<g id="a_node1"><a xlink:title="A set of multidimensional functions constructed from the cartesian product of a set of scalar basis f...">
<polygon fill="#bfbfbf" stroke="black" points="57.5,-0.5 57.5,-123.5 218.5,-123.5 218.5,-0.5 57.5,-0.5"/>
<text text-anchor="start" x="65.5" y="-111.5" font-family="Helvetica,sans-Serif" font-size="10.00">cie::fem::maths::AnsatzSpace</text>
<text text-anchor="middle" x="138" y="-100.5" font-family="Helvetica,sans-Serif" font-size="10.00">&lt; TScalarExpression, Dim &gt;</text>
<polyline fill="none" stroke="black" points="57.5,-93.5 218.5,-93.5 "/>
<text text-anchor="middle" x="138" y="-81.5" font-family="Helvetica,sans-Serif" font-size="10.00"> </text>
<polyline fill="none" stroke="black" points="57.5,-74.5 218.5,-74.5 "/>
<text text-anchor="start" x="65.5" y="-62.5" font-family="Helvetica,sans-Serif" font-size="10.00">+ AnsatzSpace()</text>
<text text-anchor="start" x="65.5" y="-51.5" font-family="Helvetica,sans-Serif" font-size="10.00">+ AnsatzSpace()</text>
<text text-anchor="start" x="65.5" y="-40.5" font-family="Helvetica,sans-Serif" font-size="10.00">+ AnsatzSpace()</text>
<text text-anchor="start" x="65.5" y="-29.5" font-family="Helvetica,sans-Serif" font-size="10.00">+ evaluate()</text>
<text text-anchor="start" x="65.5" y="-18.5" font-family="Helvetica,sans-Serif" font-size="10.00">+ makeDerivative()</text>
<text text-anchor="start" x="65.5" y="-7.5" font-family="Helvetica,sans-Serif" font-size="10.00">+ size()</text>
</a>
</g>
</g>
<!-- Node2 -->
<g id="node2" class="node">
<title>Node2</title>
<g id="a_node2"><a xlink:href="structcie_1_1fem_1_1maths_1_1ExpressionTraits.html" target="_top" xlink:title=" ">
<polygon fill="white" stroke="black" points="0,-171.5 0,-250.5 152,-250.5 152,-171.5 0,-171.5"/>
<text text-anchor="start" x="8" y="-238.5" font-family="Helvetica,sans-Serif" font-size="10.00">cie::fem::maths::Expression</text>
<text text-anchor="start" x="8" y="-227.5" font-family="Helvetica,sans-Serif" font-size="10.00">Traits&lt; TScalarExpression</text>
<text text-anchor="middle" x="76" y="-216.5" font-family="Helvetica,sans-Serif" font-size="10.00">::Value &gt;</text>
<polyline fill="none" stroke="black" points="0,-209.5 152,-209.5 "/>
<text text-anchor="middle" x="76" y="-197.5" font-family="Helvetica,sans-Serif" font-size="10.00"> </text>
<polyline fill="none" stroke="black" points="0,-190.5 152,-190.5 "/>
<text text-anchor="middle" x="76" y="-178.5" font-family="Helvetica,sans-Serif" font-size="10.00"> </text>
</a>
</g>
</g>
<!-- Node2&#45;&gt;Node1 -->
<g id="edge1" class="edge">
<title>Node2&#45;&gt;Node1</title>
<path fill="none" stroke="midnightblue" d="M96.32,-161.83C101.48,-149.6 107.08,-136.3 112.46,-123.55"/>
<polygon fill="none" stroke="midnightblue" points="92.95,-160.8 92.29,-171.38 99.4,-163.52 92.95,-160.8"/>
</g>
<!-- Node3 -->
<g id="node3" class="node">
<title>Node3</title>
<g id="a_node3"><a xlink:href="structcie_1_1fem_1_1maths_1_1ExpressionTraits.html" target="_top" xlink:title=" ">
<polygon fill="white" stroke="black" points="0,-309.5 0,-377.5 152,-377.5 152,-309.5 0,-309.5"/>
<text text-anchor="start" x="8" y="-365.5" font-family="Helvetica,sans-Serif" font-size="10.00">cie::fem::maths::Expression</text>
<text text-anchor="middle" x="76" y="-354.5" font-family="Helvetica,sans-Serif" font-size="10.00">Traits&lt; TValue &gt;</text>
<polyline fill="none" stroke="black" points="0,-347.5 152,-347.5 "/>
<text text-anchor="middle" x="76" y="-335.5" font-family="Helvetica,sans-Serif" font-size="10.00"> </text>
<polyline fill="none" stroke="black" points="0,-328.5 152,-328.5 "/>
<text text-anchor="middle" x="76" y="-316.5" font-family="Helvetica,sans-Serif" font-size="10.00"> </text>
</a>
</g>
</g>
<!-- Node3&#45;&gt;Node2 -->
<g id="edge2" class="edge">
<title>Node3&#45;&gt;Node2</title>
<path fill="none" stroke="orange" d="M76,-298.81C76,-283.26 76,-265.87 76,-250.77"/>
<polygon fill="orange" stroke="orange" points="72.5,-299.23 76,-309.23 79.5,-299.23 72.5,-299.23"/>
<text text-anchor="start" x="76" y="-283" font-family="Helvetica,sans-Serif" font-size="10.00"> &lt; TScalarExpression</text>
<text text-anchor="middle" x="128" y="-272" font-family="Helvetica,sans-Serif" font-size="10.00">::Value &gt;</text>
</g>
<!-- Node4 -->
<g id="node4" class="node">
<title>Node4</title>
<g id="a_node4"><a xlink:title=" ">
<polygon fill="white" stroke="#bfbfbf" points="170.5,-182.5 170.5,-239.5 231.5,-239.5 231.5,-182.5 170.5,-182.5"/>
<text text-anchor="middle" x="201" y="-227.5" font-family="Helvetica,sans-Serif" font-size="10.00">unsigned</text>
<polyline fill="none" stroke="#bfbfbf" points="170.5,-220.5 231.5,-220.5 "/>
<text text-anchor="middle" x="201" y="-208.5" font-family="Helvetica,sans-Serif" font-size="10.00"> </text>
<polyline fill="none" stroke="#bfbfbf" points="170.5,-201.5 231.5,-201.5 "/>
<text text-anchor="middle" x="201" y="-189.5" font-family="Helvetica,sans-Serif" font-size="10.00"> </text>
</a>
</g>
</g>
<!-- Node4&#45;&gt;Node1 -->
<g id="edge3" class="edge">
<title>Node4&#45;&gt;Node1</title>
<path fill="none" stroke="#404040" d="M189.15,-182.35C183.33,-168.77 176.02,-151.72 168.77,-134.79"/>
<polygon fill="none" stroke="#404040" points="168.75,-134.75 162.71,-130.81 164.02,-123.72 170.06,-127.66 168.75,-134.75"/>
<text text-anchor="middle" x="207" y="-145" font-family="Helvetica,sans-Serif" font-size="10.00"> +Dimension</text>
</g>
</g>
</svg>
