<?xml version="1.0" encoding="UTF-8" standalone="no"?>
<!DOCTYPE svg PUBLIC "-//W3C//DTD SVG 1.1//EN"
 "http://www.w3.org/Graphics/SVG/1.1/DTD/svg11.dtd">
<!-- Generated by graphviz version 2.43.0 (0)
 -->
<!-- Title: optcontrol.numeric.basisfunctions.Lagrange Pages: 1 -->
<svg width="193pt" height="193pt"
 viewBox="0.00 0.00 193.00 193.00" xmlns="http://www.w3.org/2000/svg" xmlns:xlink="http://www.w3.org/1999/xlink">
<g id="graph0" class="graph" transform="scale(1 1) rotate(0) translate(4 189)">
<title>optcontrol.numeric.basisfunctions.Lagrange</title>
<polygon fill="white" stroke="transparent" points="-4,4 -4,-189 189,-189 189,4 -4,4"/>
<!-- Node1 -->
<g id="node1" class="node">
<title>Node1</title>
<g id="a_node1"><a xlink:title="Lagrange basis functions.">
<polygon fill="#bfbfbf" stroke="black" points="0,-0.5 0,-90.5 185,-90.5 185,-0.5 0,-0.5"/>
<text text-anchor="start" x="8" y="-78.5" font-family="Helvetica,sans-Serif" font-size="10.00">optcontrol.numeric.basisfunctions.</text>
<text text-anchor="middle" x="92.5" y="-67.5" font-family="Helvetica,sans-Serif" font-size="10.00">Lagrange</text>
<polyline fill="none" stroke="black" points="0,-60.5 185,-60.5 "/>
<text text-anchor="start" x="8" y="-48.5" font-family="Helvetica,sans-Serif" font-size="10.00">+ samplePointProvider</text>
<text text-anchor="start" x="8" y="-37.5" font-family="Helvetica,sans-Serif" font-size="10.00">+ coefficients</text>
<polyline fill="none" stroke="black" points="0,-30.5 185,-30.5 "/>
<text text-anchor="start" x="8" y="-18.5" font-family="Helvetica,sans-Serif" font-size="10.00">+ __init__()</text>
<text text-anchor="start" x="8" y="-7.5" font-family="Helvetica,sans-Serif" font-size="10.00">+ __call__()</text>
</a>
</g>
</g>
<!-- Node2 -->
<g id="node2" class="node">
<title>Node2</title>
<g id="a_node2"><a xlink:href="classobject.html" target="_top" xlink:title=" ">
<polygon fill="white" stroke="black" points="69,-127.5 69,-184.5 116,-184.5 116,-127.5 69,-127.5"/>
<text text-anchor="middle" x="92.5" y="-172.5" font-family="Helvetica,sans-Serif" font-size="10.00">object</text>
<polyline fill="none" stroke="black" points="69,-165.5 116,-165.5 "/>
<text text-anchor="middle" x="92.5" y="-153.5" font-family="Helvetica,sans-Serif" font-size="10.00"> </text>
<polyline fill="none" stroke="black" points="69,-146.5 116,-146.5 "/>
<text text-anchor="middle" x="92.5" y="-134.5" font-family="Helvetica,sans-Serif" font-size="10.00"> </text>
</a>
</g>
</g>
<!-- Node2&#45;&gt;Node1 -->
<g id="edge1" class="edge">
<title>Node2&#45;&gt;Node1</title>
<path fill="none" stroke="midnightblue" d="M92.5,-117.21C92.5,-108.61 92.5,-99.39 92.5,-90.55"/>
<polygon fill="none" stroke="midnightblue" points="89,-117.34 92.5,-127.34 96,-117.34 89,-117.34"/>
</g>
</g>
</svg>
