<?xml version="1.0" encoding="UTF-8" standalone="no"?>
<!DOCTYPE svg PUBLIC "-//W3C//DTD SVG 1.1//EN"
 "http://www.w3.org/Graphics/SVG/1.1/DTD/svg11.dtd">
<!-- Generated by graphviz version 2.43.0 (0)
 -->
<!-- Title: connectivity.hpp Pages: 1 -->
<!--zoomable 184 -->
<svg id="main" version="1.1" xmlns="http://www.w3.org/2000/svg" xmlns:xlink="http://www.w3.org/1999/xlink" xml:space="preserve" onload="init(evt)">
<style type="text/css"><![CDATA[
.edge:hover path { stroke: red; }
.edge:hover polygon { stroke: red; fill: red; }
]]></style>
<script type="text/javascript"><![CDATA[
var edges = document.getElementsByTagName('g');
if (edges && edges.length) {
  for (var i=0;i<edges.length;i++) {
    if (edges[i].id.substr(0,4)=='edge') {
      edges[i].setAttribute('class','edge');
    }
  }
}
]]></script>
        <defs>
                <circle id="rim" cx="0" cy="0" r="7"/>
                <circle id="rim2" cx="0" cy="0" r="3.5"/>
                <g id="zoomPlus">
                        <use xlink:href="#rim" fill="#404040">
                                <set attributeName="fill" to="#808080" begin="zoomplus.mouseover" end="zoomplus.mouseout"/>
                        </use>
                        <path d="M-4,0h8M0,-4v8" fill="none" stroke="white" stroke-width="1.5" pointer-events="none"/>
                </g>
                <g id="zoomMin">
                        <use xlink:href="#rim" fill="#404040">
                                <set attributeName="fill" to="#808080" begin="zoomminus.mouseover" end="zoomminus.mouseout"/>
                        </use>
                        <path d="M-4,0h8" fill="none" stroke="white" stroke-width="1.5" pointer-events="none"/>
                </g>
                <g id="dirArrow">
                        <path fill="none" stroke="white" stroke-width="1.5" d="M0,-3.0v7 M-2.5,-0.5L0,-3.0L2.5,-0.5"/>
                </g>
               <g id="resetDef">
                       <use xlink:href="#rim2" fill="#404040">
                               <set attributeName="fill" to="#808080" begin="reset.mouseover" end="reset.mouseout"/>
                       </use>
               </g>
        </defs>

<script type="text/javascript">
var viewWidth = 2135;
var viewHeight = 184;
var sectionId = 'dynsection-0';
</script>
<script xlink:href="svgpan.js"/>
<svg id="graph" class="graph">
<g id="viewport">
<title>connectivity.hpp</title>
<polygon fill="white" stroke="transparent" points="-4,4 -4,-180 2130.5,-180 2130.5,4 -4,4"/>
<!-- Node1 -->
<g id="node1" class="node">
<title>Node1</title>
<g id="a_node1"><a xlink:title=" ">
<polygon fill="#bfbfbf" stroke="black" points="1452.5,-156.5 1452.5,-175.5 1548.5,-175.5 1548.5,-156.5 1452.5,-156.5"/>
<text text-anchor="middle" x="1500.5" y="-163.5" font-family="Helvetica,sans-Serif" font-size="10.00">connectivity.hpp</text>
</a>
</g>
</g>
<!-- Node2 -->
<g id="node2" class="node">
<title>Node2</title>
<g id="a_node2"><a xlink:title=" ">
<polygon fill="white" stroke="#bfbfbf" points="102.5,-89.5 102.5,-108.5 194.5,-108.5 194.5,-89.5 102.5,-89.5"/>
<text text-anchor="middle" x="148.5" y="-96.5" font-family="Helvetica,sans-Serif" font-size="10.00">tsl/robin_map.h</text>
</a>
</g>
</g>
<!-- Node1&#45;&gt;Node2 -->
<g id="edge1" class="edge">
<title>Node1&#45;&gt;Node2</title>
<path fill="none" stroke="midnightblue" d="M1452.32,-165.34C1247.66,-166.49 449.56,-167.76 203.5,-120 194.61,-118.27 185.24,-115.33 176.81,-112.22"/>
<polygon fill="midnightblue" stroke="midnightblue" points="178.01,-108.93 167.42,-108.55 175.47,-115.45 178.01,-108.93"/>
</g>
<!-- Node3 -->
<g id="node3" class="node">
<title>Node3</title>
<g id="a_node3"><a xlink:href="Expression_8hpp.html" target="_top" xlink:title=" ">
<polygon fill="white" stroke="black" points="213,-84 213,-114 326,-114 326,-84 213,-84"/>
<text text-anchor="start" x="221" y="-102" font-family="Helvetica,sans-Serif" font-size="10.00">packages/maths/inc</text>
<text text-anchor="middle" x="269.5" y="-91" font-family="Helvetica,sans-Serif" font-size="10.00">/Expression.hpp</text>
</a>
</g>
</g>
<!-- Node1&#45;&gt;Node3 -->
<g id="edge2" class="edge">
<title>Node1&#45;&gt;Node3</title>
<path fill="none" stroke="midnightblue" d="M1452.12,-162.48C1321.52,-155.68 950.83,-136.35 642.5,-120 535.35,-114.32 410.88,-107.63 336.25,-103.6"/>
<polygon fill="midnightblue" stroke="midnightblue" points="336.23,-100.1 326.06,-103.05 335.85,-107.09 336.23,-100.1"/>
</g>
<!-- Node8 -->
<g id="node8" class="node">
<title>Node8</title>
<g id="a_node8"><a xlink:href="BoundaryID_8hpp.html" target="_top" xlink:title=" ">
<polygon fill="white" stroke="black" points="651.5,-84 651.5,-114 761.5,-114 761.5,-84 651.5,-84"/>
<text text-anchor="start" x="659.5" y="-102" font-family="Helvetica,sans-Serif" font-size="10.00">packages/graph/inc</text>
<text text-anchor="middle" x="706.5" y="-91" font-family="Helvetica,sans-Serif" font-size="10.00">/BoundaryID.hpp</text>
</a>
</g>
</g>
<!-- Node1&#45;&gt;Node8 -->
<g id="edge7" class="edge">
<title>Node1&#45;&gt;Node8</title>
<path fill="none" stroke="midnightblue" d="M1452.32,-161.06C1316.02,-149.9 927.48,-118.09 771.99,-105.36"/>
<polygon fill="midnightblue" stroke="midnightblue" points="771.9,-101.84 761.65,-104.51 771.33,-108.82 771.9,-101.84"/>
</g>
<!-- Node14 -->
<g id="node14" class="node">
<title>Node14</title>
<g id="a_node14"><a xlink:href="kernel_8hpp.html" target="_top" xlink:title=" ">
<polygon fill="white" stroke="black" points="1239.5,-84 1239.5,-114 1341.5,-114 1341.5,-84 1239.5,-84"/>
<text text-anchor="start" x="1247.5" y="-102" font-family="Helvetica,sans-Serif" font-size="10.00">packages/utilities</text>
<text text-anchor="middle" x="1290.5" y="-91" font-family="Helvetica,sans-Serif" font-size="10.00">/inc/kernel.hpp</text>
</a>
</g>
</g>
<!-- Node1&#45;&gt;Node14 -->
<g id="edge14" class="edge">
<title>Node1&#45;&gt;Node14</title>
<path fill="none" stroke="midnightblue" d="M1471.1,-156.47C1440.8,-147.6 1392.23,-133.21 1350.5,-120 1347.61,-119.09 1344.65,-118.13 1341.66,-117.17"/>
<polygon fill="midnightblue" stroke="midnightblue" points="1342.68,-113.82 1332.08,-114.04 1340.5,-120.47 1342.68,-113.82"/>
</g>
<!-- Node24 -->
<g id="node24" class="node">
<title>Node24</title>
<g id="a_node24"><a target="_parent" xlink:href="../../../cieutils/docs/html/functional_8hpp.html.html" xlink:title=" ">
<polygon fill="white" stroke="black" points="1359.5,-78.5 1359.5,-119.5 1491.5,-119.5 1491.5,-78.5 1359.5,-78.5"/>
<text text-anchor="start" x="1367.5" y="-107.5" font-family="Helvetica,sans-Serif" font-size="10.00">packages/compile_time</text>
<text text-anchor="start" x="1367.5" y="-96.5" font-family="Helvetica,sans-Serif" font-size="10.00">/packages/concepts/inc</text>
<text text-anchor="middle" x="1425.5" y="-85.5" font-family="Helvetica,sans-Serif" font-size="10.00">/functional.hpp</text>
</a>
</g>
</g>
<!-- Node1&#45;&gt;Node24 -->
<g id="edge25" class="edge">
<title>Node1&#45;&gt;Node24</title>
<path fill="none" stroke="midnightblue" d="M1490.39,-156.23C1481.53,-148.56 1468.19,-137 1455.91,-126.36"/>
<polygon fill="midnightblue" stroke="midnightblue" points="1457.9,-123.45 1448.05,-119.54 1453.31,-128.74 1457.9,-123.45"/>
</g>
<!-- Node25 -->
<g id="node25" class="node">
<title>Node25</title>
<g id="a_node25"><a target="_parent" xlink:href="../../../cieutils/docs/html/iterator__concepts_8hpp.html.html" xlink:title=" ">
<polygon fill="white" stroke="black" points="1509.5,-78.5 1509.5,-119.5 1641.5,-119.5 1641.5,-78.5 1509.5,-78.5"/>
<text text-anchor="start" x="1517.5" y="-107.5" font-family="Helvetica,sans-Serif" font-size="10.00">packages/compile_time</text>
<text text-anchor="start" x="1517.5" y="-96.5" font-family="Helvetica,sans-Serif" font-size="10.00">/packages/concepts/inc</text>
<text text-anchor="middle" x="1575.5" y="-85.5" font-family="Helvetica,sans-Serif" font-size="10.00">/iterator_concepts.hpp</text>
</a>
</g>
</g>
<!-- Node1&#45;&gt;Node25 -->
<g id="edge26" class="edge">
<title>Node1&#45;&gt;Node25</title>
<path fill="none" stroke="midnightblue" d="M1510.61,-156.23C1519.47,-148.56 1532.81,-137 1545.09,-126.36"/>
<polygon fill="midnightblue" stroke="midnightblue" points="1547.69,-128.74 1552.95,-119.54 1543.1,-123.45 1547.69,-128.74"/>
</g>
<!-- Node26 -->
<g id="node26" class="node">
<title>Node26</title>
<g id="a_node26"><a target="_parent" xlink:href="../../../cieutils/docs/html/DynamicArray_8hpp.html.html" xlink:title=" ">
<polygon fill="white" stroke="black" points="1660,-84 1660,-114 1791,-114 1791,-84 1660,-84"/>
<text text-anchor="start" x="1668" y="-102" font-family="Helvetica,sans-Serif" font-size="10.00">packages/stl_extension</text>
<text text-anchor="middle" x="1725.5" y="-91" font-family="Helvetica,sans-Serif" font-size="10.00">/inc/DynamicArray.hpp</text>
</a>
</g>
</g>
<!-- Node1&#45;&gt;Node26 -->
<g id="edge27" class="edge">
<title>Node1&#45;&gt;Node26</title>
<path fill="none" stroke="midnightblue" d="M1530.38,-156.37C1565.16,-146.32 1623.44,-129.49 1667.26,-116.82"/>
<polygon fill="midnightblue" stroke="midnightblue" points="1668.31,-120.17 1676.94,-114.03 1666.36,-113.44 1668.31,-120.17"/>
</g>
<!-- Node27 -->
<g id="node27" class="node">
<title>Node27</title>
<g id="a_node27"><a target="_parent" xlink:href="../../../cieutils/docs/html/Comparison_8hpp.html.html" xlink:title=" ">
<polygon fill="white" stroke="black" points="1809,-84 1809,-114 1922,-114 1922,-84 1809,-84"/>
<text text-anchor="start" x="1817" y="-102" font-family="Helvetica,sans-Serif" font-size="10.00">packages/maths/inc</text>
<text text-anchor="middle" x="1865.5" y="-91" font-family="Helvetica,sans-Serif" font-size="10.00">/Comparison.hpp</text>
</a>
</g>
</g>
<!-- Node1&#45;&gt;Node27 -->
<g id="edge28" class="edge">
<title>Node1&#45;&gt;Node27</title>
<path fill="none" stroke="midnightblue" d="M1548.71,-160.02C1608.33,-153.34 1712.68,-139.98 1800.5,-120 1804.64,-119.06 1808.91,-117.98 1813.18,-116.84"/>
<polygon fill="midnightblue" stroke="midnightblue" points="1814.41,-120.12 1823.09,-114.05 1812.52,-113.39 1814.41,-120.12"/>
</g>
<!-- Node28 -->
<g id="node28" class="node">
<title>Node28</title>
<g id="a_node28"><a xlink:title=" ">
<polygon fill="white" stroke="#bfbfbf" points="1940.5,-89.5 1940.5,-108.5 1980.5,-108.5 1980.5,-89.5 1940.5,-89.5"/>
<text text-anchor="middle" x="1960.5" y="-96.5" font-family="Helvetica,sans-Serif" font-size="10.00">span</text>
</a>
</g>
</g>
<!-- Node1&#45;&gt;Node28 -->
<g id="edge29" class="edge">
<title>Node1&#45;&gt;Node28</title>
<path fill="none" stroke="midnightblue" d="M1548.66,-162.97C1645.89,-158.39 1862.25,-145.58 1931.5,-120 1935.22,-118.63 1938.91,-116.67 1942.36,-114.5"/>
<polygon fill="midnightblue" stroke="midnightblue" points="1944.59,-117.21 1950.73,-108.58 1940.55,-111.5 1944.59,-117.21"/>
</g>
<!-- Node29 -->
<g id="node29" class="node">
<title>Node29</title>
<g id="a_node29"><a xlink:title=" ">
<polygon fill="white" stroke="#bfbfbf" points="1998.5,-84 1998.5,-114 2126.5,-114 2126.5,-84 1998.5,-84"/>
<text text-anchor="start" x="2006.5" y="-102" font-family="Helvetica,sans-Serif" font-size="10.00">packages/graph/impl</text>
<text text-anchor="middle" x="2062.5" y="-91" font-family="Helvetica,sans-Serif" font-size="10.00">/connectivity_impl.hpp</text>
</a>
</g>
</g>
<!-- Node1&#45;&gt;Node29 -->
<g id="edge30" class="edge">
<title>Node1&#45;&gt;Node29</title>
<path fill="none" stroke="midnightblue" d="M1548.77,-163.37C1636.95,-159.76 1829.7,-149.01 1989.5,-120 1994.91,-119.02 2000.51,-117.82 2006.08,-116.51"/>
<polygon fill="midnightblue" stroke="midnightblue" points="2007.18,-119.84 2016.05,-114.04 2005.5,-113.05 2007.18,-119.84"/>
</g>
<!-- Node4 -->
<g id="node4" class="node">
<title>Node4</title>
<g id="a_node4"><a target="_parent" xlink:href="../../../cieutils/docs/html/types_8hpp.html.html" xlink:title=" ">
<polygon fill="white" stroke="black" points="281.5,-6 281.5,-36 391.5,-36 391.5,-6 281.5,-6"/>
<text text-anchor="start" x="289.5" y="-24" font-family="Helvetica,sans-Serif" font-size="10.00">packages/types/inc</text>
<text text-anchor="middle" x="336.5" y="-13" font-family="Helvetica,sans-Serif" font-size="10.00">/types.hpp</text>
</a>
</g>
</g>
<!-- Node3&#45;&gt;Node4 -->
<g id="edge3" class="edge">
<title>Node3&#45;&gt;Node4</title>
<path fill="none" stroke="midnightblue" d="M282.1,-83.7C292.02,-72.45 306.01,-56.58 317.32,-43.76"/>
<polygon fill="midnightblue" stroke="midnightblue" points="319.97,-46.05 323.95,-36.23 314.72,-41.42 319.97,-46.05"/>
</g>
<!-- Node5 -->
<g id="node5" class="node">
<title>Node5</title>
<g id="a_node5"><a xlink:title=" ">
<polygon fill="white" stroke="#bfbfbf" points="0,-11.5 0,-30.5 45,-30.5 45,-11.5 0,-11.5"/>
<text text-anchor="middle" x="22.5" y="-18.5" font-family="Helvetica,sans-Serif" font-size="10.00">utility</text>
</a>
</g>
</g>
<!-- Node3&#45;&gt;Node5 -->
<g id="edge4" class="edge">
<title>Node3&#45;&gt;Node5</title>
<path fill="none" stroke="midnightblue" d="M224.51,-83.99C217.5,-81.92 210.32,-79.85 203.5,-78 137.76,-60.11 117.31,-68.39 54.5,-42 50.6,-40.36 46.64,-38.28 42.88,-36.08"/>
<polygon fill="midnightblue" stroke="midnightblue" points="44.48,-32.95 34.16,-30.56 40.74,-38.86 44.48,-32.95"/>
</g>
<!-- Node6 -->
<g id="node6" class="node">
<title>Node6</title>
<g id="a_node6"><a xlink:title=" ">
<polygon fill="white" stroke="#bfbfbf" points="63.5,-11.5 63.5,-30.5 123.5,-30.5 123.5,-11.5 63.5,-11.5"/>
<text text-anchor="middle" x="93.5" y="-18.5" font-family="Helvetica,sans-Serif" font-size="10.00">concepts</text>
</a>
</g>
</g>
<!-- Node3&#45;&gt;Node6 -->
<g id="edge5" class="edge">
<title>Node3&#45;&gt;Node6</title>
<path fill="none" stroke="midnightblue" d="M232.79,-83.98C204.99,-73.13 166,-57.4 132.5,-42 127.98,-39.92 123.23,-37.61 118.66,-35.3"/>
<polygon fill="midnightblue" stroke="midnightblue" points="120.16,-32.14 109.67,-30.68 116.96,-38.36 120.16,-32.14"/>
</g>
<!-- Node7 -->
<g id="node7" class="node">
<title>Node7</title>
<g id="a_node7"><a xlink:title=" ">
<polygon fill="white" stroke="#bfbfbf" points="142,-6 142,-36 263,-36 263,-6 142,-6"/>
<text text-anchor="start" x="150" y="-24" font-family="Helvetica,sans-Serif" font-size="10.00">packages/maths/impl</text>
<text text-anchor="middle" x="202.5" y="-13" font-family="Helvetica,sans-Serif" font-size="10.00">/Expression_impl.hpp</text>
</a>
</g>
</g>
<!-- Node3&#45;&gt;Node7 -->
<g id="edge6" class="edge">
<title>Node3&#45;&gt;Node7</title>
<path fill="none" stroke="midnightblue" d="M256.9,-83.7C246.98,-72.45 232.99,-56.58 221.68,-43.76"/>
<polygon fill="midnightblue" stroke="midnightblue" points="224.28,-41.42 215.05,-36.23 219.03,-46.05 224.28,-41.42"/>
</g>
<!-- Node8&#45;&gt;Node4 -->
<g id="edge10" class="edge">
<title>Node8&#45;&gt;Node4</title>
<path fill="none" stroke="midnightblue" d="M651.35,-89.98C589.75,-80.55 487.28,-63.42 400.5,-42 396.67,-41.05 392.73,-40.01 388.78,-38.91"/>
<polygon fill="midnightblue" stroke="midnightblue" points="389.56,-35.49 378.98,-36.07 387.62,-42.21 389.56,-35.49"/>
</g>
<!-- Node9 -->
<g id="node9" class="node">
<title>Node9</title>
<g id="a_node9"><a target="_parent" xlink:href="../../../cieutils/docs/html/checks_8hpp.html.html" xlink:title=" ">
<polygon fill="white" stroke="black" points="410,-6 410,-36 529,-36 529,-6 410,-6"/>
<text text-anchor="start" x="418" y="-24" font-family="Helvetica,sans-Serif" font-size="10.00">packages/macros/inc</text>
<text text-anchor="middle" x="469.5" y="-13" font-family="Helvetica,sans-Serif" font-size="10.00">/checks.hpp</text>
</a>
</g>
</g>
<!-- Node8&#45;&gt;Node9 -->
<g id="edge8" class="edge">
<title>Node8&#45;&gt;Node9</title>
<path fill="none" stroke="midnightblue" d="M662.75,-83.97C623.3,-71.32 565.15,-52.67 522.95,-39.14"/>
<polygon fill="midnightblue" stroke="midnightblue" points="523.98,-35.8 513.39,-36.07 521.85,-42.46 523.98,-35.8"/>
</g>
<!-- Node10 -->
<g id="node10" class="node">
<title>Node10</title>
<g id="a_node10"><a target="_parent" xlink:href="../../../cieutils/docs/html/bit_8hpp.html.html" xlink:title=" ">
<polygon fill="white" stroke="black" points="547,-6 547,-36 660,-36 660,-6 547,-6"/>
<text text-anchor="start" x="555" y="-24" font-family="Helvetica,sans-Serif" font-size="10.00">packages/maths/inc</text>
<text text-anchor="middle" x="603.5" y="-13" font-family="Helvetica,sans-Serif" font-size="10.00">/bit.hpp</text>
</a>
</g>
</g>
<!-- Node8&#45;&gt;Node10 -->
<g id="edge9" class="edge">
<title>Node8&#45;&gt;Node10</title>
<path fill="none" stroke="midnightblue" d="M687.13,-83.7C671.3,-72.03 648.74,-55.38 631.04,-42.32"/>
<polygon fill="midnightblue" stroke="midnightblue" points="632.91,-39.35 622.79,-36.23 628.76,-44.98 632.91,-39.35"/>
</g>
<!-- Node11 -->
<g id="node11" class="node">
<title>Node11</title>
<g id="a_node11"><a xlink:title=" ">
<polygon fill="white" stroke="#bfbfbf" points="678,-11.5 678,-30.5 735,-30.5 735,-11.5 678,-11.5"/>
<text text-anchor="middle" x="706.5" y="-18.5" font-family="Helvetica,sans-Serif" font-size="10.00">ostream</text>
</a>
</g>
</g>
<!-- Node8&#45;&gt;Node11 -->
<g id="edge11" class="edge">
<title>Node8&#45;&gt;Node11</title>
<path fill="none" stroke="midnightblue" d="M706.5,-83.7C706.5,-71.6 706.5,-54.15 706.5,-40.89"/>
<polygon fill="midnightblue" stroke="midnightblue" points="710,-40.56 706.5,-30.56 703,-40.56 710,-40.56"/>
</g>
<!-- Node12 -->
<g id="node12" class="node">
<title>Node12</title>
<g id="a_node12"><a xlink:title=" ">
<polygon fill="white" stroke="#bfbfbf" points="753,-11.5 753,-30.5 818,-30.5 818,-11.5 753,-11.5"/>
<text text-anchor="middle" x="785.5" y="-18.5" font-family="Helvetica,sans-Serif" font-size="10.00">functional</text>
</a>
</g>
</g>
<!-- Node8&#45;&gt;Node12 -->
<g id="edge12" class="edge">
<title>Node8&#45;&gt;Node12</title>
<path fill="none" stroke="midnightblue" d="M721.36,-83.7C734.96,-70.62 755.05,-51.3 769.11,-37.77"/>
<polygon fill="midnightblue" stroke="midnightblue" points="771.82,-40.02 776.6,-30.56 766.97,-34.97 771.82,-40.02"/>
</g>
<!-- Node13 -->
<g id="node13" class="node">
<title>Node13</title>
<g id="a_node13"><a xlink:title=" ">
<polygon fill="white" stroke="#bfbfbf" points="836,-6 836,-36 961,-36 961,-6 836,-6"/>
<text text-anchor="start" x="844" y="-24" font-family="Helvetica,sans-Serif" font-size="10.00">packages/graph/impl</text>
<text text-anchor="middle" x="898.5" y="-13" font-family="Helvetica,sans-Serif" font-size="10.00">/BoundaryID_impl.hpp</text>
</a>
</g>
</g>
<!-- Node8&#45;&gt;Node13 -->
<g id="edge13" class="edge">
<title>Node8&#45;&gt;Node13</title>
<path fill="none" stroke="midnightblue" d="M742.16,-83.88C773.55,-71.46 819.41,-53.31 853.35,-39.87"/>
<polygon fill="midnightblue" stroke="midnightblue" points="855.02,-42.98 863.03,-36.04 852.44,-36.47 855.02,-42.98"/>
</g>
<!-- Node14&#45;&gt;Node4 -->
<g id="edge17" class="edge">
<title>Node14&#45;&gt;Node4</title>
<path fill="none" stroke="midnightblue" d="M1239.36,-96.4C1075.28,-90.99 563.3,-72.11 400.5,-42 395.81,-41.13 390.98,-40.03 386.18,-38.79"/>
<polygon fill="midnightblue" stroke="midnightblue" points="386.99,-35.38 376.41,-36.09 385.12,-42.13 386.99,-35.38"/>
</g>
<!-- Node15 -->
<g id="node15" class="node">
<title>Node15</title>
<g id="a_node15"><a xlink:title=" ">
<polygon fill="white" stroke="#bfbfbf" points="979,-11.5 979,-30.5 1056,-30.5 1056,-11.5 979,-11.5"/>
<text text-anchor="middle" x="1017.5" y="-18.5" font-family="Helvetica,sans-Serif" font-size="10.00">Eigen/Dense</text>
</a>
</g>
</g>
<!-- Node14&#45;&gt;Node15 -->
<g id="edge15" class="edge">
<title>Node14&#45;&gt;Node15</title>
<path fill="none" stroke="midnightblue" d="M1239.39,-87.59C1193.37,-77.67 1124.17,-61.4 1065.5,-42 1059.09,-39.88 1052.32,-37.29 1045.96,-34.69"/>
<polygon fill="midnightblue" stroke="midnightblue" points="1046.98,-31.32 1036.4,-30.65 1044.25,-37.77 1046.98,-31.32"/>
</g>
<!-- Node16 -->
<g id="node16" class="node">
<title>Node16</title>
<g id="a_node16"><a target="_parent" xlink:href="../../../cieutils/docs/html/basic__concepts_8hpp.html.html" xlink:title=" ">
<polygon fill="white" stroke="black" points="1074.5,-0.5 1074.5,-41.5 1206.5,-41.5 1206.5,-0.5 1074.5,-0.5"/>
<text text-anchor="start" x="1082.5" y="-29.5" font-family="Helvetica,sans-Serif" font-size="10.00">packages/compile_time</text>
<text text-anchor="start" x="1082.5" y="-18.5" font-family="Helvetica,sans-Serif" font-size="10.00">/packages/concepts/inc</text>
<text text-anchor="middle" x="1140.5" y="-7.5" font-family="Helvetica,sans-Serif" font-size="10.00">/basic_concepts.hpp</text>
</a>
</g>
</g>
<!-- Node14&#45;&gt;Node16 -->
<g id="edge16" class="edge">
<title>Node14&#45;&gt;Node16</title>
<path fill="none" stroke="midnightblue" d="M1262.64,-83.88C1241.83,-73.34 1212.88,-58.67 1188.38,-46.26"/>
<polygon fill="midnightblue" stroke="midnightblue" points="1189.74,-43.03 1179.24,-41.63 1186.58,-49.27 1189.74,-43.03"/>
</g>
<!-- Node17 -->
<g id="node17" class="node">
<title>Node17</title>
<g id="a_node17"><a target="_parent" xlink:href="../../../cieutils/docs/html/StaticArray_8hpp.html.html" xlink:title=" ">
<polygon fill="white" stroke="black" points="1225,-6 1225,-36 1356,-36 1356,-6 1225,-6"/>
<text text-anchor="start" x="1233" y="-24" font-family="Helvetica,sans-Serif" font-size="10.00">packages/stl_extension</text>
<text text-anchor="middle" x="1290.5" y="-13" font-family="Helvetica,sans-Serif" font-size="10.00">/inc/StaticArray.hpp</text>
</a>
</g>
</g>
<!-- Node14&#45;&gt;Node17 -->
<g id="edge18" class="edge">
<title>Node14&#45;&gt;Node17</title>
<path fill="none" stroke="midnightblue" d="M1290.5,-83.7C1290.5,-73.2 1290.5,-58.66 1290.5,-46.33"/>
<polygon fill="midnightblue" stroke="midnightblue" points="1294,-46.23 1290.5,-36.23 1287,-46.23 1294,-46.23"/>
</g>
<!-- Node18 -->
<g id="node18" class="node">
<title>Node18</title>
<g id="a_node18"><a target="_parent" xlink:href="../../../cieutils/docs/html/StrongTypeDef_8hpp.html.html" xlink:title=" ">
<polygon fill="white" stroke="black" points="1374,-6 1374,-36 1505,-36 1505,-6 1374,-6"/>
<text text-anchor="start" x="1382" y="-24" font-family="Helvetica,sans-Serif" font-size="10.00">packages/stl_extension</text>
<text text-anchor="middle" x="1439.5" y="-13" font-family="Helvetica,sans-Serif" font-size="10.00">/inc/StrongTypeDef.hpp</text>
</a>
</g>
</g>
<!-- Node14&#45;&gt;Node18 -->
<g id="edge19" class="edge">
<title>Node14&#45;&gt;Node18</title>
<path fill="none" stroke="midnightblue" d="M1318.18,-83.88C1342.01,-71.73 1376.6,-54.08 1402.75,-40.74"/>
<polygon fill="midnightblue" stroke="midnightblue" points="1404.65,-43.7 1411.97,-36.04 1401.47,-37.47 1404.65,-43.7"/>
</g>
<!-- Node19 -->
<g id="node19" class="node">
<title>Node19</title>
<g id="a_node19"><a target="_parent" xlink:href="../../../linalg/docs/html/StaticEigenMatrix_8hpp.html.html" xlink:title=" ">
<polygon fill="white" stroke="black" points="1523,-6 1523,-36 1650,-36 1650,-6 1523,-6"/>
<text text-anchor="start" x="1531" y="-24" font-family="Helvetica,sans-Serif" font-size="10.00">packages/matrix/inc</text>
<text text-anchor="middle" x="1586.5" y="-13" font-family="Helvetica,sans-Serif" font-size="10.00">/StaticEigenMatrix.hpp</text>
</a>
</g>
</g>
<!-- Node14&#45;&gt;Node19 -->
<g id="edge20" class="edge">
<title>Node14&#45;&gt;Node19</title>
<path fill="none" stroke="midnightblue" d="M1330.66,-83.96C1337.26,-81.85 1344.04,-79.78 1350.5,-78 1422.44,-58.17 1442.08,-59.99 1514.5,-42 1518.79,-40.93 1523.22,-39.8 1527.67,-38.62"/>
<polygon fill="midnightblue" stroke="midnightblue" points="1528.65,-41.99 1537.41,-36.02 1526.84,-35.22 1528.65,-41.99"/>
</g>
<!-- Node20 -->
<g id="node20" class="node">
<title>Node20</title>
<g id="a_node20"><a target="_parent" xlink:href="../../../linalg/docs/html/DynamicEigenMatrix_8hpp.html.html" xlink:title=" ">
<polygon fill="white" stroke="black" points="1668,-6 1668,-36 1811,-36 1811,-6 1668,-6"/>
<text text-anchor="start" x="1676" y="-24" font-family="Helvetica,sans-Serif" font-size="10.00">packages/matrix/inc</text>
<text text-anchor="middle" x="1739.5" y="-13" font-family="Helvetica,sans-Serif" font-size="10.00">/DynamicEigenMatrix.hpp</text>
</a>
</g>
</g>
<!-- Node14&#45;&gt;Node20 -->
<g id="edge21" class="edge">
<title>Node14&#45;&gt;Node20</title>
<path fill="none" stroke="midnightblue" d="M1328.9,-83.9C1336.01,-81.66 1343.43,-79.57 1350.5,-78 1485.46,-47.98 1523.48,-66.82 1659.5,-42 1665.27,-40.95 1671.25,-39.72 1677.22,-38.4"/>
<polygon fill="midnightblue" stroke="midnightblue" points="1678.25,-41.75 1687.21,-36.1 1676.68,-34.93 1678.25,-41.75"/>
</g>
<!-- Node21 -->
<g id="node21" class="node">
<title>Node21</title>
<g id="a_node21"><a target="_parent" xlink:href="../../../linalg/docs/html/SparseEigenMatrix_8hpp.html.html" xlink:title=" ">
<polygon fill="white" stroke="black" points="1829.5,-6 1829.5,-36 1961.5,-36 1961.5,-6 1829.5,-6"/>
<text text-anchor="start" x="1837.5" y="-24" font-family="Helvetica,sans-Serif" font-size="10.00">packages/matrix/inc</text>
<text text-anchor="middle" x="1895.5" y="-13" font-family="Helvetica,sans-Serif" font-size="10.00">/SparseEigenMatrix.hpp</text>
</a>
</g>
</g>
<!-- Node14&#45;&gt;Node21 -->
<g id="edge22" class="edge">
<title>Node14&#45;&gt;Node21</title>
<path fill="none" stroke="midnightblue" d="M1327.89,-83.97C1335.29,-81.64 1343.07,-79.5 1350.5,-78 1555.86,-36.56 1613.97,-77.14 1820.5,-42 1826.29,-41.02 1832.28,-39.79 1838.23,-38.43"/>
<polygon fill="midnightblue" stroke="midnightblue" points="1839.28,-41.77 1848.18,-36.03 1837.64,-34.97 1839.28,-41.77"/>
</g>
<!-- Node22 -->
<g id="node22" class="node">
<title>Node22</title>
<g id="a_node22"><a xlink:title=" ">
<polygon fill="white" stroke="#bfbfbf" points="1979.5,-11.5 1979.5,-30.5 2021.5,-30.5 2021.5,-11.5 1979.5,-11.5"/>
<text text-anchor="middle" x="2000.5" y="-18.5" font-family="Helvetica,sans-Serif" font-size="10.00">array</text>
</a>
</g>
</g>
<!-- Node14&#45;&gt;Node22 -->
<g id="edge23" class="edge">
<title>Node14&#45;&gt;Node22</title>
<path fill="none" stroke="midnightblue" d="M1327.54,-83.97C1335.05,-81.6 1342.95,-79.45 1350.5,-78 1486.03,-51.95 1839.63,-85.81 1970.5,-42 1974.53,-40.65 1978.52,-38.62 1982.23,-36.35"/>
<polygon fill="midnightblue" stroke="midnightblue" points="1984.44,-39.07 1990.67,-30.5 1980.45,-33.32 1984.44,-39.07"/>
</g>
<!-- Node23 -->
<g id="node23" class="node">
<title>Node23</title>
<g id="a_node23"><a xlink:title=" ">
<polygon fill="white" stroke="#bfbfbf" points="2040,-11.5 2040,-30.5 2099,-30.5 2099,-11.5 2040,-11.5"/>
<text text-anchor="middle" x="2069.5" y="-18.5" font-family="Helvetica,sans-Serif" font-size="10.00">complex</text>
</a>
</g>
</g>
<!-- Node14&#45;&gt;Node23 -->
<g id="edge24" class="edge">
<title>Node14&#45;&gt;Node23</title>
<path fill="none" stroke="midnightblue" d="M1327.54,-83.94C1335.04,-81.58 1342.95,-79.43 1350.5,-78 1647.85,-21.64 1738.29,-120.79 2030.5,-42 2036.19,-40.46 2042.01,-38.03 2047.36,-35.37"/>
<polygon fill="midnightblue" stroke="midnightblue" points="2049.22,-38.35 2056.35,-30.51 2045.89,-32.19 2049.22,-38.35"/>
</g>
</g>
</svg>
        <g id="navigator" transform="translate(0 0)" fill="#404254">
                <rect fill="#f2f5e9" fill-opacity="0.5" stroke="#606060" stroke-width=".5" x="0" y="0" width="60" height="60"/>
                <use id="zoomplus" xlink:href="#zoomPlus" x="17" y="9" onmousedown="handleZoom(evt,'in')"/>
                <use id="zoomminus" xlink:href="#zoomMin" x="42" y="9" onmousedown="handleZoom(evt,'out')"/>
                <use id="reset" xlink:href="#resetDef" x="30" y="36" onmousedown="handleReset()"/>
                <g id="arrowUp" xlink:href="#dirArrow" transform="translate(30 24)" onmousedown="handlePan(0,-1)">
                  <use xlink:href="#rim" fill="#404040">
                        <set attributeName="fill" to="#808080" begin="arrowUp.mouseover" end="arrowUp.mouseout"/>
                  </use>
                  <path fill="none" stroke="white" stroke-width="1.5" d="M0,-3.0v7 M-2.5,-0.5L0,-3.0L2.5,-0.5"/>
                </g>
                <g id="arrowRight" xlink:href="#dirArrow" transform="rotate(90) translate(36 -43)" onmousedown="handlePan(1,0)">
                  <use xlink:href="#rim" fill="#404040">
                        <set attributeName="fill" to="#808080" begin="arrowRight.mouseover" end="arrowRight.mouseout"/>
                  </use>
                  <path fill="none" stroke="white" stroke-width="1.5" d="M0,-3.0v7 M-2.5,-0.5L0,-3.0L2.5,-0.5"/>
                </g>
                <g id="arrowDown" xlink:href="#dirArrow" transform="rotate(180) translate(-30 -48)" onmousedown="handlePan(0,1)">
                  <use xlink:href="#rim" fill="#404040">
                        <set attributeName="fill" to="#808080" begin="arrowDown.mouseover" end="arrowDown.mouseout"/>
                  </use>
                  <path fill="none" stroke="white" stroke-width="1.5" d="M0,-3.0v7 M-2.5,-0.5L0,-3.0L2.5,-0.5"/>
                </g>
                <g id="arrowLeft" xlink:href="#dirArrow" transform="rotate(270) translate(-36 17)" onmousedown="handlePan(-1,0)">
                  <use xlink:href="#rim" fill="#404040">
                        <set attributeName="fill" to="#808080" begin="arrowLeft.mouseover" end="arrowLeft.mouseout"/>
                  </use>
                  <path fill="none" stroke="white" stroke-width="1.5" d="M0,-3.0v7 M-2.5,-0.5L0,-3.0L2.5,-0.5"/>
                </g>
        </g>
        <svg viewBox="0 0 15 15" width="100%" height="30px" preserveAspectRatio="xMaxYMin meet">
         <g id="arrow_out" transform="scale(0.3 0.3)">
          <a xlink:href="connectivity_8hpp__incl_org.svg" target="_base">
           <rect id="button" ry="5" rx="5" y="6" x="6" height="38" width="38"
                fill="#f2f5e9" fill-opacity="0.5" stroke="#606060" stroke-width="1.0"/>
           <path id="arrow"
             d="M 11.500037,31.436501 C 11.940474,20.09759 22.043105,11.32322 32.158766,21.979434 L 37.068811,17.246167 C 37.068811,17.246167 37.088388,32 37.088388,32 L 22.160133,31.978069 C 22.160133,31.978069 26.997745,27.140456 26.997745,27.140456 C 18.528582,18.264221 13.291696,25.230495 11.500037,31.436501 z"
             style="fill:#404040;"/>
          </a>
         </g>
        </svg>
</svg>
