<?xml version="1.0" encoding="UTF-8" standalone="no"?>
<!DOCTYPE svg PUBLIC "-//W3C//DTD SVG 1.1//EN"
 "http://www.w3.org/Graphics/SVG/1.1/DTD/svg11.dtd">
<!-- Generated by graphviz version 2.43.0 (0)
 -->
<!-- Title: Expression.hpp Pages: 1 -->
<svg width="1527pt" height="140pt"
 viewBox="0.00 0.00 1527.00 140.00" xmlns="http://www.w3.org/2000/svg" xmlns:xlink="http://www.w3.org/1999/xlink">
<g id="graph0" class="graph" transform="scale(1 1) rotate(0) translate(4 136)">
<title>Expression.hpp</title>
<polygon fill="white" stroke="transparent" points="-4,4 -4,-136 1523,-136 1523,4 -4,4"/>
<!-- Node1 -->
<g id="node1" class="node">
<title>Node1</title>
<g id="a_node1"><a xlink:title=" ">
<polygon fill="#bfbfbf" stroke="black" points="673.5,-112.5 673.5,-131.5 764.5,-131.5 764.5,-112.5 673.5,-112.5"/>
<text text-anchor="middle" x="719" y="-119.5" font-family="Helvetica,sans-Serif" font-size="10.00">Expression.hpp</text>
</a>
</g>
</g>
<!-- Node2 -->
<g id="node2" class="node">
<title>Node2</title>
<g id="a_node2"><a xlink:href="connectivity_8hpp.html" target="_top" xlink:title=" ">
<polygon fill="white" stroke="black" points="0,-56.5 0,-75.5 96,-75.5 96,-56.5 0,-56.5"/>
<text text-anchor="middle" x="48" y="-63.5" font-family="Helvetica,sans-Serif" font-size="10.00">connectivity.hpp</text>
</a>
</g>
</g>
<!-- Node1&#45;&gt;Node2 -->
<g id="edge1" class="edge">
<title>Node1&#45;&gt;Node2</title>
<path fill="none" stroke="midnightblue" d="M663.11,-118.41C555.19,-113.07 310.65,-99.35 106,-76 102.76,-75.63 99.42,-75.21 96.07,-74.76"/>
<polygon fill="midnightblue" stroke="midnightblue" points="662.97,-121.91 673.13,-118.9 663.31,-114.91 662.97,-121.91"/>
</g>
<!-- Node3 -->
<g id="node3" class="node">
<title>Node3</title>
<g id="a_node3"><a xlink:href="AffineTransform_8hpp.html" target="_top" xlink:title=" ">
<polygon fill="white" stroke="black" points="114.5,-56.5 114.5,-75.5 229.5,-75.5 229.5,-56.5 114.5,-56.5"/>
<text text-anchor="middle" x="172" y="-63.5" font-family="Helvetica,sans-Serif" font-size="10.00">AffineTransform.hpp</text>
</a>
</g>
</g>
<!-- Node1&#45;&gt;Node3 -->
<g id="edge2" class="edge">
<title>Node1&#45;&gt;Node3</title>
<path fill="none" stroke="midnightblue" d="M663.06,-116.49C573.45,-109.09 392.19,-93.46 239,-76 235.97,-75.65 232.86,-75.29 229.73,-74.9"/>
<polygon fill="midnightblue" stroke="midnightblue" points="663.02,-120 673.27,-117.33 663.59,-113.02 663.02,-120"/>
</g>
<!-- Node4 -->
<g id="node4" class="node">
<title>Node4</title>
<g id="a_node4"><a xlink:href="AnsatzSpace_8hpp.html" target="_top" xlink:title=" ">
<polygon fill="white" stroke="black" points="248,-56.5 248,-75.5 348,-75.5 348,-56.5 248,-56.5"/>
<text text-anchor="middle" x="298" y="-63.5" font-family="Helvetica,sans-Serif" font-size="10.00">AnsatzSpace.hpp</text>
</a>
</g>
</g>
<!-- Node1&#45;&gt;Node4 -->
<g id="edge3" class="edge">
<title>Node1&#45;&gt;Node4</title>
<path fill="none" stroke="midnightblue" d="M663.3,-114.49C592.34,-106.1 465.95,-90.82 358,-76 354.77,-75.56 351.43,-75.09 348.08,-74.61"/>
<polygon fill="midnightblue" stroke="midnightblue" points="663.02,-117.98 673.36,-115.68 663.84,-111.03 663.02,-117.98"/>
</g>
<!-- Node5 -->
<g id="node5" class="node">
<title>Node5</title>
<g id="a_node5"><a xlink:href="CartesianProduct_8hpp.html" target="_top" xlink:title=" ">
<polygon fill="white" stroke="black" points="366.5,-56.5 366.5,-75.5 487.5,-75.5 487.5,-56.5 366.5,-56.5"/>
<text text-anchor="middle" x="427" y="-63.5" font-family="Helvetica,sans-Serif" font-size="10.00">CartesianProduct.hpp</text>
</a>
</g>
</g>
<!-- Node1&#45;&gt;Node5 -->
<g id="edge4" class="edge">
<title>Node1&#45;&gt;Node5</title>
<path fill="none" stroke="midnightblue" d="M663.43,-110.72C608.33,-100.53 524.88,-85.1 473.27,-75.56"/>
<polygon fill="midnightblue" stroke="midnightblue" points="662.91,-114.19 673.38,-112.56 664.18,-107.3 662.91,-114.19"/>
</g>
<!-- Node6 -->
<g id="node6" class="node">
<title>Node6</title>
<g id="a_node6"><a xlink:href="IndentityTransform_8hpp.html" target="_top" xlink:title=" ">
<polygon fill="white" stroke="black" points="506,-56.5 506,-75.5 636,-75.5 636,-56.5 506,-56.5"/>
<text text-anchor="middle" x="571" y="-63.5" font-family="Helvetica,sans-Serif" font-size="10.00">IndentityTransform.hpp</text>
</a>
</g>
</g>
<!-- Node1&#45;&gt;Node6 -->
<g id="edge5" class="edge">
<title>Node1&#45;&gt;Node6</title>
<path fill="none" stroke="midnightblue" d="M685.85,-108.91C658.03,-98.75 618.98,-84.51 594.34,-75.52"/>
<polygon fill="midnightblue" stroke="midnightblue" points="684.96,-112.3 695.55,-112.44 687.35,-105.73 684.96,-112.3"/>
</g>
<!-- Node7 -->
<g id="node7" class="node">
<title>Node7</title>
<g id="a_node7"><a xlink:href="LambdaExpression_8hpp.html" target="_top" xlink:title=" ">
<polygon fill="white" stroke="black" points="654,-56.5 654,-75.5 784,-75.5 784,-56.5 654,-56.5"/>
<text text-anchor="middle" x="719" y="-63.5" font-family="Helvetica,sans-Serif" font-size="10.00">LambdaExpression.hpp</text>
</a>
</g>
</g>
<!-- Node1&#45;&gt;Node7 -->
<g id="edge6" class="edge">
<title>Node1&#45;&gt;Node7</title>
<path fill="none" stroke="midnightblue" d="M719,-101.8C719,-92.91 719,-82.78 719,-75.75"/>
<polygon fill="midnightblue" stroke="midnightblue" points="715.5,-102.08 719,-112.08 722.5,-102.08 715.5,-102.08"/>
</g>
<!-- Node8 -->
<g id="node8" class="node">
<title>Node8</title>
<g id="a_node8"><a xlink:href="OrthogonalScaleTransform_8hpp.html" target="_top" xlink:title=" ">
<polygon fill="white" stroke="black" points="802.5,-56.5 802.5,-75.5 969.5,-75.5 969.5,-56.5 802.5,-56.5"/>
<text text-anchor="middle" x="886" y="-63.5" font-family="Helvetica,sans-Serif" font-size="10.00">OrthogonalScaleTransform.hpp</text>
</a>
</g>
</g>
<!-- Node1&#45;&gt;Node8 -->
<g id="edge7" class="edge">
<title>Node1&#45;&gt;Node8</title>
<path fill="none" stroke="midnightblue" d="M755.17,-109.3C786.64,-99.13 831.49,-84.62 859.66,-75.52"/>
<polygon fill="midnightblue" stroke="midnightblue" points="753.9,-106.04 745.46,-112.44 756.05,-112.7 753.9,-106.04"/>
</g>
<!-- Node9 -->
<g id="node9" class="node">
<title>Node9</title>
<g id="a_node9"><a xlink:href="Polynomial_8hpp.html" target="_top" xlink:title=" ">
<polygon fill="white" stroke="black" points="988,-56.5 988,-75.5 1080,-75.5 1080,-56.5 988,-56.5"/>
<text text-anchor="middle" x="1034" y="-63.5" font-family="Helvetica,sans-Serif" font-size="10.00">Polynomial.hpp</text>
</a>
</g>
</g>
<!-- Node1&#45;&gt;Node9 -->
<g id="edge8" class="edge">
<title>Node1&#45;&gt;Node9</title>
<path fill="none" stroke="midnightblue" d="M774.97,-111.41C835.65,-101 931.37,-84.59 987.88,-74.91"/>
<polygon fill="midnightblue" stroke="midnightblue" points="774.07,-108.01 764.8,-113.15 775.25,-114.91 774.07,-108.01"/>
</g>
<!-- Node11 -->
<g id="node11" class="node">
<title>Node11</title>
<g id="a_node11"><a xlink:href="ProjectiveTransform_8hpp.html" target="_top" xlink:title=" ">
<polygon fill="white" stroke="black" points="1098.5,-56.5 1098.5,-75.5 1233.5,-75.5 1233.5,-56.5 1098.5,-56.5"/>
<text text-anchor="middle" x="1166" y="-63.5" font-family="Helvetica,sans-Serif" font-size="10.00">ProjectiveTransform.hpp</text>
</a>
</g>
</g>
<!-- Node1&#45;&gt;Node11 -->
<g id="edge10" class="edge">
<title>Node1&#45;&gt;Node11</title>
<path fill="none" stroke="midnightblue" d="M774.87,-114.25C856.93,-104.34 1009.87,-85.86 1098.23,-75.19"/>
<polygon fill="midnightblue" stroke="midnightblue" points="774.24,-110.8 764.74,-115.47 775.08,-117.75 774.24,-110.8"/>
</g>
<!-- Node12 -->
<g id="node12" class="node">
<title>Node12</title>
<g id="a_node12"><a xlink:href="ScaleTranslateTransform_8hpp.html" target="_top" xlink:title=" ">
<polygon fill="white" stroke="black" points="1251.5,-56.5 1251.5,-75.5 1408.5,-75.5 1408.5,-56.5 1251.5,-56.5"/>
<text text-anchor="middle" x="1330" y="-63.5" font-family="Helvetica,sans-Serif" font-size="10.00">ScaleTranslateTransform.hpp</text>
</a>
</g>
</g>
<!-- Node1&#45;&gt;Node12 -->
<g id="edge11" class="edge">
<title>Node1&#45;&gt;Node12</title>
<path fill="none" stroke="midnightblue" d="M774.62,-116.54C870.34,-108.8 1072.41,-92.15 1243,-76 1245.72,-75.74 1248.49,-75.48 1251.29,-75.2"/>
<polygon fill="midnightblue" stroke="midnightblue" points="774.27,-113.06 764.58,-117.35 774.83,-120.04 774.27,-113.06"/>
</g>
<!-- Node13 -->
<g id="node13" class="node">
<title>Node13</title>
<g id="a_node13"><a xlink:href="Quadrature_8hpp.html" target="_top" xlink:title=" ">
<polygon fill="white" stroke="black" points="1427,-56.5 1427,-75.5 1519,-75.5 1519,-56.5 1427,-56.5"/>
<text text-anchor="middle" x="1473" y="-63.5" font-family="Helvetica,sans-Serif" font-size="10.00">Quadrature.hpp</text>
</a>
</g>
</g>
<!-- Node1&#45;&gt;Node13 -->
<g id="edge12" class="edge">
<title>Node1&#45;&gt;Node13</title>
<path fill="none" stroke="midnightblue" d="M774.81,-119.26C893.49,-115.16 1179.61,-103.11 1418,-76 1420.88,-75.67 1423.85,-75.3 1426.83,-74.89"/>
<polygon fill="midnightblue" stroke="midnightblue" points="774.4,-115.78 764.52,-119.61 774.64,-122.77 774.4,-115.78"/>
</g>
<!-- Node10 -->
<g id="node10" class="node">
<title>Node10</title>
<g id="a_node10"><a xlink:href="LagrangePolynomial_8hpp.html" target="_top" xlink:title=" ">
<polygon fill="white" stroke="black" points="965.5,-0.5 965.5,-19.5 1102.5,-19.5 1102.5,-0.5 965.5,-0.5"/>
<text text-anchor="middle" x="1034" y="-7.5" font-family="Helvetica,sans-Serif" font-size="10.00">LagrangePolynomial.hpp</text>
</a>
</g>
</g>
<!-- Node9&#45;&gt;Node10 -->
<g id="edge9" class="edge">
<title>Node9&#45;&gt;Node10</title>
<path fill="none" stroke="midnightblue" d="M1034,-45.8C1034,-36.91 1034,-26.78 1034,-19.75"/>
<polygon fill="midnightblue" stroke="midnightblue" points="1030.5,-46.08 1034,-56.08 1037.5,-46.08 1030.5,-46.08"/>
</g>
</g>
</svg>
