<?xml version="1.0" encoding="UTF-8" standalone="no"?>
<!DOCTYPE svg PUBLIC "-//W3C//DTD SVG 1.1//EN"
 "http://www.w3.org/Graphics/SVG/1.1/DTD/svg11.dtd">
<!-- Generated by graphviz version 2.43.0 (0)
 -->
<!-- Title: Expression.hpp Pages: 1 -->
<!--zoomable 140 -->
<svg id="main" version="1.1" xmlns="http://www.w3.org/2000/svg" xmlns:xlink="http://www.w3.org/1999/xlink" xml:space="preserve" onload="init(evt)">
<style type="text/css"><![CDATA[
.edge:hover path { stroke: red; }
.edge:hover polygon { stroke: red; fill: red; }
]]></style>
<script type="text/javascript"><![CDATA[
var edges = document.getElementsByTagName('g');
if (edges && edges.length) {
  for (var i=0;i<edges.length;i++) {
    if (edges[i].id.substr(0,4)=='edge') {
      edges[i].setAttribute('class','edge');
    }
  }
}
]]></script>
        <defs>
                <circle id="rim" cx="0" cy="0" r="7"/>
                <circle id="rim2" cx="0" cy="0" r="3.5"/>
                <g id="zoomPlus">
                        <use xlink:href="#rim" fill="#404040">
                                <set attributeName="fill" to="#808080" begin="zoomplus.mouseover" end="zoomplus.mouseout"/>
                        </use>
                        <path d="M-4,0h8M0,-4v8" fill="none" stroke="white" stroke-width="1.5" pointer-events="none"/>
                </g>
                <g id="zoomMin">
                        <use xlink:href="#rim" fill="#404040">
                                <set attributeName="fill" to="#808080" begin="zoomminus.mouseover" end="zoomminus.mouseout"/>
                        </use>
                        <path d="M-4,0h8" fill="none" stroke="white" stroke-width="1.5" pointer-events="none"/>
                </g>
                <g id="dirArrow">
                        <path fill="none" stroke="white" stroke-width="1.5" d="M0,-3.0v7 M-2.5,-0.5L0,-3.0L2.5,-0.5"/>
                </g>
               <g id="resetDef">
                       <use xlink:href="#rim2" fill="#404040">
                               <set attributeName="fill" to="#808080" begin="reset.mouseover" end="reset.mouseout"/>
                       </use>
               </g>
        </defs>

<script type="text/javascript">
var viewWidth = 1562;
var viewHeight = 140;
var sectionId = 'dynsection-1';
</script>
<script xlink:href="svgpan.js"/>
<svg id="graph" class="graph">
<g id="viewport">
<title>Expression.hpp</title>
<polygon fill="white" stroke="transparent" points="-4,4 -4,-136 1557.5,-136 1557.5,4 -4,4"/>
<!-- Node1 -->
<g id="node1" class="node">
<title>Node1</title>
<g id="a_node1"><a xlink:title=" ">
<polygon fill="#bfbfbf" stroke="black" points="634,-112.5 634,-131.5 725,-131.5 725,-112.5 634,-112.5"/>
<text text-anchor="middle" x="679.5" y="-119.5" font-family="Helvetica,sans-Serif" font-size="10.00">Expression.hpp</text>
</a>
</g>
</g>
<!-- Node2 -->
<g id="node2" class="node">
<title>Node2</title>
<g id="a_node2"><a xlink:href="Assembler_8hpp.html" target="_top" xlink:title=" ">
<polygon fill="white" stroke="black" points="0,-0.5 0,-19.5 89,-19.5 89,-0.5 0,-0.5"/>
<text text-anchor="middle" x="44.5" y="-7.5" font-family="Helvetica,sans-Serif" font-size="10.00">Assembler.hpp</text>
</a>
</g>
</g>
<!-- Node1&#45;&gt;Node2 -->
<g id="edge1" class="edge">
<title>Node1&#45;&gt;Node2</title>
<path fill="none" stroke="midnightblue" d="M623.42,-121.41C472.42,-121.93 65.89,-119.26 25.5,-76 10.74,-60.19 27.01,-33.53 37.33,-19.78"/>
<polygon fill="midnightblue" stroke="midnightblue" points="623.86,-124.91 633.84,-121.37 623.83,-117.91 623.86,-124.91"/>
</g>
<!-- Node3 -->
<g id="node3" class="node">
<title>Node3</title>
<g id="a_node3"><a xlink:href="connectivity_8hpp.html" target="_top" xlink:title=" ">
<polygon fill="white" stroke="black" points="34.5,-56.5 34.5,-75.5 130.5,-75.5 130.5,-56.5 34.5,-56.5"/>
<text text-anchor="middle" x="82.5" y="-63.5" font-family="Helvetica,sans-Serif" font-size="10.00">connectivity.hpp</text>
</a>
</g>
</g>
<!-- Node1&#45;&gt;Node3 -->
<g id="edge2" class="edge">
<title>Node1&#45;&gt;Node3</title>
<path fill="none" stroke="midnightblue" d="M623.89,-117.72C525.83,-111.63 315.86,-97.24 139.5,-76 136.62,-75.65 133.65,-75.27 130.67,-74.86"/>
<polygon fill="midnightblue" stroke="midnightblue" points="623.67,-121.21 633.87,-118.33 624.11,-114.22 623.67,-121.21"/>
</g>
<!-- Node4 -->
<g id="node4" class="node">
<title>Node4</title>
<g id="a_node4"><a xlink:href="AffineTransform_8hpp.html" target="_top" xlink:title=" ">
<polygon fill="white" stroke="black" points="149,-56.5 149,-75.5 264,-75.5 264,-56.5 149,-56.5"/>
<text text-anchor="middle" x="206.5" y="-63.5" font-family="Helvetica,sans-Serif" font-size="10.00">AffineTransform.hpp</text>
</a>
</g>
</g>
<!-- Node1&#45;&gt;Node4 -->
<g id="edge4" class="edge">
<title>Node1&#45;&gt;Node4</title>
<path fill="none" stroke="midnightblue" d="M623.67,-115.23C545.36,-107.03 398.46,-91.32 273.5,-76 270.47,-75.63 267.37,-75.24 264.23,-74.84"/>
<polygon fill="midnightblue" stroke="midnightblue" points="623.48,-118.72 633.79,-116.28 624.21,-111.76 623.48,-118.72"/>
</g>
<!-- Node5 -->
<g id="node5" class="node">
<title>Node5</title>
<g id="a_node5"><a xlink:href="AnsatzSpace_8hpp.html" target="_top" xlink:title=" ">
<polygon fill="white" stroke="black" points="282.5,-56.5 282.5,-75.5 382.5,-75.5 382.5,-56.5 282.5,-56.5"/>
<text text-anchor="middle" x="332.5" y="-63.5" font-family="Helvetica,sans-Serif" font-size="10.00">AnsatzSpace.hpp</text>
</a>
</g>
</g>
<!-- Node1&#45;&gt;Node5 -->
<g id="edge5" class="edge">
<title>Node1&#45;&gt;Node5</title>
<path fill="none" stroke="midnightblue" d="M623.88,-112.34C557.24,-101.97 446.59,-84.76 382.54,-74.79"/>
<polygon fill="midnightblue" stroke="midnightblue" points="623.36,-115.81 633.78,-113.88 624.44,-108.89 623.36,-115.81"/>
</g>
<!-- Node6 -->
<g id="node6" class="node">
<title>Node6</title>
<g id="a_node6"><a xlink:href="CartesianProduct_8hpp.html" target="_top" xlink:title=" ">
<polygon fill="white" stroke="black" points="401,-56.5 401,-75.5 522,-75.5 522,-56.5 401,-56.5"/>
<text text-anchor="middle" x="461.5" y="-63.5" font-family="Helvetica,sans-Serif" font-size="10.00">CartesianProduct.hpp</text>
</a>
</g>
</g>
<!-- Node1&#45;&gt;Node6 -->
<g id="edge6" class="edge">
<title>Node1&#45;&gt;Node6</title>
<path fill="none" stroke="midnightblue" d="M635.19,-110.02C594.01,-99.82 533.53,-84.84 495.88,-75.52"/>
<polygon fill="midnightblue" stroke="midnightblue" points="634.41,-113.44 644.96,-112.44 636.09,-106.64 634.41,-113.44"/>
</g>
<!-- Node7 -->
<g id="node7" class="node">
<title>Node7</title>
<g id="a_node7"><a xlink:href="IndentityTransform_8hpp.html" target="_top" xlink:title=" ">
<polygon fill="white" stroke="black" points="540.5,-56.5 540.5,-75.5 670.5,-75.5 670.5,-56.5 540.5,-56.5"/>
<text text-anchor="middle" x="605.5" y="-63.5" font-family="Helvetica,sans-Serif" font-size="10.00">IndentityTransform.hpp</text>
</a>
</g>
</g>
<!-- Node1&#45;&gt;Node7 -->
<g id="edge7" class="edge">
<title>Node1&#45;&gt;Node7</title>
<path fill="none" stroke="midnightblue" d="M659.47,-106.38C646.09,-96.62 628.94,-84.11 617.61,-75.83"/>
<polygon fill="midnightblue" stroke="midnightblue" points="657.47,-109.26 667.61,-112.32 661.6,-103.6 657.47,-109.26"/>
</g>
<!-- Node8 -->
<g id="node8" class="node">
<title>Node8</title>
<g id="a_node8"><a xlink:href="LambdaExpression_8hpp.html" target="_top" xlink:title=" ">
<polygon fill="white" stroke="black" points="688.5,-56.5 688.5,-75.5 818.5,-75.5 818.5,-56.5 688.5,-56.5"/>
<text text-anchor="middle" x="753.5" y="-63.5" font-family="Helvetica,sans-Serif" font-size="10.00">LambdaExpression.hpp</text>
</a>
</g>
</g>
<!-- Node1&#45;&gt;Node8 -->
<g id="edge8" class="edge">
<title>Node1&#45;&gt;Node8</title>
<path fill="none" stroke="midnightblue" d="M699.53,-106.38C712.91,-96.62 730.06,-84.11 741.39,-75.83"/>
<polygon fill="midnightblue" stroke="midnightblue" points="697.4,-103.6 691.39,-112.32 701.53,-109.26 697.4,-103.6"/>
</g>
<!-- Node9 -->
<g id="node9" class="node">
<title>Node9</title>
<g id="a_node9"><a xlink:href="OrthogonalScaleTransform_8hpp.html" target="_top" xlink:title=" ">
<polygon fill="white" stroke="black" points="837,-56.5 837,-75.5 1004,-75.5 1004,-56.5 837,-56.5"/>
<text text-anchor="middle" x="920.5" y="-63.5" font-family="Helvetica,sans-Serif" font-size="10.00">OrthogonalScaleTransform.hpp</text>
</a>
</g>
</g>
<!-- Node1&#45;&gt;Node9 -->
<g id="edge9" class="edge">
<title>Node1&#45;&gt;Node9</title>
<path fill="none" stroke="midnightblue" d="M727.62,-110.22C773.16,-100.01 840.61,-84.9 882.49,-75.52"/>
<polygon fill="midnightblue" stroke="midnightblue" points="726.68,-106.84 717.69,-112.44 728.21,-113.67 726.68,-106.84"/>
</g>
<!-- Node10 -->
<g id="node10" class="node">
<title>Node10</title>
<g id="a_node10"><a xlink:href="Polynomial_8hpp.html" target="_top" xlink:title=" ">
<polygon fill="white" stroke="black" points="1022.5,-56.5 1022.5,-75.5 1114.5,-75.5 1114.5,-56.5 1022.5,-56.5"/>
<text text-anchor="middle" x="1068.5" y="-63.5" font-family="Helvetica,sans-Serif" font-size="10.00">Polynomial.hpp</text>
</a>
</g>
</g>
<!-- Node1&#45;&gt;Node10 -->
<g id="edge10" class="edge">
<title>Node1&#45;&gt;Node10</title>
<path fill="none" stroke="midnightblue" d="M735.27,-113.9C801.46,-105.37 915.13,-90.4 1012.5,-76 1015.71,-75.52 1019.03,-75.02 1022.37,-74.51"/>
<polygon fill="midnightblue" stroke="midnightblue" points="734.54,-110.46 725.06,-115.21 735.43,-117.41 734.54,-110.46"/>
</g>
<!-- Node12 -->
<g id="node12" class="node">
<title>Node12</title>
<g id="a_node12"><a xlink:href="ProjectiveTransform_8hpp.html" target="_top" xlink:title=" ">
<polygon fill="white" stroke="black" points="1133,-56.5 1133,-75.5 1268,-75.5 1268,-56.5 1133,-56.5"/>
<text text-anchor="middle" x="1200.5" y="-63.5" font-family="Helvetica,sans-Serif" font-size="10.00">ProjectiveTransform.hpp</text>
</a>
</g>
</g>
<!-- Node1&#45;&gt;Node12 -->
<g id="edge12" class="edge">
<title>Node1&#45;&gt;Node12</title>
<path fill="none" stroke="midnightblue" d="M735.33,-115.62C819.51,-107.44 983.94,-91.23 1123.5,-76 1126.58,-75.66 1129.72,-75.32 1132.9,-74.96"/>
<polygon fill="midnightblue" stroke="midnightblue" points="734.84,-112.15 725.22,-116.6 735.52,-119.12 734.84,-112.15"/>
</g>
<!-- Node13 -->
<g id="node13" class="node">
<title>Node13</title>
<g id="a_node13"><a xlink:href="ScaleTranslateTransform_8hpp.html" target="_top" xlink:title=" ">
<polygon fill="white" stroke="black" points="1286,-56.5 1286,-75.5 1443,-75.5 1443,-56.5 1286,-56.5"/>
<text text-anchor="middle" x="1364.5" y="-63.5" font-family="Helvetica,sans-Serif" font-size="10.00">ScaleTranslateTransform.hpp</text>
</a>
</g>
</g>
<!-- Node1&#45;&gt;Node13 -->
<g id="edge13" class="edge">
<title>Node1&#45;&gt;Node13</title>
<path fill="none" stroke="midnightblue" d="M735.44,-117.32C841.32,-110.22 1078.29,-93.8 1277.5,-76 1280.22,-75.76 1282.99,-75.5 1285.79,-75.24"/>
<polygon fill="midnightblue" stroke="midnightblue" points="735.04,-113.83 725.3,-117.99 735.51,-120.82 735.04,-113.83"/>
</g>
<!-- Node14 -->
<g id="node14" class="node">
<title>Node14</title>
<g id="a_node14"><a xlink:href="Quadrature_8hpp.html" target="_top" xlink:title=" ">
<polygon fill="white" stroke="black" points="1461.5,-56.5 1461.5,-75.5 1553.5,-75.5 1553.5,-56.5 1461.5,-56.5"/>
<text text-anchor="middle" x="1507.5" y="-63.5" font-family="Helvetica,sans-Serif" font-size="10.00">Quadrature.hpp</text>
</a>
</g>
</g>
<!-- Node1&#45;&gt;Node14 -->
<g id="edge14" class="edge">
<title>Node1&#45;&gt;Node14</title>
<path fill="none" stroke="midnightblue" d="M735.69,-119.73C863.39,-116.41 1185.11,-105.58 1452.5,-76 1455.39,-75.68 1458.35,-75.31 1461.33,-74.91"/>
<polygon fill="midnightblue" stroke="midnightblue" points="735.29,-116.24 725.38,-119.99 735.47,-123.24 735.29,-116.24"/>
</g>
<!-- Node3&#45;&gt;Node2 -->
<g id="edge3" class="edge">
<title>Node3&#45;&gt;Node2</title>
<path fill="none" stroke="midnightblue" d="M70.44,-47.86C63.86,-38.5 55.99,-27.33 50.66,-19.75"/>
<polygon fill="midnightblue" stroke="midnightblue" points="67.61,-49.92 76.23,-56.08 73.33,-45.89 67.61,-49.92"/>
</g>
<!-- Node11 -->
<g id="node11" class="node">
<title>Node11</title>
<g id="a_node11"><a xlink:href="LagrangePolynomial_8hpp.html" target="_top" xlink:title=" ">
<polygon fill="white" stroke="black" points="1000,-0.5 1000,-19.5 1137,-19.5 1137,-0.5 1000,-0.5"/>
<text text-anchor="middle" x="1068.5" y="-7.5" font-family="Helvetica,sans-Serif" font-size="10.00">LagrangePolynomial.hpp</text>
</a>
</g>
</g>
<!-- Node10&#45;&gt;Node11 -->
<g id="edge11" class="edge">
<title>Node10&#45;&gt;Node11</title>
<path fill="none" stroke="midnightblue" d="M1068.5,-45.8C1068.5,-36.91 1068.5,-26.78 1068.5,-19.75"/>
<polygon fill="midnightblue" stroke="midnightblue" points="1065,-46.08 1068.5,-56.08 1072,-46.08 1065,-46.08"/>
</g>
</g>
</svg>
        <g id="navigator" transform="translate(0 0)" fill="#404254">
                <rect fill="#f2f5e9" fill-opacity="0.5" stroke="#606060" stroke-width=".5" x="0" y="0" width="60" height="60"/>
                <use id="zoomplus" xlink:href="#zoomPlus" x="17" y="9" onmousedown="handleZoom(evt,'in')"/>
                <use id="zoomminus" xlink:href="#zoomMin" x="42" y="9" onmousedown="handleZoom(evt,'out')"/>
                <use id="reset" xlink:href="#resetDef" x="30" y="36" onmousedown="handleReset()"/>
                <g id="arrowUp" xlink:href="#dirArrow" transform="translate(30 24)" onmousedown="handlePan(0,-1)">
                  <use xlink:href="#rim" fill="#404040">
                        <set attributeName="fill" to="#808080" begin="arrowUp.mouseover" end="arrowUp.mouseout"/>
                  </use>
                  <path fill="none" stroke="white" stroke-width="1.5" d="M0,-3.0v7 M-2.5,-0.5L0,-3.0L2.5,-0.5"/>
                </g>
                <g id="arrowRight" xlink:href="#dirArrow" transform="rotate(90) translate(36 -43)" onmousedown="handlePan(1,0)">
                  <use xlink:href="#rim" fill="#404040">
                        <set attributeName="fill" to="#808080" begin="arrowRight.mouseover" end="arrowRight.mouseout"/>
                  </use>
                  <path fill="none" stroke="white" stroke-width="1.5" d="M0,-3.0v7 M-2.5,-0.5L0,-3.0L2.5,-0.5"/>
                </g>
                <g id="arrowDown" xlink:href="#dirArrow" transform="rotate(180) translate(-30 -48)" onmousedown="handlePan(0,1)">
                  <use xlink:href="#rim" fill="#404040">
                        <set attributeName="fill" to="#808080" begin="arrowDown.mouseover" end="arrowDown.mouseout"/>
                  </use>
                  <path fill="none" stroke="white" stroke-width="1.5" d="M0,-3.0v7 M-2.5,-0.5L0,-3.0L2.5,-0.5"/>
                </g>
                <g id="arrowLeft" xlink:href="#dirArrow" transform="rotate(270) translate(-36 17)" onmousedown="handlePan(-1,0)">
                  <use xlink:href="#rim" fill="#404040">
                        <set attributeName="fill" to="#808080" begin="arrowLeft.mouseover" end="arrowLeft.mouseout"/>
                  </use>
                  <path fill="none" stroke="white" stroke-width="1.5" d="M0,-3.0v7 M-2.5,-0.5L0,-3.0L2.5,-0.5"/>
                </g>
        </g>
        <svg viewBox="0 0 15 15" width="100%" height="30px" preserveAspectRatio="xMaxYMin meet">
         <g id="arrow_out" transform="scale(0.3 0.3)">
          <a xlink:href="Expression_8hpp__dep__incl_org.svg" target="_base">
           <rect id="button" ry="5" rx="5" y="6" x="6" height="38" width="38"
                fill="#f2f5e9" fill-opacity="0.5" stroke="#606060" stroke-width="1.0"/>
           <path id="arrow"
             d="M 11.500037,31.436501 C 11.940474,20.09759 22.043105,11.32322 32.158766,21.979434 L 37.068811,17.246167 C 37.068811,17.246167 37.088388,32 37.088388,32 L 22.160133,31.978069 C 22.160133,31.978069 26.997745,27.140456 26.997745,27.140456 C 18.528582,18.264221 13.291696,25.230495 11.500037,31.436501 z"
             style="fill:#404040;"/>
          </a>
         </g>
        </svg>
</svg>
