<?xml version="1.0" encoding="UTF-8" standalone="no"?>
<!DOCTYPE svg PUBLIC "-//W3C//DTD SVG 1.1//EN"
 "http://www.w3.org/Graphics/SVG/1.1/DTD/svg11.dtd">
<!-- Generated by graphviz version 2.43.0 (0)
 -->
<!-- Title: Graph.hpp Pages: 1 -->
<svg width="1094pt" height="106pt"
 viewBox="0.00 0.00 1094.00 106.00" xmlns="http://www.w3.org/2000/svg" xmlns:xlink="http://www.w3.org/1999/xlink">
<g id="graph0" class="graph" transform="scale(1 1) rotate(0) translate(4 102)">
<title>Graph.hpp</title>
<polygon fill="white" stroke="transparent" points="-4,4 -4,-102 1090,-102 1090,4 -4,4"/>
<!-- Node1 -->
<g id="node1" class="node">
<title>Node1</title>
<g id="a_node1"><a xlink:title=" ">
<polygon fill="#bfbfbf" stroke="black" points="544.5,-78.5 544.5,-97.5 611.5,-97.5 611.5,-78.5 544.5,-78.5"/>
<text text-anchor="middle" x="578" y="-85.5" font-family="Helvetica,sans-Serif" font-size="10.00">Graph.hpp</text>
</a>
</g>
</g>
<!-- Node2 -->
<g id="node2" class="node">
<title>Node2</title>
<g id="a_node2"><a xlink:title=" ">
<polygon fill="white" stroke="#bfbfbf" points="0,-11.5 0,-30.5 92,-30.5 92,-11.5 0,-11.5"/>
<text text-anchor="middle" x="46" y="-18.5" font-family="Helvetica,sans-Serif" font-size="10.00">tsl/robin_map.h</text>
</a>
</g>
</g>
<!-- Node1&#45;&gt;Node2 -->
<g id="edge1" class="edge">
<title>Node1&#45;&gt;Node2</title>
<path fill="none" stroke="midnightblue" d="M544.29,-86.75C465.64,-85.54 264.31,-78.76 101,-42 92.47,-40.08 83.47,-37.19 75.27,-34.2"/>
<polygon fill="midnightblue" stroke="midnightblue" points="76.34,-30.87 65.75,-30.57 73.84,-37.41 76.34,-30.87"/>
</g>
<!-- Node3 -->
<g id="node3" class="node">
<title>Node3</title>
<g id="a_node3"><a xlink:title=" ">
<polygon fill="white" stroke="#bfbfbf" points="110,-11.5 110,-30.5 196,-30.5 196,-11.5 110,-11.5"/>
<text text-anchor="middle" x="153" y="-18.5" font-family="Helvetica,sans-Serif" font-size="10.00">tsl/robin_set.h</text>
</a>
</g>
</g>
<!-- Node1&#45;&gt;Node3 -->
<g id="edge2" class="edge">
<title>Node1&#45;&gt;Node3</title>
<path fill="none" stroke="midnightblue" d="M544.32,-85.72C478.3,-82.6 327.64,-72.48 205,-42 197.17,-40.05 188.92,-37.25 181.35,-34.36"/>
<polygon fill="midnightblue" stroke="midnightblue" points="182.48,-31.04 171.9,-30.57 179.88,-37.54 182.48,-31.04"/>
</g>
<!-- Node4 -->
<g id="node4" class="node">
<title>Node4</title>
<g id="a_node4"><a target="_parent" xlink:href="../../../cieutils/docs/html/OptionalRef_8hpp.html.html" xlink:title=" ">
<polygon fill="white" stroke="black" points="214.5,-6 214.5,-36 345.5,-36 345.5,-6 214.5,-6"/>
<text text-anchor="start" x="222.5" y="-24" font-family="Helvetica,sans-Serif" font-size="10.00">packages/stl_extension</text>
<text text-anchor="middle" x="280" y="-13" font-family="Helvetica,sans-Serif" font-size="10.00">/inc/OptionalRef.hpp</text>
</a>
</g>
</g>
<!-- Node1&#45;&gt;Node4 -->
<g id="edge3" class="edge">
<title>Node1&#45;&gt;Node4</title>
<path fill="none" stroke="midnightblue" d="M544.45,-80.97C500.52,-72.92 421.18,-57.81 354,-42 349.39,-40.91 344.62,-39.74 339.84,-38.53"/>
<polygon fill="midnightblue" stroke="midnightblue" points="340.6,-35.11 330.04,-36 338.85,-41.89 340.6,-35.11"/>
</g>
<!-- Node5 -->
<g id="node5" class="node">
<title>Node5</title>
<g id="a_node5"><a target="_parent" xlink:href="../../../cieutils/docs/html/NoOpIterator_8hpp.html.html" xlink:title=" ">
<polygon fill="white" stroke="black" points="363.5,-6 363.5,-36 494.5,-36 494.5,-6 363.5,-6"/>
<text text-anchor="start" x="371.5" y="-24" font-family="Helvetica,sans-Serif" font-size="10.00">packages/stl_extension</text>
<text text-anchor="middle" x="429" y="-13" font-family="Helvetica,sans-Serif" font-size="10.00">/inc/NoOpIterator.hpp</text>
</a>
</g>
</g>
<!-- Node1&#45;&gt;Node5 -->
<g id="edge4" class="edge">
<title>Node1&#45;&gt;Node5</title>
<path fill="none" stroke="midnightblue" d="M558.21,-78.37C535.95,-68.66 499.17,-52.61 470.52,-40.11"/>
<polygon fill="midnightblue" stroke="midnightblue" points="471.72,-36.82 461.16,-36.03 468.92,-43.23 471.72,-36.82"/>
</g>
<!-- Node6 -->
<g id="node6" class="node">
<title>Node6</title>
<g id="a_node6"><a target="_parent" xlink:href="../../../cieutils/docs/html/StrongTypeDef_8hpp.html.html" xlink:title=" ">
<polygon fill="white" stroke="black" points="512.5,-6 512.5,-36 643.5,-36 643.5,-6 512.5,-6"/>
<text text-anchor="start" x="520.5" y="-24" font-family="Helvetica,sans-Serif" font-size="10.00">packages/stl_extension</text>
<text text-anchor="middle" x="578" y="-13" font-family="Helvetica,sans-Serif" font-size="10.00">/inc/StrongTypeDef.hpp</text>
</a>
</g>
</g>
<!-- Node1&#45;&gt;Node6 -->
<g id="edge5" class="edge">
<title>Node1&#45;&gt;Node6</title>
<path fill="none" stroke="midnightblue" d="M578,-78.23C578,-70.04 578,-57.42 578,-46.21"/>
<polygon fill="midnightblue" stroke="midnightblue" points="581.5,-46.09 578,-36.09 574.5,-46.09 581.5,-46.09"/>
</g>
<!-- Node7 -->
<g id="node7" class="node">
<title>Node7</title>
<g id="a_node7"><a target="_parent" xlink:href="../../../cieutils/docs/html/iterator__concepts_8hpp.html.html" xlink:title=" ">
<polygon fill="white" stroke="black" points="662,-0.5 662,-41.5 794,-41.5 794,-0.5 662,-0.5"/>
<text text-anchor="start" x="670" y="-29.5" font-family="Helvetica,sans-Serif" font-size="10.00">packages/compile_time</text>
<text text-anchor="start" x="670" y="-18.5" font-family="Helvetica,sans-Serif" font-size="10.00">/packages/concepts/inc</text>
<text text-anchor="middle" x="728" y="-7.5" font-family="Helvetica,sans-Serif" font-size="10.00">/iterator_concepts.hpp</text>
</a>
</g>
</g>
<!-- Node1&#45;&gt;Node7 -->
<g id="edge6" class="edge">
<title>Node1&#45;&gt;Node7</title>
<path fill="none" stroke="midnightblue" d="M597.92,-78.37C617.08,-70.06 646.94,-57.13 673.22,-45.74"/>
<polygon fill="midnightblue" stroke="midnightblue" points="674.93,-48.81 682.71,-41.63 672.14,-42.39 674.93,-48.81"/>
</g>
<!-- Node8 -->
<g id="node8" class="node">
<title>Node8</title>
<g id="a_node8"><a xlink:title=" ">
<polygon fill="white" stroke="#bfbfbf" points="812.5,-11.5 812.5,-30.5 881.5,-30.5 881.5,-11.5 812.5,-11.5"/>
<text text-anchor="middle" x="847" y="-18.5" font-family="Helvetica,sans-Serif" font-size="10.00">type_traits</text>
</a>
</g>
</g>
<!-- Node1&#45;&gt;Node8 -->
<g id="edge7" class="edge">
<title>Node1&#45;&gt;Node8</title>
<path fill="none" stroke="midnightblue" d="M611.78,-82.71C656.33,-76.5 736.84,-63.34 803,-42 809.04,-40.05 815.35,-37.51 821.24,-34.9"/>
<polygon fill="midnightblue" stroke="midnightblue" points="823.05,-37.91 830.64,-30.52 820.1,-31.57 823.05,-37.91"/>
</g>
<!-- Node9 -->
<g id="node9" class="node">
<title>Node9</title>
<g id="a_node9"><a xlink:title=" ">
<polygon fill="white" stroke="#bfbfbf" points="900,-11.5 900,-30.5 950,-30.5 950,-11.5 900,-11.5"/>
<text text-anchor="middle" x="925" y="-18.5" font-family="Helvetica,sans-Serif" font-size="10.00">ranges</text>
</a>
</g>
</g>
<!-- Node1&#45;&gt;Node9 -->
<g id="edge8" class="edge">
<title>Node1&#45;&gt;Node9</title>
<path fill="none" stroke="midnightblue" d="M611.9,-86.39C670.46,-84.41 793.6,-76.15 891,-42 895.48,-40.43 900.03,-38.24 904.29,-35.88"/>
<polygon fill="midnightblue" stroke="midnightblue" points="906.22,-38.8 912.97,-30.63 902.61,-32.81 906.22,-38.8"/>
</g>
<!-- Node10 -->
<g id="node10" class="node">
<title>Node10</title>
<g id="a_node10"><a xlink:title=" ">
<polygon fill="white" stroke="#bfbfbf" points="968,-6 968,-36 1086,-36 1086,-6 968,-6"/>
<text text-anchor="start" x="976" y="-24" font-family="Helvetica,sans-Serif" font-size="10.00">packages/graph/impl</text>
<text text-anchor="middle" x="1027" y="-13" font-family="Helvetica,sans-Serif" font-size="10.00">/Graph_impl.hpp</text>
</a>
</g>
</g>
<!-- Node1&#45;&gt;Node10 -->
<g id="edge9" class="edge">
<title>Node1&#45;&gt;Node10</title>
<path fill="none" stroke="midnightblue" d="M611.68,-84.94C678.49,-80.42 832.24,-67.93 959,-42 963.72,-41.03 968.6,-39.89 973.46,-38.66"/>
<polygon fill="midnightblue" stroke="midnightblue" points="974.62,-41.97 983.38,-36.01 972.81,-35.21 974.62,-41.97"/>
</g>
</g>
</svg>
