<?xml version="1.0" encoding="UTF-8" standalone="no"?>
<!DOCTYPE svg PUBLIC "-//W3C//DTD SVG 1.1//EN"
 "http://www.w3.org/Graphics/SVG/1.1/DTD/svg11.dtd">
<!-- Generated by graphviz version 2.43.0 (0)
 -->
<!-- Title: Graph.hpp Pages: 1 -->
<svg width="945pt" height="106pt"
 viewBox="0.00 0.00 945.00 106.00" xmlns="http://www.w3.org/2000/svg" xmlns:xlink="http://www.w3.org/1999/xlink">
<g id="graph0" class="graph" transform="scale(1 1) rotate(0) translate(4 102)">
<title>Graph.hpp</title>
<polygon fill="white" stroke="transparent" points="-4,4 -4,-102 941,-102 941,4 -4,4"/>
<!-- Node1 -->
<g id="node1" class="node">
<title>Node1</title>
<g id="a_node1"><a xlink:title=" ">
<polygon fill="#bfbfbf" stroke="black" points="470.5,-78.5 470.5,-97.5 537.5,-97.5 537.5,-78.5 470.5,-78.5"/>
<text text-anchor="middle" x="504" y="-85.5" font-family="Helvetica,sans-Serif" font-size="10.00">Graph.hpp</text>
</a>
</g>
</g>
<!-- Node2 -->
<g id="node2" class="node">
<title>Node2</title>
<g id="a_node2"><a xlink:title=" ">
<polygon fill="white" stroke="#bfbfbf" points="0,-11.5 0,-30.5 92,-30.5 92,-11.5 0,-11.5"/>
<text text-anchor="middle" x="46" y="-18.5" font-family="Helvetica,sans-Serif" font-size="10.00">tsl/robin_map.h</text>
</a>
</g>
</g>
<!-- Node1&#45;&gt;Node2 -->
<g id="edge1" class="edge">
<title>Node1&#45;&gt;Node2</title>
<path fill="none" stroke="midnightblue" d="M470.37,-85.94C400.63,-83.15 235.52,-73.5 101,-42 92.56,-40.02 83.64,-37.14 75.49,-34.18"/>
<polygon fill="midnightblue" stroke="midnightblue" points="76.61,-30.86 66.02,-30.58 74.13,-37.41 76.61,-30.86"/>
</g>
<!-- Node3 -->
<g id="node3" class="node">
<title>Node3</title>
<g id="a_node3"><a xlink:title=" ">
<polygon fill="white" stroke="#bfbfbf" points="110,-11.5 110,-30.5 196,-30.5 196,-11.5 110,-11.5"/>
<text text-anchor="middle" x="153" y="-18.5" font-family="Helvetica,sans-Serif" font-size="10.00">tsl/robin_set.h</text>
</a>
</g>
</g>
<!-- Node1&#45;&gt;Node3 -->
<g id="edge2" class="edge">
<title>Node1&#45;&gt;Node3</title>
<path fill="none" stroke="midnightblue" d="M470.33,-84.34C414.47,-79.39 299.4,-66.94 205,-42 197.33,-39.97 189.23,-37.19 181.77,-34.35"/>
<polygon fill="midnightblue" stroke="midnightblue" points="183.01,-31.07 172.42,-30.63 180.42,-37.58 183.01,-31.07"/>
</g>
<!-- Node4 -->
<g id="node4" class="node">
<title>Node4</title>
<g id="a_node4"><a target="_parent" xlink:href="../../../cieutils/docs/html/OptionalRef_8hpp.html.html" xlink:title=" ">
<polygon fill="white" stroke="black" points="214.5,-6 214.5,-36 345.5,-36 345.5,-6 214.5,-6"/>
<text text-anchor="start" x="222.5" y="-24" font-family="Helvetica,sans-Serif" font-size="10.00">packages/stl_extension</text>
<text text-anchor="middle" x="280" y="-13" font-family="Helvetica,sans-Serif" font-size="10.00">/inc/OptionalRef.hpp</text>
</a>
</g>
</g>
<!-- Node1&#45;&gt;Node4 -->
<g id="edge3" class="edge">
<title>Node1&#45;&gt;Node4</title>
<path fill="none" stroke="midnightblue" d="M474.25,-78.37C439.62,-68.32 381.61,-51.49 337.98,-38.82"/>
<polygon fill="midnightblue" stroke="midnightblue" points="338.92,-35.45 328.34,-36.03 336.97,-42.18 338.92,-35.45"/>
</g>
<!-- Node5 -->
<g id="node5" class="node">
<title>Node5</title>
<g id="a_node5"><a target="_parent" xlink:href="../../../cieutils/docs/html/NoOpIterator_8hpp.html.html" xlink:title=" ">
<polygon fill="white" stroke="black" points="363.5,-6 363.5,-36 494.5,-36 494.5,-6 363.5,-6"/>
<text text-anchor="start" x="371.5" y="-24" font-family="Helvetica,sans-Serif" font-size="10.00">packages/stl_extension</text>
<text text-anchor="middle" x="429" y="-13" font-family="Helvetica,sans-Serif" font-size="10.00">/inc/NoOpIterator.hpp</text>
</a>
</g>
</g>
<!-- Node1&#45;&gt;Node5 -->
<g id="edge4" class="edge">
<title>Node1&#45;&gt;Node5</title>
<path fill="none" stroke="midnightblue" d="M493.89,-78.23C483.46,-69.2 466.82,-54.77 453,-42.8"/>
<polygon fill="midnightblue" stroke="midnightblue" points="455.11,-39.99 445.26,-36.09 450.52,-45.28 455.11,-39.99"/>
</g>
<!-- Node6 -->
<g id="node6" class="node">
<title>Node6</title>
<g id="a_node6"><a target="_parent" xlink:href="../../../cieutils/docs/html/iterator__concepts_8hpp.html.html" xlink:title=" ">
<polygon fill="white" stroke="black" points="513,-0.5 513,-41.5 645,-41.5 645,-0.5 513,-0.5"/>
<text text-anchor="start" x="521" y="-29.5" font-family="Helvetica,sans-Serif" font-size="10.00">packages/compile_time</text>
<text text-anchor="start" x="521" y="-18.5" font-family="Helvetica,sans-Serif" font-size="10.00">/packages/concepts/inc</text>
<text text-anchor="middle" x="579" y="-7.5" font-family="Helvetica,sans-Serif" font-size="10.00">/iterator_concepts.hpp</text>
</a>
</g>
</g>
<!-- Node1&#45;&gt;Node6 -->
<g id="edge5" class="edge">
<title>Node1&#45;&gt;Node6</title>
<path fill="none" stroke="midnightblue" d="M514.11,-78.23C522.97,-70.56 536.31,-59 548.59,-48.36"/>
<polygon fill="midnightblue" stroke="midnightblue" points="551.19,-50.74 556.45,-41.54 546.6,-45.45 551.19,-50.74"/>
</g>
<!-- Node7 -->
<g id="node7" class="node">
<title>Node7</title>
<g id="a_node7"><a xlink:title=" ">
<polygon fill="white" stroke="#bfbfbf" points="663.5,-11.5 663.5,-30.5 732.5,-30.5 732.5,-11.5 663.5,-11.5"/>
<text text-anchor="middle" x="698" y="-18.5" font-family="Helvetica,sans-Serif" font-size="10.00">type_traits</text>
</a>
</g>
</g>
<!-- Node1&#45;&gt;Node7 -->
<g id="edge6" class="edge">
<title>Node1&#45;&gt;Node7</title>
<path fill="none" stroke="midnightblue" d="M537.2,-78.43C567.88,-70.18 614.55,-56.81 654,-42 659.74,-39.85 665.78,-37.29 671.49,-34.75"/>
<polygon fill="midnightblue" stroke="midnightblue" points="673.04,-37.88 680.67,-30.53 670.12,-31.52 673.04,-37.88"/>
</g>
<!-- Node8 -->
<g id="node8" class="node">
<title>Node8</title>
<g id="a_node8"><a xlink:title=" ">
<polygon fill="white" stroke="#bfbfbf" points="751,-11.5 751,-30.5 801,-30.5 801,-11.5 751,-11.5"/>
<text text-anchor="middle" x="776" y="-18.5" font-family="Helvetica,sans-Serif" font-size="10.00">ranges</text>
</a>
</g>
</g>
<!-- Node1&#45;&gt;Node8 -->
<g id="edge7" class="edge">
<title>Node1&#45;&gt;Node8</title>
<path fill="none" stroke="midnightblue" d="M537.7,-84.3C584.73,-79.73 672.12,-68.25 742,-42 746.37,-40.36 750.83,-38.17 755.02,-35.84"/>
<polygon fill="midnightblue" stroke="midnightblue" points="756.83,-38.84 763.61,-30.69 753.23,-32.83 756.83,-38.84"/>
</g>
<!-- Node9 -->
<g id="node9" class="node">
<title>Node9</title>
<g id="a_node9"><a xlink:title=" ">
<polygon fill="white" stroke="#bfbfbf" points="819,-6 819,-36 937,-36 937,-6 819,-6"/>
<text text-anchor="start" x="827" y="-24" font-family="Helvetica,sans-Serif" font-size="10.00">packages/graph/impl</text>
<text text-anchor="middle" x="878" y="-13" font-family="Helvetica,sans-Serif" font-size="10.00">/Graph_impl.hpp</text>
</a>
</g>
</g>
<!-- Node1&#45;&gt;Node9 -->
<g id="edge8" class="edge">
<title>Node1&#45;&gt;Node9</title>
<path fill="none" stroke="midnightblue" d="M537.79,-83.6C594.48,-77.54 712.18,-63.47 810,-42 814.45,-41.02 819.03,-39.91 823.61,-38.72"/>
<polygon fill="midnightblue" stroke="midnightblue" points="824.86,-42.01 833.61,-36.03 823.04,-35.25 824.86,-42.01"/>
</g>
</g>
</svg>
