<?xml version="1.0" encoding="UTF-8" standalone="no"?>
<!DOCTYPE svg PUBLIC "-//W3C//DTD SVG 1.1//EN"
 "http://www.w3.org/Graphics/SVG/1.1/DTD/svg11.dtd">
<!-- Generated by graphviz version 2.43.0 (0)
 -->
<!-- Title: Graphical Class Hierarchy Pages: 1 -->
<svg width="332pt" height="88pt"
 viewBox="0.00 0.00 332.00 88.00" xmlns="http://www.w3.org/2000/svg" xmlns:xlink="http://www.w3.org/1999/xlink">
<g id="graph0" class="graph" transform="scale(1 1) rotate(0) translate(4 84)">
<title>Graphical Class Hierarchy</title>
<polygon fill="white" stroke="transparent" points="-4,4 -4,-84 328,-84 328,4 -4,4"/>
<!-- Node0 -->
<g id="node1" class="node">
<title>Node0</title>
<g id="a_node1"><a xlink:href="structcie_1_1fem_1_1Kernel.html" target="_top" xlink:title=" ">
<polygon fill="white" stroke="black" points="20.5,-38.5 20.5,-79.5 150.5,-79.5 150.5,-38.5 20.5,-38.5"/>
<text text-anchor="start" x="28.5" y="-67.5" font-family="Helvetica,sans-Serif" font-size="10.00">cie::fem::Kernel&lt; T</text>
<text text-anchor="start" x="28.5" y="-56.5" font-family="Helvetica,sans-Serif" font-size="10.00">::Dimension, T::number</text>
<text text-anchor="middle" x="85.5" y="-45.5" font-family="Helvetica,sans-Serif" font-size="10.00">_type &gt;</text>
</a>
</g>
</g>
<!-- Node1 -->
<g id="node2" class="node">
<title>Node1</title>
<g id="a_node2"><a xlink:href="structcie_1_1fem_1_1Traits_3_01T_01_4.html" target="_top" xlink:title=" ">
<polygon fill="white" stroke="black" points="207,-24.5 207,-43.5 324,-43.5 324,-24.5 207,-24.5"/>
<text text-anchor="middle" x="265.5" y="-31.5" font-family="Helvetica,sans-Serif" font-size="10.00">cie::fem::Traits&lt; T &gt;</text>
</a>
</g>
</g>
<!-- Node0&#45;&gt;Node1 -->
<g id="edge1" class="edge">
<title>Node0&#45;&gt;Node1</title>
<path fill="none" stroke="midnightblue" d="M160.58,-48.6C176.07,-46.42 192.18,-44.16 206.97,-42.08"/>
<polygon fill="midnightblue" stroke="midnightblue" points="159.93,-45.15 150.51,-50.01 160.9,-52.08 159.93,-45.15"/>
</g>
<!-- Node93 -->
<g id="node3" class="node">
<title>Node93</title>
<g id="a_node3"><a xlink:title=" ">
<polygon fill="white" stroke="#bfbfbf" points="0,-0.5 0,-19.5 171,-19.5 171,-0.5 0,-0.5"/>
<text text-anchor="middle" x="85.5" y="-7.5" font-family="Helvetica,sans-Serif" font-size="10.00">cie::fem::detail::SizeTraits&lt; T &gt;</text>
</a>
</g>
</g>
<!-- Node93&#45;&gt;Node1 -->
<g id="edge2" class="edge">
<title>Node93&#45;&gt;Node1</title>
<path fill="none" stroke="midnightblue" d="M167.25,-20.89C180.61,-22.69 194.21,-24.52 206.85,-26.23"/>
<polygon fill="midnightblue" stroke="midnightblue" points="167.48,-17.39 157.11,-19.52 166.55,-24.32 167.48,-17.39"/>
</g>
</g>
</svg>
