<?xml version="1.0" encoding="UTF-8" standalone="no"?>
<!DOCTYPE svg PUBLIC "-//W3C//DTD SVG 1.1//EN"
 "http://www.w3.org/Graphics/SVG/1.1/DTD/svg11.dtd">
<!-- Generated by graphviz version 2.43.0 (0)
 -->
<!-- Title: Graphical Class Hierarchy Pages: 1 -->
<svg width="466pt" height="78pt"
 viewBox="0.00 0.00 466.00 77.50" xmlns="http://www.w3.org/2000/svg" xmlns:xlink="http://www.w3.org/1999/xlink">
<g id="graph0" class="graph" transform="scale(1 1) rotate(0) translate(4 73.5)">
<title>Graphical Class Hierarchy</title>
<polygon fill="white" stroke="transparent" points="-4,4 -4,-73.5 462,-73.5 462,4 -4,4"/>
<!-- Node0 -->
<g id="node1" class="node">
<title>Node0</title>
<g id="a_node1"><a target="_parent" xlink:href="../../../cieutils/docs/html/classcie_1_1utils_1_1IDObject.html" xlink:title=" ">
<polygon fill="white" stroke="black" points="12.5,-39 12.5,-69 118.5,-69 118.5,-39 12.5,-39"/>
<text text-anchor="start" x="20.5" y="-57" font-family="Helvetica,sans-Serif" font-size="10.00">cie::utils::IDObject</text>
<text text-anchor="middle" x="65.5" y="-46" font-family="Helvetica,sans-Serif" font-size="10.00">&lt; class &gt;</text>
</a>
</g>
</g>
<!-- Node1 -->
<g id="node2" class="node">
<title>Node1</title>
<g id="a_node2"><a xlink:href="classcie_1_1fem_1_1PartitionBase.html" target="_top" xlink:title=" ">
<polygon fill="white" stroke="black" points="167,-22.5 167,-41.5 294,-41.5 294,-22.5 167,-22.5"/>
<text text-anchor="middle" x="230.5" y="-29.5" font-family="Helvetica,sans-Serif" font-size="10.00">cie::fem::PartitionBase</text>
</a>
</g>
</g>
<!-- Node0&#45;&gt;Node1 -->
<g id="edge1" class="edge">
<title>Node0&#45;&gt;Node1</title>
<path fill="none" stroke="midnightblue" d="M128.44,-45.64C141.02,-43.94 154.25,-42.16 166.85,-40.46"/>
<polygon fill="midnightblue" stroke="midnightblue" points="127.96,-42.17 118.52,-46.98 128.9,-49.11 127.96,-42.17"/>
</g>
<!-- Node2 -->
<g id="node3" class="node">
<title>Node2</title>
<g id="a_node3"><a xlink:href="classcie_1_1fem_1_1Partition.html" target="_top" xlink:title=" ">
<polygon fill="white" stroke="black" points="330,-11.5 330,-52.5 458,-52.5 458,-11.5 330,-11.5"/>
<text text-anchor="start" x="338" y="-40.5" font-family="Helvetica,sans-Serif" font-size="10.00">cie::fem::Partition</text>
<text text-anchor="start" x="338" y="-29.5" font-family="Helvetica,sans-Serif" font-size="10.00">&lt; TVertexAttributes,</text>
<text text-anchor="middle" x="394" y="-18.5" font-family="Helvetica,sans-Serif" font-size="10.00"> TPolytopeAttributes &gt;</text>
</a>
</g>
</g>
<!-- Node1&#45;&gt;Node2 -->
<g id="edge2" class="edge">
<title>Node1&#45;&gt;Node2</title>
<path fill="none" stroke="midnightblue" d="M304.57,-32C312.97,-32 321.48,-32 329.74,-32"/>
<polygon fill="midnightblue" stroke="midnightblue" points="304.4,-28.5 294.4,-32 304.4,-35.5 304.4,-28.5"/>
</g>
<!-- Node79 -->
<g id="node4" class="node">
<title>Node79</title>
<g id="a_node4"><a target="_parent" xlink:href="../../../cieutils/docs/html/classcie_1_1utils_1_1NamedObject.html" xlink:title=" ">
<polygon fill="white" stroke="black" points="0,-0.5 0,-19.5 131,-19.5 131,-0.5 0,-0.5"/>
<text text-anchor="middle" x="65.5" y="-7.5" font-family="Helvetica,sans-Serif" font-size="10.00">cie::utils::NamedObject</text>
</a>
</g>
</g>
<!-- Node79&#45;&gt;Node1 -->
<g id="edge3" class="edge">
<title>Node79&#45;&gt;Node1</title>
<path fill="none" stroke="midnightblue" d="M141.37,-20.11C149.93,-21.26 158.58,-22.43 166.96,-23.56"/>
<polygon fill="midnightblue" stroke="midnightblue" points="141.77,-16.63 131.39,-18.76 140.83,-23.56 141.77,-16.63"/>
</g>
</g>
</svg>
