<?xml version="1.0" encoding="UTF-8" standalone="no"?>
<!DOCTYPE svg PUBLIC "-//W3C//DTD SVG 1.1//EN"
 "http://www.w3.org/Graphics/SVG/1.1/DTD/svg11.dtd">
<!-- Generated by graphviz version 2.43.0 (0)
 -->
<!-- Title: Graphical Class Hierarchy Pages: 1 -->
<svg width="575pt" height="745pt"
 viewBox="0.00 0.00 575.00 745.00" xmlns="http://www.w3.org/2000/svg" xmlns:xlink="http://www.w3.org/1999/xlink">
<g id="graph0" class="graph" transform="scale(1 1) rotate(0) translate(4 741)">
<title>Graphical Class Hierarchy</title>
<polygon fill="white" stroke="transparent" points="-4,4 -4,-741 571,-741 571,4 -4,4"/>
<!-- Node0 -->
<g id="node1" class="node">
<title>Node0</title>
<g id="a_node1"><a xlink:href="structcie_1_1fem_1_1maths_1_1ExpressionTraits.html" target="_top" xlink:title=" ">
<polygon fill="white" stroke="black" points="0,-365 0,-395 152,-395 152,-365 0,-365"/>
<text text-anchor="start" x="8" y="-383" font-family="Helvetica,sans-Serif" font-size="10.00">cie::fem::maths::Expression</text>
<text text-anchor="middle" x="76" y="-372" font-family="Helvetica,sans-Serif" font-size="10.00">Traits&lt; TValue &gt;</text>
</a>
</g>
</g>
<!-- Node1 -->
<g id="node2" class="node">
<title>Node1</title>
<g id="a_node2"><a xlink:href="structcie_1_1fem_1_1maths_1_1DynamicExpression.html" target="_top" xlink:title=" ">
<polygon fill="white" stroke="black" points="212,-695.5 212,-736.5 355,-736.5 355,-695.5 212,-695.5"/>
<text text-anchor="start" x="220" y="-724.5" font-family="Helvetica,sans-Serif" font-size="10.00">cie::fem::maths::Dynamic</text>
<text text-anchor="start" x="220" y="-713.5" font-family="Helvetica,sans-Serif" font-size="10.00">Expression&lt; TExpression</text>
<text text-anchor="middle" x="283.5" y="-702.5" font-family="Helvetica,sans-Serif" font-size="10.00">::Value &gt;</text>
</a>
</g>
</g>
<!-- Node0&#45;&gt;Node1 -->
<g id="edge1" class="edge">
<title>Node0&#45;&gt;Node1</title>
<path fill="none" stroke="midnightblue" d="M78.82,-405.37C84.36,-463.49 106.05,-607.31 188,-686 194.83,-692.56 203.09,-697.68 211.84,-701.69"/>
<polygon fill="midnightblue" stroke="midnightblue" points="82.29,-404.9 77.94,-395.24 75.32,-405.51 82.29,-404.9"/>
</g>
<!-- Node3 -->
<g id="node4" class="node">
<title>Node3</title>
<g id="a_node4"><a xlink:href="classcie_1_1fem_1_1maths_1_1AffineTransform.html" target="_top" xlink:title="Class representing an affine transformation.">
<polygon fill="white" stroke="black" points="195.5,-646 195.5,-676 371.5,-676 371.5,-646 195.5,-646"/>
<text text-anchor="start" x="203.5" y="-664" font-family="Helvetica,sans-Serif" font-size="10.00">cie::fem::maths::AffineTransform</text>
<text text-anchor="middle" x="283.5" y="-653" font-family="Helvetica,sans-Serif" font-size="10.00">&lt; TValue, Dimension &gt;</text>
</a>
</g>
</g>
<!-- Node0&#45;&gt;Node3 -->
<g id="edge3" class="edge">
<title>Node0&#45;&gt;Node3</title>
<path fill="none" stroke="#8b1a1a" d="M80.42,-405.14C88.81,-456.76 115.31,-575.04 188,-637 191.99,-640.4 196.41,-643.34 201.08,-645.86"/>
<polygon fill="#8b1a1a" stroke="#8b1a1a" points="83.87,-404.53 78.89,-395.18 76.95,-405.59 83.87,-404.53"/>
</g>
<!-- Node4 -->
<g id="node5" class="node">
<title>Node4</title>
<g id="a_node5"><a xlink:href="classcie_1_1fem_1_1maths_1_1AffineTransformDerivative.html" target="_top" xlink:title="Expression representing the derivative of AffineTransform.">
<polygon fill="white" stroke="black" points="192.5,-597 192.5,-627 374.5,-627 374.5,-597 192.5,-597"/>
<text text-anchor="start" x="200.5" y="-615" font-family="Helvetica,sans-Serif" font-size="10.00">cie::fem::maths::AffineTransform</text>
<text text-anchor="middle" x="283.5" y="-604" font-family="Helvetica,sans-Serif" font-size="10.00">Derivative&lt; TValue, Dimension &gt;</text>
</a>
</g>
</g>
<!-- Node0&#45;&gt;Node4 -->
<g id="edge4" class="edge">
<title>Node0&#45;&gt;Node4</title>
<path fill="none" stroke="midnightblue" d="M83.15,-404.89C95.34,-448.84 126.83,-540.07 188,-588 192.4,-591.45 197.23,-594.4 202.32,-596.94"/>
<polygon fill="midnightblue" stroke="midnightblue" points="86.48,-403.79 80.52,-395.03 79.72,-405.6 86.48,-403.79"/>
</g>
<!-- Node5 -->
<g id="node6" class="node">
<title>Node5</title>
<g id="a_node6"><a xlink:href="structcie_1_1fem_1_1maths_1_1DynamicExpression.html" target="_top" xlink:title=" ">
<polygon fill="white" stroke="black" points="212,-548 212,-578 355,-578 355,-548 212,-548"/>
<text text-anchor="start" x="220" y="-566" font-family="Helvetica,sans-Serif" font-size="10.00">cie::fem::maths::Dynamic</text>
<text text-anchor="middle" x="283.5" y="-555" font-family="Helvetica,sans-Serif" font-size="10.00">Expression&lt; TValue &gt;</text>
</a>
</g>
</g>
<!-- Node0&#45;&gt;Node5 -->
<g id="edge5" class="edge">
<title>Node0&#45;&gt;Node5</title>
<path fill="none" stroke="midnightblue" d="M87.55,-405.02C103.8,-440.43 138.35,-504.67 188,-539 195.24,-544.01 203.44,-547.97 211.9,-551.11"/>
<polygon fill="midnightblue" stroke="midnightblue" points="90.55,-403.14 83.28,-395.43 84.15,-405.99 90.55,-403.14"/>
</g>
<!-- Node6 -->
<g id="node7" class="node">
<title>Node6</title>
<g id="a_node7"><a xlink:href="classcie_1_1fem_1_1maths_1_1IdentityTransform.html" target="_top" xlink:title=" ">
<polygon fill="white" stroke="black" points="194,-499 194,-529 373,-529 373,-499 194,-499"/>
<text text-anchor="start" x="202" y="-517" font-family="Helvetica,sans-Serif" font-size="10.00">cie::fem::maths::Identity</text>
<text text-anchor="middle" x="283.5" y="-506" font-family="Helvetica,sans-Serif" font-size="10.00">Transform&lt; TValue, Dimension &gt;</text>
</a>
</g>
</g>
<!-- Node0&#45;&gt;Node6 -->
<g id="edge6" class="edge">
<title>Node0&#45;&gt;Node6</title>
<path fill="none" stroke="midnightblue" d="M94.22,-403.32C114.06,-428.49 148.96,-467.92 188,-490 194.04,-493.42 200.57,-496.36 207.28,-498.88"/>
<polygon fill="midnightblue" stroke="midnightblue" points="96.97,-401.15 88.09,-395.38 91.43,-405.43 96.97,-401.15"/>
</g>
<!-- Node7 -->
<g id="node8" class="node">
<title>Node7</title>
<g id="a_node8"><a xlink:href="classcie_1_1fem_1_1maths_1_1LambdaExpression.html" target="_top" xlink:title=" ">
<polygon fill="white" stroke="black" points="188,-450 188,-480 379,-480 379,-450 188,-450"/>
<text text-anchor="start" x="196" y="-468" font-family="Helvetica,sans-Serif" font-size="10.00">cie::fem::maths::LambdaExpression</text>
<text text-anchor="middle" x="283.5" y="-457" font-family="Helvetica,sans-Serif" font-size="10.00">&lt; TLambda, TValue &gt;</text>
</a>
</g>
</g>
<!-- Node0&#45;&gt;Node7 -->
<g id="edge7" class="edge">
<title>Node0&#45;&gt;Node7</title>
<path fill="none" stroke="midnightblue" d="M109.64,-400.31C131.25,-413.08 160.56,-429.13 188,-440 197.39,-443.72 207.52,-447.06 217.54,-450"/>
<polygon fill="midnightblue" stroke="midnightblue" points="111.26,-397.2 100.88,-395.07 107.67,-403.21 111.26,-397.2"/>
</g>
<!-- Node8 -->
<g id="node9" class="node">
<title>Node8</title>
<g id="a_node9"><a xlink:href="classcie_1_1fem_1_1maths_1_1OrthogonalScaleTransform.html" target="_top" xlink:title="Class representing independent scaling along orthogonal coordinate axes.">
<polygon fill="white" stroke="black" points="207,-389.5 207,-430.5 360,-430.5 360,-389.5 207,-389.5"/>
<text text-anchor="start" x="215" y="-418.5" font-family="Helvetica,sans-Serif" font-size="10.00">cie::fem::maths::Orthogonal</text>
<text text-anchor="start" x="215" y="-407.5" font-family="Helvetica,sans-Serif" font-size="10.00">ScaleTransform&lt; TValue,</text>
<text text-anchor="middle" x="283.5" y="-396.5" font-family="Helvetica,sans-Serif" font-size="10.00"> Dimension &gt;</text>
</a>
</g>
</g>
<!-- Node0&#45;&gt;Node8 -->
<g id="edge8" class="edge">
<title>Node0&#45;&gt;Node8</title>
<path fill="none" stroke="#8b1a1a" d="M162.24,-392.44C177.07,-394.61 192.4,-396.85 206.95,-398.97"/>
<polygon fill="#8b1a1a" stroke="#8b1a1a" points="162.46,-388.94 152.06,-390.96 161.45,-395.87 162.46,-388.94"/>
</g>
<!-- Node9 -->
<g id="node10" class="node">
<title>Node9</title>
<g id="a_node10"><a xlink:href="classcie_1_1fem_1_1maths_1_1OrthogonalScaleTransformDerivative.html" target="_top" xlink:title=" ">
<polygon fill="white" stroke="black" points="207,-329.5 207,-370.5 360,-370.5 360,-329.5 207,-329.5"/>
<text text-anchor="start" x="215" y="-358.5" font-family="Helvetica,sans-Serif" font-size="10.00">cie::fem::maths::Orthogonal</text>
<text text-anchor="start" x="215" y="-347.5" font-family="Helvetica,sans-Serif" font-size="10.00">ScaleTransformDerivative</text>
<text text-anchor="middle" x="283.5" y="-336.5" font-family="Helvetica,sans-Serif" font-size="10.00">&lt; TValue, Dimension &gt;</text>
</a>
</g>
</g>
<!-- Node0&#45;&gt;Node9 -->
<g id="edge9" class="edge">
<title>Node0&#45;&gt;Node9</title>
<path fill="none" stroke="midnightblue" d="M162.24,-367.56C177.07,-365.39 192.4,-363.15 206.95,-361.03"/>
<polygon fill="midnightblue" stroke="midnightblue" points="161.45,-364.13 152.06,-369.04 162.46,-371.06 161.45,-364.13"/>
</g>
<!-- Node10 -->
<g id="node11" class="node">
<title>Node10</title>
<g id="a_node11"><a xlink:href="classcie_1_1fem_1_1maths_1_1Polynomial.html" target="_top" xlink:title="Expression representing a scalar polynomial.">
<polygon fill="white" stroke="black" points="206.5,-280 206.5,-310 360.5,-310 360.5,-280 206.5,-280"/>
<text text-anchor="start" x="214.5" y="-298" font-family="Helvetica,sans-Serif" font-size="10.00">cie::fem::maths::Polynomial</text>
<text text-anchor="middle" x="283.5" y="-287" font-family="Helvetica,sans-Serif" font-size="10.00">&lt; TValue &gt;</text>
</a>
</g>
</g>
<!-- Node0&#45;&gt;Node10 -->
<g id="edge10" class="edge">
<title>Node0&#45;&gt;Node10</title>
<path fill="none" stroke="midnightblue" d="M109.64,-359.69C131.25,-346.92 160.56,-330.87 188,-320 197.39,-316.28 207.52,-312.94 217.54,-310"/>
<polygon fill="midnightblue" stroke="midnightblue" points="107.67,-356.79 100.88,-364.93 111.26,-362.8 107.67,-356.79"/>
</g>
<!-- Node12 -->
<g id="node13" class="node">
<title>Node12</title>
<g id="a_node13"><a xlink:href="classcie_1_1fem_1_1maths_1_1ProjectiveTransform.html" target="_top" xlink:title="Class representing a projective transform.">
<polygon fill="white" stroke="black" points="194,-231 194,-261 373,-261 373,-231 194,-231"/>
<text text-anchor="start" x="202" y="-249" font-family="Helvetica,sans-Serif" font-size="10.00">cie::fem::maths::Projective</text>
<text text-anchor="middle" x="283.5" y="-238" font-family="Helvetica,sans-Serif" font-size="10.00">Transform&lt; TValue, Dimension &gt;</text>
</a>
</g>
</g>
<!-- Node0&#45;&gt;Node12 -->
<g id="edge12" class="edge">
<title>Node0&#45;&gt;Node12</title>
<path fill="none" stroke="#8b1a1a" d="M94.22,-356.68C114.06,-331.51 148.96,-292.08 188,-270 194.04,-266.58 200.57,-263.64 207.28,-261.12"/>
<polygon fill="#8b1a1a" stroke="#8b1a1a" points="91.43,-354.57 88.09,-364.62 96.97,-358.85 91.43,-354.57"/>
</g>
<!-- Node13 -->
<g id="node14" class="node">
<title>Node13</title>
<g id="a_node14"><a xlink:href="classcie_1_1fem_1_1maths_1_1ProjectiveTransformDerivative.html" target="_top" xlink:title="Expression representing the derivative of ProjectiveTransform.">
<polygon fill="white" stroke="black" points="201.5,-170.5 201.5,-211.5 365.5,-211.5 365.5,-170.5 201.5,-170.5"/>
<text text-anchor="start" x="209.5" y="-199.5" font-family="Helvetica,sans-Serif" font-size="10.00">cie::fem::maths::Projective</text>
<text text-anchor="start" x="209.5" y="-188.5" font-family="Helvetica,sans-Serif" font-size="10.00">TransformDerivative&lt; TValue,</text>
<text text-anchor="middle" x="283.5" y="-177.5" font-family="Helvetica,sans-Serif" font-size="10.00"> Dimension &gt;</text>
</a>
</g>
</g>
<!-- Node0&#45;&gt;Node13 -->
<g id="edge13" class="edge">
<title>Node0&#45;&gt;Node13</title>
<path fill="none" stroke="midnightblue" d="M87.83,-355.37C104.42,-320.43 139.38,-256.77 188,-221 192.71,-217.53 197.84,-214.46 203.19,-211.73"/>
<polygon fill="midnightblue" stroke="midnightblue" points="84.48,-354.27 83.46,-364.82 90.83,-357.21 84.48,-354.27"/>
</g>
<!-- Node14 -->
<g id="node15" class="node">
<title>Node14</title>
<g id="a_node15"><a xlink:href="classcie_1_1fem_1_1maths_1_1ScaleTranslateTransform.html" target="_top" xlink:title="Class representing independent scaling along orthogonal coordinate axes, followed by a translation.">
<polygon fill="white" stroke="black" points="194,-121 194,-151 373,-151 373,-121 194,-121"/>
<text text-anchor="start" x="202" y="-139" font-family="Helvetica,sans-Serif" font-size="10.00">cie::fem::maths::ScaleTranslate</text>
<text text-anchor="middle" x="283.5" y="-128" font-family="Helvetica,sans-Serif" font-size="10.00">Transform&lt; TValue, Dimension &gt;</text>
</a>
</g>
</g>
<!-- Node0&#45;&gt;Node14 -->
<g id="edge14" class="edge">
<title>Node0&#45;&gt;Node14</title>
<path fill="none" stroke="#8b1a1a" d="M82.56,-354.84C94.01,-309.09 124.64,-212.25 188,-161 192.75,-157.16 198.03,-153.9 203.6,-151.14"/>
<polygon fill="#8b1a1a" stroke="#8b1a1a" points="79.1,-354.27 80.17,-364.81 85.91,-355.9 79.1,-354.27"/>
</g>
<!-- Node15 -->
<g id="node16" class="node">
<title>Node15</title>
<g id="a_node16"><a xlink:href="classcie_1_1fem_1_1maths_1_1ScaleTranslateTransformDerivative.html" target="_top" xlink:title=" ">
<polygon fill="white" stroke="black" points="198.5,-60.5 198.5,-101.5 368.5,-101.5 368.5,-60.5 198.5,-60.5"/>
<text text-anchor="start" x="206.5" y="-89.5" font-family="Helvetica,sans-Serif" font-size="10.00">cie::fem::maths::ScaleTranslate</text>
<text text-anchor="start" x="206.5" y="-78.5" font-family="Helvetica,sans-Serif" font-size="10.00">TransformDerivative&lt; TValue,</text>
<text text-anchor="middle" x="283.5" y="-67.5" font-family="Helvetica,sans-Serif" font-size="10.00"> Dimension &gt;</text>
</a>
</g>
</g>
<!-- Node0&#45;&gt;Node15 -->
<g id="edge15" class="edge">
<title>Node0&#45;&gt;Node15</title>
<path fill="none" stroke="midnightblue" d="M80.24,-354.82C88.38,-301.91 114.56,-178.52 188,-111 191.8,-107.5 196.01,-104.42 200.48,-101.69"/>
<polygon fill="midnightblue" stroke="midnightblue" points="76.73,-354.6 78.77,-365 83.66,-355.6 76.73,-354.6"/>
</g>
<!-- Node16 -->
<g id="node17" class="node">
<title>Node16</title>
<g id="a_node17"><a xlink:href="classcie_1_1fem_1_1maths_1_1TranslateScaleTransform.html" target="_top" xlink:title="Class representing a translation followed by an independent scaling along orthogonal coordinate axes.">
<polygon fill="white" stroke="black" points="212,-0.5 212,-41.5 355,-41.5 355,-0.5 212,-0.5"/>
<text text-anchor="start" x="220" y="-29.5" font-family="Helvetica,sans-Serif" font-size="10.00">cie::fem::maths::Translate</text>
<text text-anchor="start" x="220" y="-18.5" font-family="Helvetica,sans-Serif" font-size="10.00">ScaleTransform&lt; TValue,</text>
<text text-anchor="middle" x="283.5" y="-7.5" font-family="Helvetica,sans-Serif" font-size="10.00"> Dimension &gt;</text>
</a>
</g>
</g>
<!-- Node0&#45;&gt;Node16 -->
<g id="edge16" class="edge">
<title>Node0&#45;&gt;Node16</title>
<path fill="none" stroke="#8b1a1a" d="M78.08,-354.45C82.08,-293.18 100.75,-136.69 188,-51 194.75,-44.37 202.97,-39.2 211.7,-35.17"/>
<polygon fill="#8b1a1a" stroke="#8b1a1a" points="74.57,-354.55 77.5,-364.74 81.56,-354.95 74.57,-354.55"/>
</g>
<!-- Node2 -->
<g id="node3" class="node">
<title>Node2</title>
<g id="a_node3"><a xlink:href="classcie_1_1fem_1_1maths_1_1WrappedExpression.html" target="_top" xlink:title=" ">
<polygon fill="white" stroke="black" points="415,-701 415,-731 567,-731 567,-701 415,-701"/>
<text text-anchor="start" x="423" y="-719" font-family="Helvetica,sans-Serif" font-size="10.00">cie::fem::maths::Wrapped</text>
<text text-anchor="middle" x="491" y="-708" font-family="Helvetica,sans-Serif" font-size="10.00">Expression&lt; TExpression &gt;</text>
</a>
</g>
</g>
<!-- Node1&#45;&gt;Node2 -->
<g id="edge2" class="edge">
<title>Node1&#45;&gt;Node2</title>
<path fill="none" stroke="midnightblue" d="M365.29,-716C381.65,-716 398.79,-716 414.94,-716"/>
<polygon fill="midnightblue" stroke="midnightblue" points="365.22,-712.5 355.22,-716 365.22,-719.5 365.22,-712.5"/>
</g>
<!-- Node11 -->
<g id="node12" class="node">
<title>Node11</title>
<g id="a_node12"><a xlink:href="classcie_1_1fem_1_1maths_1_1LagrangePolynomial.html" target="_top" xlink:title=" ">
<polygon fill="white" stroke="black" points="419,-280 419,-310 563,-310 563,-280 419,-280"/>
<text text-anchor="start" x="427" y="-298" font-family="Helvetica,sans-Serif" font-size="10.00">cie::fem::maths::Lagrange</text>
<text text-anchor="middle" x="491" y="-287" font-family="Helvetica,sans-Serif" font-size="10.00">Polynomial&lt; TValue &gt;</text>
</a>
</g>
</g>
<!-- Node10&#45;&gt;Node11 -->
<g id="edge11" class="edge">
<title>Node10&#45;&gt;Node11</title>
<path fill="none" stroke="midnightblue" d="M371.12,-295C387.08,-295 403.57,-295 419,-295"/>
<polygon fill="midnightblue" stroke="midnightblue" points="370.73,-291.5 360.73,-295 370.73,-298.5 370.73,-291.5"/>
</g>
</g>
</svg>
