<?xml version="1.0" encoding="UTF-8" standalone="no"?>
<!DOCTYPE svg PUBLIC "-//W3C//DTD SVG 1.1//EN"
 "http://www.w3.org/Graphics/SVG/1.1/DTD/svg11.dtd">
<!-- Generated by graphviz version 2.43.0 (0)
 -->
<!-- Title: Graphical Class Hierarchy Pages: 1 -->
<svg width="633pt" height="137pt"
 viewBox="0.00 0.00 633.00 137.00" xmlns="http://www.w3.org/2000/svg" xmlns:xlink="http://www.w3.org/1999/xlink">
<g id="graph0" class="graph" transform="scale(1 1) rotate(0) translate(4 133)">
<title>Graphical Class Hierarchy</title>
<polygon fill="white" stroke="transparent" points="-4,4 -4,-133 629,-133 629,4 -4,4"/>
<!-- Node0 -->
<g id="node1" class="node">
<title>Node0</title>
<g id="a_node1"><a xlink:href="classfem_1_1discretization_1_1basisfunctions_1_1BasisFunctions.html" target="_top" xlink:title="Abstract base class for a matching collection of 1D basis functions.">
<polygon fill="white" stroke="black" points="0,-49.5 0,-79.5 182,-79.5 182,-49.5 0,-49.5"/>
<text text-anchor="start" x="8" y="-67.5" font-family="Helvetica,sans-Serif" font-size="10.00">fem.discretization.basisfunctions.</text>
<text text-anchor="middle" x="91" y="-56.5" font-family="Helvetica,sans-Serif" font-size="10.00">BasisFunctions</text>
</a>
</g>
</g>
<!-- Node1 -->
<g id="node2" class="node">
<title>Node1</title>
<g id="a_node2"><a xlink:href="classfem_1_1discretization_1_1basisfunctions_1_1PolynomialBasisFunctions.html" target="_top" xlink:title="1D polynomial basis function abstract base class">
<polygon fill="white" stroke="black" points="218,-49.5 218,-79.5 400,-79.5 400,-49.5 218,-49.5"/>
<text text-anchor="start" x="226" y="-67.5" font-family="Helvetica,sans-Serif" font-size="10.00">fem.discretization.basisfunctions.</text>
<text text-anchor="middle" x="309" y="-56.5" font-family="Helvetica,sans-Serif" font-size="10.00">PolynomialBasisFunctions</text>
</a>
</g>
</g>
<!-- Node0&#45;&gt;Node1 -->
<g id="edge1" class="edge">
<title>Node0&#45;&gt;Node1</title>
<path fill="none" stroke="midnightblue" d="M192.06,-64.5C200.63,-64.5 209.27,-64.5 217.76,-64.5"/>
<polygon fill="midnightblue" stroke="midnightblue" points="192.04,-61 182.04,-64.5 192.04,-68 192.04,-61"/>
</g>
<!-- Node2 -->
<g id="node3" class="node">
<title>Node2</title>
<g id="a_node3"><a xlink:href="classfem_1_1discretization_1_1basisfunctions_1_1HierarchicBasisFunctions.html" target="_top" xlink:title="Legendre polynomials with the constant function replaced by a linear one (using the numpy implementat...">
<polygon fill="white" stroke="black" points="439.5,-98.5 439.5,-128.5 621.5,-128.5 621.5,-98.5 439.5,-98.5"/>
<text text-anchor="start" x="447.5" y="-116.5" font-family="Helvetica,sans-Serif" font-size="10.00">fem.discretization.basisfunctions.</text>
<text text-anchor="middle" x="530.5" y="-105.5" font-family="Helvetica,sans-Serif" font-size="10.00">HierarchicBasisFunctions</text>
</a>
</g>
</g>
<!-- Node1&#45;&gt;Node2 -->
<g id="edge2" class="edge">
<title>Node1&#45;&gt;Node2</title>
<path fill="none" stroke="midnightblue" d="M387.31,-81.76C411.77,-87.22 438.59,-93.21 462.28,-98.49"/>
<polygon fill="midnightblue" stroke="midnightblue" points="387.87,-78.3 377.35,-79.53 386.35,-85.13 387.87,-78.3"/>
</g>
<!-- Node3 -->
<g id="node4" class="node">
<title>Node3</title>
<g id="a_node4"><a xlink:href="classfem_1_1discretization_1_1basisfunctions_1_1IntegratedHierarchicBasisFunctions.html" target="_top" xlink:title="Hierarchic basis functions as proposed by Szabó &amp; Babuska For easier assembly, the first and last fun...">
<polygon fill="white" stroke="black" points="436,-49.5 436,-79.5 625,-79.5 625,-49.5 436,-49.5"/>
<text text-anchor="start" x="444" y="-67.5" font-family="Helvetica,sans-Serif" font-size="10.00">fem.discretization.basisfunctions.</text>
<text text-anchor="middle" x="530.5" y="-56.5" font-family="Helvetica,sans-Serif" font-size="10.00">IntegratedHierarchicBasisFunctions</text>
</a>
</g>
</g>
<!-- Node1&#45;&gt;Node3 -->
<g id="edge3" class="edge">
<title>Node1&#45;&gt;Node3</title>
<path fill="none" stroke="midnightblue" d="M410.44,-64.5C418.86,-64.5 427.35,-64.5 435.71,-64.5"/>
<polygon fill="midnightblue" stroke="midnightblue" points="410.23,-61 400.23,-64.5 410.23,-68 410.23,-61"/>
</g>
<!-- Node4 -->
<g id="node5" class="node">
<title>Node4</title>
<g id="a_node5"><a xlink:href="classfem_1_1discretization_1_1basisfunctions_1_1LinearBasisFunctions.html" target="_top" xlink:title="Classic linear basis functions.">
<polygon fill="white" stroke="black" points="439.5,-0.5 439.5,-30.5 621.5,-30.5 621.5,-0.5 439.5,-0.5"/>
<text text-anchor="start" x="447.5" y="-18.5" font-family="Helvetica,sans-Serif" font-size="10.00">fem.discretization.basisfunctions.</text>
<text text-anchor="middle" x="530.5" y="-7.5" font-family="Helvetica,sans-Serif" font-size="10.00">LinearBasisFunctions</text>
</a>
</g>
</g>
<!-- Node1&#45;&gt;Node4 -->
<g id="edge4" class="edge">
<title>Node1&#45;&gt;Node4</title>
<path fill="none" stroke="midnightblue" d="M387.31,-47.24C411.77,-41.78 438.59,-35.79 462.28,-30.51"/>
<polygon fill="midnightblue" stroke="midnightblue" points="386.35,-43.87 377.35,-49.47 387.87,-50.7 386.35,-43.87"/>
</g>
</g>
</svg>
