<?xml version="1.0" encoding="UTF-8" standalone="no"?>
<!DOCTYPE svg PUBLIC "-//W3C//DTD SVG 1.1//EN"
 "http://www.w3.org/Graphics/SVG/1.1/DTD/svg11.dtd">
<!-- Generated by graphviz version 2.43.0 (0)
 -->
<!-- Title: Graphical Class Hierarchy Pages: 1 -->
<svg width="593pt" height="166pt"
 viewBox="0.00 0.00 593.00 165.50" xmlns="http://www.w3.org/2000/svg" xmlns:xlink="http://www.w3.org/1999/xlink">
<g id="graph0" class="graph" transform="scale(1 1) rotate(0) translate(4 161.5)">
<title>Graphical Class Hierarchy</title>
<polygon fill="white" stroke="transparent" points="-4,4 -4,-161.5 589,-161.5 589,4 -4,4"/>
<!-- Node1 -->
<g id="node1" class="node">
<title>Node1</title>
<g id="a_node1"><a xlink:href="classwrn_1_1partitioning_1_1GaussSeidelPartitioner.html" target="_top" xlink:title=" ">
<polygon fill="white" stroke="black" points="0,-104.5 0,-134.5 157,-134.5 157,-104.5 0,-104.5"/>
<text text-anchor="start" x="8" y="-122.5" font-family="Helvetica,sans-Serif" font-size="10.00">wrn.partitioning.GaussSeidel</text>
<text text-anchor="middle" x="78.5" y="-111.5" font-family="Helvetica,sans-Serif" font-size="10.00">Partitioner</text>
</a>
</g>
</g>
<!-- Node0 -->
<g id="node2" class="node">
<title>Node0</title>
<g id="a_node2"><a xlink:href="classwrn_1_1partitioning_1_1Partitioner.html" target="_top" xlink:title=" ">
<polygon fill="white" stroke="black" points="203.5,-110 203.5,-129 350.5,-129 350.5,-110 203.5,-110"/>
<text text-anchor="middle" x="277" y="-117" font-family="Helvetica,sans-Serif" font-size="10.00">wrn.partitioning.Partitioner</text>
</a>
</g>
</g>
<!-- Node1&#45;&gt;Node0 -->
<g id="edge1" class="edge">
<title>Node1&#45;&gt;Node0</title>
<path fill="none" stroke="midnightblue" d="M167.24,-112.78C179.32,-112.71 191.61,-112.76 203.38,-112.96"/>
<polygon fill="midnightblue" stroke="midnightblue" points="167.13,-109.29 157.16,-112.88 167.2,-116.28 167.13,-109.29"/>
</g>
<!-- Node5 -->
<g id="node4" class="node">
<title>Node5</title>
<g id="a_node4"><a xlink:href="classwrn_1_1relax_1_1WaveformRelaxation.html" target="_top" xlink:title=" ">
<polygon fill="white" stroke="black" points="193,-72 193,-91 361,-91 361,-72 193,-72"/>
<text text-anchor="middle" x="277" y="-79" font-family="Helvetica,sans-Serif" font-size="10.00">wrn.relax.WaveformRelaxation</text>
</a>
</g>
</g>
<!-- Node1&#45;&gt;Node5 -->
<g id="edge4" class="edge">
<title>Node1&#45;&gt;Node5</title>
<path fill="none" stroke="midnightblue" d="M167.15,-102.55C187.65,-98.59 208.76,-94.5 226.87,-91"/>
<polygon fill="midnightblue" stroke="midnightblue" points="166.32,-99.15 157.16,-104.48 167.64,-106.02 166.32,-99.15"/>
</g>
<!-- Node8 -->
<g id="node7" class="node">
<title>Node8</title>
<g id="a_node7"><a xlink:href="classwrn_1_1time__integration_1_1TimeIntegrator.html" target="_top" xlink:title=" ">
<polygon fill="white" stroke="black" points="204,-22.5 204,-52.5 350,-52.5 350,-22.5 204,-22.5"/>
<text text-anchor="start" x="212" y="-40.5" font-family="Helvetica,sans-Serif" font-size="10.00">wrn.time_integration.Time</text>
<text text-anchor="middle" x="277" y="-29.5" font-family="Helvetica,sans-Serif" font-size="10.00">Integrator</text>
</a>
</g>
</g>
<!-- Node1&#45;&gt;Node8 -->
<g id="edge7" class="edge">
<title>Node1&#45;&gt;Node8</title>
<path fill="none" stroke="midnightblue" d="M144.96,-100.59C149.12,-98.72 153.17,-96.69 157,-94.5 175.58,-83.88 174.31,-72.94 193,-62.5 199.83,-58.68 207.31,-55.38 214.9,-52.55"/>
<polygon fill="midnightblue" stroke="midnightblue" points="143.61,-97.36 135.73,-104.45 146.31,-103.82 143.61,-97.36"/>
</g>
<!-- Node0&#45;&gt;Node1 -->
<g id="edge2" class="edge">
<title>Node0&#45;&gt;Node1</title>
<path fill="none" stroke="midnightblue" d="M193.03,-126.18C181.14,-126.29 168.94,-126.27 157.16,-126.12"/>
<polygon fill="midnightblue" stroke="midnightblue" points="193.43,-129.67 203.38,-126.04 193.34,-122.67 193.43,-129.67"/>
</g>
<!-- Node2 -->
<g id="node3" class="node">
<title>Node2</title>
<g id="a_node3"><a xlink:href="classwrn_1_1partitioning_1_1JacobiPartitioner.html" target="_top" xlink:title=" ">
<polygon fill="white" stroke="black" points="403,-138 403,-157 579,-157 579,-138 403,-138"/>
<text text-anchor="middle" x="491" y="-145" font-family="Helvetica,sans-Serif" font-size="10.00">wrn.partitioning.JacobiPartitioner</text>
</a>
</g>
</g>
<!-- Node0&#45;&gt;Node2 -->
<g id="edge3" class="edge">
<title>Node0&#45;&gt;Node2</title>
<path fill="none" stroke="midnightblue" d="M360.19,-130.36C379.18,-132.86 399.24,-135.51 417.77,-137.96"/>
<polygon fill="midnightblue" stroke="midnightblue" points="360.44,-126.86 350.07,-129.02 359.52,-133.8 360.44,-126.86"/>
</g>
<!-- Node6 -->
<g id="node5" class="node">
<title>Node6</title>
<g id="a_node5"><a xlink:href="classwrn_1_1relax_1_1HeterogeneousJacobiRelaxation.html" target="_top" xlink:title=" ">
<polygon fill="white" stroke="black" points="406.5,-88.5 406.5,-118.5 575.5,-118.5 575.5,-88.5 406.5,-88.5"/>
<text text-anchor="start" x="414.5" y="-106.5" font-family="Helvetica,sans-Serif" font-size="10.00">wrn.relax.HeterogeneousJacobi</text>
<text text-anchor="middle" x="491" y="-95.5" font-family="Helvetica,sans-Serif" font-size="10.00">Relaxation</text>
</a>
</g>
</g>
<!-- Node5&#45;&gt;Node6 -->
<g id="edge5" class="edge">
<title>Node5&#45;&gt;Node6</title>
<path fill="none" stroke="midnightblue" d="M371.35,-91.19C383.01,-92.4 394.87,-93.63 406.36,-94.82"/>
<polygon fill="midnightblue" stroke="midnightblue" points="371.49,-87.68 361.18,-90.13 370.76,-94.65 371.49,-87.68"/>
</g>
<!-- Node7 -->
<g id="node6" class="node">
<title>Node7</title>
<g id="a_node6"><a xlink:href="classwrn_1_1relax_1_1HomogeneousRelaxation.html" target="_top" xlink:title=" ">
<polygon fill="white" stroke="black" points="397,-50 397,-69 585,-69 585,-50 397,-50"/>
<text text-anchor="middle" x="491" y="-57" font-family="Helvetica,sans-Serif" font-size="10.00">wrn.relax.HomogeneousRelaxation</text>
</a>
</g>
</g>
<!-- Node5&#45;&gt;Node7 -->
<g id="edge6" class="edge">
<title>Node5&#45;&gt;Node7</title>
<path fill="none" stroke="midnightblue" d="M371.25,-71.82C380.23,-70.89 389.34,-69.95 398.3,-69.02"/>
<polygon fill="midnightblue" stroke="midnightblue" points="370.76,-68.35 361.18,-72.87 371.49,-75.32 370.76,-68.35"/>
</g>
<!-- Node9 -->
<g id="node8" class="node">
<title>Node9</title>
<g id="a_node8"><a xlink:href="classwrn_1_1time__integration_1_1NewmarkTimeIntegrator.html" target="_top" xlink:title=" ">
<polygon fill="white" stroke="black" points="406.5,-0.5 406.5,-30.5 575.5,-30.5 575.5,-0.5 406.5,-0.5"/>
<text text-anchor="start" x="414.5" y="-18.5" font-family="Helvetica,sans-Serif" font-size="10.00">wrn.time_integration.Newmark</text>
<text text-anchor="middle" x="491" y="-7.5" font-family="Helvetica,sans-Serif" font-size="10.00">TimeIntegrator</text>
</a>
</g>
</g>
<!-- Node8&#45;&gt;Node9 -->
<g id="edge8" class="edge">
<title>Node8&#45;&gt;Node9</title>
<path fill="none" stroke="midnightblue" d="M360.4,-28.95C375.51,-27.38 391.29,-25.74 406.44,-24.17"/>
<polygon fill="midnightblue" stroke="midnightblue" points="359.65,-25.51 350.07,-30.02 360.38,-32.47 359.65,-25.51"/>
</g>
<!-- Node77 -->
<g id="node9" class="node">
<title>Node77</title>
<g id="a_node9"><a target="_parent" xlink:href="../../../cieutils/docs/html/classmetaclass.html" xlink:title=" ">
<polygon fill="white" stroke="black" points="45,-66 45,-85 112,-85 112,-66 45,-66"/>
<text text-anchor="middle" x="78.5" y="-73" font-family="Helvetica,sans-Serif" font-size="10.00">metaclass</text>
</a>
</g>
</g>
<!-- Node77&#45;&gt;Node0 -->
<g id="edge9" class="edge">
<title>Node77&#45;&gt;Node0</title>
<path fill="none" stroke="midnightblue" d="M122.18,-85.06C155.12,-92.43 200.46,-102.59 233.38,-109.96"/>
<polygon fill="midnightblue" stroke="midnightblue" points="122.91,-81.63 112.39,-82.86 121.38,-88.47 122.91,-81.63"/>
</g>
<!-- Node77&#45;&gt;Node5 -->
<g id="edge10" class="edge">
<title>Node77&#45;&gt;Node5</title>
<path fill="none" stroke="midnightblue" d="M122.43,-76.81C143.13,-77.44 168.68,-78.22 192.97,-78.96"/>
<polygon fill="midnightblue" stroke="midnightblue" points="122.49,-73.31 112.39,-76.5 122.28,-80.31 122.49,-73.31"/>
</g>
<!-- Node77&#45;&gt;Node8 -->
<g id="edge11" class="edge">
<title>Node77&#45;&gt;Node8</title>
<path fill="none" stroke="midnightblue" d="M122.5,-67.18C146.3,-62.58 176.51,-56.74 203.82,-51.46"/>
<polygon fill="midnightblue" stroke="midnightblue" points="121.54,-63.8 112.39,-69.14 122.87,-70.68 121.54,-63.8"/>
</g>
</g>
</svg>
