<?xml version="1.0" encoding="UTF-8" standalone="no"?>
<!DOCTYPE svg PUBLIC "-//W3C//DTD SVG 1.1//EN"
 "http://www.w3.org/Graphics/SVG/1.1/DTD/svg11.dtd">
<!-- Generated by graphviz version 2.43.0 (0)
 -->
<!-- Title: Graphical Class Hierarchy Pages: 1 -->
<svg width="276pt" height="372pt"
 viewBox="0.00 0.00 276.00 371.50" xmlns="http://www.w3.org/2000/svg" xmlns:xlink="http://www.w3.org/1999/xlink">
<g id="graph0" class="graph" transform="scale(1 1) rotate(0) translate(4 367.5)">
<title>Graphical Class Hierarchy</title>
<polygon fill="white" stroke="transparent" points="-4,4 -4,-367.5 272,-367.5 272,4 -4,4"/>
<!-- Node0 -->
<g id="node1" class="node">
<title>Node0</title>
<g id="a_node1"><a xlink:href="classobject.html" target="_top" xlink:title=" ">
<polygon fill="white" stroke="black" points="0,-166.5 0,-185.5 47,-185.5 47,-166.5 0,-166.5"/>
<text text-anchor="middle" x="23.5" y="-173.5" font-family="Helvetica,sans-Serif" font-size="10.00">object</text>
</a>
</g>
</g>
<!-- Node1 -->
<g id="node2" class="node">
<title>Node1</title>
<g id="a_node2"><a xlink:href="classoptcontrol_1_1autograd__parabolic_1_1parabolicProblem.html" target="_top" xlink:title=" ">
<polygon fill="white" stroke="black" points="98,-333 98,-363 253,-363 253,-333 98,-333"/>
<text text-anchor="start" x="106" y="-351" font-family="Helvetica,sans-Serif" font-size="10.00">optcontrol.autograd</text>
<text text-anchor="middle" x="175.5" y="-340" font-family="Helvetica,sans-Serif" font-size="10.00">_parabolic.parabolicProblem</text>
</a>
</g>
</g>
<!-- Node0&#45;&gt;Node1 -->
<g id="edge1" class="edge">
<title>Node0&#45;&gt;Node1</title>
<path fill="none" stroke="midnightblue" d="M26.66,-195.88C31.2,-227.73 44.71,-290.04 83,-324 87.42,-327.92 92.41,-331.22 97.72,-333.98"/>
<polygon fill="midnightblue" stroke="midnightblue" points="30.09,-195.12 25.36,-185.64 23.15,-196 30.09,-195.12"/>
</g>
<!-- Node2 -->
<g id="node3" class="node">
<title>Node2</title>
<g id="a_node3"><a xlink:href="classoptcontrol_1_1numeric_1_1basisfunctions_1_1GridTensorProduct.html" target="_top" xlink:title=" ">
<polygon fill="white" stroke="black" points="83,-284 83,-314 268,-314 268,-284 83,-284"/>
<text text-anchor="start" x="91" y="-302" font-family="Helvetica,sans-Serif" font-size="10.00">optcontrol.numeric.basisfunctions.</text>
<text text-anchor="middle" x="175.5" y="-291" font-family="Helvetica,sans-Serif" font-size="10.00">GridTensorProduct</text>
</a>
</g>
</g>
<!-- Node0&#45;&gt;Node2 -->
<g id="edge2" class="edge">
<title>Node0&#45;&gt;Node2</title>
<path fill="none" stroke="midnightblue" d="M30.69,-195.06C38.99,-217.57 55.91,-254.54 83,-275 87.59,-278.46 92.63,-281.43 97.92,-283.97"/>
<polygon fill="midnightblue" stroke="midnightblue" points="33.98,-193.87 27.39,-185.57 27.37,-196.17 33.98,-193.87"/>
</g>
<!-- Node3 -->
<g id="node4" class="node">
<title>Node3</title>
<g id="a_node4"><a xlink:href="classoptcontrol_1_1numeric_1_1basisfunctions_1_1IntegratedLegendre.html" target="_top" xlink:title="Integrated legendre basis functions.">
<polygon fill="white" stroke="black" points="83,-235 83,-265 268,-265 268,-235 83,-235"/>
<text text-anchor="start" x="91" y="-253" font-family="Helvetica,sans-Serif" font-size="10.00">optcontrol.numeric.basisfunctions.</text>
<text text-anchor="middle" x="175.5" y="-242" font-family="Helvetica,sans-Serif" font-size="10.00">IntegratedLegendre</text>
</a>
</g>
</g>
<!-- Node0&#45;&gt;Node3 -->
<g id="edge3" class="edge">
<title>Node0&#45;&gt;Node3</title>
<path fill="none" stroke="midnightblue" d="M40.2,-192.92C51.21,-203.83 66.8,-217.53 83,-226 89.55,-229.42 96.62,-232.39 103.83,-234.94"/>
<polygon fill="midnightblue" stroke="midnightblue" points="42.54,-190.3 33.06,-185.57 37.52,-195.18 42.54,-190.3"/>
</g>
<!-- Node4 -->
<g id="node5" class="node">
<title>Node4</title>
<g id="a_node5"><a xlink:href="classoptcontrol_1_1numeric_1_1basisfunctions_1_1Lagrange.html" target="_top" xlink:title="Lagrange basis functions.">
<polygon fill="white" stroke="black" points="83,-186 83,-216 268,-216 268,-186 83,-186"/>
<text text-anchor="start" x="91" y="-204" font-family="Helvetica,sans-Serif" font-size="10.00">optcontrol.numeric.basisfunctions.</text>
<text text-anchor="middle" x="175.5" y="-193" font-family="Helvetica,sans-Serif" font-size="10.00">Lagrange</text>
</a>
</g>
</g>
<!-- Node0&#45;&gt;Node4 -->
<g id="edge4" class="edge">
<title>Node0&#45;&gt;Node4</title>
<path fill="none" stroke="midnightblue" d="M57.4,-181.48C65.56,-182.84 74.72,-184.37 84.21,-185.95"/>
<polygon fill="midnightblue" stroke="midnightblue" points="57.72,-177.99 47.28,-179.8 56.57,-184.89 57.72,-177.99"/>
</g>
<!-- Node5 -->
<g id="node6" class="node">
<title>Node5</title>
<g id="a_node6"><a xlink:href="classoptcontrol_1_1numeric_1_1functors_1_1FunctorBinaryOperation.html" target="_top" xlink:title=" ">
<polygon fill="white" stroke="black" points="98,-137 98,-167 253,-167 253,-137 98,-137"/>
<text text-anchor="start" x="106" y="-155" font-family="Helvetica,sans-Serif" font-size="10.00">optcontrol.numeric.functors.</text>
<text text-anchor="middle" x="175.5" y="-144" font-family="Helvetica,sans-Serif" font-size="10.00">FunctorBinaryOperation</text>
</a>
</g>
</g>
<!-- Node0&#45;&gt;Node5 -->
<g id="edge5" class="edge">
<title>Node0&#45;&gt;Node5</title>
<path fill="none" stroke="midnightblue" d="M57.24,-170.76C69.26,-168.84 83.44,-166.57 97.7,-164.29"/>
<polygon fill="midnightblue" stroke="midnightblue" points="56.6,-167.32 47.28,-172.35 57.71,-174.23 56.6,-167.32"/>
</g>
<!-- Node6 -->
<g id="node7" class="node">
<title>Node6</title>
<g id="a_node7"><a xlink:href="classoptcontrol_1_1numeric_1_1functors_1_1FunctorUnaryOperation.html" target="_top" xlink:title=" ">
<polygon fill="white" stroke="black" points="98,-88 98,-118 253,-118 253,-88 98,-88"/>
<text text-anchor="start" x="106" y="-106" font-family="Helvetica,sans-Serif" font-size="10.00">optcontrol.numeric.functors.</text>
<text text-anchor="middle" x="175.5" y="-95" font-family="Helvetica,sans-Serif" font-size="10.00">FunctorUnaryOperation</text>
</a>
</g>
</g>
<!-- Node0&#45;&gt;Node6 -->
<g id="edge6" class="edge">
<title>Node0&#45;&gt;Node6</title>
<path fill="none" stroke="midnightblue" d="M40.75,-159.47C51.79,-149.08 67.22,-136.15 83,-128 90.46,-124.14 98.58,-120.83 106.8,-118"/>
<polygon fill="midnightblue" stroke="midnightblue" points="38.27,-157 33.53,-166.48 43.15,-162.02 38.27,-157"/>
</g>
<!-- Node7 -->
<g id="node8" class="node">
<title>Node7</title>
<g id="a_node8"><a xlink:href="classoptcontrol_1_1numeric_1_1integration_1_1IntegrationPointProvider.html" target="_top" xlink:title=" ">
<polygon fill="white" stroke="black" points="91.5,-39 91.5,-69 259.5,-69 259.5,-39 91.5,-39"/>
<text text-anchor="start" x="99.5" y="-57" font-family="Helvetica,sans-Serif" font-size="10.00">optcontrol.numeric.integration.</text>
<text text-anchor="middle" x="175.5" y="-46" font-family="Helvetica,sans-Serif" font-size="10.00">IntegrationPointProvider</text>
</a>
</g>
</g>
<!-- Node0&#45;&gt;Node7 -->
<g id="edge7" class="edge">
<title>Node0&#45;&gt;Node7</title>
<path fill="none" stroke="midnightblue" d="M31.08,-156.73C39.6,-134.66 56.58,-98.98 83,-79 88.12,-75.13 93.81,-71.85 99.77,-69.09"/>
<polygon fill="midnightblue" stroke="midnightblue" points="27.71,-155.75 27.57,-166.34 34.28,-158.15 27.71,-155.75"/>
</g>
<!-- Node8 -->
<g id="node9" class="node">
<title>Node8</title>
<g id="a_node9"><a xlink:href="classoptcontrol_1_1plotter_1_1plotter.html" target="_top" xlink:title=" ">
<polygon fill="white" stroke="black" points="107.5,-0.5 107.5,-19.5 243.5,-19.5 243.5,-0.5 107.5,-0.5"/>
<text text-anchor="middle" x="175.5" y="-7.5" font-family="Helvetica,sans-Serif" font-size="10.00">optcontrol.plotter.plotter</text>
</a>
</g>
</g>
<!-- Node0&#45;&gt;Node8 -->
<g id="edge8" class="edge">
<title>Node0&#45;&gt;Node8</title>
<path fill="none" stroke="midnightblue" d="M26.59,-156.2C31.03,-124.52 44.39,-62.68 83,-30 90.07,-24.01 98.53,-19.7 107.41,-16.61"/>
<polygon fill="midnightblue" stroke="midnightblue" points="23.08,-156.04 25.33,-166.4 30.03,-156.9 23.08,-156.04"/>
</g>
</g>
</svg>
