<?xml version="1.0" encoding="UTF-8" standalone="no"?>
<!DOCTYPE svg PUBLIC "-//W3C//DTD SVG 1.1//EN"
 "http://www.w3.org/Graphics/SVG/1.1/DTD/svg11.dtd">
<!-- Generated by graphviz version 2.43.0 (0)
 -->
<!-- Title: Graphical Class Hierarchy Pages: 1 -->
<svg width="701pt" height="88pt"
 viewBox="0.00 0.00 701.00 88.00" xmlns="http://www.w3.org/2000/svg" xmlns:xlink="http://www.w3.org/1999/xlink">
<g id="graph0" class="graph" transform="scale(1 1) rotate(0) translate(4 84)">
<title>Graphical Class Hierarchy</title>
<polygon fill="white" stroke="transparent" points="-4,4 -4,-84 697,-84 697,4 -4,4"/>
<!-- Node0 -->
<g id="node1" class="node">
<title>Node0</title>
<g id="a_node1"><a xlink:href="classfem_1_1discretization_1_1boundaryconditions_1_1BoundaryCondition.html" target="_top" xlink:title="Boundary condition base class.">
<polygon fill="white" stroke="black" points="0,-24.5 0,-54.5 207,-54.5 207,-24.5 0,-24.5"/>
<text text-anchor="start" x="8" y="-42.5" font-family="Helvetica,sans-Serif" font-size="10.00">fem.discretization.boundaryconditions.</text>
<text text-anchor="middle" x="103.5" y="-31.5" font-family="Helvetica,sans-Serif" font-size="10.00">BoundaryCondition</text>
</a>
</g>
</g>
<!-- Node1 -->
<g id="node2" class="node">
<title>Node1</title>
<g id="a_node2"><a xlink:href="classfem_1_1discretization_1_1boundaryconditions_1_1NeumannBoundary.html" target="_top" xlink:title=" ">
<polygon fill="white" stroke="black" points="243,-49.5 243,-79.5 450,-79.5 450,-49.5 243,-49.5"/>
<text text-anchor="start" x="251" y="-67.5" font-family="Helvetica,sans-Serif" font-size="10.00">fem.discretization.boundaryconditions.</text>
<text text-anchor="middle" x="346.5" y="-56.5" font-family="Helvetica,sans-Serif" font-size="10.00">NeumannBoundary</text>
</a>
</g>
</g>
<!-- Node0&#45;&gt;Node1 -->
<g id="edge1" class="edge">
<title>Node0&#45;&gt;Node1</title>
<path fill="none" stroke="midnightblue" d="M217.05,-51.17C225.59,-52.06 234.18,-52.95 242.65,-53.83"/>
<polygon fill="midnightblue" stroke="midnightblue" points="217.36,-47.69 207.06,-50.14 216.64,-54.65 217.36,-47.69"/>
</g>
<!-- Node2 -->
<g id="node3" class="node">
<title>Node2</title>
<g id="a_node3"><a xlink:href="classfem_1_1discretization_1_1boundaryconditions_1_1PenaltyBoundaryCondition.html" target="_top" xlink:title=" ">
<polygon fill="white" stroke="black" points="243,-0.5 243,-30.5 450,-30.5 450,-0.5 243,-0.5"/>
<text text-anchor="start" x="251" y="-18.5" font-family="Helvetica,sans-Serif" font-size="10.00">fem.discretization.boundaryconditions.</text>
<text text-anchor="middle" x="346.5" y="-7.5" font-family="Helvetica,sans-Serif" font-size="10.00">PenaltyBoundaryCondition</text>
</a>
</g>
</g>
<!-- Node0&#45;&gt;Node2 -->
<g id="edge2" class="edge">
<title>Node0&#45;&gt;Node2</title>
<path fill="none" stroke="midnightblue" d="M217.05,-28.29C225.59,-27.44 234.18,-26.59 242.65,-25.74"/>
<polygon fill="midnightblue" stroke="midnightblue" points="216.66,-24.81 207.06,-29.29 217.35,-31.78 216.66,-24.81"/>
</g>
<!-- Node3 -->
<g id="node4" class="node">
<title>Node3</title>
<g id="a_node4"><a xlink:href="classfem_1_1discretization_1_1boundaryconditions_1_1DirichletBoundary.html" target="_top" xlink:title=" ">
<polygon fill="white" stroke="black" points="486,-0.5 486,-30.5 693,-30.5 693,-0.5 486,-0.5"/>
<text text-anchor="start" x="494" y="-18.5" font-family="Helvetica,sans-Serif" font-size="10.00">fem.discretization.boundaryconditions.</text>
<text text-anchor="middle" x="589.5" y="-7.5" font-family="Helvetica,sans-Serif" font-size="10.00">DirichletBoundary</text>
</a>
</g>
</g>
<!-- Node2&#45;&gt;Node3 -->
<g id="edge3" class="edge">
<title>Node2&#45;&gt;Node3</title>
<path fill="none" stroke="midnightblue" d="M460.32,-15.5C468.77,-15.5 477.27,-15.5 485.65,-15.5"/>
<polygon fill="midnightblue" stroke="midnightblue" points="460.06,-12 450.06,-15.5 460.06,-19 460.06,-12"/>
</g>
</g>
</svg>
