<?xml version="1.0" encoding="UTF-8" standalone="no"?>
<!DOCTYPE svg PUBLIC "-//W3C//DTD SVG 1.1//EN"
 "http://www.w3.org/Graphics/SVG/1.1/DTD/svg11.dtd">
<!-- Generated by graphviz version 2.43.0 (0)
 -->
<!-- Title: Graphical Class Hierarchy Pages: 1 -->
<svg width="402pt" height="88pt"
 viewBox="0.00 0.00 402.00 88.00" xmlns="http://www.w3.org/2000/svg" xmlns:xlink="http://www.w3.org/1999/xlink">
<g id="graph0" class="graph" transform="scale(1 1) rotate(0) translate(4 84)">
<title>Graphical Class Hierarchy</title>
<polygon fill="white" stroke="transparent" points="-4,4 -4,-84 398,-84 398,4 -4,4"/>
<!-- Node0 -->
<g id="node1" class="node">
<title>Node0</title>
<g id="a_node1"><a xlink:href="structcie_1_1fem_1_1maths_1_1ExpressionTraits.html" target="_top" xlink:title=" ">
<polygon fill="white" stroke="black" points="0,-19 0,-60 152,-60 152,-19 0,-19"/>
<text text-anchor="start" x="8" y="-48" font-family="Helvetica,sans-Serif" font-size="10.00">cie::fem::maths::Expression</text>
<text text-anchor="start" x="8" y="-37" font-family="Helvetica,sans-Serif" font-size="10.00">Traits&lt; TScalarExpression</text>
<text text-anchor="middle" x="76" y="-26" font-family="Helvetica,sans-Serif" font-size="10.00">::Value &gt;</text>
</a>
</g>
</g>
<!-- Node1 -->
<g id="node2" class="node">
<title>Node1</title>
<g id="a_node2"><a xlink:href="classcie_1_1fem_1_1maths_1_1AnsatzSpace.html" target="_top" xlink:title="A set of multidimensional functions constructed from the cartesian product of a set of scalar basis f...">
<polygon fill="white" stroke="black" points="210.5,-49.5 210.5,-79.5 371.5,-79.5 371.5,-49.5 210.5,-49.5"/>
<text text-anchor="start" x="218.5" y="-67.5" font-family="Helvetica,sans-Serif" font-size="10.00">cie::fem::maths::AnsatzSpace</text>
<text text-anchor="middle" x="291" y="-56.5" font-family="Helvetica,sans-Serif" font-size="10.00">&lt; TScalarExpression, Dim &gt;</text>
</a>
</g>
</g>
<!-- Node0&#45;&gt;Node1 -->
<g id="edge1" class="edge">
<title>Node0&#45;&gt;Node1</title>
<path fill="none" stroke="midnightblue" d="M162.36,-49.52C178.13,-51.37 194.56,-53.3 210.16,-55.13"/>
<polygon fill="midnightblue" stroke="midnightblue" points="162.44,-46 152.1,-48.31 161.62,-52.96 162.44,-46"/>
</g>
<!-- Node2 -->
<g id="node3" class="node">
<title>Node2</title>
<g id="a_node3"><a xlink:href="classcie_1_1fem_1_1maths_1_1AnsatzSpaceDerivative.html" target="_top" xlink:title=" ">
<polygon fill="white" stroke="black" points="188,-0.5 188,-30.5 394,-30.5 394,-0.5 188,-0.5"/>
<text text-anchor="start" x="196" y="-18.5" font-family="Helvetica,sans-Serif" font-size="10.00">cie::fem::maths::AnsatzSpace</text>
<text text-anchor="middle" x="291" y="-7.5" font-family="Helvetica,sans-Serif" font-size="10.00">Derivative&lt; TScalarExpression, Dim &gt;</text>
</a>
</g>
</g>
<!-- Node0&#45;&gt;Node2 -->
<g id="edge2" class="edge">
<title>Node0&#45;&gt;Node2</title>
<path fill="none" stroke="midnightblue" d="M162.29,-29.89C170.74,-28.94 179.37,-27.96 187.97,-27"/>
<polygon fill="midnightblue" stroke="midnightblue" points="161.64,-26.44 152.1,-31.04 162.42,-33.4 161.64,-26.44"/>
</g>
</g>
</svg>
