<?xml version="1.0" encoding="UTF-8" standalone="no"?>
<!DOCTYPE svg PUBLIC "-//W3C//DTD SVG 1.1//EN"
 "http://www.w3.org/Graphics/SVG/1.1/DTD/svg11.dtd">
<!-- Generated by graphviz version 2.43.0 (0)
 -->
<!-- Title: kernel.hpp Pages: 1 -->
<svg width="583pt" height="140pt"
 viewBox="0.00 0.00 583.00 140.00" xmlns="http://www.w3.org/2000/svg" xmlns:xlink="http://www.w3.org/1999/xlink">
<g id="graph0" class="graph" transform="scale(1 1) rotate(0) translate(4 136)">
<title>kernel.hpp</title>
<polygon fill="white" stroke="transparent" points="-4,4 -4,-136 579,-136 579,4 -4,4"/>
<!-- Node1 -->
<g id="node1" class="node">
<title>Node1</title>
<g id="a_node1"><a xlink:title=" ">
<polygon fill="#bfbfbf" stroke="black" points="281,-112.5 281,-131.5 349,-131.5 349,-112.5 281,-112.5"/>
<text text-anchor="middle" x="315" y="-119.5" font-family="Helvetica,sans-Serif" font-size="10.00">kernel.hpp</text>
</a>
</g>
</g>
<!-- Node2 -->
<g id="node2" class="node">
<title>Node2</title>
<g id="a_node2"><a xlink:href="connectivity_8hpp.html" target="_top" xlink:title=" ">
<polygon fill="white" stroke="black" points="0,-56.5 0,-75.5 96,-75.5 96,-56.5 0,-56.5"/>
<text text-anchor="middle" x="48" y="-63.5" font-family="Helvetica,sans-Serif" font-size="10.00">connectivity.hpp</text>
</a>
</g>
</g>
<!-- Node1&#45;&gt;Node2 -->
<g id="edge1" class="edge">
<title>Node1&#45;&gt;Node2</title>
<path fill="none" stroke="midnightblue" d="M271.02,-112.11C220.92,-101.97 139.6,-85.53 90.23,-75.54"/>
<polygon fill="midnightblue" stroke="midnightblue" points="270.42,-115.55 280.91,-114.11 271.81,-108.69 270.42,-115.55"/>
</g>
<!-- Node4 -->
<g id="node4" class="node">
<title>Node4</title>
<g id="a_node4"><a xlink:href="AffineTransform_8hpp.html" target="_top" xlink:title=" ">
<polygon fill="white" stroke="black" points="114.5,-56.5 114.5,-75.5 229.5,-75.5 229.5,-56.5 114.5,-56.5"/>
<text text-anchor="middle" x="172" y="-63.5" font-family="Helvetica,sans-Serif" font-size="10.00">AffineTransform.hpp</text>
</a>
</g>
</g>
<!-- Node1&#45;&gt;Node4 -->
<g id="edge3" class="edge">
<title>Node1&#45;&gt;Node4</title>
<path fill="none" stroke="midnightblue" d="M282.97,-108.91C256.09,-98.75 218.36,-84.51 194.55,-75.52"/>
<polygon fill="midnightblue" stroke="midnightblue" points="281.75,-112.19 292.34,-112.44 284.22,-105.64 281.75,-112.19"/>
</g>
<!-- Node5 -->
<g id="node5" class="node">
<title>Node5</title>
<g id="a_node5"><a xlink:href="ProjectiveTransform_8hpp.html" target="_top" xlink:title=" ">
<polygon fill="white" stroke="black" points="247.5,-56.5 247.5,-75.5 382.5,-75.5 382.5,-56.5 247.5,-56.5"/>
<text text-anchor="middle" x="315" y="-63.5" font-family="Helvetica,sans-Serif" font-size="10.00">ProjectiveTransform.hpp</text>
</a>
</g>
</g>
<!-- Node1&#45;&gt;Node5 -->
<g id="edge4" class="edge">
<title>Node1&#45;&gt;Node5</title>
<path fill="none" stroke="midnightblue" d="M315,-101.8C315,-92.91 315,-82.78 315,-75.75"/>
<polygon fill="midnightblue" stroke="midnightblue" points="311.5,-102.08 315,-112.08 318.5,-102.08 311.5,-102.08"/>
</g>
<!-- Node6 -->
<g id="node6" class="node">
<title>Node6</title>
<g id="a_node6"><a xlink:href="Quadrature_8hpp.html" target="_top" xlink:title=" ">
<polygon fill="white" stroke="black" points="401,-56.5 401,-75.5 493,-75.5 493,-56.5 401,-56.5"/>
<text text-anchor="middle" x="447" y="-63.5" font-family="Helvetica,sans-Serif" font-size="10.00">Quadrature.hpp</text>
</a>
</g>
</g>
<!-- Node1&#45;&gt;Node6 -->
<g id="edge5" class="edge">
<title>Node1&#45;&gt;Node6</title>
<path fill="none" stroke="midnightblue" d="M345.22,-108.64C369.99,-98.5 404.4,-84.43 426.18,-75.52"/>
<polygon fill="midnightblue" stroke="midnightblue" points="343.85,-105.42 335.92,-112.44 346.5,-111.9 343.85,-105.42"/>
</g>
<!-- Node7 -->
<g id="node7" class="node">
<title>Node7</title>
<g id="a_node7"><a xlink:href="Traits_8hpp.html" target="_top" xlink:title=" ">
<polygon fill="white" stroke="black" points="511,-56.5 511,-75.5 575,-75.5 575,-56.5 511,-56.5"/>
<text text-anchor="middle" x="543" y="-63.5" font-family="Helvetica,sans-Serif" font-size="10.00">Traits.hpp</text>
</a>
</g>
</g>
<!-- Node1&#45;&gt;Node7 -->
<g id="edge6" class="edge">
<title>Node1&#45;&gt;Node7</title>
<path fill="none" stroke="midnightblue" d="M359.08,-110.56C403.57,-100.02 471.19,-84.01 510.85,-74.62"/>
<polygon fill="midnightblue" stroke="midnightblue" points="358.06,-107.21 349.13,-112.92 359.67,-114.02 358.06,-107.21"/>
</g>
<!-- Node3 -->
<g id="node3" class="node">
<title>Node3</title>
<g id="a_node3"><a xlink:href="Assembler_8hpp.html" target="_top" xlink:title=" ">
<polygon fill="white" stroke="black" points="3.5,-0.5 3.5,-19.5 92.5,-19.5 92.5,-0.5 3.5,-0.5"/>
<text text-anchor="middle" x="48" y="-7.5" font-family="Helvetica,sans-Serif" font-size="10.00">Assembler.hpp</text>
</a>
</g>
</g>
<!-- Node2&#45;&gt;Node3 -->
<g id="edge2" class="edge">
<title>Node2&#45;&gt;Node3</title>
<path fill="none" stroke="midnightblue" d="M48,-45.8C48,-36.91 48,-26.78 48,-19.75"/>
<polygon fill="midnightblue" stroke="midnightblue" points="44.5,-46.08 48,-56.08 51.5,-46.08 44.5,-46.08"/>
</g>
</g>
</svg>
