<?xml version="1.0" encoding="UTF-8" standalone="no"?>
<!DOCTYPE svg PUBLIC "-//W3C//DTD SVG 1.1//EN"
 "http://www.w3.org/Graphics/SVG/1.1/DTD/svg11.dtd">
<!-- Generated by graphviz version 2.43.0 (0)
 -->
<!-- Title: kernel.hpp Pages: 1 -->
<svg width="1256pt" height="106pt"
 viewBox="0.00 0.00 1256.00 106.00" xmlns="http://www.w3.org/2000/svg" xmlns:xlink="http://www.w3.org/1999/xlink">
<g id="graph0" class="graph" transform="scale(1 1) rotate(0) translate(4 102)">
<title>kernel.hpp</title>
<polygon fill="white" stroke="transparent" points="-4,4 -4,-102 1252,-102 1252,4 -4,4"/>
<!-- Node1 -->
<g id="node1" class="node">
<title>Node1</title>
<g id="a_node1"><a xlink:title=" ">
<polygon fill="#bfbfbf" stroke="black" points="627.5,-78.5 627.5,-97.5 695.5,-97.5 695.5,-78.5 627.5,-78.5"/>
<text text-anchor="middle" x="661.5" y="-85.5" font-family="Helvetica,sans-Serif" font-size="10.00">kernel.hpp</text>
</a>
</g>
</g>
<!-- Node2 -->
<g id="node2" class="node">
<title>Node2</title>
<g id="a_node2"><a xlink:title=" ">
<polygon fill="white" stroke="#bfbfbf" points="0,-11.5 0,-30.5 77,-30.5 77,-11.5 0,-11.5"/>
<text text-anchor="middle" x="38.5" y="-18.5" font-family="Helvetica,sans-Serif" font-size="10.00">Eigen/Dense</text>
</a>
</g>
</g>
<!-- Node1&#45;&gt;Node2 -->
<g id="edge1" class="edge">
<title>Node1&#45;&gt;Node2</title>
<path fill="none" stroke="midnightblue" d="M627.43,-85.75C520.16,-81.58 190.29,-67.01 86.5,-42 79.31,-40.27 71.8,-37.59 64.91,-34.76"/>
<polygon fill="midnightblue" stroke="midnightblue" points="65.95,-31.39 55.39,-30.58 63.14,-37.8 65.95,-31.39"/>
</g>
<!-- Node3 -->
<g id="node3" class="node">
<title>Node3</title>
<g id="a_node3"><a target="_parent" xlink:href="../../../cieutils/docs/html/basic__concepts_8hpp.html.html" xlink:title=" ">
<polygon fill="white" stroke="black" points="95.5,-0.5 95.5,-41.5 227.5,-41.5 227.5,-0.5 95.5,-0.5"/>
<text text-anchor="start" x="103.5" y="-29.5" font-family="Helvetica,sans-Serif" font-size="10.00">packages/compile_time</text>
<text text-anchor="start" x="103.5" y="-18.5" font-family="Helvetica,sans-Serif" font-size="10.00">/packages/concepts/inc</text>
<text text-anchor="middle" x="161.5" y="-7.5" font-family="Helvetica,sans-Serif" font-size="10.00">/basic_concepts.hpp</text>
</a>
</g>
</g>
<!-- Node1&#45;&gt;Node3 -->
<g id="edge2" class="edge">
<title>Node1&#45;&gt;Node3</title>
<path fill="none" stroke="midnightblue" d="M627.36,-85.19C556.42,-81.03 387.86,-69.17 237.5,-42.04"/>
<polygon fill="midnightblue" stroke="midnightblue" points="238.09,-38.59 227.63,-40.23 236.83,-45.47 238.09,-38.59"/>
</g>
<!-- Node4 -->
<g id="node4" class="node">
<title>Node4</title>
<g id="a_node4"><a target="_parent" xlink:href="../../../cieutils/docs/html/types_8hpp.html.html" xlink:title=" ">
<polygon fill="white" stroke="black" points="245.5,-6 245.5,-36 355.5,-36 355.5,-6 245.5,-6"/>
<text text-anchor="start" x="253.5" y="-24" font-family="Helvetica,sans-Serif" font-size="10.00">packages/types/inc</text>
<text text-anchor="middle" x="300.5" y="-13" font-family="Helvetica,sans-Serif" font-size="10.00">/types.hpp</text>
</a>
</g>
</g>
<!-- Node1&#45;&gt;Node4 -->
<g id="edge3" class="edge">
<title>Node1&#45;&gt;Node4</title>
<path fill="none" stroke="midnightblue" d="M627.33,-83.54C571.75,-77.53 458.51,-63.68 364.5,-42 360.42,-41.06 356.22,-39.99 352.01,-38.84"/>
<polygon fill="midnightblue" stroke="midnightblue" points="352.83,-35.43 342.25,-36.05 350.9,-42.16 352.83,-35.43"/>
</g>
<!-- Node5 -->
<g id="node5" class="node">
<title>Node5</title>
<g id="a_node5"><a target="_parent" xlink:href="../../../cieutils/docs/html/StaticArray_8hpp.html.html" xlink:title=" ">
<polygon fill="white" stroke="black" points="374,-6 374,-36 505,-36 505,-6 374,-6"/>
<text text-anchor="start" x="382" y="-24" font-family="Helvetica,sans-Serif" font-size="10.00">packages/stl_extension</text>
<text text-anchor="middle" x="439.5" y="-13" font-family="Helvetica,sans-Serif" font-size="10.00">/inc/StaticArray.hpp</text>
</a>
</g>
</g>
<!-- Node1&#45;&gt;Node5 -->
<g id="edge4" class="edge">
<title>Node1&#45;&gt;Node5</title>
<path fill="none" stroke="midnightblue" d="M632.02,-78.37C597.77,-68.34 540.44,-51.56 497.23,-38.9"/>
<polygon fill="midnightblue" stroke="midnightblue" points="497.99,-35.48 487.41,-36.03 496.02,-42.2 497.99,-35.48"/>
</g>
<!-- Node6 -->
<g id="node6" class="node">
<title>Node6</title>
<g id="a_node6"><a target="_parent" xlink:href="../../../cieutils/docs/html/StrongTypeDef_8hpp.html.html" xlink:title=" ">
<polygon fill="white" stroke="black" points="523,-6 523,-36 654,-36 654,-6 523,-6"/>
<text text-anchor="start" x="531" y="-24" font-family="Helvetica,sans-Serif" font-size="10.00">packages/stl_extension</text>
<text text-anchor="middle" x="588.5" y="-13" font-family="Helvetica,sans-Serif" font-size="10.00">/inc/StrongTypeDef.hpp</text>
</a>
</g>
</g>
<!-- Node1&#45;&gt;Node6 -->
<g id="edge5" class="edge">
<title>Node1&#45;&gt;Node6</title>
<path fill="none" stroke="midnightblue" d="M651.65,-78.23C641.5,-69.2 625.31,-54.77 611.86,-42.8"/>
<polygon fill="midnightblue" stroke="midnightblue" points="614.12,-40.13 604.32,-36.09 609.46,-45.35 614.12,-40.13"/>
</g>
<!-- Node7 -->
<g id="node7" class="node">
<title>Node7</title>
<g id="a_node7"><a target="_parent" xlink:href="../../../linalg/docs/html/StaticEigenMatrix_8hpp.html.html" xlink:title=" ">
<polygon fill="white" stroke="black" points="672,-6 672,-36 799,-36 799,-6 672,-6"/>
<text text-anchor="start" x="680" y="-24" font-family="Helvetica,sans-Serif" font-size="10.00">packages/matrix/inc</text>
<text text-anchor="middle" x="735.5" y="-13" font-family="Helvetica,sans-Serif" font-size="10.00">/StaticEigenMatrix.hpp</text>
</a>
</g>
</g>
<!-- Node1&#45;&gt;Node7 -->
<g id="edge6" class="edge">
<title>Node1&#45;&gt;Node7</title>
<path fill="none" stroke="midnightblue" d="M671.48,-78.23C681.77,-69.2 698.19,-54.77 711.82,-42.8"/>
<polygon fill="midnightblue" stroke="midnightblue" points="714.26,-45.32 719.46,-36.09 709.64,-40.06 714.26,-45.32"/>
</g>
<!-- Node8 -->
<g id="node8" class="node">
<title>Node8</title>
<g id="a_node8"><a target="_parent" xlink:href="../../../linalg/docs/html/DynamicEigenMatrix_8hpp.html.html" xlink:title=" ">
<polygon fill="white" stroke="black" points="817,-6 817,-36 960,-36 960,-6 817,-6"/>
<text text-anchor="start" x="825" y="-24" font-family="Helvetica,sans-Serif" font-size="10.00">packages/matrix/inc</text>
<text text-anchor="middle" x="888.5" y="-13" font-family="Helvetica,sans-Serif" font-size="10.00">/DynamicEigenMatrix.hpp</text>
</a>
</g>
</g>
<!-- Node1&#45;&gt;Node8 -->
<g id="edge7" class="edge">
<title>Node1&#45;&gt;Node8</title>
<path fill="none" stroke="midnightblue" d="M691.64,-78.37C726.74,-68.32 785.53,-51.49 829.74,-38.82"/>
<polygon fill="midnightblue" stroke="midnightblue" points="830.86,-42.15 839.51,-36.03 828.93,-35.42 830.86,-42.15"/>
</g>
<!-- Node9 -->
<g id="node9" class="node">
<title>Node9</title>
<g id="a_node9"><a target="_parent" xlink:href="../../../linalg/docs/html/SparseEigenMatrix_8hpp.html.html" xlink:title=" ">
<polygon fill="white" stroke="black" points="978.5,-6 978.5,-36 1110.5,-36 1110.5,-6 978.5,-6"/>
<text text-anchor="start" x="986.5" y="-24" font-family="Helvetica,sans-Serif" font-size="10.00">packages/matrix/inc</text>
<text text-anchor="middle" x="1044.5" y="-13" font-family="Helvetica,sans-Serif" font-size="10.00">/SparseEigenMatrix.hpp</text>
</a>
</g>
</g>
<!-- Node1&#45;&gt;Node9 -->
<g id="edge8" class="edge">
<title>Node1&#45;&gt;Node9</title>
<path fill="none" stroke="midnightblue" d="M695.91,-83.29C753.07,-76.83 871.05,-62.25 969.5,-42 974.57,-40.96 979.8,-39.78 985.04,-38.53"/>
<polygon fill="midnightblue" stroke="midnightblue" points="986.2,-41.84 995.07,-36.05 984.52,-35.05 986.2,-41.84"/>
</g>
<!-- Node10 -->
<g id="node10" class="node">
<title>Node10</title>
<g id="a_node10"><a xlink:title=" ">
<polygon fill="white" stroke="#bfbfbf" points="1128.5,-11.5 1128.5,-30.5 1170.5,-30.5 1170.5,-11.5 1128.5,-11.5"/>
<text text-anchor="middle" x="1149.5" y="-18.5" font-family="Helvetica,sans-Serif" font-size="10.00">array</text>
</a>
</g>
</g>
<!-- Node1&#45;&gt;Node10 -->
<g id="edge9" class="edge">
<title>Node1&#45;&gt;Node10</title>
<path fill="none" stroke="midnightblue" d="M695.51,-85.79C787.8,-82.19 1041.25,-69.94 1119.5,-42 1123.43,-40.6 1127.35,-38.56 1131,-36.33"/>
<polygon fill="midnightblue" stroke="midnightblue" points="1133.1,-39.14 1139.36,-30.59 1129.13,-33.37 1133.1,-39.14"/>
</g>
<!-- Node11 -->
<g id="node11" class="node">
<title>Node11</title>
<g id="a_node11"><a xlink:title=" ">
<polygon fill="white" stroke="#bfbfbf" points="1189,-11.5 1189,-30.5 1248,-30.5 1248,-11.5 1189,-11.5"/>
<text text-anchor="middle" x="1218.5" y="-18.5" font-family="Helvetica,sans-Serif" font-size="10.00">complex</text>
</a>
</g>
</g>
<!-- Node1&#45;&gt;Node11 -->
<g id="edge10" class="edge">
<title>Node1&#45;&gt;Node11</title>
<path fill="none" stroke="midnightblue" d="M695.76,-85.75C796.12,-81.8 1088.09,-68.31 1179.5,-42 1185.08,-40.4 1190.79,-37.97 1196.07,-35.36"/>
<polygon fill="midnightblue" stroke="midnightblue" points="1197.8,-38.4 1204.96,-30.59 1194.5,-32.23 1197.8,-38.4"/>
</g>
</g>
</svg>
