<?xml version="1.0" encoding="UTF-8" standalone="no"?>
<!DOCTYPE svg PUBLIC "-//W3C//DTD SVG 1.1//EN"
 "http://www.w3.org/Graphics/SVG/1.1/DTD/svg11.dtd">
<!-- Generated by graphviz version 2.43.0 (0)
 -->
<!-- Title: OrthogonalScaleTransform.hpp Pages: 1 -->
<!--zoomable 173 -->
<svg id="main" version="1.1" xmlns="http://www.w3.org/2000/svg" xmlns:xlink="http://www.w3.org/1999/xlink" xml:space="preserve" onload="init(evt)">
<style type="text/css"><![CDATA[
.edge:hover path { stroke: red; }
.edge:hover polygon { stroke: red; fill: red; }
]]></style>
<script type="text/javascript"><![CDATA[
var edges = document.getElementsByTagName('g');
if (edges && edges.length) {
  for (var i=0;i<edges.length;i++) {
    if (edges[i].id.substr(0,4)=='edge') {
      edges[i].setAttribute('class','edge');
    }
  }
}
]]></script>
        <defs>
                <circle id="rim" cx="0" cy="0" r="7"/>
                <circle id="rim2" cx="0" cy="0" r="3.5"/>
                <g id="zoomPlus">
                        <use xlink:href="#rim" fill="#404040">
                                <set attributeName="fill" to="#808080" begin="zoomplus.mouseover" end="zoomplus.mouseout"/>
                        </use>
                        <path d="M-4,0h8M0,-4v8" fill="none" stroke="white" stroke-width="1.5" pointer-events="none"/>
                </g>
                <g id="zoomMin">
                        <use xlink:href="#rim" fill="#404040">
                                <set attributeName="fill" to="#808080" begin="zoomminus.mouseover" end="zoomminus.mouseout"/>
                        </use>
                        <path d="M-4,0h8" fill="none" stroke="white" stroke-width="1.5" pointer-events="none"/>
                </g>
                <g id="dirArrow">
                        <path fill="none" stroke="white" stroke-width="1.5" d="M0,-3.0v7 M-2.5,-0.5L0,-3.0L2.5,-0.5"/>
                </g>
               <g id="resetDef">
                       <use xlink:href="#rim2" fill="#404040">
                               <set attributeName="fill" to="#808080" begin="reset.mouseover" end="reset.mouseout"/>
                       </use>
               </g>
        </defs>

<script type="text/javascript">
var viewWidth = 876;
var viewHeight = 173;
var sectionId = 'dynsection-0';
</script>
<script xlink:href="svgpan.js"/>
<svg id="graph" class="graph">
<g id="viewport">
<title>OrthogonalScaleTransform.hpp</title>
<polygon fill="white" stroke="transparent" points="-4,4 -4,-169 871.5,-169 871.5,4 -4,4"/>
<!-- Node1 -->
<g id="node1" class="node">
<title>Node1</title>
<g id="a_node1"><a xlink:title=" ">
<polygon fill="#bfbfbf" stroke="black" points="338.5,-145.5 338.5,-164.5 505.5,-164.5 505.5,-145.5 338.5,-145.5"/>
<text text-anchor="middle" x="422" y="-152.5" font-family="Helvetica,sans-Serif" font-size="10.00">OrthogonalScaleTransform.hpp</text>
</a>
</g>
</g>
<!-- Node2 -->
<g id="node2" class="node">
<title>Node2</title>
<g id="a_node2"><a target="_parent" xlink:href="../../../cieutils/docs/html/iterator__concepts_8hpp.html.html" xlink:title=" ">
<polygon fill="white" stroke="black" points="0,-67.5 0,-108.5 132,-108.5 132,-67.5 0,-67.5"/>
<text text-anchor="start" x="8" y="-96.5" font-family="Helvetica,sans-Serif" font-size="10.00">packages/compile_time</text>
<text text-anchor="start" x="8" y="-85.5" font-family="Helvetica,sans-Serif" font-size="10.00">/packages/concepts/inc</text>
<text text-anchor="middle" x="66" y="-74.5" font-family="Helvetica,sans-Serif" font-size="10.00">/iterator_concepts.hpp</text>
</a>
</g>
</g>
<!-- Node1&#45;&gt;Node2 -->
<g id="edge1" class="edge">
<title>Node1&#45;&gt;Node2</title>
<path fill="none" stroke="midnightblue" d="M357.73,-145.5C300.76,-137.53 215.46,-124.53 142,-109 141.9,-108.98 141.8,-108.96 141.7,-108.94"/>
<polygon fill="midnightblue" stroke="midnightblue" points="142.75,-105.58 132.23,-106.84 141.23,-112.42 142.75,-105.58"/>
</g>
<!-- Node3 -->
<g id="node3" class="node">
<title>Node3</title>
<g id="a_node3"><a xlink:href="Expression_8hpp.html" target="_top" xlink:title=" ">
<polygon fill="white" stroke="black" points="150.5,-73 150.5,-103 263.5,-103 263.5,-73 150.5,-73"/>
<text text-anchor="start" x="158.5" y="-91" font-family="Helvetica,sans-Serif" font-size="10.00">packages/maths/inc</text>
<text text-anchor="middle" x="207" y="-80" font-family="Helvetica,sans-Serif" font-size="10.00">/Expression.hpp</text>
</a>
</g>
</g>
<!-- Node1&#45;&gt;Node3 -->
<g id="edge2" class="edge">
<title>Node1&#45;&gt;Node3</title>
<path fill="none" stroke="midnightblue" d="M393.71,-145.46C363.74,-136.42 315.03,-121.71 273,-109 269.85,-108.05 266.61,-107.07 263.35,-106.08"/>
<polygon fill="midnightblue" stroke="midnightblue" points="264.1,-102.65 253.51,-103.1 262.07,-109.35 264.1,-102.65"/>
</g>
<!-- Node8 -->
<g id="node8" class="node">
<title>Node8</title>
<g id="a_node8"><a target="_parent" xlink:href="../../../cieutils/docs/html/StaticArray_8hpp.html.html" xlink:title=" ">
<polygon fill="white" stroke="black" points="281.5,-73 281.5,-103 412.5,-103 412.5,-73 281.5,-73"/>
<text text-anchor="start" x="289.5" y="-91" font-family="Helvetica,sans-Serif" font-size="10.00">packages/stl_extension</text>
<text text-anchor="middle" x="347" y="-80" font-family="Helvetica,sans-Serif" font-size="10.00">/inc/StaticArray.hpp</text>
</a>
</g>
</g>
<!-- Node1&#45;&gt;Node8 -->
<g id="edge7" class="edge">
<title>Node1&#45;&gt;Node8</title>
<path fill="none" stroke="midnightblue" d="M411.89,-145.23C401.46,-136.2 384.82,-121.77 371,-109.8"/>
<polygon fill="midnightblue" stroke="midnightblue" points="373.11,-106.99 363.26,-103.09 368.52,-112.28 373.11,-106.99"/>
</g>
<!-- Node9 -->
<g id="node9" class="node">
<title>Node9</title>
<g id="a_node9"><a target="_parent" xlink:href="../../../cieutils/docs/html/basic__concepts_8hpp.html.html" xlink:title=" ">
<polygon fill="white" stroke="black" points="431,-67.5 431,-108.5 563,-108.5 563,-67.5 431,-67.5"/>
<text text-anchor="start" x="439" y="-96.5" font-family="Helvetica,sans-Serif" font-size="10.00">packages/compile_time</text>
<text text-anchor="start" x="439" y="-85.5" font-family="Helvetica,sans-Serif" font-size="10.00">/packages/concepts/inc</text>
<text text-anchor="middle" x="497" y="-74.5" font-family="Helvetica,sans-Serif" font-size="10.00">/basic_concepts.hpp</text>
</a>
</g>
</g>
<!-- Node1&#45;&gt;Node9 -->
<g id="edge8" class="edge">
<title>Node1&#45;&gt;Node9</title>
<path fill="none" stroke="midnightblue" d="M432.11,-145.23C440.97,-137.56 454.31,-126 466.59,-115.36"/>
<polygon fill="midnightblue" stroke="midnightblue" points="469.19,-117.74 474.45,-108.54 464.6,-112.45 469.19,-117.74"/>
</g>
<!-- Node10 -->
<g id="node10" class="node">
<title>Node10</title>
<g id="a_node10"><a target="_parent" xlink:href="../../../cieutils/docs/html/typedefs_8hpp.html.html" xlink:title=" ">
<polygon fill="white" stroke="black" points="581.5,-73 581.5,-103 700.5,-103 700.5,-73 581.5,-73"/>
<text text-anchor="start" x="589.5" y="-91" font-family="Helvetica,sans-Serif" font-size="10.00">packages/macros/inc</text>
<text text-anchor="middle" x="641" y="-80" font-family="Helvetica,sans-Serif" font-size="10.00">/typedefs.hpp</text>
</a>
</g>
</g>
<!-- Node1&#45;&gt;Node10 -->
<g id="edge9" class="edge">
<title>Node1&#45;&gt;Node10</title>
<path fill="none" stroke="midnightblue" d="M451.08,-145.37C484.87,-135.34 541.42,-118.56 584.05,-105.9"/>
<polygon fill="midnightblue" stroke="midnightblue" points="585.15,-109.23 593.74,-103.03 583.15,-102.52 585.15,-109.23"/>
</g>
<!-- Node11 -->
<g id="node11" class="node">
<title>Node11</title>
<g id="a_node11"><a xlink:title=" ">
<polygon fill="white" stroke="#bfbfbf" points="718.5,-67.5 718.5,-108.5 867.5,-108.5 867.5,-67.5 718.5,-67.5"/>
<text text-anchor="start" x="726.5" y="-96.5" font-family="Helvetica,sans-Serif" font-size="10.00">packages/maths/impl</text>
<text text-anchor="start" x="726.5" y="-85.5" font-family="Helvetica,sans-Serif" font-size="10.00">/OrthogonalScaleTransform</text>
<text text-anchor="middle" x="793" y="-74.5" font-family="Helvetica,sans-Serif" font-size="10.00">_impl.hpp</text>
</a>
</g>
</g>
<!-- Node1&#45;&gt;Node11 -->
<g id="edge10" class="edge">
<title>Node1&#45;&gt;Node11</title>
<path fill="none" stroke="midnightblue" d="M486.32,-145.48C542.57,-137.68 626.67,-125.18 708.45,-109.24"/>
<polygon fill="midnightblue" stroke="midnightblue" points="709.27,-112.64 718.41,-107.28 707.92,-105.78 709.27,-112.64"/>
</g>
<!-- Node4 -->
<g id="node4" class="node">
<title>Node4</title>
<g id="a_node4"><a target="_parent" xlink:href="../../../cieutils/docs/html/types_8hpp.html.html" xlink:title=" ">
<polygon fill="white" stroke="black" points="20,-0.5 20,-30.5 130,-30.5 130,-0.5 20,-0.5"/>
<text text-anchor="start" x="28" y="-18.5" font-family="Helvetica,sans-Serif" font-size="10.00">packages/types/inc</text>
<text text-anchor="middle" x="75" y="-7.5" font-family="Helvetica,sans-Serif" font-size="10.00">/types.hpp</text>
</a>
</g>
</g>
<!-- Node3&#45;&gt;Node4 -->
<g id="edge3" class="edge">
<title>Node3&#45;&gt;Node4</title>
<path fill="none" stroke="midnightblue" d="M180.61,-72.9C160.46,-62.14 132.5,-47.21 110.42,-35.42"/>
<polygon fill="midnightblue" stroke="midnightblue" points="111.82,-32.2 101.35,-30.57 108.52,-38.37 111.82,-32.2"/>
</g>
<!-- Node5 -->
<g id="node5" class="node">
<title>Node5</title>
<g id="a_node5"><a xlink:title=" ">
<polygon fill="white" stroke="#bfbfbf" points="148.5,-6 148.5,-25 193.5,-25 193.5,-6 148.5,-6"/>
<text text-anchor="middle" x="171" y="-13" font-family="Helvetica,sans-Serif" font-size="10.00">utility</text>
</a>
</g>
</g>
<!-- Node3&#45;&gt;Node5 -->
<g id="edge4" class="edge">
<title>Node3&#45;&gt;Node5</title>
<path fill="none" stroke="midnightblue" d="M199.71,-72.73C194.06,-61.67 186.2,-46.27 180.13,-34.38"/>
<polygon fill="midnightblue" stroke="midnightblue" points="183.21,-32.71 175.54,-25.39 176.97,-35.89 183.21,-32.71"/>
</g>
<!-- Node6 -->
<g id="node6" class="node">
<title>Node6</title>
<g id="a_node6"><a xlink:title=" ">
<polygon fill="white" stroke="#bfbfbf" points="212,-6 212,-25 272,-25 272,-6 212,-6"/>
<text text-anchor="middle" x="242" y="-13" font-family="Helvetica,sans-Serif" font-size="10.00">concepts</text>
</a>
</g>
</g>
<!-- Node3&#45;&gt;Node6 -->
<g id="edge5" class="edge">
<title>Node3&#45;&gt;Node6</title>
<path fill="none" stroke="midnightblue" d="M214.08,-72.73C219.58,-61.67 227.22,-46.27 233.12,-34.38"/>
<polygon fill="midnightblue" stroke="midnightblue" points="236.27,-35.91 237.58,-25.39 230,-32.79 236.27,-35.91"/>
</g>
<!-- Node7 -->
<g id="node7" class="node">
<title>Node7</title>
<g id="a_node7"><a xlink:title=" ">
<polygon fill="white" stroke="#bfbfbf" points="290.5,-0.5 290.5,-30.5 411.5,-30.5 411.5,-0.5 290.5,-0.5"/>
<text text-anchor="start" x="298.5" y="-18.5" font-family="Helvetica,sans-Serif" font-size="10.00">packages/maths/impl</text>
<text text-anchor="middle" x="351" y="-7.5" font-family="Helvetica,sans-Serif" font-size="10.00">/Expression_impl.hpp</text>
</a>
</g>
</g>
<!-- Node3&#45;&gt;Node7 -->
<g id="edge6" class="edge">
<title>Node3&#45;&gt;Node7</title>
<path fill="none" stroke="midnightblue" d="M235.79,-72.9C257.97,-62.05 288.81,-46.95 313.01,-35.1"/>
<polygon fill="midnightblue" stroke="midnightblue" points="314.81,-38.11 322.26,-30.57 311.74,-31.83 314.81,-38.11"/>
</g>
</g>
</svg>
        <g id="navigator" transform="translate(0 0)" fill="#404254">
                <rect fill="#f2f5e9" fill-opacity="0.5" stroke="#606060" stroke-width=".5" x="0" y="0" width="60" height="60"/>
                <use id="zoomplus" xlink:href="#zoomPlus" x="17" y="9" onmousedown="handleZoom(evt,'in')"/>
                <use id="zoomminus" xlink:href="#zoomMin" x="42" y="9" onmousedown="handleZoom(evt,'out')"/>
                <use id="reset" xlink:href="#resetDef" x="30" y="36" onmousedown="handleReset()"/>
                <g id="arrowUp" xlink:href="#dirArrow" transform="translate(30 24)" onmousedown="handlePan(0,-1)">
                  <use xlink:href="#rim" fill="#404040">
                        <set attributeName="fill" to="#808080" begin="arrowUp.mouseover" end="arrowUp.mouseout"/>
                  </use>
                  <path fill="none" stroke="white" stroke-width="1.5" d="M0,-3.0v7 M-2.5,-0.5L0,-3.0L2.5,-0.5"/>
                </g>
                <g id="arrowRight" xlink:href="#dirArrow" transform="rotate(90) translate(36 -43)" onmousedown="handlePan(1,0)">
                  <use xlink:href="#rim" fill="#404040">
                        <set attributeName="fill" to="#808080" begin="arrowRight.mouseover" end="arrowRight.mouseout"/>
                  </use>
                  <path fill="none" stroke="white" stroke-width="1.5" d="M0,-3.0v7 M-2.5,-0.5L0,-3.0L2.5,-0.5"/>
                </g>
                <g id="arrowDown" xlink:href="#dirArrow" transform="rotate(180) translate(-30 -48)" onmousedown="handlePan(0,1)">
                  <use xlink:href="#rim" fill="#404040">
                        <set attributeName="fill" to="#808080" begin="arrowDown.mouseover" end="arrowDown.mouseout"/>
                  </use>
                  <path fill="none" stroke="white" stroke-width="1.5" d="M0,-3.0v7 M-2.5,-0.5L0,-3.0L2.5,-0.5"/>
                </g>
                <g id="arrowLeft" xlink:href="#dirArrow" transform="rotate(270) translate(-36 17)" onmousedown="handlePan(-1,0)">
                  <use xlink:href="#rim" fill="#404040">
                        <set attributeName="fill" to="#808080" begin="arrowLeft.mouseover" end="arrowLeft.mouseout"/>
                  </use>
                  <path fill="none" stroke="white" stroke-width="1.5" d="M0,-3.0v7 M-2.5,-0.5L0,-3.0L2.5,-0.5"/>
                </g>
        </g>
        <svg viewBox="0 0 15 15" width="100%" height="30px" preserveAspectRatio="xMaxYMin meet">
         <g id="arrow_out" transform="scale(0.3 0.3)">
          <a xlink:href="OrthogonalScaleTransform_8hpp__incl_org.svg" target="_base">
           <rect id="button" ry="5" rx="5" y="6" x="6" height="38" width="38"
                fill="#f2f5e9" fill-opacity="0.5" stroke="#606060" stroke-width="1.0"/>
           <path id="arrow"
             d="M 11.500037,31.436501 C 11.940474,20.09759 22.043105,11.32322 32.158766,21.979434 L 37.068811,17.246167 C 37.068811,17.246167 37.088388,32 37.088388,32 L 22.160133,31.978069 C 22.160133,31.978069 26.997745,27.140456 26.997745,27.140456 C 18.528582,18.264221 13.291696,25.230495 11.500037,31.436501 z"
             style="fill:#404040;"/>
          </a>
         </g>
        </svg>
</svg>
