<?xml version="1.0" encoding="UTF-8" standalone="no"?>
<!DOCTYPE svg PUBLIC "-//W3C//DTD SVG 1.1//EN"
 "http://www.w3.org/Graphics/SVG/1.1/DTD/svg11.dtd">
<!-- Generated by graphviz version 2.43.0 (0)
 -->
<!-- Title: PartitionManager.hpp Pages: 1 -->
<!--zoomable 251 -->
<svg id="main" version="1.1" xmlns="http://www.w3.org/2000/svg" xmlns:xlink="http://www.w3.org/1999/xlink" xml:space="preserve" onload="init(evt)">
<style type="text/css"><![CDATA[
.edge:hover path { stroke: red; }
.edge:hover polygon { stroke: red; fill: red; }
]]></style>
<script type="text/javascript"><![CDATA[
var edges = document.getElementsByTagName('g');
if (edges && edges.length) {
  for (var i=0;i<edges.length;i++) {
    if (edges[i].id.substr(0,4)=='edge') {
      edges[i].setAttribute('class','edge');
    }
  }
}
]]></script>
        <defs>
                <circle id="rim" cx="0" cy="0" r="7"/>
                <circle id="rim2" cx="0" cy="0" r="3.5"/>
                <g id="zoomPlus">
                        <use xlink:href="#rim" fill="#404040">
                                <set attributeName="fill" to="#808080" begin="zoomplus.mouseover" end="zoomplus.mouseout"/>
                        </use>
                        <path d="M-4,0h8M0,-4v8" fill="none" stroke="white" stroke-width="1.5" pointer-events="none"/>
                </g>
                <g id="zoomMin">
                        <use xlink:href="#rim" fill="#404040">
                                <set attributeName="fill" to="#808080" begin="zoomminus.mouseover" end="zoomminus.mouseout"/>
                        </use>
                        <path d="M-4,0h8" fill="none" stroke="white" stroke-width="1.5" pointer-events="none"/>
                </g>
                <g id="dirArrow">
                        <path fill="none" stroke="white" stroke-width="1.5" d="M0,-3.0v7 M-2.5,-0.5L0,-3.0L2.5,-0.5"/>
                </g>
               <g id="resetDef">
                       <use xlink:href="#rim2" fill="#404040">
                               <set attributeName="fill" to="#808080" begin="reset.mouseover" end="reset.mouseout"/>
                       </use>
               </g>
        </defs>

<script type="text/javascript">
var viewWidth = 948;
var viewHeight = 251;
var sectionId = 'dynsection-0';
</script>
<script xlink:href="svgpan.js"/>
<svg id="graph" class="graph">
<g id="viewport">
<title>PartitionManager.hpp</title>
<polygon fill="white" stroke="transparent" points="-4,4 -4,-247 943.5,-247 943.5,4 -4,4"/>
<!-- Node1 -->
<g id="node1" class="node">
<title>Node1</title>
<g id="a_node1"><a xlink:title=" ">
<polygon fill="#bfbfbf" stroke="black" points="520.5,-223.5 520.5,-242.5 640.5,-242.5 640.5,-223.5 520.5,-223.5"/>
<text text-anchor="middle" x="580.5" y="-230.5" font-family="Helvetica,sans-Serif" font-size="10.00">PartitionManager.hpp</text>
</a>
</g>
</g>
<!-- Node2 -->
<g id="node2" class="node">
<title>Node2</title>
<g id="a_node2"><a xlink:href="Partition_8hpp.html" target="_top" xlink:title=" ">
<polygon fill="white" stroke="black" points="458.5,-151 458.5,-181 568.5,-181 568.5,-151 458.5,-151"/>
<text text-anchor="start" x="466.5" y="-169" font-family="Helvetica,sans-Serif" font-size="10.00">packages/graph/inc</text>
<text text-anchor="middle" x="513.5" y="-158" font-family="Helvetica,sans-Serif" font-size="10.00">/Partition.hpp</text>
</a>
</g>
</g>
<!-- Node1&#45;&gt;Node2 -->
<g id="edge1" class="edge">
<title>Node1&#45;&gt;Node2</title>
<path fill="none" stroke="midnightblue" d="M571.46,-223.23C562.24,-214.28 547.56,-200.04 535.28,-188.13"/>
<polygon fill="midnightblue" stroke="midnightblue" points="537.64,-185.54 528.02,-181.09 532.76,-190.56 537.64,-185.54"/>
</g>
<!-- Node14 -->
<g id="node14" class="node">
<title>Node14</title>
<g id="a_node14"><a xlink:title=" ">
<polygon fill="white" stroke="#bfbfbf" points="586.5,-145.5 586.5,-186.5 710.5,-186.5 710.5,-145.5 586.5,-145.5"/>
<text text-anchor="start" x="594.5" y="-174.5" font-family="Helvetica,sans-Serif" font-size="10.00">packages/graph/impl</text>
<text text-anchor="start" x="594.5" y="-163.5" font-family="Helvetica,sans-Serif" font-size="10.00">/PartitionManager_pre</text>
<text text-anchor="middle" x="648.5" y="-152.5" font-family="Helvetica,sans-Serif" font-size="10.00">_impl.hpp</text>
</a>
</g>
</g>
<!-- Node1&#45;&gt;Node14 -->
<g id="edge14" class="edge">
<title>Node1&#45;&gt;Node14</title>
<path fill="none" stroke="midnightblue" d="M589.67,-223.23C597.62,-215.63 609.56,-204.22 620.61,-193.66"/>
<polygon fill="midnightblue" stroke="midnightblue" points="623.25,-195.98 628.06,-186.54 618.41,-190.92 623.25,-195.98"/>
</g>
<!-- Node3 -->
<g id="node3" class="node">
<title>Node3</title>
<g id="a_node3"><a xlink:href="AttributeContainer_8hpp.html" target="_top" xlink:title=" ">
<polygon fill="white" stroke="black" points="96,-78.5 96,-108.5 243,-108.5 243,-78.5 96,-78.5"/>
<text text-anchor="start" x="104" y="-96.5" font-family="Helvetica,sans-Serif" font-size="10.00">packages/utilities</text>
<text text-anchor="middle" x="169.5" y="-85.5" font-family="Helvetica,sans-Serif" font-size="10.00">/inc/AttributeContainer.hpp</text>
</a>
</g>
</g>
<!-- Node2&#45;&gt;Node3 -->
<g id="edge2" class="edge">
<title>Node2&#45;&gt;Node3</title>
<path fill="none" stroke="midnightblue" d="M458.23,-153.67C401.35,-142.02 312.23,-123.75 248.04,-110.6"/>
<polygon fill="midnightblue" stroke="midnightblue" points="248.46,-107.11 237.96,-108.53 247.06,-113.97 248.46,-107.11"/>
</g>
<!-- Node4 -->
<g id="node4" class="node">
<title>Node4</title>
<g id="a_node4"><a target="_parent" xlink:href="../../../cieutils/docs/html/DynamicArray_8hpp.html.html" xlink:title=" ">
<polygon fill="white" stroke="black" points="0,-6 0,-36 131,-36 131,-6 0,-6"/>
<text text-anchor="start" x="8" y="-24" font-family="Helvetica,sans-Serif" font-size="10.00">packages/stl_extension</text>
<text text-anchor="middle" x="65.5" y="-13" font-family="Helvetica,sans-Serif" font-size="10.00">/inc/DynamicArray.hpp</text>
</a>
</g>
</g>
<!-- Node2&#45;&gt;Node4 -->
<g id="edge7" class="edge">
<title>Node2&#45;&gt;Node4</title>
<path fill="none" stroke="midnightblue" d="M458.4,-165.26C355.61,-164.57 140.16,-157.23 86.5,-109 69.14,-93.4 64.93,-66.16 64.4,-46.31"/>
<polygon fill="midnightblue" stroke="midnightblue" points="67.9,-46.17 64.43,-36.16 60.9,-46.15 67.9,-46.17"/>
</g>
<!-- Node8 -->
<g id="node8" class="node">
<title>Node8</title>
<g id="a_node8"><a target="_parent" xlink:href="../../../cieutils/docs/html/NamedObject_8hpp.html.html" xlink:title=" ">
<polygon fill="white" stroke="black" points="261.5,-78.5 261.5,-108.5 371.5,-108.5 371.5,-78.5 261.5,-78.5"/>
<text text-anchor="start" x="269.5" y="-96.5" font-family="Helvetica,sans-Serif" font-size="10.00">packages/types/inc</text>
<text text-anchor="middle" x="316.5" y="-85.5" font-family="Helvetica,sans-Serif" font-size="10.00">/NamedObject.hpp</text>
</a>
</g>
</g>
<!-- Node2&#45;&gt;Node8 -->
<g id="edge8" class="edge">
<title>Node2&#45;&gt;Node8</title>
<path fill="none" stroke="midnightblue" d="M474.11,-150.9C442.84,-139.71 398.95,-124.01 365.43,-112.01"/>
<polygon fill="midnightblue" stroke="midnightblue" points="366.42,-108.65 355.82,-108.57 364.06,-115.24 366.42,-108.65"/>
</g>
<!-- Node9 -->
<g id="node9" class="node">
<title>Node9</title>
<g id="a_node9"><a target="_parent" xlink:href="../../../cieutils/docs/html/IDObject_8hpp.html.html" xlink:title=" ">
<polygon fill="white" stroke="black" points="389.5,-78.5 389.5,-108.5 499.5,-108.5 499.5,-78.5 389.5,-78.5"/>
<text text-anchor="start" x="397.5" y="-96.5" font-family="Helvetica,sans-Serif" font-size="10.00">packages/types/inc</text>
<text text-anchor="middle" x="444.5" y="-85.5" font-family="Helvetica,sans-Serif" font-size="10.00">/IDObject.hpp</text>
</a>
</g>
</g>
<!-- Node2&#45;&gt;Node9 -->
<g id="edge9" class="edge">
<title>Node2&#45;&gt;Node9</title>
<path fill="none" stroke="midnightblue" d="M499.54,-150.73C489.81,-140.8 476.66,-127.36 465.65,-116.11"/>
<polygon fill="midnightblue" stroke="midnightblue" points="467.94,-113.44 458.44,-108.75 462.94,-118.34 467.94,-113.44"/>
</g>
<!-- Node10 -->
<g id="node10" class="node">
<title>Node10</title>
<g id="a_node10"><a target="_parent" xlink:href="../../../cieutils/docs/html/StrongTypeDef_8hpp.html.html" xlink:title=" ">
<polygon fill="white" stroke="black" points="518,-78.5 518,-108.5 649,-108.5 649,-78.5 518,-78.5"/>
<text text-anchor="start" x="526" y="-96.5" font-family="Helvetica,sans-Serif" font-size="10.00">packages/stl_extension</text>
<text text-anchor="middle" x="583.5" y="-85.5" font-family="Helvetica,sans-Serif" font-size="10.00">/inc/StrongTypeDef.hpp</text>
</a>
</g>
</g>
<!-- Node2&#45;&gt;Node10 -->
<g id="edge10" class="edge">
<title>Node2&#45;&gt;Node10</title>
<path fill="none" stroke="midnightblue" d="M527.67,-150.73C537.53,-140.8 550.87,-127.36 562.04,-116.11"/>
<polygon fill="midnightblue" stroke="midnightblue" points="564.79,-118.31 569.36,-108.75 559.83,-113.38 564.79,-118.31"/>
</g>
<!-- Node11 -->
<g id="node11" class="node">
<title>Node11</title>
<g id="a_node11"><a xlink:title=" ">
<polygon fill="white" stroke="#bfbfbf" points="667.5,-84 667.5,-103 727.5,-103 727.5,-84 667.5,-84"/>
<text text-anchor="middle" x="697.5" y="-91" font-family="Helvetica,sans-Serif" font-size="10.00">concepts</text>
</a>
</g>
</g>
<!-- Node2&#45;&gt;Node11 -->
<g id="edge11" class="edge">
<title>Node2&#45;&gt;Node11</title>
<path fill="none" stroke="midnightblue" d="M550.29,-150.9C584.13,-137.94 633.77,-118.92 665.87,-106.62"/>
<polygon fill="midnightblue" stroke="midnightblue" points="667.14,-109.88 675.23,-103.03 664.64,-103.34 667.14,-109.88"/>
</g>
<!-- Node12 -->
<g id="node12" class="node">
<title>Node12</title>
<g id="a_node12"><a xlink:title=" ">
<polygon fill="white" stroke="#bfbfbf" points="745.5,-84 745.5,-103 803.5,-103 803.5,-84 745.5,-84"/>
<text text-anchor="middle" x="774.5" y="-91" font-family="Helvetica,sans-Serif" font-size="10.00">memory</text>
</a>
</g>
</g>
<!-- Node2&#45;&gt;Node12 -->
<g id="edge12" class="edge">
<title>Node2&#45;&gt;Node12</title>
<path fill="none" stroke="midnightblue" d="M556.74,-150.97C563.66,-148.88 570.76,-146.81 577.5,-145 647.47,-126.18 667.15,-129.97 736.5,-109 739.07,-108.22 741.72,-107.36 744.36,-106.44"/>
<polygon fill="midnightblue" stroke="midnightblue" points="745.58,-109.73 753.78,-103.02 743.18,-103.15 745.58,-109.73"/>
</g>
<!-- Node13 -->
<g id="node13" class="node">
<title>Node13</title>
<g id="a_node13"><a xlink:title=" ">
<polygon fill="white" stroke="#bfbfbf" points="821.5,-78.5 821.5,-108.5 939.5,-108.5 939.5,-78.5 821.5,-78.5"/>
<text text-anchor="start" x="829.5" y="-96.5" font-family="Helvetica,sans-Serif" font-size="10.00">packages/graph/impl</text>
<text text-anchor="middle" x="880.5" y="-85.5" font-family="Helvetica,sans-Serif" font-size="10.00">/Partition_impl.hpp</text>
</a>
</g>
</g>
<!-- Node2&#45;&gt;Node13 -->
<g id="edge13" class="edge">
<title>Node2&#45;&gt;Node13</title>
<path fill="none" stroke="midnightblue" d="M555.25,-150.96C562.61,-148.77 570.24,-146.68 577.5,-145 677.33,-121.9 706.79,-127.64 811.2,-109.16"/>
<polygon fill="midnightblue" stroke="midnightblue" points="811.98,-112.58 821.2,-107.36 810.74,-105.69 811.98,-112.58"/>
</g>
<!-- Node3&#45;&gt;Node4 -->
<g id="edge3" class="edge">
<title>Node3&#45;&gt;Node4</title>
<path fill="none" stroke="midnightblue" d="M148.45,-78.23C132.99,-67.75 111.78,-53.37 94.68,-41.78"/>
<polygon fill="midnightblue" stroke="midnightblue" points="96.4,-38.72 86.16,-36 92.47,-44.51 96.4,-38.72"/>
</g>
<!-- Node5 -->
<g id="node5" class="node">
<title>Node5</title>
<g id="a_node5"><a xlink:title=" ">
<polygon fill="white" stroke="#bfbfbf" points="149,-11.5 149,-30.5 190,-30.5 190,-11.5 149,-11.5"/>
<text text-anchor="middle" x="169.5" y="-18.5" font-family="Helvetica,sans-Serif" font-size="10.00">tuple</text>
</a>
</g>
</g>
<!-- Node3&#45;&gt;Node5 -->
<g id="edge4" class="edge">
<title>Node3&#45;&gt;Node5</title>
<path fill="none" stroke="midnightblue" d="M169.5,-78.23C169.5,-67.5 169.5,-52.69 169.5,-40.96"/>
<polygon fill="midnightblue" stroke="midnightblue" points="173,-40.89 169.5,-30.89 166,-40.89 173,-40.89"/>
</g>
<!-- Node6 -->
<g id="node6" class="node">
<title>Node6</title>
<g id="a_node6"><a xlink:title=" ">
<polygon fill="white" stroke="#bfbfbf" points="208,-11.5 208,-30.5 253,-30.5 253,-11.5 208,-11.5"/>
<text text-anchor="middle" x="230.5" y="-18.5" font-family="Helvetica,sans-Serif" font-size="10.00">utility</text>
</a>
</g>
</g>
<!-- Node3&#45;&gt;Node6 -->
<g id="edge5" class="edge">
<title>Node3&#45;&gt;Node6</title>
<path fill="none" stroke="midnightblue" d="M181.84,-78.23C191.8,-66.73 205.82,-50.53 216.25,-38.47"/>
<polygon fill="midnightblue" stroke="midnightblue" points="218.91,-40.75 222.81,-30.89 213.62,-36.17 218.91,-40.75"/>
</g>
<!-- Node7 -->
<g id="node7" class="node">
<title>Node7</title>
<g id="a_node7"><a xlink:title=" ">
<polygon fill="white" stroke="#bfbfbf" points="271.5,-0.5 271.5,-41.5 405.5,-41.5 405.5,-0.5 271.5,-0.5"/>
<text text-anchor="start" x="279.5" y="-29.5" font-family="Helvetica,sans-Serif" font-size="10.00">packages/utilities</text>
<text text-anchor="start" x="279.5" y="-18.5" font-family="Helvetica,sans-Serif" font-size="10.00">/impl/AttributeContainer</text>
<text text-anchor="middle" x="338.5" y="-7.5" font-family="Helvetica,sans-Serif" font-size="10.00">_impl.hpp</text>
</a>
</g>
</g>
<!-- Node3&#45;&gt;Node7 -->
<g id="edge6" class="edge">
<title>Node3&#45;&gt;Node7</title>
<path fill="none" stroke="midnightblue" d="M203.29,-78.4C225.86,-68.99 256.07,-56.39 282.22,-45.48"/>
<polygon fill="midnightblue" stroke="midnightblue" points="283.76,-48.63 291.64,-41.55 281.07,-42.17 283.76,-48.63"/>
</g>
</g>
</svg>
        <g id="navigator" transform="translate(0 0)" fill="#404254">
                <rect fill="#f2f5e9" fill-opacity="0.5" stroke="#606060" stroke-width=".5" x="0" y="0" width="60" height="60"/>
                <use id="zoomplus" xlink:href="#zoomPlus" x="17" y="9" onmousedown="handleZoom(evt,'in')"/>
                <use id="zoomminus" xlink:href="#zoomMin" x="42" y="9" onmousedown="handleZoom(evt,'out')"/>
                <use id="reset" xlink:href="#resetDef" x="30" y="36" onmousedown="handleReset()"/>
                <g id="arrowUp" xlink:href="#dirArrow" transform="translate(30 24)" onmousedown="handlePan(0,-1)">
                  <use xlink:href="#rim" fill="#404040">
                        <set attributeName="fill" to="#808080" begin="arrowUp.mouseover" end="arrowUp.mouseout"/>
                  </use>
                  <path fill="none" stroke="white" stroke-width="1.5" d="M0,-3.0v7 M-2.5,-0.5L0,-3.0L2.5,-0.5"/>
                </g>
                <g id="arrowRight" xlink:href="#dirArrow" transform="rotate(90) translate(36 -43)" onmousedown="handlePan(1,0)">
                  <use xlink:href="#rim" fill="#404040">
                        <set attributeName="fill" to="#808080" begin="arrowRight.mouseover" end="arrowRight.mouseout"/>
                  </use>
                  <path fill="none" stroke="white" stroke-width="1.5" d="M0,-3.0v7 M-2.5,-0.5L0,-3.0L2.5,-0.5"/>
                </g>
                <g id="arrowDown" xlink:href="#dirArrow" transform="rotate(180) translate(-30 -48)" onmousedown="handlePan(0,1)">
                  <use xlink:href="#rim" fill="#404040">
                        <set attributeName="fill" to="#808080" begin="arrowDown.mouseover" end="arrowDown.mouseout"/>
                  </use>
                  <path fill="none" stroke="white" stroke-width="1.5" d="M0,-3.0v7 M-2.5,-0.5L0,-3.0L2.5,-0.5"/>
                </g>
                <g id="arrowLeft" xlink:href="#dirArrow" transform="rotate(270) translate(-36 17)" onmousedown="handlePan(-1,0)">
                  <use xlink:href="#rim" fill="#404040">
                        <set attributeName="fill" to="#808080" begin="arrowLeft.mouseover" end="arrowLeft.mouseout"/>
                  </use>
                  <path fill="none" stroke="white" stroke-width="1.5" d="M0,-3.0v7 M-2.5,-0.5L0,-3.0L2.5,-0.5"/>
                </g>
        </g>
        <svg viewBox="0 0 15 15" width="100%" height="30px" preserveAspectRatio="xMaxYMin meet">
         <g id="arrow_out" transform="scale(0.3 0.3)">
          <a xlink:href="PartitionManager_8hpp__incl_org.svg" target="_base">
           <rect id="button" ry="5" rx="5" y="6" x="6" height="38" width="38"
                fill="#f2f5e9" fill-opacity="0.5" stroke="#606060" stroke-width="1.0"/>
           <path id="arrow"
             d="M 11.500037,31.436501 C 11.940474,20.09759 22.043105,11.32322 32.158766,21.979434 L 37.068811,17.246167 C 37.068811,17.246167 37.088388,32 37.088388,32 L 22.160133,31.978069 C 22.160133,31.978069 26.997745,27.140456 26.997745,27.140456 C 18.528582,18.264221 13.291696,25.230495 11.500037,31.436501 z"
             style="fill:#404040;"/>
          </a>
         </g>
        </svg>
</svg>
