<?xml version="1.0" encoding="UTF-8" standalone="no"?>
<!DOCTYPE svg PUBLIC "-//W3C//DTD SVG 1.1//EN"
 "http://www.w3.org/Graphics/SVG/1.1/DTD/svg11.dtd">
<!-- Generated by graphviz version 2.43.0 (0)
 -->
<!-- Title: Partition.hpp Pages: 1 -->
<svg width="948pt" height="173pt"
 viewBox="0.00 0.00 947.50 173.00" xmlns="http://www.w3.org/2000/svg" xmlns:xlink="http://www.w3.org/1999/xlink">
<g id="graph0" class="graph" transform="scale(1 1) rotate(0) translate(4 169)">
<title>Partition.hpp</title>
<polygon fill="white" stroke="transparent" points="-4,4 -4,-169 943.5,-169 943.5,4 -4,4"/>
<!-- Node1 -->
<g id="node1" class="node">
<title>Node1</title>
<g id="a_node1"><a xlink:title=" ">
<polygon fill="#bfbfbf" stroke="black" points="474.5,-145.5 474.5,-164.5 552.5,-164.5 552.5,-145.5 474.5,-145.5"/>
<text text-anchor="middle" x="513.5" y="-152.5" font-family="Helvetica,sans-Serif" font-size="10.00">Partition.hpp</text>
</a>
</g>
</g>
<!-- Node2 -->
<g id="node2" class="node">
<title>Node2</title>
<g id="a_node2"><a xlink:href="AttributeContainer_8hpp.html" target="_top" xlink:title=" ">
<polygon fill="white" stroke="black" points="96,-78.5 96,-108.5 243,-108.5 243,-78.5 96,-78.5"/>
<text text-anchor="start" x="104" y="-96.5" font-family="Helvetica,sans-Serif" font-size="10.00">packages/utilities</text>
<text text-anchor="middle" x="169.5" y="-85.5" font-family="Helvetica,sans-Serif" font-size="10.00">/inc/AttributeContainer.hpp</text>
</a>
</g>
</g>
<!-- Node1&#45;&gt;Node2 -->
<g id="edge1" class="edge">
<title>Node1&#45;&gt;Node2</title>
<path fill="none" stroke="midnightblue" d="M474.14,-147.24C424.99,-138.8 338.05,-123.84 253.32,-109.14"/>
<polygon fill="midnightblue" stroke="midnightblue" points="253.72,-105.66 243.26,-107.4 252.52,-112.55 253.72,-105.66"/>
</g>
<!-- Node3 -->
<g id="node3" class="node">
<title>Node3</title>
<g id="a_node3"><a target="_parent" xlink:href="../../../cieutils/docs/html/DynamicArray_8hpp.html.html" xlink:title=" ">
<polygon fill="white" stroke="black" points="0,-6 0,-36 131,-36 131,-6 0,-6"/>
<text text-anchor="start" x="8" y="-24" font-family="Helvetica,sans-Serif" font-size="10.00">packages/stl_extension</text>
<text text-anchor="middle" x="65.5" y="-13" font-family="Helvetica,sans-Serif" font-size="10.00">/inc/DynamicArray.hpp</text>
</a>
</g>
</g>
<!-- Node1&#45;&gt;Node3 -->
<g id="edge6" class="edge">
<title>Node1&#45;&gt;Node3</title>
<path fill="none" stroke="midnightblue" d="M474.3,-152.42C374.27,-148.02 115.37,-134.3 86.5,-109 68.95,-93.62 64.76,-66.34 64.3,-46.42"/>
<polygon fill="midnightblue" stroke="midnightblue" points="67.8,-46.25 64.37,-36.23 60.8,-46.21 67.8,-46.25"/>
</g>
<!-- Node7 -->
<g id="node7" class="node">
<title>Node7</title>
<g id="a_node7"><a target="_parent" xlink:href="../../../cieutils/docs/html/NamedObject_8hpp.html.html" xlink:title=" ">
<polygon fill="white" stroke="black" points="261.5,-78.5 261.5,-108.5 371.5,-108.5 371.5,-78.5 261.5,-78.5"/>
<text text-anchor="start" x="269.5" y="-96.5" font-family="Helvetica,sans-Serif" font-size="10.00">packages/types/inc</text>
<text text-anchor="middle" x="316.5" y="-85.5" font-family="Helvetica,sans-Serif" font-size="10.00">/NamedObject.hpp</text>
</a>
</g>
</g>
<!-- Node1&#45;&gt;Node7 -->
<g id="edge7" class="edge">
<title>Node1&#45;&gt;Node7</title>
<path fill="none" stroke="midnightblue" d="M485.27,-145.48C455.98,-136.63 409.37,-122.55 372.55,-111.43"/>
<polygon fill="midnightblue" stroke="midnightblue" points="373.51,-108.06 362.93,-108.52 371.49,-114.76 373.51,-108.06"/>
</g>
<!-- Node8 -->
<g id="node8" class="node">
<title>Node8</title>
<g id="a_node8"><a target="_parent" xlink:href="../../../cieutils/docs/html/IDObject_8hpp.html.html" xlink:title=" ">
<polygon fill="white" stroke="black" points="389.5,-78.5 389.5,-108.5 499.5,-108.5 499.5,-78.5 389.5,-78.5"/>
<text text-anchor="start" x="397.5" y="-96.5" font-family="Helvetica,sans-Serif" font-size="10.00">packages/types/inc</text>
<text text-anchor="middle" x="444.5" y="-85.5" font-family="Helvetica,sans-Serif" font-size="10.00">/IDObject.hpp</text>
</a>
</g>
</g>
<!-- Node1&#45;&gt;Node8 -->
<g id="edge8" class="edge">
<title>Node1&#45;&gt;Node8</title>
<path fill="none" stroke="midnightblue" d="M503.61,-145.48C494.44,-137.57 480.43,-125.48 468.35,-115.07"/>
<polygon fill="midnightblue" stroke="midnightblue" points="470.62,-112.4 460.76,-108.52 466.05,-117.7 470.62,-112.4"/>
</g>
<!-- Node9 -->
<g id="node9" class="node">
<title>Node9</title>
<g id="a_node9"><a target="_parent" xlink:href="../../../cieutils/docs/html/StrongTypeDef_8hpp.html.html" xlink:title=" ">
<polygon fill="white" stroke="black" points="518,-78.5 518,-108.5 649,-108.5 649,-78.5 518,-78.5"/>
<text text-anchor="start" x="526" y="-96.5" font-family="Helvetica,sans-Serif" font-size="10.00">packages/stl_extension</text>
<text text-anchor="middle" x="583.5" y="-85.5" font-family="Helvetica,sans-Serif" font-size="10.00">/inc/StrongTypeDef.hpp</text>
</a>
</g>
</g>
<!-- Node1&#45;&gt;Node9 -->
<g id="edge9" class="edge">
<title>Node1&#45;&gt;Node9</title>
<path fill="none" stroke="midnightblue" d="M523.53,-145.48C532.83,-137.57 547.05,-125.48 559.3,-115.07"/>
<polygon fill="midnightblue" stroke="midnightblue" points="561.65,-117.67 567,-108.52 557.12,-112.33 561.65,-117.67"/>
</g>
<!-- Node10 -->
<g id="node10" class="node">
<title>Node10</title>
<g id="a_node10"><a xlink:title=" ">
<polygon fill="white" stroke="#bfbfbf" points="667.5,-84 667.5,-103 727.5,-103 727.5,-84 667.5,-84"/>
<text text-anchor="middle" x="697.5" y="-91" font-family="Helvetica,sans-Serif" font-size="10.00">concepts</text>
</a>
</g>
</g>
<!-- Node1&#45;&gt;Node10 -->
<g id="edge10" class="edge">
<title>Node1&#45;&gt;Node10</title>
<path fill="none" stroke="midnightblue" d="M542.81,-145.42C572.21,-136.69 618.71,-122.56 658.5,-109 660.75,-108.23 663.07,-107.42 665.39,-106.6"/>
<polygon fill="midnightblue" stroke="midnightblue" points="666.69,-109.85 674.89,-103.15 664.3,-103.27 666.69,-109.85"/>
</g>
<!-- Node11 -->
<g id="node11" class="node">
<title>Node11</title>
<g id="a_node11"><a xlink:title=" ">
<polygon fill="white" stroke="#bfbfbf" points="745.5,-84 745.5,-103 803.5,-103 803.5,-84 745.5,-84"/>
<text text-anchor="middle" x="774.5" y="-91" font-family="Helvetica,sans-Serif" font-size="10.00">memory</text>
</a>
</g>
</g>
<!-- Node1&#45;&gt;Node11 -->
<g id="edge11" class="edge">
<title>Node1&#45;&gt;Node11</title>
<path fill="none" stroke="midnightblue" d="M552.65,-148.12C597.55,-140.9 673.14,-127.34 736.5,-109 739.08,-108.25 741.74,-107.41 744.38,-106.51"/>
<polygon fill="midnightblue" stroke="midnightblue" points="745.59,-109.8 753.8,-103.11 743.21,-103.21 745.59,-109.8"/>
</g>
<!-- Node12 -->
<g id="node12" class="node">
<title>Node12</title>
<g id="a_node12"><a xlink:title=" ">
<polygon fill="white" stroke="#bfbfbf" points="821.5,-78.5 821.5,-108.5 939.5,-108.5 939.5,-78.5 821.5,-78.5"/>
<text text-anchor="start" x="829.5" y="-96.5" font-family="Helvetica,sans-Serif" font-size="10.00">packages/graph/impl</text>
<text text-anchor="middle" x="880.5" y="-85.5" font-family="Helvetica,sans-Serif" font-size="10.00">/Partition_impl.hpp</text>
</a>
</g>
</g>
<!-- Node1&#45;&gt;Node12 -->
<g id="edge12" class="edge">
<title>Node1&#45;&gt;Node12</title>
<path fill="none" stroke="midnightblue" d="M552.81,-148.86C608.19,-141.45 712.56,-126.86 811.08,-109.2"/>
<polygon fill="midnightblue" stroke="midnightblue" points="811.99,-112.59 821.2,-107.37 810.74,-105.7 811.99,-112.59"/>
</g>
<!-- Node2&#45;&gt;Node3 -->
<g id="edge2" class="edge">
<title>Node2&#45;&gt;Node3</title>
<path fill="none" stroke="midnightblue" d="M148.45,-78.23C132.99,-67.75 111.78,-53.37 94.68,-41.78"/>
<polygon fill="midnightblue" stroke="midnightblue" points="96.4,-38.72 86.16,-36 92.47,-44.51 96.4,-38.72"/>
</g>
<!-- Node4 -->
<g id="node4" class="node">
<title>Node4</title>
<g id="a_node4"><a xlink:title=" ">
<polygon fill="white" stroke="#bfbfbf" points="149,-11.5 149,-30.5 190,-30.5 190,-11.5 149,-11.5"/>
<text text-anchor="middle" x="169.5" y="-18.5" font-family="Helvetica,sans-Serif" font-size="10.00">tuple</text>
</a>
</g>
</g>
<!-- Node2&#45;&gt;Node4 -->
<g id="edge3" class="edge">
<title>Node2&#45;&gt;Node4</title>
<path fill="none" stroke="midnightblue" d="M169.5,-78.23C169.5,-67.5 169.5,-52.69 169.5,-40.96"/>
<polygon fill="midnightblue" stroke="midnightblue" points="173,-40.89 169.5,-30.89 166,-40.89 173,-40.89"/>
</g>
<!-- Node5 -->
<g id="node5" class="node">
<title>Node5</title>
<g id="a_node5"><a xlink:title=" ">
<polygon fill="white" stroke="#bfbfbf" points="208,-11.5 208,-30.5 253,-30.5 253,-11.5 208,-11.5"/>
<text text-anchor="middle" x="230.5" y="-18.5" font-family="Helvetica,sans-Serif" font-size="10.00">utility</text>
</a>
</g>
</g>
<!-- Node2&#45;&gt;Node5 -->
<g id="edge4" class="edge">
<title>Node2&#45;&gt;Node5</title>
<path fill="none" stroke="midnightblue" d="M181.84,-78.23C191.8,-66.73 205.82,-50.53 216.25,-38.47"/>
<polygon fill="midnightblue" stroke="midnightblue" points="218.91,-40.75 222.81,-30.89 213.62,-36.17 218.91,-40.75"/>
</g>
<!-- Node6 -->
<g id="node6" class="node">
<title>Node6</title>
<g id="a_node6"><a xlink:title=" ">
<polygon fill="white" stroke="#bfbfbf" points="271.5,-0.5 271.5,-41.5 405.5,-41.5 405.5,-0.5 271.5,-0.5"/>
<text text-anchor="start" x="279.5" y="-29.5" font-family="Helvetica,sans-Serif" font-size="10.00">packages/utilities</text>
<text text-anchor="start" x="279.5" y="-18.5" font-family="Helvetica,sans-Serif" font-size="10.00">/impl/AttributeContainer</text>
<text text-anchor="middle" x="338.5" y="-7.5" font-family="Helvetica,sans-Serif" font-size="10.00">_impl.hpp</text>
</a>
</g>
</g>
<!-- Node2&#45;&gt;Node6 -->
<g id="edge5" class="edge">
<title>Node2&#45;&gt;Node6</title>
<path fill="none" stroke="midnightblue" d="M203.29,-78.4C225.86,-68.99 256.07,-56.39 282.22,-45.48"/>
<polygon fill="midnightblue" stroke="midnightblue" points="283.76,-48.63 291.64,-41.55 281.07,-42.17 283.76,-48.63"/>
</g>
</g>
</svg>
