<?xml version="1.0" encoding="UTF-8" standalone="no"?>
<!DOCTYPE svg PUBLIC "-//W3C//DTD SVG 1.1//EN"
 "http://www.w3.org/Graphics/SVG/1.1/DTD/svg11.dtd">
<!-- Generated by graphviz version 2.43.0 (0)
 -->
<!-- Title: Polynomial.hpp Pages: 1 -->
<svg width="655pt" height="173pt"
 viewBox="0.00 0.00 655.00 173.00" xmlns="http://www.w3.org/2000/svg" xmlns:xlink="http://www.w3.org/1999/xlink">
<g id="graph0" class="graph" transform="scale(1 1) rotate(0) translate(4 169)">
<title>Polynomial.hpp</title>
<polygon fill="white" stroke="transparent" points="-4,4 -4,-169 651,-169 651,4 -4,4"/>
<!-- Node1 -->
<g id="node1" class="node">
<title>Node1</title>
<g id="a_node1"><a xlink:title=" ">
<polygon fill="#bfbfbf" stroke="black" points="245,-145.5 245,-164.5 337,-164.5 337,-145.5 245,-145.5"/>
<text text-anchor="middle" x="291" y="-152.5" font-family="Helvetica,sans-Serif" font-size="10.00">Polynomial.hpp</text>
</a>
</g>
</g>
<!-- Node2 -->
<g id="node2" class="node">
<title>Node2</title>
<g id="a_node2"><a target="_parent" xlink:href="../../../cieutils/docs/html/types_8hpp.html.html" xlink:title=" ">
<polygon fill="white" stroke="black" points="0,-0.5 0,-30.5 110,-30.5 110,-0.5 0,-0.5"/>
<text text-anchor="start" x="8" y="-18.5" font-family="Helvetica,sans-Serif" font-size="10.00">packages/types/inc</text>
<text text-anchor="middle" x="55" y="-7.5" font-family="Helvetica,sans-Serif" font-size="10.00">/types.hpp</text>
</a>
</g>
</g>
<!-- Node1&#45;&gt;Node2 -->
<g id="edge1" class="edge">
<title>Node1&#45;&gt;Node2</title>
<path fill="none" stroke="midnightblue" d="M244.68,-149.25C191.33,-142.88 108.06,-129.89 85,-109 65.82,-91.63 58.86,-61.89 56.35,-40.83"/>
<polygon fill="midnightblue" stroke="midnightblue" points="59.82,-40.35 55.41,-30.72 52.85,-41 59.82,-40.35"/>
</g>
<!-- Node3 -->
<g id="node3" class="node">
<title>Node3</title>
<g id="a_node3"><a xlink:href="Expression_8hpp.html" target="_top" xlink:title=" ">
<polygon fill="white" stroke="black" points="94.5,-73 94.5,-103 207.5,-103 207.5,-73 94.5,-73"/>
<text text-anchor="start" x="102.5" y="-91" font-family="Helvetica,sans-Serif" font-size="10.00">packages/maths/inc</text>
<text text-anchor="middle" x="151" y="-80" font-family="Helvetica,sans-Serif" font-size="10.00">/Expression.hpp</text>
</a>
</g>
</g>
<!-- Node1&#45;&gt;Node3 -->
<g id="edge2" class="edge">
<title>Node1&#45;&gt;Node3</title>
<path fill="none" stroke="midnightblue" d="M272.41,-145.37C251.58,-135.7 217.23,-119.75 190.37,-107.28"/>
<polygon fill="midnightblue" stroke="midnightblue" points="191.76,-104.06 181.21,-103.03 188.81,-110.41 191.76,-104.06"/>
</g>
<!-- Node7 -->
<g id="node7" class="node">
<title>Node7</title>
<g id="a_node7"><a target="_parent" xlink:href="../../../cieutils/docs/html/DynamicArray_8hpp.html.html" xlink:title=" ">
<polygon fill="white" stroke="black" points="225.5,-73 225.5,-103 356.5,-103 356.5,-73 225.5,-73"/>
<text text-anchor="start" x="233.5" y="-91" font-family="Helvetica,sans-Serif" font-size="10.00">packages/stl_extension</text>
<text text-anchor="middle" x="291" y="-80" font-family="Helvetica,sans-Serif" font-size="10.00">/inc/DynamicArray.hpp</text>
</a>
</g>
</g>
<!-- Node1&#45;&gt;Node7 -->
<g id="edge7" class="edge">
<title>Node1&#45;&gt;Node7</title>
<path fill="none" stroke="midnightblue" d="M291,-145.23C291,-137.04 291,-124.42 291,-113.21"/>
<polygon fill="midnightblue" stroke="midnightblue" points="294.5,-113.09 291,-103.09 287.5,-113.09 294.5,-113.09"/>
</g>
<!-- Node8 -->
<g id="node8" class="node">
<title>Node8</title>
<g id="a_node8"><a target="_parent" xlink:href="../../../cieutils/docs/html/iterator__concepts_8hpp.html.html" xlink:title=" ">
<polygon fill="white" stroke="black" points="375,-67.5 375,-108.5 507,-108.5 507,-67.5 375,-67.5"/>
<text text-anchor="start" x="383" y="-96.5" font-family="Helvetica,sans-Serif" font-size="10.00">packages/compile_time</text>
<text text-anchor="start" x="383" y="-85.5" font-family="Helvetica,sans-Serif" font-size="10.00">/packages/concepts/inc</text>
<text text-anchor="middle" x="441" y="-74.5" font-family="Helvetica,sans-Serif" font-size="10.00">/iterator_concepts.hpp</text>
</a>
</g>
</g>
<!-- Node1&#45;&gt;Node8 -->
<g id="edge8" class="edge">
<title>Node1&#45;&gt;Node8</title>
<path fill="none" stroke="midnightblue" d="M310.92,-145.37C330.08,-137.06 359.94,-124.13 386.22,-112.74"/>
<polygon fill="midnightblue" stroke="midnightblue" points="387.93,-115.81 395.71,-108.63 385.14,-109.39 387.93,-115.81"/>
</g>
<!-- Node9 -->
<g id="node9" class="node">
<title>Node9</title>
<g id="a_node9"><a xlink:title=" ">
<polygon fill="white" stroke="#bfbfbf" points="525,-73 525,-103 647,-103 647,-73 525,-73"/>
<text text-anchor="start" x="533" y="-91" font-family="Helvetica,sans-Serif" font-size="10.00">packages/maths/impl</text>
<text text-anchor="middle" x="586" y="-80" font-family="Helvetica,sans-Serif" font-size="10.00">/Polynomial_impl.hpp</text>
</a>
</g>
</g>
<!-- Node1&#45;&gt;Node9 -->
<g id="edge9" class="edge">
<title>Node1&#45;&gt;Node9</title>
<path fill="none" stroke="midnightblue" d="M337.35,-145.86C383.01,-137.58 454.64,-123.88 516,-109 520.15,-107.99 524.41,-106.91 528.7,-105.78"/>
<polygon fill="midnightblue" stroke="midnightblue" points="529.95,-109.06 538.69,-103.08 528.13,-102.31 529.95,-109.06"/>
</g>
<!-- Node3&#45;&gt;Node2 -->
<g id="edge3" class="edge">
<title>Node3&#45;&gt;Node2</title>
<path fill="none" stroke="midnightblue" d="M131.57,-72.73C117.43,-62.35 98.08,-48.13 82.37,-36.6"/>
<polygon fill="midnightblue" stroke="midnightblue" points="84.2,-33.6 74.07,-30.5 80.06,-39.25 84.2,-33.6"/>
</g>
<!-- Node4 -->
<g id="node4" class="node">
<title>Node4</title>
<g id="a_node4"><a xlink:title=" ">
<polygon fill="white" stroke="#bfbfbf" points="128.5,-6 128.5,-25 173.5,-25 173.5,-6 128.5,-6"/>
<text text-anchor="middle" x="151" y="-13" font-family="Helvetica,sans-Serif" font-size="10.00">utility</text>
</a>
</g>
</g>
<!-- Node3&#45;&gt;Node4 -->
<g id="edge4" class="edge">
<title>Node3&#45;&gt;Node4</title>
<path fill="none" stroke="midnightblue" d="M151,-72.73C151,-62 151,-47.19 151,-35.46"/>
<polygon fill="midnightblue" stroke="midnightblue" points="154.5,-35.39 151,-25.39 147.5,-35.39 154.5,-35.39"/>
</g>
<!-- Node5 -->
<g id="node5" class="node">
<title>Node5</title>
<g id="a_node5"><a xlink:title=" ">
<polygon fill="white" stroke="#bfbfbf" points="192,-6 192,-25 252,-25 252,-6 192,-6"/>
<text text-anchor="middle" x="222" y="-13" font-family="Helvetica,sans-Serif" font-size="10.00">concepts</text>
</a>
</g>
</g>
<!-- Node3&#45;&gt;Node5 -->
<g id="edge5" class="edge">
<title>Node3&#45;&gt;Node5</title>
<path fill="none" stroke="midnightblue" d="M165.37,-72.73C177.07,-61.12 193.58,-44.72 205.76,-32.62"/>
<polygon fill="midnightblue" stroke="midnightblue" points="208.41,-34.92 213.04,-25.39 203.48,-29.96 208.41,-34.92"/>
</g>
<!-- Node6 -->
<g id="node6" class="node">
<title>Node6</title>
<g id="a_node6"><a xlink:title=" ">
<polygon fill="white" stroke="#bfbfbf" points="270.5,-0.5 270.5,-30.5 391.5,-30.5 391.5,-0.5 270.5,-0.5"/>
<text text-anchor="start" x="278.5" y="-18.5" font-family="Helvetica,sans-Serif" font-size="10.00">packages/maths/impl</text>
<text text-anchor="middle" x="331" y="-7.5" font-family="Helvetica,sans-Serif" font-size="10.00">/Expression_impl.hpp</text>
</a>
</g>
</g>
<!-- Node3&#45;&gt;Node6 -->
<g id="edge6" class="edge">
<title>Node3&#45;&gt;Node6</title>
<path fill="none" stroke="midnightblue" d="M186.99,-72.9C215.32,-61.81 254.98,-46.28 285.5,-34.32"/>
<polygon fill="midnightblue" stroke="midnightblue" points="287.03,-37.48 295.07,-30.57 284.48,-30.96 287.03,-37.48"/>
</g>
</g>
</svg>
