<?xml version="1.0" encoding="UTF-8" standalone="no"?>
<!DOCTYPE svg PUBLIC "-//W3C//DTD SVG 1.1//EN"
 "http://www.w3.org/Graphics/SVG/1.1/DTD/svg11.dtd">
<!-- Generated by graphviz version 2.43.0 (0)
 -->
<!-- Title: Quadrature.hpp Pages: 1 -->
<svg width="1687pt" height="173pt"
 viewBox="0.00 0.00 1686.50 173.00" xmlns="http://www.w3.org/2000/svg" xmlns:xlink="http://www.w3.org/1999/xlink">
<g id="graph0" class="graph" transform="scale(1 1) rotate(0) translate(4 169)">
<title>Quadrature.hpp</title>
<polygon fill="white" stroke="transparent" points="-4,4 -4,-169 1682.5,-169 1682.5,4 -4,4"/>
<!-- Node1 -->
<g id="node1" class="node">
<title>Node1</title>
<g id="a_node1"><a xlink:title=" ">
<polygon fill="#bfbfbf" stroke="black" points="579,-145.5 579,-164.5 671,-164.5 671,-145.5 579,-145.5"/>
<text text-anchor="middle" x="625" y="-152.5" font-family="Helvetica,sans-Serif" font-size="10.00">Quadrature.hpp</text>
</a>
</g>
</g>
<!-- Node2 -->
<g id="node2" class="node">
<title>Node2</title>
<g id="a_node2"><a target="_parent" xlink:href="../../../cieutils/docs/html/basic__concepts_8hpp.html.html" xlink:title=" ">
<polygon fill="white" stroke="black" points="559,-0.5 559,-41.5 691,-41.5 691,-0.5 559,-0.5"/>
<text text-anchor="start" x="567" y="-29.5" font-family="Helvetica,sans-Serif" font-size="10.00">packages/compile_time</text>
<text text-anchor="start" x="567" y="-18.5" font-family="Helvetica,sans-Serif" font-size="10.00">/packages/concepts/inc</text>
<text text-anchor="middle" x="625" y="-7.5" font-family="Helvetica,sans-Serif" font-size="10.00">/basic_concepts.hpp</text>
</a>
</g>
</g>
<!-- Node1&#45;&gt;Node2 -->
<g id="edge1" class="edge">
<title>Node1&#45;&gt;Node2</title>
<path fill="none" stroke="midnightblue" d="M625,-145.34C625,-126.74 625,-82.25 625,-52.11"/>
<polygon fill="midnightblue" stroke="midnightblue" points="628.5,-51.73 625,-41.73 621.5,-51.73 628.5,-51.73"/>
</g>
<!-- Node3 -->
<g id="node3" class="node">
<title>Node3</title>
<g id="a_node3"><a target="_parent" xlink:href="../../../cieutils/docs/html/DynamicArray_8hpp.html.html" xlink:title=" ">
<polygon fill="white" stroke="black" points="409.5,-6 409.5,-36 540.5,-36 540.5,-6 409.5,-6"/>
<text text-anchor="start" x="417.5" y="-24" font-family="Helvetica,sans-Serif" font-size="10.00">packages/stl_extension</text>
<text text-anchor="middle" x="475" y="-13" font-family="Helvetica,sans-Serif" font-size="10.00">/inc/DynamicArray.hpp</text>
</a>
</g>
</g>
<!-- Node1&#45;&gt;Node3 -->
<g id="edge2" class="edge">
<title>Node1&#45;&gt;Node3</title>
<path fill="none" stroke="midnightblue" d="M615.16,-145.34C591.75,-124.74 532.2,-72.33 498.74,-42.89"/>
<polygon fill="midnightblue" stroke="midnightblue" points="501.05,-40.26 491.23,-36.28 496.43,-45.52 501.05,-40.26"/>
</g>
<!-- Node4 -->
<g id="node4" class="node">
<title>Node4</title>
<g id="a_node4"><a target="_parent" xlink:href="../../../cieutils/docs/html/StaticArray_8hpp.html.html" xlink:title=" ">
<polygon fill="white" stroke="black" points="709.5,-6 709.5,-36 840.5,-36 840.5,-6 709.5,-6"/>
<text text-anchor="start" x="717.5" y="-24" font-family="Helvetica,sans-Serif" font-size="10.00">packages/stl_extension</text>
<text text-anchor="middle" x="775" y="-13" font-family="Helvetica,sans-Serif" font-size="10.00">/inc/StaticArray.hpp</text>
</a>
</g>
</g>
<!-- Node1&#45;&gt;Node4 -->
<g id="edge3" class="edge">
<title>Node1&#45;&gt;Node4</title>
<path fill="none" stroke="midnightblue" d="M634.84,-145.34C658.25,-124.74 717.8,-72.33 751.26,-42.89"/>
<polygon fill="midnightblue" stroke="midnightblue" points="753.57,-45.52 758.77,-36.28 748.95,-40.26 753.57,-45.52"/>
</g>
<!-- Node5 -->
<g id="node5" class="node">
<title>Node5</title>
<g id="a_node5"><a xlink:href="Expression_8hpp.html" target="_top" xlink:title=" ">
<polygon fill="white" stroke="black" points="183.5,-78.5 183.5,-108.5 296.5,-108.5 296.5,-78.5 183.5,-78.5"/>
<text text-anchor="start" x="191.5" y="-96.5" font-family="Helvetica,sans-Serif" font-size="10.00">packages/maths/inc</text>
<text text-anchor="middle" x="240" y="-85.5" font-family="Helvetica,sans-Serif" font-size="10.00">/Expression.hpp</text>
</a>
</g>
</g>
<!-- Node1&#45;&gt;Node5 -->
<g id="edge4" class="edge">
<title>Node1&#45;&gt;Node5</title>
<path fill="none" stroke="midnightblue" d="M578.94,-146.88C511.32,-136.43 384.79,-116.88 306.91,-104.84"/>
<polygon fill="midnightblue" stroke="midnightblue" points="307.14,-101.34 296.73,-103.27 306.07,-108.25 307.14,-101.34"/>
</g>
<!-- Node10 -->
<g id="node10" class="node">
<title>Node10</title>
<g id="a_node10"><a xlink:href="QuadratureBase_8hpp.html" target="_top" xlink:title=" ">
<polygon fill="white" stroke="black" points="367,-78.5 367,-108.5 489,-108.5 489,-78.5 367,-78.5"/>
<text text-anchor="start" x="375" y="-96.5" font-family="Helvetica,sans-Serif" font-size="10.00">packages/numeric/inc</text>
<text text-anchor="middle" x="428" y="-85.5" font-family="Helvetica,sans-Serif" font-size="10.00">/QuadratureBase.hpp</text>
</a>
</g>
</g>
<!-- Node1&#45;&gt;Node10 -->
<g id="edge9" class="edge">
<title>Node1&#45;&gt;Node10</title>
<path fill="none" stroke="midnightblue" d="M596.77,-145.48C567.48,-136.63 520.87,-122.55 484.05,-111.43"/>
<polygon fill="midnightblue" stroke="midnightblue" points="485.01,-108.06 474.43,-108.52 482.99,-114.76 485.01,-108.06"/>
</g>
<!-- Node11 -->
<g id="node11" class="node">
<title>Node11</title>
<g id="a_node11"><a xlink:href="kernel_8hpp.html" target="_top" xlink:title=" ">
<polygon fill="white" stroke="black" points="907,-78.5 907,-108.5 1009,-108.5 1009,-78.5 907,-78.5"/>
<text text-anchor="start" x="915" y="-96.5" font-family="Helvetica,sans-Serif" font-size="10.00">packages/utilities</text>
<text text-anchor="middle" x="958" y="-85.5" font-family="Helvetica,sans-Serif" font-size="10.00">/inc/kernel.hpp</text>
</a>
</g>
</g>
<!-- Node1&#45;&gt;Node11 -->
<g id="edge13" class="edge">
<title>Node1&#45;&gt;Node11</title>
<path fill="none" stroke="midnightblue" d="M671.3,-145.73C730.08,-135.22 831.65,-117.08 896.78,-105.44"/>
<polygon fill="midnightblue" stroke="midnightblue" points="897.68,-108.83 906.91,-103.63 896.45,-101.94 897.68,-108.83"/>
</g>
<!-- Node19 -->
<g id="node19" class="node">
<title>Node19</title>
<g id="a_node19"><a xlink:title=" ">
<polygon fill="white" stroke="#bfbfbf" points="1027,-78.5 1027,-108.5 1157,-108.5 1157,-78.5 1027,-78.5"/>
<text text-anchor="start" x="1035" y="-96.5" font-family="Helvetica,sans-Serif" font-size="10.00">packages/numeric/impl</text>
<text text-anchor="middle" x="1092" y="-85.5" font-family="Helvetica,sans-Serif" font-size="10.00">/Quadrature_impl.hpp</text>
</a>
</g>
</g>
<!-- Node1&#45;&gt;Node19 -->
<g id="edge24" class="edge">
<title>Node1&#45;&gt;Node19</title>
<path fill="none" stroke="midnightblue" d="M671.14,-149.92C742.87,-143.3 885.64,-129.1 1016.48,-109.16"/>
<polygon fill="midnightblue" stroke="midnightblue" points="1017.33,-112.57 1026.68,-107.59 1016.26,-105.65 1017.33,-112.57"/>
</g>
<!-- Node6 -->
<g id="node6" class="node">
<title>Node6</title>
<g id="a_node6"><a target="_parent" xlink:href="../../../cieutils/docs/html/types_8hpp.html.html" xlink:title=" ">
<polygon fill="white" stroke="black" points="281,-6 281,-36 391,-36 391,-6 281,-6"/>
<text text-anchor="start" x="289" y="-24" font-family="Helvetica,sans-Serif" font-size="10.00">packages/types/inc</text>
<text text-anchor="middle" x="336" y="-13" font-family="Helvetica,sans-Serif" font-size="10.00">/types.hpp</text>
</a>
</g>
</g>
<!-- Node5&#45;&gt;Node6 -->
<g id="edge5" class="edge">
<title>Node5&#45;&gt;Node6</title>
<path fill="none" stroke="midnightblue" d="M259.43,-78.23C273.57,-67.85 292.92,-53.63 308.63,-42.1"/>
<polygon fill="midnightblue" stroke="midnightblue" points="310.94,-44.75 316.93,-36 306.8,-39.1 310.94,-44.75"/>
</g>
<!-- Node7 -->
<g id="node7" class="node">
<title>Node7</title>
<g id="a_node7"><a xlink:title=" ">
<polygon fill="white" stroke="#bfbfbf" points="217.5,-11.5 217.5,-30.5 262.5,-30.5 262.5,-11.5 217.5,-11.5"/>
<text text-anchor="middle" x="240" y="-18.5" font-family="Helvetica,sans-Serif" font-size="10.00">utility</text>
</a>
</g>
</g>
<!-- Node5&#45;&gt;Node7 -->
<g id="edge6" class="edge">
<title>Node5&#45;&gt;Node7</title>
<path fill="none" stroke="midnightblue" d="M240,-78.23C240,-67.5 240,-52.69 240,-40.96"/>
<polygon fill="midnightblue" stroke="midnightblue" points="243.5,-40.89 240,-30.89 236.5,-40.89 243.5,-40.89"/>
</g>
<!-- Node8 -->
<g id="node8" class="node">
<title>Node8</title>
<g id="a_node8"><a xlink:title=" ">
<polygon fill="white" stroke="#bfbfbf" points="0,-11.5 0,-30.5 60,-30.5 60,-11.5 0,-11.5"/>
<text text-anchor="middle" x="30" y="-18.5" font-family="Helvetica,sans-Serif" font-size="10.00">concepts</text>
</a>
</g>
</g>
<!-- Node5&#45;&gt;Node8 -->
<g id="edge7" class="edge">
<title>Node5&#45;&gt;Node8</title>
<path fill="none" stroke="midnightblue" d="M183.27,-78.6C149.54,-69.64 106.22,-56.89 69,-42 64.22,-40.09 59.24,-37.79 54.5,-35.44"/>
<polygon fill="midnightblue" stroke="midnightblue" points="55.74,-32.14 45.25,-30.66 52.53,-38.36 55.74,-32.14"/>
</g>
<!-- Node9 -->
<g id="node9" class="node">
<title>Node9</title>
<g id="a_node9"><a xlink:title=" ">
<polygon fill="white" stroke="#bfbfbf" points="78.5,-6 78.5,-36 199.5,-36 199.5,-6 78.5,-6"/>
<text text-anchor="start" x="86.5" y="-24" font-family="Helvetica,sans-Serif" font-size="10.00">packages/maths/impl</text>
<text text-anchor="middle" x="139" y="-13" font-family="Helvetica,sans-Serif" font-size="10.00">/Expression_impl.hpp</text>
</a>
</g>
</g>
<!-- Node5&#45;&gt;Node9 -->
<g id="edge8" class="edge">
<title>Node5&#45;&gt;Node9</title>
<path fill="none" stroke="midnightblue" d="M219.56,-78.23C204.54,-67.75 183.94,-53.37 167.33,-41.78"/>
<polygon fill="midnightblue" stroke="midnightblue" points="169.27,-38.86 159.06,-36 165.26,-44.6 169.27,-38.86"/>
</g>
<!-- Node10&#45;&gt;Node3 -->
<g id="edge10" class="edge">
<title>Node10&#45;&gt;Node3</title>
<path fill="none" stroke="midnightblue" d="M437.51,-78.23C443.95,-68.58 452.58,-55.63 459.94,-44.59"/>
<polygon fill="midnightblue" stroke="midnightblue" points="462.87,-46.51 465.5,-36.25 457.04,-42.62 462.87,-46.51"/>
</g>
<!-- Node10&#45;&gt;Node6 -->
<g id="edge11" class="edge">
<title>Node10&#45;&gt;Node6</title>
<path fill="none" stroke="midnightblue" d="M409.38,-78.23C395.83,-67.85 377.28,-53.63 362.23,-42.1"/>
<polygon fill="midnightblue" stroke="midnightblue" points="364.34,-39.31 354.28,-36 360.08,-44.87 364.34,-39.31"/>
</g>
<!-- Node10&#45;&gt;Node7 -->
<g id="edge12" class="edge">
<title>Node10&#45;&gt;Node7</title>
<path fill="none" stroke="midnightblue" d="M373.69,-78.48C343.12,-69.71 304.64,-57.2 272,-42 268.23,-40.25 264.37,-38.13 260.68,-35.95"/>
<polygon fill="midnightblue" stroke="midnightblue" points="262.39,-32.88 252.06,-30.52 258.66,-38.81 262.39,-32.88"/>
</g>
<!-- Node11&#45;&gt;Node2 -->
<g id="edge15" class="edge">
<title>Node11&#45;&gt;Node2</title>
<path fill="none" stroke="midnightblue" d="M906.6,-83.39C854.57,-73.94 771.91,-58.28 701,-42 700.9,-41.98 700.8,-41.95 700.7,-41.93"/>
<polygon fill="midnightblue" stroke="midnightblue" points="701.79,-38.59 691.26,-39.7 700.19,-45.41 701.79,-38.59"/>
</g>
<!-- Node11&#45;&gt;Node4 -->
<g id="edge17" class="edge">
<title>Node11&#45;&gt;Node4</title>
<path fill="none" stroke="midnightblue" d="M921.41,-78.4C892.61,-67.31 852.29,-51.78 821.25,-39.82"/>
<polygon fill="midnightblue" stroke="midnightblue" points="822.12,-36.4 811.53,-36.07 819.6,-42.93 822.12,-36.4"/>
</g>
<!-- Node11&#45;&gt;Node6 -->
<g id="edge16" class="edge">
<title>Node11&#45;&gt;Node6</title>
<path fill="none" stroke="midnightblue" d="M906.81,-91.41C808.08,-88.53 584.87,-78.21 401,-42 396.32,-41.08 391.5,-39.95 386.71,-38.7"/>
<polygon fill="midnightblue" stroke="midnightblue" points="387.5,-35.29 376.93,-36.01 385.64,-42.04 387.5,-35.29"/>
</g>
<!-- Node12 -->
<g id="node12" class="node">
<title>Node12</title>
<g id="a_node12"><a xlink:title=" ">
<polygon fill="white" stroke="#bfbfbf" points="858.5,-11.5 858.5,-30.5 935.5,-30.5 935.5,-11.5 858.5,-11.5"/>
<text text-anchor="middle" x="897" y="-18.5" font-family="Helvetica,sans-Serif" font-size="10.00">Eigen/Dense</text>
</a>
</g>
</g>
<!-- Node11&#45;&gt;Node12 -->
<g id="edge14" class="edge">
<title>Node11&#45;&gt;Node12</title>
<path fill="none" stroke="midnightblue" d="M945.66,-78.23C935.7,-66.73 921.68,-50.53 911.25,-38.47"/>
<polygon fill="midnightblue" stroke="midnightblue" points="913.88,-36.17 904.69,-30.89 908.59,-40.75 913.88,-36.17"/>
</g>
<!-- Node13 -->
<g id="node13" class="node">
<title>Node13</title>
<g id="a_node13"><a target="_parent" xlink:href="../../../cieutils/docs/html/StrongTypeDef_8hpp.html.html" xlink:title=" ">
<polygon fill="white" stroke="black" points="953.5,-6 953.5,-36 1084.5,-36 1084.5,-6 953.5,-6"/>
<text text-anchor="start" x="961.5" y="-24" font-family="Helvetica,sans-Serif" font-size="10.00">packages/stl_extension</text>
<text text-anchor="middle" x="1019" y="-13" font-family="Helvetica,sans-Serif" font-size="10.00">/inc/StrongTypeDef.hpp</text>
</a>
</g>
</g>
<!-- Node11&#45;&gt;Node13 -->
<g id="edge18" class="edge">
<title>Node11&#45;&gt;Node13</title>
<path fill="none" stroke="midnightblue" d="M970.34,-78.23C978.86,-68.39 990.35,-55.12 1000.02,-43.94"/>
<polygon fill="midnightblue" stroke="midnightblue" points="1002.78,-46.1 1006.67,-36.25 997.48,-41.52 1002.78,-46.1"/>
</g>
<!-- Node14 -->
<g id="node14" class="node">
<title>Node14</title>
<g id="a_node14"><a target="_parent" xlink:href="../../../linalg/docs/html/StaticEigenMatrix_8hpp.html.html" xlink:title=" ">
<polygon fill="white" stroke="black" points="1102.5,-6 1102.5,-36 1229.5,-36 1229.5,-6 1102.5,-6"/>
<text text-anchor="start" x="1110.5" y="-24" font-family="Helvetica,sans-Serif" font-size="10.00">packages/matrix/inc</text>
<text text-anchor="middle" x="1166" y="-13" font-family="Helvetica,sans-Serif" font-size="10.00">/StaticEigenMatrix.hpp</text>
</a>
</g>
</g>
<!-- Node11&#45;&gt;Node14 -->
<g id="edge19" class="edge">
<title>Node11&#45;&gt;Node14</title>
<path fill="none" stroke="midnightblue" d="M999.59,-78.4C1032.75,-67.16 1079.34,-51.37 1114.8,-39.36"/>
<polygon fill="midnightblue" stroke="midnightblue" points="1116.13,-42.6 1124.48,-36.07 1113.89,-35.97 1116.13,-42.6"/>
</g>
<!-- Node15 -->
<g id="node15" class="node">
<title>Node15</title>
<g id="a_node15"><a target="_parent" xlink:href="../../../linalg/docs/html/DynamicEigenMatrix_8hpp.html.html" xlink:title=" ">
<polygon fill="white" stroke="black" points="1247.5,-6 1247.5,-36 1390.5,-36 1390.5,-6 1247.5,-6"/>
<text text-anchor="start" x="1255.5" y="-24" font-family="Helvetica,sans-Serif" font-size="10.00">packages/matrix/inc</text>
<text text-anchor="middle" x="1319" y="-13" font-family="Helvetica,sans-Serif" font-size="10.00">/DynamicEigenMatrix.hpp</text>
</a>
</g>
</g>
<!-- Node11&#45;&gt;Node15 -->
<g id="edge20" class="edge">
<title>Node11&#45;&gt;Node15</title>
<path fill="none" stroke="midnightblue" d="M1009,-79.9C1012.04,-79.23 1015.06,-78.59 1018,-78 1115.55,-58.3 1141.53,-62.09 1239,-42 1244.35,-40.9 1249.87,-39.68 1255.41,-38.41"/>
<polygon fill="midnightblue" stroke="midnightblue" points="1256.42,-41.77 1265.35,-36.07 1254.81,-34.95 1256.42,-41.77"/>
</g>
<!-- Node16 -->
<g id="node16" class="node">
<title>Node16</title>
<g id="a_node16"><a target="_parent" xlink:href="../../../linalg/docs/html/SparseEigenMatrix_8hpp.html.html" xlink:title=" ">
<polygon fill="white" stroke="black" points="1409,-6 1409,-36 1541,-36 1541,-6 1409,-6"/>
<text text-anchor="start" x="1417" y="-24" font-family="Helvetica,sans-Serif" font-size="10.00">packages/matrix/inc</text>
<text text-anchor="middle" x="1475" y="-13" font-family="Helvetica,sans-Serif" font-size="10.00">/SparseEigenMatrix.hpp</text>
</a>
</g>
</g>
<!-- Node11&#45;&gt;Node16 -->
<g id="edge21" class="edge">
<title>Node11&#45;&gt;Node16</title>
<path fill="none" stroke="midnightblue" d="M1009.29,-79.59C1012.23,-79.01 1015.15,-78.48 1018,-78 1186.2,-49.9 1232.14,-72.07 1400,-42 1405.69,-40.98 1411.59,-39.74 1417.45,-38.38"/>
<polygon fill="midnightblue" stroke="midnightblue" points="1418.36,-41.76 1427.26,-36 1416.71,-34.96 1418.36,-41.76"/>
</g>
<!-- Node17 -->
<g id="node17" class="node">
<title>Node17</title>
<g id="a_node17"><a xlink:title=" ">
<polygon fill="white" stroke="#bfbfbf" points="1559,-11.5 1559,-30.5 1601,-30.5 1601,-11.5 1559,-11.5"/>
<text text-anchor="middle" x="1580" y="-18.5" font-family="Helvetica,sans-Serif" font-size="10.00">array</text>
</a>
</g>
</g>
<!-- Node11&#45;&gt;Node17 -->
<g id="edge22" class="edge">
<title>Node11&#45;&gt;Node17</title>
<path fill="none" stroke="midnightblue" d="M1009.27,-79.5C1012.22,-78.95 1015.14,-78.44 1018,-78 1252.24,-42.04 1325.63,-118.3 1550,-42 1553.95,-40.66 1557.88,-38.65 1561.54,-36.43"/>
<polygon fill="midnightblue" stroke="midnightblue" points="1563.63,-39.23 1569.89,-30.68 1559.67,-33.47 1563.63,-39.23"/>
</g>
<!-- Node18 -->
<g id="node18" class="node">
<title>Node18</title>
<g id="a_node18"><a xlink:title=" ">
<polygon fill="white" stroke="#bfbfbf" points="1619.5,-11.5 1619.5,-30.5 1678.5,-30.5 1678.5,-11.5 1619.5,-11.5"/>
<text text-anchor="middle" x="1649" y="-18.5" font-family="Helvetica,sans-Serif" font-size="10.00">complex</text>
</a>
</g>
</g>
<!-- Node11&#45;&gt;Node18 -->
<g id="edge23" class="edge">
<title>Node11&#45;&gt;Node18</title>
<path fill="none" stroke="midnightblue" d="M1009.27,-79.48C1012.21,-78.93 1015.14,-78.43 1018,-78 1278.68,-38.89 1355.76,-111.62 1610,-42 1615.6,-40.47 1621.32,-38.07 1626.6,-35.47"/>
<polygon fill="midnightblue" stroke="midnightblue" points="1628.34,-38.5 1635.49,-30.69 1625.02,-32.34 1628.34,-38.5"/>
</g>
</g>
</svg>
