<?xml version="1.0" encoding="UTF-8" standalone="no"?>
<!DOCTYPE svg PUBLIC "-//W3C//DTD SVG 1.1//EN"
 "http://www.w3.org/Graphics/SVG/1.1/DTD/svg11.dtd">
<!-- Generated by graphviz version 2.43.0 (0)
 -->
<!-- Title: ScaleTranslateTransform.hpp Pages: 1 -->
<svg width="845pt" height="173pt"
 viewBox="0.00 0.00 844.50 173.00" xmlns="http://www.w3.org/2000/svg" xmlns:xlink="http://www.w3.org/1999/xlink">
<g id="graph0" class="graph" transform="scale(1 1) rotate(0) translate(4 169)">
<title>ScaleTranslateTransform.hpp</title>
<polygon fill="white" stroke="transparent" points="-4,4 -4,-169 840.5,-169 840.5,4 -4,4"/>
<!-- Node1 -->
<g id="node1" class="node">
<title>Node1</title>
<g id="a_node1"><a xlink:title=" ">
<polygon fill="#bfbfbf" stroke="black" points="397.5,-145.5 397.5,-164.5 554.5,-164.5 554.5,-145.5 397.5,-145.5"/>
<text text-anchor="middle" x="476" y="-152.5" font-family="Helvetica,sans-Serif" font-size="10.00">ScaleTranslateTransform.hpp</text>
</a>
</g>
</g>
<!-- Node2 -->
<g id="node2" class="node">
<title>Node2</title>
<g id="a_node2"><a xlink:href="Expression_8hpp.html" target="_top" xlink:title=" ">
<polygon fill="white" stroke="black" points="129.5,-73 129.5,-103 242.5,-103 242.5,-73 129.5,-73"/>
<text text-anchor="start" x="137.5" y="-91" font-family="Helvetica,sans-Serif" font-size="10.00">packages/maths/inc</text>
<text text-anchor="middle" x="186" y="-80" font-family="Helvetica,sans-Serif" font-size="10.00">/Expression.hpp</text>
</a>
</g>
</g>
<!-- Node1&#45;&gt;Node2 -->
<g id="edge1" class="edge">
<title>Node1&#45;&gt;Node2</title>
<path fill="none" stroke="midnightblue" d="M426.31,-145.43C380.72,-137.24 311.44,-123.94 252,-109 248.13,-108.03 244.14,-106.97 240.14,-105.86"/>
<polygon fill="midnightblue" stroke="midnightblue" points="240.79,-102.41 230.21,-103.04 238.87,-109.14 240.79,-102.41"/>
</g>
<!-- Node7 -->
<g id="node7" class="node">
<title>Node7</title>
<g id="a_node7"><a target="_parent" xlink:href="../../../cieutils/docs/html/StaticArray_8hpp.html.html" xlink:title=" ">
<polygon fill="white" stroke="black" points="260.5,-73 260.5,-103 391.5,-103 391.5,-73 260.5,-73"/>
<text text-anchor="start" x="268.5" y="-91" font-family="Helvetica,sans-Serif" font-size="10.00">packages/stl_extension</text>
<text text-anchor="middle" x="326" y="-80" font-family="Helvetica,sans-Serif" font-size="10.00">/inc/StaticArray.hpp</text>
</a>
</g>
</g>
<!-- Node1&#45;&gt;Node7 -->
<g id="edge6" class="edge">
<title>Node1&#45;&gt;Node7</title>
<path fill="none" stroke="midnightblue" d="M456.08,-145.37C433.67,-135.66 396.64,-119.61 367.8,-107.11"/>
<polygon fill="midnightblue" stroke="midnightblue" points="368.94,-103.79 358.37,-103.03 366.16,-110.22 368.94,-103.79"/>
</g>
<!-- Node8 -->
<g id="node8" class="node">
<title>Node8</title>
<g id="a_node8"><a target="_parent" xlink:href="../../../cieutils/docs/html/basic__concepts_8hpp.html.html" xlink:title=" ">
<polygon fill="white" stroke="black" points="410,-67.5 410,-108.5 542,-108.5 542,-67.5 410,-67.5"/>
<text text-anchor="start" x="418" y="-96.5" font-family="Helvetica,sans-Serif" font-size="10.00">packages/compile_time</text>
<text text-anchor="start" x="418" y="-85.5" font-family="Helvetica,sans-Serif" font-size="10.00">/packages/concepts/inc</text>
<text text-anchor="middle" x="476" y="-74.5" font-family="Helvetica,sans-Serif" font-size="10.00">/basic_concepts.hpp</text>
</a>
</g>
</g>
<!-- Node1&#45;&gt;Node8 -->
<g id="edge7" class="edge">
<title>Node1&#45;&gt;Node8</title>
<path fill="none" stroke="midnightblue" d="M476,-145.23C476,-138.36 476,-128.38 476,-118.73"/>
<polygon fill="midnightblue" stroke="midnightblue" points="479.5,-118.54 476,-108.54 472.5,-118.54 479.5,-118.54"/>
</g>
<!-- Node9 -->
<g id="node9" class="node">
<title>Node9</title>
<g id="a_node9"><a target="_parent" xlink:href="../../../cieutils/docs/html/typedefs_8hpp.html.html" xlink:title=" ">
<polygon fill="white" stroke="black" points="560.5,-73 560.5,-103 679.5,-103 679.5,-73 560.5,-73"/>
<text text-anchor="start" x="568.5" y="-91" font-family="Helvetica,sans-Serif" font-size="10.00">packages/macros/inc</text>
<text text-anchor="middle" x="620" y="-80" font-family="Helvetica,sans-Serif" font-size="10.00">/typedefs.hpp</text>
</a>
</g>
</g>
<!-- Node1&#45;&gt;Node9 -->
<g id="edge8" class="edge">
<title>Node1&#45;&gt;Node9</title>
<path fill="none" stroke="midnightblue" d="M495.12,-145.37C516.54,-135.7 551.88,-119.75 579.51,-107.28"/>
<polygon fill="midnightblue" stroke="midnightblue" points="581.25,-110.33 588.92,-103.03 578.37,-103.95 581.25,-110.33"/>
</g>
<!-- Node10 -->
<g id="node10" class="node">
<title>Node10</title>
<g id="a_node10"><a xlink:title=" ">
<polygon fill="white" stroke="#bfbfbf" points="697.5,-67.5 697.5,-108.5 836.5,-108.5 836.5,-67.5 697.5,-67.5"/>
<text text-anchor="start" x="705.5" y="-96.5" font-family="Helvetica,sans-Serif" font-size="10.00">packages/maths/impl</text>
<text text-anchor="start" x="705.5" y="-85.5" font-family="Helvetica,sans-Serif" font-size="10.00">/ScaleTranslateTransform</text>
<text text-anchor="middle" x="767" y="-74.5" font-family="Helvetica,sans-Serif" font-size="10.00">_impl.hpp</text>
</a>
</g>
</g>
<!-- Node1&#45;&gt;Node10 -->
<g id="edge9" class="edge">
<title>Node1&#45;&gt;Node10</title>
<path fill="none" stroke="midnightblue" d="M518.96,-145.49C559.96,-137.24 623.69,-124.08 687.48,-109.32"/>
<polygon fill="midnightblue" stroke="midnightblue" points="688.35,-112.71 697.3,-107.03 686.76,-105.89 688.35,-112.71"/>
</g>
<!-- Node3 -->
<g id="node3" class="node">
<title>Node3</title>
<g id="a_node3"><a target="_parent" xlink:href="../../../cieutils/docs/html/types_8hpp.html.html" xlink:title=" ">
<polygon fill="white" stroke="black" points="0,-0.5 0,-30.5 110,-30.5 110,-0.5 0,-0.5"/>
<text text-anchor="start" x="8" y="-18.5" font-family="Helvetica,sans-Serif" font-size="10.00">packages/types/inc</text>
<text text-anchor="middle" x="55" y="-7.5" font-family="Helvetica,sans-Serif" font-size="10.00">/types.hpp</text>
</a>
</g>
</g>
<!-- Node2&#45;&gt;Node3 -->
<g id="edge2" class="edge">
<title>Node2&#45;&gt;Node3</title>
<path fill="none" stroke="midnightblue" d="M159.81,-72.9C139.81,-62.14 112.07,-47.21 90.15,-35.42"/>
<polygon fill="midnightblue" stroke="midnightblue" points="91.61,-32.23 81.15,-30.57 88.3,-38.39 91.61,-32.23"/>
</g>
<!-- Node4 -->
<g id="node4" class="node">
<title>Node4</title>
<g id="a_node4"><a xlink:title=" ">
<polygon fill="white" stroke="#bfbfbf" points="128.5,-6 128.5,-25 173.5,-25 173.5,-6 128.5,-6"/>
<text text-anchor="middle" x="151" y="-13" font-family="Helvetica,sans-Serif" font-size="10.00">utility</text>
</a>
</g>
</g>
<!-- Node2&#45;&gt;Node4 -->
<g id="edge3" class="edge">
<title>Node2&#45;&gt;Node4</title>
<path fill="none" stroke="midnightblue" d="M178.92,-72.73C173.42,-61.67 165.78,-46.27 159.88,-34.38"/>
<polygon fill="midnightblue" stroke="midnightblue" points="163,-32.79 155.42,-25.39 156.73,-35.91 163,-32.79"/>
</g>
<!-- Node5 -->
<g id="node5" class="node">
<title>Node5</title>
<g id="a_node5"><a xlink:title=" ">
<polygon fill="white" stroke="#bfbfbf" points="192,-6 192,-25 252,-25 252,-6 192,-6"/>
<text text-anchor="middle" x="222" y="-13" font-family="Helvetica,sans-Serif" font-size="10.00">concepts</text>
</a>
</g>
</g>
<!-- Node2&#45;&gt;Node5 -->
<g id="edge4" class="edge">
<title>Node2&#45;&gt;Node5</title>
<path fill="none" stroke="midnightblue" d="M193.29,-72.73C198.94,-61.67 206.8,-46.27 212.87,-34.38"/>
<polygon fill="midnightblue" stroke="midnightblue" points="216.03,-35.89 217.46,-25.39 209.79,-32.71 216.03,-35.89"/>
</g>
<!-- Node6 -->
<g id="node6" class="node">
<title>Node6</title>
<g id="a_node6"><a xlink:title=" ">
<polygon fill="white" stroke="#bfbfbf" points="270.5,-0.5 270.5,-30.5 391.5,-30.5 391.5,-0.5 270.5,-0.5"/>
<text text-anchor="start" x="278.5" y="-18.5" font-family="Helvetica,sans-Serif" font-size="10.00">packages/maths/impl</text>
<text text-anchor="middle" x="331" y="-7.5" font-family="Helvetica,sans-Serif" font-size="10.00">/Expression_impl.hpp</text>
</a>
</g>
</g>
<!-- Node2&#45;&gt;Node6 -->
<g id="edge5" class="edge">
<title>Node2&#45;&gt;Node6</title>
<path fill="none" stroke="midnightblue" d="M214.99,-72.9C237.32,-62.05 268.38,-46.95 292.74,-35.1"/>
<polygon fill="midnightblue" stroke="midnightblue" points="294.59,-38.09 302.06,-30.57 291.53,-31.8 294.59,-38.09"/>
</g>
</g>
</svg>
