<?xml version="1.0" encoding="UTF-8" standalone="no"?>
<!DOCTYPE svg PUBLIC "-//W3C//DTD SVG 1.1//EN"
 "http://www.w3.org/Graphics/SVG/1.1/DTD/svg11.dtd">
<!-- Generated by graphviz version 2.43.0 (0)
 -->
<!-- Title: cie::fem::Kernel&lt; Dimension, NT &gt; Pages: 1 -->
<svg width="631pt" height="376pt"
 viewBox="0.00 0.00 631.00 376.00" xmlns="http://www.w3.org/2000/svg" xmlns:xlink="http://www.w3.org/1999/xlink">
<g id="graph0" class="graph" transform="scale(1 1) rotate(0) translate(4 372)">
<title>cie::fem::Kernel&lt; Dimension, NT &gt;</title>
<polygon fill="white" stroke="transparent" points="-4,4 -4,-372 627,-372 627,4 -4,4"/>
<!-- Node1 -->
<g id="node1" class="node">
<title>Node1</title>
<g id="a_node1"><a xlink:title=" ">
<polygon fill="#bfbfbf" stroke="black" points="226.5,-299.5 226.5,-367.5 386.5,-367.5 386.5,-299.5 226.5,-299.5"/>
<text text-anchor="start" x="234.5" y="-355.5" font-family="Helvetica,sans-Serif" font-size="10.00">cie::fem::Kernel&lt; Dimension,</text>
<text text-anchor="middle" x="306.5" y="-344.5" font-family="Helvetica,sans-Serif" font-size="10.00"> NT &gt;</text>
<polyline fill="none" stroke="black" points="226.5,-337.5 386.5,-337.5 "/>
<text text-anchor="start" x="234.5" y="-325.5" font-family="Helvetica,sans-Serif" font-size="10.00">+ dimension</text>
<polyline fill="none" stroke="black" points="226.5,-318.5 386.5,-318.5 "/>
<text text-anchor="middle" x="306.5" y="-306.5" font-family="Helvetica,sans-Serif" font-size="10.00"> </text>
</a>
</g>
</g>
<!-- Node2 -->
<g id="node2" class="node">
<title>Node2</title>
<g id="a_node2"><a xlink:href="structcie_1_1fem_1_1Traits_3_01Dimension_00_01NT_01_4.html" target="_top" xlink:title=" ">
<polygon fill="white" stroke="black" points="0,-167 0,-235 155,-235 155,-167 0,-167"/>
<text text-anchor="start" x="8" y="-223" font-family="Helvetica,sans-Serif" font-size="10.00">cie::fem::Traits&lt; Dimension,</text>
<text text-anchor="middle" x="77.5" y="-212" font-family="Helvetica,sans-Serif" font-size="10.00"> NT &gt;</text>
<polyline fill="none" stroke="black" points="0,-205 155,-205 "/>
<text text-anchor="middle" x="77.5" y="-193" font-family="Helvetica,sans-Serif" font-size="10.00"> </text>
<polyline fill="none" stroke="black" points="0,-186 155,-186 "/>
<text text-anchor="middle" x="77.5" y="-174" font-family="Helvetica,sans-Serif" font-size="10.00"> </text>
</a>
</g>
</g>
<!-- Node1&#45;&gt;Node2 -->
<g id="edge1" class="edge">
<title>Node1&#45;&gt;Node2</title>
<path fill="none" stroke="midnightblue" d="M239.31,-294.21C206.38,-275.45 167.12,-253.07 135.52,-235.06"/>
<polygon fill="none" stroke="midnightblue" points="238,-297.49 248.42,-299.4 241.46,-291.41 238,-297.49"/>
</g>
<!-- Node3 -->
<g id="node3" class="node">
<title>Node3</title>
<g id="a_node3"><a xlink:href="structcie_1_1fem_1_1Kernel.html" target="_top" xlink:title=" ">
<polygon fill="white" stroke="black" points="173.5,-161.5 173.5,-240.5 303.5,-240.5 303.5,-161.5 173.5,-161.5"/>
<text text-anchor="start" x="181.5" y="-228.5" font-family="Helvetica,sans-Serif" font-size="10.00">cie::fem::Kernel&lt; T</text>
<text text-anchor="start" x="181.5" y="-217.5" font-family="Helvetica,sans-Serif" font-size="10.00">::Dimension, T::number</text>
<text text-anchor="middle" x="238.5" y="-206.5" font-family="Helvetica,sans-Serif" font-size="10.00">_type &gt;</text>
<polyline fill="none" stroke="black" points="173.5,-199.5 303.5,-199.5 "/>
<text text-anchor="start" x="181.5" y="-187.5" font-family="Helvetica,sans-Serif" font-size="10.00">+ dimension</text>
<polyline fill="none" stroke="black" points="173.5,-180.5 303.5,-180.5 "/>
<text text-anchor="middle" x="238.5" y="-168.5" font-family="Helvetica,sans-Serif" font-size="10.00"> </text>
</a>
</g>
</g>
<!-- Node1&#45;&gt;Node3 -->
<g id="edge2" class="edge">
<title>Node1&#45;&gt;Node3</title>
<path fill="none" stroke="orange" d="M276.23,-290.84C274.2,-287.56 272.27,-284.26 270.5,-281 263.58,-268.26 257.27,-253.69 252.11,-240.57"/>
<polygon fill="orange" stroke="orange" points="273.39,-292.89 281.75,-299.4 279.27,-289.1 273.39,-292.89"/>
<text text-anchor="start" x="270.5" y="-273" font-family="Helvetica,sans-Serif" font-size="10.00"> &lt; T::Dimension, T::</text>
<text text-anchor="middle" x="318.5" y="-262" font-family="Helvetica,sans-Serif" font-size="10.00">number_type &gt;</text>
</g>
<!-- Node5 -->
<g id="node5" class="node">
<title>Node5</title>
<g id="a_node5"><a xlink:href="structcie_1_1fem_1_1Kernel.html" target="_top" xlink:title=" ">
<polygon fill="white" stroke="black" points="321.5,-167 321.5,-235 481.5,-235 481.5,-167 321.5,-167"/>
<text text-anchor="start" x="329.5" y="-223" font-family="Helvetica,sans-Serif" font-size="10.00">cie::fem::Kernel&lt; Dimension,</text>
<text text-anchor="middle" x="401.5" y="-212" font-family="Helvetica,sans-Serif" font-size="10.00"> TValue &gt;</text>
<polyline fill="none" stroke="black" points="321.5,-205 481.5,-205 "/>
<text text-anchor="start" x="329.5" y="-193" font-family="Helvetica,sans-Serif" font-size="10.00">+ dimension</text>
<polyline fill="none" stroke="black" points="321.5,-186 481.5,-186 "/>
<text text-anchor="middle" x="401.5" y="-174" font-family="Helvetica,sans-Serif" font-size="10.00"> </text>
</a>
</g>
</g>
<!-- Node1&#45;&gt;Node5 -->
<g id="edge4" class="edge">
<title>Node1&#45;&gt;Node5</title>
<path fill="none" stroke="orange" d="M357.02,-292.26C360.42,-288.63 363.63,-284.86 366.5,-281 376.7,-267.28 384.76,-250.11 390.56,-235.29"/>
<polygon fill="orange" stroke="orange" points="354.4,-289.94 349.82,-299.49 359.36,-294.87 354.4,-289.94"/>
<text text-anchor="middle" x="438.5" y="-267.5" font-family="Helvetica,sans-Serif" font-size="10.00"> &lt; Dimension, TValue &gt;</text>
</g>
<!-- Node7 -->
<g id="node7" class="node">
<title>Node7</title>
<g id="a_node7"><a xlink:href="structcie_1_1fem_1_1Kernel.html" target="_top" xlink:title=" ">
<polygon fill="white" stroke="black" points="500,-167 500,-235 613,-235 613,-167 500,-167"/>
<text text-anchor="start" x="508" y="-223" font-family="Helvetica,sans-Serif" font-size="10.00">cie::fem::Kernel&lt; 0,</text>
<text text-anchor="middle" x="556.5" y="-212" font-family="Helvetica,sans-Serif" font-size="10.00"> void &gt;</text>
<polyline fill="none" stroke="black" points="500,-205 613,-205 "/>
<text text-anchor="start" x="508" y="-193" font-family="Helvetica,sans-Serif" font-size="10.00">+ dimension</text>
<polyline fill="none" stroke="black" points="500,-186 613,-186 "/>
<text text-anchor="middle" x="556.5" y="-174" font-family="Helvetica,sans-Serif" font-size="10.00"> </text>
</a>
</g>
</g>
<!-- Node1&#45;&gt;Node7 -->
<g id="edge6" class="edge">
<title>Node1&#45;&gt;Node7</title>
<path fill="none" stroke="orange" d="M397.08,-322.19C432.07,-314.88 470.95,-302.37 501.5,-281 518.07,-269.41 531.26,-251.13 540.57,-235.07"/>
<polygon fill="orange" stroke="orange" points="395.98,-318.84 386.85,-324.21 397.34,-325.71 395.98,-318.84"/>
<text text-anchor="middle" x="554" y="-267.5" font-family="Helvetica,sans-Serif" font-size="10.00"> &lt; 0, void &gt;</text>
</g>
<!-- Node4 -->
<g id="node4" class="node">
<title>Node4</title>
<g id="a_node4"><a xlink:href="structcie_1_1fem_1_1Traits_3_01T_01_4.html" target="_top" xlink:title=" ">
<polygon fill="white" stroke="black" points="180,-33.5 180,-90.5 297,-90.5 297,-33.5 180,-33.5"/>
<text text-anchor="middle" x="238.5" y="-78.5" font-family="Helvetica,sans-Serif" font-size="10.00">cie::fem::Traits&lt; T &gt;</text>
<polyline fill="none" stroke="black" points="180,-71.5 297,-71.5 "/>
<text text-anchor="middle" x="238.5" y="-59.5" font-family="Helvetica,sans-Serif" font-size="10.00"> </text>
<polyline fill="none" stroke="black" points="180,-52.5 297,-52.5 "/>
<text text-anchor="middle" x="238.5" y="-40.5" font-family="Helvetica,sans-Serif" font-size="10.00"> </text>
</a>
</g>
</g>
<!-- Node3&#45;&gt;Node4 -->
<g id="edge3" class="edge">
<title>Node3&#45;&gt;Node4</title>
<path fill="none" stroke="midnightblue" d="M238.5,-151.43C238.5,-131.11 238.5,-108.22 238.5,-90.82"/>
<polygon fill="none" stroke="midnightblue" points="235,-151.47 238.5,-161.47 242,-151.47 235,-151.47"/>
</g>
<!-- Node6 -->
<g id="node6" class="node">
<title>Node6</title>
<g id="a_node6"><a xlink:href="classcie_1_1fem_1_1Quadrature.html" target="_top" xlink:title=" ">
<polygon fill="white" stroke="black" points="329,-0.5 329,-123.5 472,-123.5 472,-0.5 329,-0.5"/>
<text text-anchor="start" x="337" y="-111.5" font-family="Helvetica,sans-Serif" font-size="10.00">cie::fem::Quadrature</text>
<text text-anchor="middle" x="400.5" y="-100.5" font-family="Helvetica,sans-Serif" font-size="10.00">&lt; TValue, Dimension &gt;</text>
<polyline fill="none" stroke="black" points="329,-93.5 472,-93.5 "/>
<text text-anchor="middle" x="400.5" y="-81.5" font-family="Helvetica,sans-Serif" font-size="10.00"> </text>
<polyline fill="none" stroke="black" points="329,-74.5 472,-74.5 "/>
<text text-anchor="start" x="337" y="-62.5" font-family="Helvetica,sans-Serif" font-size="10.00">+ Quadrature()</text>
<text text-anchor="start" x="337" y="-51.5" font-family="Helvetica,sans-Serif" font-size="10.00">+ Quadrature()</text>
<text text-anchor="start" x="337" y="-40.5" font-family="Helvetica,sans-Serif" font-size="10.00">+ evaluate()</text>
<text text-anchor="start" x="337" y="-29.5" font-family="Helvetica,sans-Serif" font-size="10.00">+ evaluate()</text>
<text text-anchor="start" x="337" y="-18.5" font-family="Helvetica,sans-Serif" font-size="10.00">+ getIntegrationPoints()</text>
<text text-anchor="start" x="337" y="-7.5" font-family="Helvetica,sans-Serif" font-size="10.00">+ getIntegrationWeights()</text>
</a>
</g>
</g>
<!-- Node5&#45;&gt;Node6 -->
<g id="edge5" class="edge">
<title>Node5&#45;&gt;Node6</title>
<path fill="none" stroke="midnightblue" d="M401.18,-156.7C401.11,-146.22 401.02,-134.82 400.94,-123.7"/>
<polygon fill="none" stroke="midnightblue" points="397.68,-156.86 401.26,-166.84 404.68,-156.81 397.68,-156.86"/>
</g>
<!-- Node8 -->
<g id="node8" class="node">
<title>Node8</title>
<g id="a_node8"><a xlink:href="structcie_1_1fem_1_1Traits.html" target="_top" xlink:title="Invalid general Traits template.">
<polygon fill="white" stroke="black" points="490,-33.5 490,-90.5 623,-90.5 623,-33.5 490,-33.5"/>
<text text-anchor="middle" x="556.5" y="-78.5" font-family="Helvetica,sans-Serif" font-size="10.00">cie::fem::Traits&lt; Args &gt;</text>
<polyline fill="none" stroke="black" points="490,-71.5 623,-71.5 "/>
<text text-anchor="middle" x="556.5" y="-59.5" font-family="Helvetica,sans-Serif" font-size="10.00"> </text>
<polyline fill="none" stroke="black" points="490,-52.5 623,-52.5 "/>
<text text-anchor="middle" x="556.5" y="-40.5" font-family="Helvetica,sans-Serif" font-size="10.00"> </text>
</a>
</g>
</g>
<!-- Node7&#45;&gt;Node8 -->
<g id="edge7" class="edge">
<title>Node7&#45;&gt;Node8</title>
<path fill="none" stroke="midnightblue" d="M556.5,-156.61C556.5,-135.07 556.5,-109.68 556.5,-90.78"/>
<polygon fill="none" stroke="midnightblue" points="553,-156.84 556.5,-166.84 560,-156.84 553,-156.84"/>
</g>
</g>
</svg>
