<?xml version="1.0" encoding="UTF-8" standalone="no"?>
<!DOCTYPE svg PUBLIC "-//W3C//DTD SVG 1.1//EN"
 "http://www.w3.org/Graphics/SVG/1.1/DTD/svg11.dtd">
<!-- Generated by graphviz version 2.43.0 (0)
 -->
<!-- Title: cie::fem::maths::DynamicExpression&lt; TValue &gt; Pages: 1 -->
<svg width="202pt" height="438pt"
 viewBox="0.00 0.00 202.00 438.00" xmlns="http://www.w3.org/2000/svg" xmlns:xlink="http://www.w3.org/1999/xlink">
<g id="graph0" class="graph" transform="scale(1 1) rotate(0) translate(4 434)">
<title>cie::fem::maths::DynamicExpression&lt; TValue &gt;</title>
<polygon fill="white" stroke="transparent" points="-4,4 -4,-434 198,-434 198,4 -4,4"/>
<!-- Node1 -->
<g id="node1" class="node">
<title>Node1</title>
<g id="a_node1"><a xlink:title=" ">
<polygon fill="#bfbfbf" stroke="black" points="4.5,-244.5 4.5,-323.5 147.5,-323.5 147.5,-244.5 4.5,-244.5"/>
<text text-anchor="start" x="12.5" y="-311.5" font-family="Helvetica,sans-Serif" font-size="10.00">cie::fem::maths::Dynamic</text>
<text text-anchor="middle" x="76" y="-300.5" font-family="Helvetica,sans-Serif" font-size="10.00">Expression&lt; TValue &gt;</text>
<polyline fill="none" stroke="black" points="4.5,-293.5 147.5,-293.5 "/>
<text text-anchor="middle" x="76" y="-281.5" font-family="Helvetica,sans-Serif" font-size="10.00"> </text>
<polyline fill="none" stroke="black" points="4.5,-274.5 147.5,-274.5 "/>
<text text-anchor="start" x="12.5" y="-262.5" font-family="Helvetica,sans-Serif" font-size="10.00">+ evaluate()</text>
<text text-anchor="start" x="12.5" y="-251.5" font-family="Helvetica,sans-Serif" font-size="10.00">+ makeDerivative()</text>
</a>
</g>
</g>
<!-- Node3 -->
<g id="node3" class="node">
<title>Node3</title>
<g id="a_node3"><a xlink:href="structcie_1_1fem_1_1maths_1_1DynamicExpression.html" target="_top" xlink:title=" ">
<polygon fill="white" stroke="black" points="4.5,-106.5 4.5,-196.5 147.5,-196.5 147.5,-106.5 4.5,-106.5"/>
<text text-anchor="start" x="12.5" y="-184.5" font-family="Helvetica,sans-Serif" font-size="10.00">cie::fem::maths::Dynamic</text>
<text text-anchor="start" x="12.5" y="-173.5" font-family="Helvetica,sans-Serif" font-size="10.00">Expression&lt; TExpression</text>
<text text-anchor="middle" x="76" y="-162.5" font-family="Helvetica,sans-Serif" font-size="10.00">::Value &gt;</text>
<polyline fill="none" stroke="black" points="4.5,-155.5 147.5,-155.5 "/>
<text text-anchor="middle" x="76" y="-143.5" font-family="Helvetica,sans-Serif" font-size="10.00"> </text>
<polyline fill="none" stroke="black" points="4.5,-136.5 147.5,-136.5 "/>
<text text-anchor="start" x="12.5" y="-124.5" font-family="Helvetica,sans-Serif" font-size="10.00">+ evaluate()</text>
<text text-anchor="start" x="12.5" y="-113.5" font-family="Helvetica,sans-Serif" font-size="10.00">+ makeDerivative()</text>
</a>
</g>
</g>
<!-- Node1&#45;&gt;Node3 -->
<g id="edge2" class="edge">
<title>Node1&#45;&gt;Node3</title>
<path fill="none" stroke="orange" d="M76,-234.16C76,-221.93 76,-208.88 76,-196.88"/>
<polygon fill="orange" stroke="orange" points="72.5,-234.2 76,-244.2 79.5,-234.2 72.5,-234.2"/>
<text text-anchor="middle" x="135" y="-218" font-family="Helvetica,sans-Serif" font-size="10.00"> &lt; TExpression::Value &gt;</text>
</g>
<!-- Node2 -->
<g id="node2" class="node">
<title>Node2</title>
<g id="a_node2"><a xlink:href="structcie_1_1fem_1_1maths_1_1ExpressionTraits.html" target="_top" xlink:title=" ">
<polygon fill="white" stroke="black" points="0,-361.5 0,-429.5 152,-429.5 152,-361.5 0,-361.5"/>
<text text-anchor="start" x="8" y="-417.5" font-family="Helvetica,sans-Serif" font-size="10.00">cie::fem::maths::Expression</text>
<text text-anchor="middle" x="76" y="-406.5" font-family="Helvetica,sans-Serif" font-size="10.00">Traits&lt; TValue &gt;</text>
<polyline fill="none" stroke="black" points="0,-399.5 152,-399.5 "/>
<text text-anchor="middle" x="76" y="-387.5" font-family="Helvetica,sans-Serif" font-size="10.00"> </text>
<polyline fill="none" stroke="black" points="0,-380.5 152,-380.5 "/>
<text text-anchor="middle" x="76" y="-368.5" font-family="Helvetica,sans-Serif" font-size="10.00"> </text>
</a>
</g>
</g>
<!-- Node2&#45;&gt;Node1 -->
<g id="edge1" class="edge">
<title>Node2&#45;&gt;Node1</title>
<path fill="none" stroke="midnightblue" d="M76,-351.34C76,-342.25 76,-332.72 76,-323.81"/>
<polygon fill="none" stroke="midnightblue" points="72.5,-351.35 76,-361.35 79.5,-351.35 72.5,-351.35"/>
</g>
<!-- Node4 -->
<g id="node4" class="node">
<title>Node4</title>
<g id="a_node4"><a xlink:href="classcie_1_1fem_1_1maths_1_1WrappedExpression.html" target="_top" xlink:title=" ">
<polygon fill="white" stroke="black" points="0,-0.5 0,-68.5 152,-68.5 152,-0.5 0,-0.5"/>
<text text-anchor="start" x="8" y="-56.5" font-family="Helvetica,sans-Serif" font-size="10.00">cie::fem::maths::Wrapped</text>
<text text-anchor="middle" x="76" y="-45.5" font-family="Helvetica,sans-Serif" font-size="10.00">Expression&lt; TExpression &gt;</text>
<polyline fill="none" stroke="black" points="0,-38.5 152,-38.5 "/>
<text text-anchor="middle" x="76" y="-26.5" font-family="Helvetica,sans-Serif" font-size="10.00"> </text>
<polyline fill="none" stroke="black" points="0,-19.5 152,-19.5 "/>
<text text-anchor="middle" x="76" y="-7.5" font-family="Helvetica,sans-Serif" font-size="10.00"> </text>
</a>
</g>
</g>
<!-- Node3&#45;&gt;Node4 -->
<g id="edge3" class="edge">
<title>Node3&#45;&gt;Node4</title>
<path fill="none" stroke="midnightblue" d="M76,-96.23C76,-86.8 76,-77.26 76,-68.62"/>
<polygon fill="none" stroke="midnightblue" points="72.5,-96.37 76,-106.37 79.5,-96.37 72.5,-96.37"/>
</g>
</g>
</svg>
