<?xml version="1.0" encoding="UTF-8" standalone="no"?>
<!DOCTYPE svg PUBLIC "-//W3C//DTD SVG 1.1//EN"
 "http://www.w3.org/Graphics/SVG/1.1/DTD/svg11.dtd">
<!-- Generated by graphviz version 2.43.0 (0)
 -->
<!-- Title: cie::concepts::impl::AttributeContainer&lt; T &gt; Pages: 1 -->
<svg width="149pt" height="182pt"
 viewBox="0.00 0.00 149.00 182.00" xmlns="http://www.w3.org/2000/svg" xmlns:xlink="http://www.w3.org/1999/xlink">
<g id="graph0" class="graph" transform="scale(1 1) rotate(0) translate(4 178)">
<title>cie::concepts::impl::AttributeContainer&lt; T &gt;</title>
<polygon fill="white" stroke="transparent" points="-4,4 -4,-178 145,-178 145,4 -4,4"/>
<!-- Node1 -->
<g id="node1" class="node">
<title>Node1</title>
<g id="a_node1"><a xlink:title=" ">
<polygon fill="#bfbfbf" stroke="black" points="0,-0.5 0,-68.5 141,-68.5 141,-0.5 0,-0.5"/>
<text text-anchor="start" x="8" y="-56.5" font-family="Helvetica,sans-Serif" font-size="10.00">cie::concepts::impl</text>
<text text-anchor="middle" x="70.5" y="-45.5" font-family="Helvetica,sans-Serif" font-size="10.00">::AttributeContainer&lt; T &gt;</text>
<polyline fill="none" stroke="black" points="0,-38.5 141,-38.5 "/>
<text text-anchor="middle" x="70.5" y="-26.5" font-family="Helvetica,sans-Serif" font-size="10.00"> </text>
<polyline fill="none" stroke="black" points="0,-19.5 141,-19.5 "/>
<text text-anchor="middle" x="70.5" y="-7.5" font-family="Helvetica,sans-Serif" font-size="10.00"> </text>
</a>
</g>
</g>
<!-- Node2 -->
<g id="node2" class="node">
<title>Node2</title>
<g id="a_node2"><a xlink:title=" ">
<polygon fill="white" stroke="#bfbfbf" points="11,-116.5 11,-173.5 130,-173.5 130,-116.5 11,-116.5"/>
<text text-anchor="middle" x="70.5" y="-161.5" font-family="Helvetica,sans-Serif" font-size="10.00">static constexpr bool</text>
<polyline fill="none" stroke="#bfbfbf" points="11,-154.5 130,-154.5 "/>
<text text-anchor="middle" x="70.5" y="-142.5" font-family="Helvetica,sans-Serif" font-size="10.00"> </text>
<polyline fill="none" stroke="#bfbfbf" points="11,-135.5 130,-135.5 "/>
<text text-anchor="middle" x="70.5" y="-123.5" font-family="Helvetica,sans-Serif" font-size="10.00"> </text>
</a>
</g>
</g>
<!-- Node2&#45;&gt;Node1 -->
<g id="edge1" class="edge">
<title>Node2&#45;&gt;Node1</title>
<path fill="none" stroke="#404040" d="M70.5,-116.34C70.5,-105.53 70.5,-92.85 70.5,-80.77"/>
<polygon fill="none" stroke="#404040" points="70.5,-80.52 66.5,-74.52 70.5,-68.52 74.5,-74.52 70.5,-80.52"/>
<text text-anchor="middle" x="90" y="-90" font-family="Helvetica,sans-Serif" font-size="10.00"> +value</text>
</g>
</g>
</svg>
