<?xml version="1.0" encoding="UTF-8" standalone="no"?>
<!DOCTYPE svg PUBLIC "-//W3C//DTD SVG 1.1//EN"
 "http://www.w3.org/Graphics/SVG/1.1/DTD/svg11.dtd">
<!-- Generated by graphviz version 2.43.0 (0)
 -->
<!-- Title: cie::fem::Traits&lt; Args &gt; Pages: 1 -->
<svg width="300pt" height="393pt"
 viewBox="0.00 0.00 299.50 393.00" xmlns="http://www.w3.org/2000/svg" xmlns:xlink="http://www.w3.org/1999/xlink">
<g id="graph0" class="graph" transform="scale(1 1) rotate(0) translate(4 389)">
<title>cie::fem::Traits&lt; Args &gt;</title>
<polygon fill="white" stroke="transparent" points="-4,4 -4,-389 295.5,-389 295.5,4 -4,4"/>
<!-- Node1 -->
<g id="node1" class="node">
<title>Node1</title>
<g id="a_node1"><a xlink:title="Invalid general Traits template.">
<polygon fill="#bfbfbf" stroke="black" points="0,-0.5 0,-57.5 133,-57.5 133,-0.5 0,-0.5"/>
<text text-anchor="middle" x="66.5" y="-45.5" font-family="Helvetica,sans-Serif" font-size="10.00">cie::fem::Traits&lt; Args &gt;</text>
<polyline fill="none" stroke="black" points="0,-38.5 133,-38.5 "/>
<text text-anchor="middle" x="66.5" y="-26.5" font-family="Helvetica,sans-Serif" font-size="10.00"> </text>
<polyline fill="none" stroke="black" points="0,-19.5 133,-19.5 "/>
<text text-anchor="middle" x="66.5" y="-7.5" font-family="Helvetica,sans-Serif" font-size="10.00"> </text>
</a>
</g>
</g>
<!-- Node2 -->
<g id="node2" class="node">
<title>Node2</title>
<g id="a_node2"><a xlink:href="structcie_1_1fem_1_1Kernel.html" target="_top" xlink:title=" ">
<polygon fill="white" stroke="black" points="10,-95.5 10,-163.5 123,-163.5 123,-95.5 10,-95.5"/>
<text text-anchor="start" x="18" y="-151.5" font-family="Helvetica,sans-Serif" font-size="10.00">cie::fem::Kernel&lt; 0,</text>
<text text-anchor="middle" x="66.5" y="-140.5" font-family="Helvetica,sans-Serif" font-size="10.00"> void &gt;</text>
<polyline fill="none" stroke="black" points="10,-133.5 123,-133.5 "/>
<text text-anchor="middle" x="66.5" y="-121.5" font-family="Helvetica,sans-Serif" font-size="10.00"> </text>
<polyline fill="none" stroke="black" points="10,-114.5 123,-114.5 "/>
<text text-anchor="middle" x="66.5" y="-102.5" font-family="Helvetica,sans-Serif" font-size="10.00"> </text>
</a>
</g>
</g>
<!-- Node2&#45;&gt;Node1 -->
<g id="edge1" class="edge">
<title>Node2&#45;&gt;Node1</title>
<path fill="none" stroke="midnightblue" d="M66.5,-85.38C66.5,-75.94 66.5,-66.2 66.5,-57.57"/>
<polygon fill="none" stroke="midnightblue" points="63,-85.43 66.5,-95.43 70,-85.43 63,-85.43"/>
</g>
<!-- Node3 -->
<g id="node3" class="node">
<title>Node3</title>
<g id="a_node3"><a xlink:title=" ">
<polygon fill="white" stroke="#bfbfbf" points="18.5,-327.5 18.5,-384.5 114.5,-384.5 114.5,-327.5 18.5,-327.5"/>
<text text-anchor="middle" x="66.5" y="-372.5" font-family="Helvetica,sans-Serif" font-size="10.00">static const Size</text>
<polyline fill="none" stroke="#bfbfbf" points="18.5,-365.5 114.5,-365.5 "/>
<text text-anchor="middle" x="66.5" y="-353.5" font-family="Helvetica,sans-Serif" font-size="10.00"> </text>
<polyline fill="none" stroke="#bfbfbf" points="18.5,-346.5 114.5,-346.5 "/>
<text text-anchor="middle" x="66.5" y="-334.5" font-family="Helvetica,sans-Serif" font-size="10.00"> </text>
</a>
</g>
</g>
<!-- Node3&#45;&gt;Node2 -->
<g id="edge2" class="edge">
<title>Node3&#45;&gt;Node2</title>
<path fill="none" stroke="#404040" d="M63.29,-327.26C61.81,-313.14 60.23,-295.68 59.5,-280 58.07,-249.37 58.17,-241.64 59.5,-211 60,-199.58 60.89,-187.26 61.87,-175.79"/>
<polygon fill="none" stroke="#404040" points="61.88,-175.7 58.43,-169.36 62.96,-163.75 66.4,-170.08 61.88,-175.7"/>
<text text-anchor="middle" x="91" y="-243" font-family="Helvetica,sans-Serif" font-size="10.00"> +dimension</text>
</g>
<!-- Node4 -->
<g id="node4" class="node">
<title>Node4</title>
<g id="a_node4"><a xlink:href="structcie_1_1fem_1_1Kernel.html" target="_top" xlink:title=" ">
<polygon fill="white" stroke="black" points="131.5,-211.5 131.5,-279.5 291.5,-279.5 291.5,-211.5 131.5,-211.5"/>
<text text-anchor="start" x="139.5" y="-267.5" font-family="Helvetica,sans-Serif" font-size="10.00">cie::fem::Kernel&lt; Dimension,</text>
<text text-anchor="middle" x="211.5" y="-256.5" font-family="Helvetica,sans-Serif" font-size="10.00"> NT &gt;</text>
<polyline fill="none" stroke="black" points="131.5,-249.5 291.5,-249.5 "/>
<text text-anchor="middle" x="211.5" y="-237.5" font-family="Helvetica,sans-Serif" font-size="10.00"> </text>
<polyline fill="none" stroke="black" points="131.5,-230.5 291.5,-230.5 "/>
<text text-anchor="middle" x="211.5" y="-218.5" font-family="Helvetica,sans-Serif" font-size="10.00"> </text>
</a>
</g>
</g>
<!-- Node3&#45;&gt;Node4 -->
<g id="edge4" class="edge">
<title>Node3&#45;&gt;Node4</title>
<path fill="none" stroke="#404040" d="M103.46,-327.34C119.89,-315.05 139.55,-300.34 157.56,-286.86"/>
<polygon fill="none" stroke="#404040" points="157.77,-286.71 160.17,-279.91 167.37,-279.52 164.97,-286.32 157.77,-286.71"/>
<text text-anchor="middle" x="170" y="-301" font-family="Helvetica,sans-Serif" font-size="10.00"> +dimension</text>
</g>
<!-- Node4&#45;&gt;Node2 -->
<g id="edge3" class="edge">
<title>Node4&#45;&gt;Node2</title>
<path fill="none" stroke="orange" d="M160.95,-204.76C143.87,-191.33 124.99,-176.49 108.63,-163.62"/>
<polygon fill="orange" stroke="orange" points="159.15,-207.79 169.17,-211.22 163.47,-202.29 159.15,-207.79"/>
<text text-anchor="middle" x="172" y="-185" font-family="Helvetica,sans-Serif" font-size="10.00"> &lt; 0, void &gt;</text>
</g>
</g>
</svg>
