<?xml version="1.0" encoding="UTF-8" standalone="no"?>
<!DOCTYPE svg PUBLIC "-//W3C//DTD SVG 1.1//EN"
 "http://www.w3.org/Graphics/SVG/1.1/DTD/svg11.dtd">
<!-- Generated by graphviz version 2.43.0 (0)
 -->
<!-- Title: cie::fem::Traits&lt; Args &gt; Pages: 1 -->
<svg width="168pt" height="288pt"
 viewBox="0.00 0.00 168.00 288.00" xmlns="http://www.w3.org/2000/svg" xmlns:xlink="http://www.w3.org/1999/xlink">
<g id="graph0" class="graph" transform="scale(1 1) rotate(0) translate(4 284)">
<title>cie::fem::Traits&lt; Args &gt;</title>
<polygon fill="white" stroke="transparent" points="-4,4 -4,-284 164,-284 164,4 -4,4"/>
<!-- Node1 -->
<g id="node1" class="node">
<title>Node1</title>
<g id="a_node1"><a xlink:title="Invalid general Traits template.">
<polygon fill="#bfbfbf" stroke="black" points="13.5,-0.5 13.5,-57.5 146.5,-57.5 146.5,-0.5 13.5,-0.5"/>
<text text-anchor="middle" x="80" y="-45.5" font-family="Helvetica,sans-Serif" font-size="10.00">cie::fem::Traits&lt; Args &gt;</text>
<polyline fill="none" stroke="black" points="13.5,-38.5 146.5,-38.5 "/>
<text text-anchor="middle" x="80" y="-26.5" font-family="Helvetica,sans-Serif" font-size="10.00"> </text>
<polyline fill="none" stroke="black" points="13.5,-19.5 146.5,-19.5 "/>
<text text-anchor="middle" x="80" y="-7.5" font-family="Helvetica,sans-Serif" font-size="10.00"> </text>
</a>
</g>
</g>
<!-- Node2 -->
<g id="node2" class="node">
<title>Node2</title>
<g id="a_node2"><a xlink:href="structcie_1_1fem_1_1Kernel.html" target="_top" xlink:title=" ">
<polygon fill="white" stroke="black" points="23.5,-95.5 23.5,-163.5 136.5,-163.5 136.5,-95.5 23.5,-95.5"/>
<text text-anchor="start" x="31.5" y="-151.5" font-family="Helvetica,sans-Serif" font-size="10.00">cie::fem::Kernel&lt; 0,</text>
<text text-anchor="middle" x="80" y="-140.5" font-family="Helvetica,sans-Serif" font-size="10.00"> void &gt;</text>
<polyline fill="none" stroke="black" points="23.5,-133.5 136.5,-133.5 "/>
<text text-anchor="start" x="31.5" y="-121.5" font-family="Helvetica,sans-Serif" font-size="10.00">+ dimension</text>
<polyline fill="none" stroke="black" points="23.5,-114.5 136.5,-114.5 "/>
<text text-anchor="middle" x="80" y="-102.5" font-family="Helvetica,sans-Serif" font-size="10.00"> </text>
</a>
</g>
</g>
<!-- Node2&#45;&gt;Node1 -->
<g id="edge1" class="edge">
<title>Node2&#45;&gt;Node1</title>
<path fill="none" stroke="midnightblue" d="M80,-85.38C80,-75.94 80,-66.2 80,-57.57"/>
<polygon fill="none" stroke="midnightblue" points="76.5,-85.43 80,-95.43 83.5,-85.43 76.5,-85.43"/>
</g>
<!-- Node3 -->
<g id="node3" class="node">
<title>Node3</title>
<g id="a_node3"><a xlink:href="structcie_1_1fem_1_1Kernel.html" target="_top" xlink:title=" ">
<polygon fill="white" stroke="black" points="0,-211.5 0,-279.5 160,-279.5 160,-211.5 0,-211.5"/>
<text text-anchor="start" x="8" y="-267.5" font-family="Helvetica,sans-Serif" font-size="10.00">cie::fem::Kernel&lt; Dimension,</text>
<text text-anchor="middle" x="80" y="-256.5" font-family="Helvetica,sans-Serif" font-size="10.00"> NT &gt;</text>
<polyline fill="none" stroke="black" points="0,-249.5 160,-249.5 "/>
<text text-anchor="start" x="8" y="-237.5" font-family="Helvetica,sans-Serif" font-size="10.00">+ dimension</text>
<polyline fill="none" stroke="black" points="0,-230.5 160,-230.5 "/>
<text text-anchor="middle" x="80" y="-218.5" font-family="Helvetica,sans-Serif" font-size="10.00"> </text>
</a>
</g>
</g>
<!-- Node3&#45;&gt;Node2 -->
<g id="edge2" class="edge">
<title>Node3&#45;&gt;Node2</title>
<path fill="none" stroke="orange" d="M80,-201.06C80,-188.64 80,-175.32 80,-163.62"/>
<polygon fill="orange" stroke="orange" points="76.5,-201.22 80,-211.22 83.5,-201.22 76.5,-201.22"/>
<text text-anchor="middle" x="109.5" y="-185" font-family="Helvetica,sans-Serif" font-size="10.00"> &lt; 0, void &gt;</text>
</g>
</g>
</svg>
