<?xml version="1.0" encoding="UTF-8" standalone="no"?>
<!DOCTYPE svg PUBLIC "-//W3C//DTD SVG 1.1//EN"
 "http://www.w3.org/Graphics/SVG/1.1/DTD/svg11.dtd">
<!-- Generated by graphviz version 2.43.0 (0)
 -->
<!-- Title: cie::fem::Traits&lt; T &gt; Pages: 1 -->
<svg width="328pt" height="415pt"
 viewBox="0.00 0.00 327.50 415.00" xmlns="http://www.w3.org/2000/svg" xmlns:xlink="http://www.w3.org/1999/xlink">
<g id="graph0" class="graph" transform="scale(1 1) rotate(0) translate(4 411)">
<title>cie::fem::Traits&lt; T &gt;</title>
<polygon fill="white" stroke="transparent" points="-4,4 -4,-411 323.5,-411 323.5,4 -4,4"/>
<!-- Node1 -->
<g id="node1" class="node">
<title>Node1</title>
<g id="a_node1"><a xlink:title=" ">
<polygon fill="#bfbfbf" stroke="black" points="90.5,-0.5 90.5,-57.5 207.5,-57.5 207.5,-0.5 90.5,-0.5"/>
<text text-anchor="middle" x="149" y="-45.5" font-family="Helvetica,sans-Serif" font-size="10.00">cie::fem::Traits&lt; T &gt;</text>
<polyline fill="none" stroke="black" points="90.5,-38.5 207.5,-38.5 "/>
<text text-anchor="middle" x="149" y="-26.5" font-family="Helvetica,sans-Serif" font-size="10.00"> </text>
<polyline fill="none" stroke="black" points="90.5,-19.5 207.5,-19.5 "/>
<text text-anchor="middle" x="149" y="-7.5" font-family="Helvetica,sans-Serif" font-size="10.00"> </text>
</a>
</g>
</g>
<!-- Node2 -->
<g id="node2" class="node">
<title>Node2</title>
<g id="a_node2"><a xlink:href="structcie_1_1fem_1_1Kernel.html" target="_top" xlink:title=" ">
<polygon fill="white" stroke="black" points="0,-95.5 0,-174.5 130,-174.5 130,-95.5 0,-95.5"/>
<text text-anchor="start" x="8" y="-162.5" font-family="Helvetica,sans-Serif" font-size="10.00">cie::fem::Kernel&lt; T</text>
<text text-anchor="start" x="8" y="-151.5" font-family="Helvetica,sans-Serif" font-size="10.00">::Dimension, T::number</text>
<text text-anchor="middle" x="65" y="-140.5" font-family="Helvetica,sans-Serif" font-size="10.00">_type &gt;</text>
<polyline fill="none" stroke="black" points="0,-133.5 130,-133.5 "/>
<text text-anchor="middle" x="65" y="-121.5" font-family="Helvetica,sans-Serif" font-size="10.00"> </text>
<polyline fill="none" stroke="black" points="0,-114.5 130,-114.5 "/>
<text text-anchor="middle" x="65" y="-102.5" font-family="Helvetica,sans-Serif" font-size="10.00"> </text>
</a>
</g>
</g>
<!-- Node2&#45;&gt;Node1 -->
<g id="edge1" class="edge">
<title>Node2&#45;&gt;Node1</title>
<path fill="none" stroke="midnightblue" d="M102.75,-87.26C110.9,-77.17 119.27,-66.8 126.61,-57.72"/>
<polygon fill="none" stroke="midnightblue" points="99.84,-85.3 96.28,-95.27 105.28,-89.69 99.84,-85.3"/>
</g>
<!-- Node3 -->
<g id="node3" class="node">
<title>Node3</title>
<g id="a_node3"><a xlink:title=" ">
<polygon fill="white" stroke="#bfbfbf" points="17,-349.5 17,-406.5 113,-406.5 113,-349.5 17,-349.5"/>
<text text-anchor="middle" x="65" y="-394.5" font-family="Helvetica,sans-Serif" font-size="10.00">static const Size</text>
<polyline fill="none" stroke="#bfbfbf" points="17,-387.5 113,-387.5 "/>
<text text-anchor="middle" x="65" y="-375.5" font-family="Helvetica,sans-Serif" font-size="10.00"> </text>
<polyline fill="none" stroke="#bfbfbf" points="17,-368.5 113,-368.5 "/>
<text text-anchor="middle" x="65" y="-356.5" font-family="Helvetica,sans-Serif" font-size="10.00"> </text>
</a>
</g>
</g>
<!-- Node3&#45;&gt;Node2 -->
<g id="edge2" class="edge">
<title>Node3&#45;&gt;Node2</title>
<path fill="none" stroke="#404040" d="M61.79,-349.26C60.31,-335.14 58.73,-317.68 58,-302 56.57,-271.37 56.9,-263.65 58,-233 58.54,-217.97 59.55,-201.66 60.64,-186.78"/>
<polygon fill="none" stroke="#404040" points="60.65,-186.64 57.12,-180.35 61.57,-174.67 65.1,-180.96 60.65,-186.64"/>
<text text-anchor="middle" x="89.5" y="-265" font-family="Helvetica,sans-Serif" font-size="10.00"> +dimension</text>
</g>
<!-- Node4 -->
<g id="node4" class="node">
<title>Node4</title>
<g id="a_node4"><a xlink:href="structcie_1_1fem_1_1Kernel.html" target="_top" xlink:title=" ">
<polygon fill="white" stroke="black" points="130,-233.5 130,-301.5 290,-301.5 290,-233.5 130,-233.5"/>
<text text-anchor="start" x="138" y="-289.5" font-family="Helvetica,sans-Serif" font-size="10.00">cie::fem::Kernel&lt; Dimension,</text>
<text text-anchor="middle" x="210" y="-278.5" font-family="Helvetica,sans-Serif" font-size="10.00"> NT &gt;</text>
<polyline fill="none" stroke="black" points="130,-271.5 290,-271.5 "/>
<text text-anchor="middle" x="210" y="-259.5" font-family="Helvetica,sans-Serif" font-size="10.00"> </text>
<polyline fill="none" stroke="black" points="130,-252.5 290,-252.5 "/>
<text text-anchor="middle" x="210" y="-240.5" font-family="Helvetica,sans-Serif" font-size="10.00"> </text>
</a>
</g>
</g>
<!-- Node3&#45;&gt;Node4 -->
<g id="edge4" class="edge">
<title>Node3&#45;&gt;Node4</title>
<path fill="none" stroke="#404040" d="M101.96,-349.34C118.39,-337.05 138.05,-322.34 156.06,-308.86"/>
<polygon fill="none" stroke="#404040" points="156.27,-308.71 158.67,-301.91 165.87,-301.52 163.47,-308.32 156.27,-308.71"/>
<text text-anchor="middle" x="169.5" y="-323" font-family="Helvetica,sans-Serif" font-size="10.00"> +dimension</text>
</g>
<!-- Node4&#45;&gt;Node2 -->
<g id="edge3" class="edge">
<title>Node4&#45;&gt;Node2</title>
<path fill="none" stroke="orange" d="M165.37,-226.34C147.05,-209.85 125.94,-190.84 107.81,-174.53"/>
<polygon fill="orange" stroke="orange" points="163.26,-229.14 173.04,-233.23 167.94,-223.94 163.26,-229.14"/>
<text text-anchor="start" x="151" y="-207" font-family="Helvetica,sans-Serif" font-size="10.00"> &lt; T::Dimension, T::</text>
<text text-anchor="middle" x="199" y="-196" font-family="Helvetica,sans-Serif" font-size="10.00">number_type &gt;</text>
</g>
<!-- Node5 -->
<g id="node5" class="node">
<title>Node5</title>
<g id="a_node5"><a xlink:title=" ">
<polygon fill="white" stroke="#bfbfbf" points="148.5,-106.5 148.5,-163.5 319.5,-163.5 319.5,-106.5 148.5,-106.5"/>
<text text-anchor="middle" x="234" y="-151.5" font-family="Helvetica,sans-Serif" font-size="10.00">cie::fem::detail::SizeTraits&lt; T &gt;</text>
<polyline fill="none" stroke="#bfbfbf" points="148.5,-144.5 319.5,-144.5 "/>
<text text-anchor="middle" x="234" y="-132.5" font-family="Helvetica,sans-Serif" font-size="10.00"> </text>
<polyline fill="none" stroke="#bfbfbf" points="148.5,-125.5 319.5,-125.5 "/>
<text text-anchor="middle" x="234" y="-113.5" font-family="Helvetica,sans-Serif" font-size="10.00"> </text>
</a>
</g>
</g>
<!-- Node5&#45;&gt;Node1 -->
<g id="edge5" class="edge">
<title>Node5&#45;&gt;Node1</title>
<path fill="none" stroke="midnightblue" d="M204.88,-98.37C194.02,-85.08 181.86,-70.2 171.66,-57.73"/>
<polygon fill="none" stroke="midnightblue" points="202.41,-100.87 211.44,-106.4 207.83,-96.45 202.41,-100.87"/>
</g>
</g>
</svg>
