<?xml version="1.0" encoding="UTF-8" standalone="no"?>
<!DOCTYPE svg PUBLIC "-//W3C//DTD SVG 1.1//EN"
 "http://www.w3.org/Graphics/SVG/1.1/DTD/svg11.dtd">
<!-- Generated by graphviz version 2.43.0 (0)
 -->
<!-- Title: cie::fem::maths::ExpressionTraits&lt; TValue &gt; Pages: 1 -->
<svg width="2815pt" height="580pt"
 viewBox="0.00 0.00 2814.67 580.00" xmlns="http://www.w3.org/2000/svg" xmlns:xlink="http://www.w3.org/1999/xlink">
<g id="graph0" class="graph" transform="scale(1 1) rotate(0) translate(4 576)">
<title>cie::fem::maths::ExpressionTraits&lt; TValue &gt;</title>
<polygon fill="white" stroke="transparent" points="-4,4 -4,-576 2810.67,-576 2810.67,4 -4,4"/>
<!-- Node1 -->
<g id="node1" class="node">
<title>Node1</title>
<g id="a_node1"><a xlink:title=" ">
<polygon fill="#bfbfbf" stroke="black" points="1185.67,-503.5 1185.67,-571.5 1337.67,-571.5 1337.67,-503.5 1185.67,-503.5"/>
<text text-anchor="start" x="1193.67" y="-559.5" font-family="Helvetica,sans-Serif" font-size="10.00">cie::fem::maths::Expression</text>
<text text-anchor="middle" x="1261.67" y="-548.5" font-family="Helvetica,sans-Serif" font-size="10.00">Traits&lt; TValue &gt;</text>
<polyline fill="none" stroke="black" points="1185.67,-541.5 1337.67,-541.5 "/>
<text text-anchor="middle" x="1261.67" y="-529.5" font-family="Helvetica,sans-Serif" font-size="10.00"> </text>
<polyline fill="none" stroke="black" points="1185.67,-522.5 1337.67,-522.5 "/>
<text text-anchor="middle" x="1261.67" y="-510.5" font-family="Helvetica,sans-Serif" font-size="10.00"> </text>
</a>
</g>
</g>
<!-- Node2 -->
<g id="node2" class="node">
<title>Node2</title>
<g id="a_node2"><a xlink:href="structcie_1_1fem_1_1maths_1_1DynamicExpression.html" target="_top" xlink:title=" ">
<polygon fill="white" stroke="black" points="71.17,-123 71.17,-213 214.17,-213 214.17,-123 71.17,-123"/>
<text text-anchor="start" x="79.17" y="-201" font-family="Helvetica,sans-Serif" font-size="10.00">cie::fem::maths::Dynamic</text>
<text text-anchor="start" x="79.17" y="-190" font-family="Helvetica,sans-Serif" font-size="10.00">Expression&lt; TExpression</text>
<text text-anchor="middle" x="142.67" y="-179" font-family="Helvetica,sans-Serif" font-size="10.00">::Value &gt;</text>
<polyline fill="none" stroke="black" points="71.17,-172 214.17,-172 "/>
<text text-anchor="middle" x="142.67" y="-160" font-family="Helvetica,sans-Serif" font-size="10.00"> </text>
<polyline fill="none" stroke="black" points="71.17,-153 214.17,-153 "/>
<text text-anchor="start" x="79.17" y="-141" font-family="Helvetica,sans-Serif" font-size="10.00">+ evaluate()</text>
<text text-anchor="start" x="79.17" y="-130" font-family="Helvetica,sans-Serif" font-size="10.00">+ makeDerivative()</text>
</a>
</g>
</g>
<!-- Node1&#45;&gt;Node2 -->
<g id="edge1" class="edge">
<title>Node1&#45;&gt;Node2</title>
<path fill="none" stroke="midnightblue" d="M1175.35,-537C907.41,-537.64 103.41,-532.22 29.67,-445 -18.53,-387.98 0.32,-345.66 29.67,-277 40.23,-252.3 59.53,-230.55 79.22,-213.16"/>
<polygon fill="none" stroke="midnightblue" points="1175.43,-540.5 1185.42,-536.98 1175.41,-533.5 1175.43,-540.5"/>
</g>
<!-- Node4 -->
<g id="node4" class="node">
<title>Node4</title>
<g id="a_node4"><a xlink:href="classcie_1_1fem_1_1maths_1_1AffineTransform.html" target="_top" xlink:title="Class representing an affine transformation.">
<polygon fill="white" stroke="black" points="38.67,-294 38.67,-428 214.67,-428 214.67,-294 38.67,-294"/>
<text text-anchor="start" x="46.67" y="-416" font-family="Helvetica,sans-Serif" font-size="10.00">cie::fem::maths::AffineTransform</text>
<text text-anchor="middle" x="126.67" y="-405" font-family="Helvetica,sans-Serif" font-size="10.00">&lt; TValue, Dimension &gt;</text>
<polyline fill="none" stroke="black" points="38.67,-398 214.67,-398 "/>
<text text-anchor="middle" x="126.67" y="-386" font-family="Helvetica,sans-Serif" font-size="10.00"> </text>
<polyline fill="none" stroke="black" points="38.67,-379 214.67,-379 "/>
<text text-anchor="start" x="46.67" y="-367" font-family="Helvetica,sans-Serif" font-size="10.00">+ AffineTransform()</text>
<text text-anchor="start" x="46.67" y="-356" font-family="Helvetica,sans-Serif" font-size="10.00">+ AffineTransform()</text>
<text text-anchor="start" x="46.67" y="-345" font-family="Helvetica,sans-Serif" font-size="10.00">+ evaluate()</text>
<text text-anchor="start" x="46.67" y="-334" font-family="Helvetica,sans-Serif" font-size="10.00">+ size()</text>
<text text-anchor="start" x="46.67" y="-323" font-family="Helvetica,sans-Serif" font-size="10.00">+ makeDerivative()</text>
<text text-anchor="start" x="46.67" y="-312" font-family="Helvetica,sans-Serif" font-size="10.00">+ makeInverse()</text>
<text text-anchor="start" x="46.67" y="-301" font-family="Helvetica,sans-Serif" font-size="10.00">+ getTransformationMatrix()</text>
</a>
</g>
</g>
<!-- Node1&#45;&gt;Node4 -->
<g id="edge3" class="edge">
<title>Node1&#45;&gt;Node4</title>
<path fill="none" stroke="#8b1a1a" d="M1175.59,-533.21C1032.05,-527.19 734.84,-512.41 484.67,-485 368.02,-472.22 330.35,-493.91 223.67,-445 213.8,-440.47 204.15,-434.64 195.01,-428.16"/>
<polygon fill="none" stroke="#8b1a1a" points="1175.52,-536.71 1185.66,-533.63 1175.81,-529.72 1175.52,-536.71"/>
</g>
<!-- Node5 -->
<g id="node5" class="node">
<title>Node5</title>
<g id="a_node5"><a xlink:href="classcie_1_1fem_1_1maths_1_1AffineTransformDerivative.html" target="_top" xlink:title="Expression representing the derivative of AffineTransform.">
<polygon fill="white" stroke="black" points="232.67,-310.5 232.67,-411.5 414.67,-411.5 414.67,-310.5 232.67,-310.5"/>
<text text-anchor="start" x="240.67" y="-399.5" font-family="Helvetica,sans-Serif" font-size="10.00">cie::fem::maths::AffineTransform</text>
<text text-anchor="middle" x="323.67" y="-388.5" font-family="Helvetica,sans-Serif" font-size="10.00">Derivative&lt; TValue, Dimension &gt;</text>
<polyline fill="none" stroke="black" points="232.67,-381.5 414.67,-381.5 "/>
<text text-anchor="middle" x="323.67" y="-369.5" font-family="Helvetica,sans-Serif" font-size="10.00"> </text>
<polyline fill="none" stroke="black" points="232.67,-362.5 414.67,-362.5 "/>
<text text-anchor="start" x="240.67" y="-350.5" font-family="Helvetica,sans-Serif" font-size="10.00">+ AffineTransformDerivative()</text>
<text text-anchor="start" x="240.67" y="-339.5" font-family="Helvetica,sans-Serif" font-size="10.00">+ evaluate()</text>
<text text-anchor="start" x="240.67" y="-328.5" font-family="Helvetica,sans-Serif" font-size="10.00">+ size()</text>
<text text-anchor="start" x="240.67" y="-317.5" font-family="Helvetica,sans-Serif" font-size="10.00">+ evaluateDeterminant()</text>
</a>
</g>
</g>
<!-- Node1&#45;&gt;Node5 -->
<g id="edge4" class="edge">
<title>Node1&#45;&gt;Node5</title>
<path fill="none" stroke="midnightblue" d="M1175.37,-534.16C989.07,-527.98 555.42,-507.18 423.67,-445 405.82,-436.57 388.49,-424.21 373.41,-411.59"/>
<polygon fill="none" stroke="midnightblue" points="1175.29,-537.66 1185.4,-534.49 1175.52,-530.67 1175.29,-537.66"/>
</g>
<!-- Node6 -->
<g id="node6" class="node">
<title>Node6</title>
<g id="a_node6"><a xlink:href="structcie_1_1fem_1_1maths_1_1DynamicExpression.html" target="_top" xlink:title=" ">
<polygon fill="white" stroke="black" points="433.17,-321.5 433.17,-400.5 576.17,-400.5 576.17,-321.5 433.17,-321.5"/>
<text text-anchor="start" x="441.17" y="-388.5" font-family="Helvetica,sans-Serif" font-size="10.00">cie::fem::maths::Dynamic</text>
<text text-anchor="middle" x="504.67" y="-377.5" font-family="Helvetica,sans-Serif" font-size="10.00">Expression&lt; TValue &gt;</text>
<polyline fill="none" stroke="black" points="433.17,-370.5 576.17,-370.5 "/>
<text text-anchor="middle" x="504.67" y="-358.5" font-family="Helvetica,sans-Serif" font-size="10.00"> </text>
<polyline fill="none" stroke="black" points="433.17,-351.5 576.17,-351.5 "/>
<text text-anchor="start" x="441.17" y="-339.5" font-family="Helvetica,sans-Serif" font-size="10.00">+ evaluate()</text>
<text text-anchor="start" x="441.17" y="-328.5" font-family="Helvetica,sans-Serif" font-size="10.00">+ makeDerivative()</text>
</a>
</g>
</g>
<!-- Node1&#45;&gt;Node6 -->
<g id="edge5" class="edge">
<title>Node1&#45;&gt;Node6</title>
<path fill="none" stroke="midnightblue" d="M1175.18,-532.16C1016.42,-522.99 685.55,-498 584.67,-445 564.65,-434.48 546.72,-417.08 532.93,-400.91"/>
<polygon fill="none" stroke="midnightblue" points="1175.2,-535.66 1185.38,-532.74 1175.6,-528.67 1175.2,-535.66"/>
</g>
<!-- Node7 -->
<g id="node7" class="node">
<title>Node7</title>
<g id="a_node7"><a xlink:href="classcie_1_1fem_1_1maths_1_1IdentityTransform.html" target="_top" xlink:title=" ">
<polygon fill="white" stroke="black" points="594.17,-305 594.17,-417 773.17,-417 773.17,-305 594.17,-305"/>
<text text-anchor="start" x="602.17" y="-405" font-family="Helvetica,sans-Serif" font-size="10.00">cie::fem::maths::Identity</text>
<text text-anchor="middle" x="683.67" y="-394" font-family="Helvetica,sans-Serif" font-size="10.00">Transform&lt; TValue, Dimension &gt;</text>
<polyline fill="none" stroke="black" points="594.17,-387 773.17,-387 "/>
<text text-anchor="middle" x="683.67" y="-375" font-family="Helvetica,sans-Serif" font-size="10.00"> </text>
<polyline fill="none" stroke="black" points="594.17,-368 773.17,-368 "/>
<text text-anchor="start" x="602.17" y="-356" font-family="Helvetica,sans-Serif" font-size="10.00">+ IdentityTransform()</text>
<text text-anchor="start" x="602.17" y="-345" font-family="Helvetica,sans-Serif" font-size="10.00">+ evaluate()</text>
<text text-anchor="start" x="602.17" y="-334" font-family="Helvetica,sans-Serif" font-size="10.00">+ size()</text>
<text text-anchor="start" x="602.17" y="-323" font-family="Helvetica,sans-Serif" font-size="10.00">+ makeInverse()</text>
<text text-anchor="start" x="602.17" y="-312" font-family="Helvetica,sans-Serif" font-size="10.00">+ makeDerivative()</text>
</a>
</g>
</g>
<!-- Node1&#45;&gt;Node7 -->
<g id="edge7" class="edge">
<title>Node1&#45;&gt;Node7</title>
<path fill="none" stroke="midnightblue" d="M1175.64,-533.24C1076.29,-526.57 910.08,-506.32 781.67,-445 766.68,-437.84 752.12,-427.82 739,-417.21"/>
<polygon fill="none" stroke="midnightblue" points="1175.43,-536.73 1185.63,-533.88 1175.88,-529.75 1175.43,-536.73"/>
</g>
<!-- Node8 -->
<g id="node8" class="node">
<title>Node8</title>
<g id="a_node8"><a xlink:href="classcie_1_1fem_1_1maths_1_1LambdaExpression.html" target="_top" xlink:title=" ">
<polygon fill="white" stroke="black" points="791.17,-310.5 791.17,-411.5 982.17,-411.5 982.17,-310.5 791.17,-310.5"/>
<text text-anchor="start" x="799.17" y="-399.5" font-family="Helvetica,sans-Serif" font-size="10.00">cie::fem::maths::LambdaExpression</text>
<text text-anchor="middle" x="886.67" y="-388.5" font-family="Helvetica,sans-Serif" font-size="10.00">&lt; TLambda, TValue &gt;</text>
<polyline fill="none" stroke="black" points="791.17,-381.5 982.17,-381.5 "/>
<text text-anchor="middle" x="886.67" y="-369.5" font-family="Helvetica,sans-Serif" font-size="10.00"> </text>
<polyline fill="none" stroke="black" points="791.17,-362.5 982.17,-362.5 "/>
<text text-anchor="start" x="799.17" y="-350.5" font-family="Helvetica,sans-Serif" font-size="10.00">+ LambdaExpression()</text>
<text text-anchor="start" x="799.17" y="-339.5" font-family="Helvetica,sans-Serif" font-size="10.00">+ LambdaExpression()</text>
<text text-anchor="start" x="799.17" y="-328.5" font-family="Helvetica,sans-Serif" font-size="10.00">+ evaluate()</text>
<text text-anchor="start" x="799.17" y="-317.5" font-family="Helvetica,sans-Serif" font-size="10.00">+ size()</text>
</a>
</g>
</g>
<!-- Node1&#45;&gt;Node8 -->
<g id="edge8" class="edge">
<title>Node1&#45;&gt;Node8</title>
<path fill="none" stroke="midnightblue" d="M1175.81,-515.53C1121.14,-500.24 1049.93,-476.66 991.67,-445 974.63,-435.73 957.53,-423.68 942.23,-411.65"/>
<polygon fill="none" stroke="midnightblue" points="1174.9,-518.91 1185.47,-518.19 1176.76,-512.16 1174.9,-518.91"/>
</g>
<!-- Node9 -->
<g id="node9" class="node">
<title>Node9</title>
<g id="a_node9"><a xlink:href="classcie_1_1fem_1_1maths_1_1OrthogonalScaleTransform.html" target="_top" xlink:title="Class representing independent scaling along orthogonal coordinate axes.">
<polygon fill="white" stroke="black" points="1000.67,-294 1000.67,-428 1164.67,-428 1164.67,-294 1000.67,-294"/>
<text text-anchor="start" x="1008.67" y="-416" font-family="Helvetica,sans-Serif" font-size="10.00">cie::fem::maths::Orthogonal</text>
<text text-anchor="start" x="1008.67" y="-405" font-family="Helvetica,sans-Serif" font-size="10.00">ScaleTransform&lt; TValue,</text>
<text text-anchor="middle" x="1082.67" y="-394" font-family="Helvetica,sans-Serif" font-size="10.00"> Dimension &gt;</text>
<polyline fill="none" stroke="black" points="1000.67,-387 1164.67,-387 "/>
<text text-anchor="middle" x="1082.67" y="-375" font-family="Helvetica,sans-Serif" font-size="10.00"> </text>
<polyline fill="none" stroke="black" points="1000.67,-368 1164.67,-368 "/>
<text text-anchor="start" x="1008.67" y="-356" font-family="Helvetica,sans-Serif" font-size="10.00">+ OrthogonalScaleTransform()</text>
<text text-anchor="start" x="1008.67" y="-345" font-family="Helvetica,sans-Serif" font-size="10.00">+ OrthogonalScaleTransform()</text>
<text text-anchor="start" x="1008.67" y="-334" font-family="Helvetica,sans-Serif" font-size="10.00">+ evaluate()</text>
<text text-anchor="start" x="1008.67" y="-323" font-family="Helvetica,sans-Serif" font-size="10.00">+ size()</text>
<text text-anchor="start" x="1008.67" y="-312" font-family="Helvetica,sans-Serif" font-size="10.00">+ makeDerivative()</text>
<text text-anchor="start" x="1008.67" y="-301" font-family="Helvetica,sans-Serif" font-size="10.00">+ makeInverse()</text>
</a>
</g>
</g>
<!-- Node1&#45;&gt;Node9 -->
<g id="edge9" class="edge">
<title>Node1&#45;&gt;Node9</title>
<path fill="none" stroke="#8b1a1a" d="M1220.22,-496.09C1199.59,-475.98 1174.13,-451.15 1150.74,-428.35"/>
<polygon fill="none" stroke="#8b1a1a" points="1217.98,-498.79 1227.58,-503.27 1222.87,-493.78 1217.98,-498.79"/>
</g>
<!-- Node10 -->
<g id="node10" class="node">
<title>Node10</title>
<g id="a_node10"><a xlink:href="classcie_1_1fem_1_1maths_1_1OrthogonalScaleTransformDerivative.html" target="_top" xlink:title=" ">
<polygon fill="white" stroke="black" points="1183.17,-299.5 1183.17,-422.5 1340.17,-422.5 1340.17,-299.5 1183.17,-299.5"/>
<text text-anchor="start" x="1191.17" y="-410.5" font-family="Helvetica,sans-Serif" font-size="10.00">cie::fem::maths::Orthogonal</text>
<text text-anchor="start" x="1191.17" y="-399.5" font-family="Helvetica,sans-Serif" font-size="10.00">ScaleTransformDerivative</text>
<text text-anchor="middle" x="1261.67" y="-388.5" font-family="Helvetica,sans-Serif" font-size="10.00">&lt; TValue, Dimension &gt;</text>
<polyline fill="none" stroke="black" points="1183.17,-381.5 1340.17,-381.5 "/>
<text text-anchor="middle" x="1261.67" y="-369.5" font-family="Helvetica,sans-Serif" font-size="10.00"> </text>
<polyline fill="none" stroke="black" points="1183.17,-362.5 1340.17,-362.5 "/>
<text text-anchor="start" x="1191.17" y="-350.5" font-family="Helvetica,sans-Serif" font-size="10.00">+ OrthogonalScaleTransform</text>
<text text-anchor="start" x="1191.17" y="-339.5" font-family="Helvetica,sans-Serif" font-size="10.00">Derivative()</text>
<text text-anchor="start" x="1191.17" y="-328.5" font-family="Helvetica,sans-Serif" font-size="10.00">+ evaluate()</text>
<text text-anchor="start" x="1191.17" y="-317.5" font-family="Helvetica,sans-Serif" font-size="10.00">+ evaluateDeterminant()</text>
<text text-anchor="start" x="1191.17" y="-306.5" font-family="Helvetica,sans-Serif" font-size="10.00">+ size()</text>
</a>
</g>
</g>
<!-- Node1&#45;&gt;Node10 -->
<g id="edge10" class="edge">
<title>Node1&#45;&gt;Node10</title>
<path fill="none" stroke="midnightblue" d="M1261.67,-493.23C1261.67,-471.93 1261.67,-445.9 1261.67,-422.66"/>
<polygon fill="none" stroke="midnightblue" points="1258.17,-493.27 1261.67,-503.27 1265.17,-493.27 1258.17,-493.27"/>
</g>
<!-- Node11 -->
<g id="node11" class="node">
<title>Node11</title>
<g id="a_node11"><a xlink:href="classcie_1_1fem_1_1maths_1_1Polynomial.html" target="_top" xlink:title="Expression representing a scalar polynomial.">
<polygon fill="white" stroke="black" points="1358.67,-277.5 1358.67,-444.5 1512.67,-444.5 1512.67,-277.5 1358.67,-277.5"/>
<text text-anchor="start" x="1366.67" y="-432.5" font-family="Helvetica,sans-Serif" font-size="10.00">cie::fem::maths::Polynomial</text>
<text text-anchor="middle" x="1435.67" y="-421.5" font-family="Helvetica,sans-Serif" font-size="10.00">&lt; TValue &gt;</text>
<polyline fill="none" stroke="black" points="1358.67,-414.5 1512.67,-414.5 "/>
<text text-anchor="start" x="1366.67" y="-402.5" font-family="Helvetica,sans-Serif" font-size="10.00"># _coefficients</text>
<polyline fill="none" stroke="black" points="1358.67,-395.5 1512.67,-395.5 "/>
<text text-anchor="start" x="1366.67" y="-383.5" font-family="Helvetica,sans-Serif" font-size="10.00">+ Polynomial()</text>
<text text-anchor="start" x="1366.67" y="-372.5" font-family="Helvetica,sans-Serif" font-size="10.00">+ Polynomial()</text>
<text text-anchor="start" x="1366.67" y="-361.5" font-family="Helvetica,sans-Serif" font-size="10.00">+ Polynomial()</text>
<text text-anchor="start" x="1366.67" y="-350.5" font-family="Helvetica,sans-Serif" font-size="10.00">+ Polynomial()</text>
<text text-anchor="start" x="1366.67" y="-339.5" font-family="Helvetica,sans-Serif" font-size="10.00">+ Polynomial()</text>
<text text-anchor="start" x="1366.67" y="-328.5" font-family="Helvetica,sans-Serif" font-size="10.00">+ operator=()</text>
<text text-anchor="start" x="1366.67" y="-317.5" font-family="Helvetica,sans-Serif" font-size="10.00">+ operator=()</text>
<text text-anchor="start" x="1366.67" y="-306.5" font-family="Helvetica,sans-Serif" font-size="10.00">+ evaluate()</text>
<text text-anchor="start" x="1366.67" y="-295.5" font-family="Helvetica,sans-Serif" font-size="10.00">+ size()</text>
<text text-anchor="start" x="1366.67" y="-284.5" font-family="Helvetica,sans-Serif" font-size="10.00">+ makeDerivative()</text>
</a>
</g>
</g>
<!-- Node1&#45;&gt;Node11 -->
<g id="edge11" class="edge">
<title>Node1&#45;&gt;Node11</title>
<path fill="none" stroke="midnightblue" d="M1302.3,-495.76C1319.13,-478.88 1339.22,-458.73 1358.65,-439.24"/>
<polygon fill="none" stroke="midnightblue" points="1299.39,-493.71 1294.81,-503.27 1304.35,-498.66 1299.39,-493.71"/>
</g>
<!-- Node13 -->
<g id="node13" class="node">
<title>Node13</title>
<g id="a_node13"><a xlink:href="classcie_1_1fem_1_1maths_1_1ProjectiveTransform.html" target="_top" xlink:title="Class representing a projective transform.">
<polygon fill="white" stroke="black" points="1531.17,-294 1531.17,-428 1710.17,-428 1710.17,-294 1531.17,-294"/>
<text text-anchor="start" x="1539.17" y="-416" font-family="Helvetica,sans-Serif" font-size="10.00">cie::fem::maths::Projective</text>
<text text-anchor="middle" x="1620.67" y="-405" font-family="Helvetica,sans-Serif" font-size="10.00">Transform&lt; TValue, Dimension &gt;</text>
<polyline fill="none" stroke="black" points="1531.17,-398 1710.17,-398 "/>
<text text-anchor="middle" x="1620.67" y="-386" font-family="Helvetica,sans-Serif" font-size="10.00"> </text>
<polyline fill="none" stroke="black" points="1531.17,-379 1710.17,-379 "/>
<text text-anchor="start" x="1539.17" y="-367" font-family="Helvetica,sans-Serif" font-size="10.00">+ ProjectiveTransform()</text>
<text text-anchor="start" x="1539.17" y="-356" font-family="Helvetica,sans-Serif" font-size="10.00">+ ProjectiveTransform()</text>
<text text-anchor="start" x="1539.17" y="-345" font-family="Helvetica,sans-Serif" font-size="10.00">+ evaluate()</text>
<text text-anchor="start" x="1539.17" y="-334" font-family="Helvetica,sans-Serif" font-size="10.00">+ size()</text>
<text text-anchor="start" x="1539.17" y="-323" font-family="Helvetica,sans-Serif" font-size="10.00">+ makeInverse()</text>
<text text-anchor="start" x="1539.17" y="-312" font-family="Helvetica,sans-Serif" font-size="10.00">+ makeDerivative()</text>
<text text-anchor="start" x="1539.17" y="-301" font-family="Helvetica,sans-Serif" font-size="10.00">+ getTransformationMatrix()</text>
</a>
</g>
</g>
<!-- Node1&#45;&gt;Node13 -->
<g id="edge13" class="edge">
<title>Node1&#45;&gt;Node13</title>
<path fill="none" stroke="#8b1a1a" d="M1347.8,-514.66C1400.11,-499.38 1467.09,-476.11 1521.67,-445 1530.44,-440 1539.19,-434.2 1547.64,-428.02"/>
<polygon fill="none" stroke="#8b1a1a" points="1346.52,-511.39 1337.88,-517.52 1348.46,-518.12 1346.52,-511.39"/>
</g>
<!-- Node14 -->
<g id="node14" class="node">
<title>Node14</title>
<g id="a_node14"><a xlink:href="classcie_1_1fem_1_1maths_1_1ProjectiveTransformDerivative.html" target="_top" xlink:title="Expression representing the derivative of ProjectiveTransform.">
<polygon fill="white" stroke="black" points="1728.67,-305 1728.67,-417 1912.67,-417 1912.67,-305 1728.67,-305"/>
<text text-anchor="start" x="1736.67" y="-405" font-family="Helvetica,sans-Serif" font-size="10.00">cie::fem::maths::Projective</text>
<text text-anchor="start" x="1736.67" y="-394" font-family="Helvetica,sans-Serif" font-size="10.00">TransformDerivative&lt; TValue,</text>
<text text-anchor="middle" x="1820.67" y="-383" font-family="Helvetica,sans-Serif" font-size="10.00"> Dimension &gt;</text>
<polyline fill="none" stroke="black" points="1728.67,-376 1912.67,-376 "/>
<text text-anchor="middle" x="1820.67" y="-364" font-family="Helvetica,sans-Serif" font-size="10.00"> </text>
<polyline fill="none" stroke="black" points="1728.67,-357 1912.67,-357 "/>
<text text-anchor="start" x="1736.67" y="-345" font-family="Helvetica,sans-Serif" font-size="10.00">+ ProjectiveTransformDerivative()</text>
<text text-anchor="start" x="1736.67" y="-334" font-family="Helvetica,sans-Serif" font-size="10.00">+ evaluate()</text>
<text text-anchor="start" x="1736.67" y="-323" font-family="Helvetica,sans-Serif" font-size="10.00">+ size()</text>
<text text-anchor="start" x="1736.67" y="-312" font-family="Helvetica,sans-Serif" font-size="10.00">+ evaluateDeterminant()</text>
</a>
</g>
</g>
<!-- Node1&#45;&gt;Node14 -->
<g id="edge14" class="edge">
<title>Node1&#45;&gt;Node14</title>
<path fill="none" stroke="midnightblue" d="M1348.09,-531.6C1442.98,-523.47 1597.91,-501.9 1718.67,-445 1734.06,-437.75 1749.13,-427.69 1762.76,-417.07"/>
<polygon fill="none" stroke="midnightblue" points="1347.64,-528.13 1337.96,-532.44 1348.22,-535.11 1347.64,-528.13"/>
</g>
<!-- Node15 -->
<g id="node15" class="node">
<title>Node15</title>
<g id="a_node15"><a xlink:href="classcie_1_1fem_1_1maths_1_1ScaleTranslateTransform.html" target="_top" xlink:title="Class representing independent scaling along orthogonal coordinate axes, followed by a translation.">
<polygon fill="white" stroke="black" points="1931.17,-299.5 1931.17,-422.5 2110.17,-422.5 2110.17,-299.5 1931.17,-299.5"/>
<text text-anchor="start" x="1939.17" y="-410.5" font-family="Helvetica,sans-Serif" font-size="10.00">cie::fem::maths::ScaleTranslate</text>
<text text-anchor="middle" x="2020.67" y="-399.5" font-family="Helvetica,sans-Serif" font-size="10.00">Transform&lt; TValue, Dimension &gt;</text>
<polyline fill="none" stroke="black" points="1931.17,-392.5 2110.17,-392.5 "/>
<text text-anchor="middle" x="2020.67" y="-380.5" font-family="Helvetica,sans-Serif" font-size="10.00"> </text>
<polyline fill="none" stroke="black" points="1931.17,-373.5 2110.17,-373.5 "/>
<text text-anchor="start" x="1939.17" y="-361.5" font-family="Helvetica,sans-Serif" font-size="10.00">+ ScaleTranslateTransform()</text>
<text text-anchor="start" x="1939.17" y="-350.5" font-family="Helvetica,sans-Serif" font-size="10.00">+ ScaleTranslateTransform()</text>
<text text-anchor="start" x="1939.17" y="-339.5" font-family="Helvetica,sans-Serif" font-size="10.00">+ evaluate()</text>
<text text-anchor="start" x="1939.17" y="-328.5" font-family="Helvetica,sans-Serif" font-size="10.00">+ size()</text>
<text text-anchor="start" x="1939.17" y="-317.5" font-family="Helvetica,sans-Serif" font-size="10.00">+ makeDerivative()</text>
<text text-anchor="start" x="1939.17" y="-306.5" font-family="Helvetica,sans-Serif" font-size="10.00">+ makeInverse()</text>
</a>
</g>
</g>
<!-- Node1&#45;&gt;Node15 -->
<g id="edge15" class="edge">
<title>Node1&#45;&gt;Node15</title>
<path fill="none" stroke="#8b1a1a" d="M1348.27,-530.58C1503.19,-519 1820.98,-490.42 1921.67,-445 1934.45,-439.24 1946.89,-431.34 1958.4,-422.69"/>
<polygon fill="none" stroke="#8b1a1a" points="1347.57,-527.12 1337.85,-531.35 1348.08,-534.11 1347.57,-527.12"/>
</g>
<!-- Node16 -->
<g id="node16" class="node">
<title>Node16</title>
<g id="a_node16"><a xlink:href="classcie_1_1fem_1_1maths_1_1ScaleTranslateTransformDerivative.html" target="_top" xlink:title=" ">
<polygon fill="white" stroke="black" points="2128.67,-305 2128.67,-417 2334.67,-417 2334.67,-305 2128.67,-305"/>
<text text-anchor="start" x="2136.67" y="-405" font-family="Helvetica,sans-Serif" font-size="10.00">cie::fem::maths::ScaleTranslate</text>
<text text-anchor="start" x="2136.67" y="-394" font-family="Helvetica,sans-Serif" font-size="10.00">TransformDerivative&lt; TValue,</text>
<text text-anchor="middle" x="2231.67" y="-383" font-family="Helvetica,sans-Serif" font-size="10.00"> Dimension &gt;</text>
<polyline fill="none" stroke="black" points="2128.67,-376 2334.67,-376 "/>
<text text-anchor="middle" x="2231.67" y="-364" font-family="Helvetica,sans-Serif" font-size="10.00"> </text>
<polyline fill="none" stroke="black" points="2128.67,-357 2334.67,-357 "/>
<text text-anchor="start" x="2136.67" y="-345" font-family="Helvetica,sans-Serif" font-size="10.00">+ ScaleTranslateTransformDerivative()</text>
<text text-anchor="start" x="2136.67" y="-334" font-family="Helvetica,sans-Serif" font-size="10.00">+ evaluate()</text>
<text text-anchor="start" x="2136.67" y="-323" font-family="Helvetica,sans-Serif" font-size="10.00">+ evaluateDeterminant()</text>
<text text-anchor="start" x="2136.67" y="-312" font-family="Helvetica,sans-Serif" font-size="10.00">+ size()</text>
</a>
</g>
</g>
<!-- Node1&#45;&gt;Node16 -->
<g id="edge16" class="edge">
<title>Node1&#45;&gt;Node16</title>
<path fill="none" stroke="midnightblue" d="M1348.05,-533.3C1536.81,-525.35 1980.3,-501.12 2118.67,-445 2135.82,-438.05 2152.74,-427.91 2168.06,-417.09"/>
<polygon fill="none" stroke="midnightblue" points="1347.73,-529.81 1337.89,-533.73 1348.03,-536.81 1347.73,-529.81"/>
</g>
<!-- Node17 -->
<g id="node17" class="node">
<title>Node17</title>
<g id="a_node17"><a xlink:href="classcie_1_1fem_1_1maths_1_1TranslateScaleTransform.html" target="_top" xlink:title="Class representing a translation followed by an independent scaling along orthogonal coordinate axes.">
<polygon fill="white" stroke="black" points="2353.17,-294 2353.17,-428 2508.17,-428 2508.17,-294 2353.17,-294"/>
<text text-anchor="start" x="2361.17" y="-416" font-family="Helvetica,sans-Serif" font-size="10.00">cie::fem::maths::Translate</text>
<text text-anchor="start" x="2361.17" y="-405" font-family="Helvetica,sans-Serif" font-size="10.00">ScaleTransform&lt; TValue,</text>
<text text-anchor="middle" x="2430.67" y="-394" font-family="Helvetica,sans-Serif" font-size="10.00"> Dimension &gt;</text>
<polyline fill="none" stroke="black" points="2353.17,-387 2508.17,-387 "/>
<text text-anchor="middle" x="2430.67" y="-375" font-family="Helvetica,sans-Serif" font-size="10.00"> </text>
<polyline fill="none" stroke="black" points="2353.17,-368 2508.17,-368 "/>
<text text-anchor="start" x="2361.17" y="-356" font-family="Helvetica,sans-Serif" font-size="10.00">+ TranslateScaleTransform()</text>
<text text-anchor="start" x="2361.17" y="-345" font-family="Helvetica,sans-Serif" font-size="10.00">+ TranslateScaleTransform()</text>
<text text-anchor="start" x="2361.17" y="-334" font-family="Helvetica,sans-Serif" font-size="10.00">+ evaluate()</text>
<text text-anchor="start" x="2361.17" y="-323" font-family="Helvetica,sans-Serif" font-size="10.00">+ size()</text>
<text text-anchor="start" x="2361.17" y="-312" font-family="Helvetica,sans-Serif" font-size="10.00">+ makeDerivative()</text>
<text text-anchor="start" x="2361.17" y="-301" font-family="Helvetica,sans-Serif" font-size="10.00">+ makeInverse()</text>
</a>
</g>
</g>
<!-- Node1&#45;&gt;Node17 -->
<g id="edge17" class="edge">
<title>Node1&#45;&gt;Node17</title>
<path fill="none" stroke="#8b1a1a" d="M1347.82,-536.91C1571.9,-536.77 2167.82,-528.33 2343.67,-445 2353.1,-440.53 2362.17,-434.64 2370.66,-428.06"/>
<polygon fill="none" stroke="#8b1a1a" points="1347.75,-533.41 1337.75,-536.91 1347.75,-540.41 1347.75,-533.41"/>
</g>
<!-- Node18 -->
<g id="node18" class="node">
<title>Node18</title>
<g id="a_node18"><a xlink:href="structcie_1_1fem_1_1maths_1_1ExpressionTraits.html" target="_top" xlink:title=" ">
<polygon fill="white" stroke="black" points="2526.67,-321.5 2526.67,-400.5 2678.67,-400.5 2678.67,-321.5 2526.67,-321.5"/>
<text text-anchor="start" x="2534.67" y="-388.5" font-family="Helvetica,sans-Serif" font-size="10.00">cie::fem::maths::Expression</text>
<text text-anchor="start" x="2534.67" y="-377.5" font-family="Helvetica,sans-Serif" font-size="10.00">Traits&lt; TScalarExpression</text>
<text text-anchor="middle" x="2602.67" y="-366.5" font-family="Helvetica,sans-Serif" font-size="10.00">::Value &gt;</text>
<polyline fill="none" stroke="black" points="2526.67,-359.5 2678.67,-359.5 "/>
<text text-anchor="middle" x="2602.67" y="-347.5" font-family="Helvetica,sans-Serif" font-size="10.00"> </text>
<polyline fill="none" stroke="black" points="2526.67,-340.5 2678.67,-340.5 "/>
<text text-anchor="middle" x="2602.67" y="-328.5" font-family="Helvetica,sans-Serif" font-size="10.00"> </text>
</a>
</g>
</g>
<!-- Node1&#45;&gt;Node18 -->
<g id="edge18" class="edge">
<title>Node1&#45;&gt;Node18</title>
<path fill="none" stroke="orange" d="M1348.04,-535.13C1521.85,-531.68 1926.07,-520.26 2263.67,-485 2376.9,-473.17 2414.78,-495.77 2516.67,-445 2537.85,-434.45 2557.22,-416.84 2572.19,-400.54"/>
<polygon fill="orange" stroke="orange" points="1347.86,-531.63 1337.93,-535.32 1348,-538.63 1347.86,-531.63"/>
<text text-anchor="start" x="2472.67" y="-477" font-family="Helvetica,sans-Serif" font-size="10.00"> &lt; TScalarExpression</text>
<text text-anchor="middle" x="2524.67" y="-466" font-family="Helvetica,sans-Serif" font-size="10.00">::Value &gt;</text>
</g>
<!-- Node3 -->
<g id="node3" class="node">
<title>Node3</title>
<g id="a_node3"><a xlink:href="classcie_1_1fem_1_1maths_1_1WrappedExpression.html" target="_top" xlink:title=" ">
<polygon fill="white" stroke="black" points="66.67,-0.5 66.67,-68.5 218.67,-68.5 218.67,-0.5 66.67,-0.5"/>
<text text-anchor="start" x="74.67" y="-56.5" font-family="Helvetica,sans-Serif" font-size="10.00">cie::fem::maths::Wrapped</text>
<text text-anchor="middle" x="142.67" y="-45.5" font-family="Helvetica,sans-Serif" font-size="10.00">Expression&lt; TExpression &gt;</text>
<polyline fill="none" stroke="black" points="66.67,-38.5 218.67,-38.5 "/>
<text text-anchor="middle" x="142.67" y="-26.5" font-family="Helvetica,sans-Serif" font-size="10.00"> </text>
<polyline fill="none" stroke="black" points="66.67,-19.5 218.67,-19.5 "/>
<text text-anchor="middle" x="142.67" y="-7.5" font-family="Helvetica,sans-Serif" font-size="10.00"> </text>
</a>
</g>
</g>
<!-- Node2&#45;&gt;Node3 -->
<g id="edge2" class="edge">
<title>Node2&#45;&gt;Node3</title>
<path fill="none" stroke="midnightblue" d="M142.67,-112.65C142.67,-97.67 142.67,-81.88 142.67,-68.51"/>
<polygon fill="none" stroke="midnightblue" points="139.17,-112.85 142.67,-122.85 146.17,-112.85 139.17,-112.85"/>
</g>
<!-- Node6&#45;&gt;Node2 -->
<g id="edge6" class="edge">
<title>Node6&#45;&gt;Node2</title>
<path fill="none" stroke="orange" d="M466.22,-313.61C453.67,-300.51 439,-287.09 423.67,-277 358.41,-234.03 273.54,-204.42 214.22,-187.21"/>
<polygon fill="orange" stroke="orange" points="463.97,-316.34 473.35,-321.27 469.1,-311.56 463.97,-316.34"/>
<text text-anchor="middle" x="447.67" y="-251" font-family="Helvetica,sans-Serif" font-size="10.00"> &lt; TExpression::Value &gt;</text>
</g>
<!-- Node12 -->
<g id="node12" class="node">
<title>Node12</title>
<g id="a_node12"><a xlink:href="classcie_1_1fem_1_1maths_1_1LagrangePolynomial.html" target="_top" xlink:title=" ">
<polygon fill="white" stroke="black" points="1363.67,-128.5 1363.67,-207.5 1507.67,-207.5 1507.67,-128.5 1363.67,-128.5"/>
<text text-anchor="start" x="1371.67" y="-195.5" font-family="Helvetica,sans-Serif" font-size="10.00">cie::fem::maths::Lagrange</text>
<text text-anchor="middle" x="1435.67" y="-184.5" font-family="Helvetica,sans-Serif" font-size="10.00">Polynomial&lt; TValue &gt;</text>
<polyline fill="none" stroke="black" points="1363.67,-177.5 1507.67,-177.5 "/>
<text text-anchor="middle" x="1435.67" y="-165.5" font-family="Helvetica,sans-Serif" font-size="10.00"> </text>
<polyline fill="none" stroke="black" points="1363.67,-158.5 1507.67,-158.5 "/>
<text text-anchor="start" x="1371.67" y="-146.5" font-family="Helvetica,sans-Serif" font-size="10.00">+ LagrangePolynomial()</text>
<text text-anchor="start" x="1371.67" y="-135.5" font-family="Helvetica,sans-Serif" font-size="10.00">+ LagrangePolynomial()</text>
</a>
</g>
</g>
<!-- Node11&#45;&gt;Node12 -->
<g id="edge12" class="edge">
<title>Node11&#45;&gt;Node12</title>
<path fill="none" stroke="midnightblue" d="M1435.67,-267.08C1435.67,-246.12 1435.67,-225 1435.67,-207.75"/>
<polygon fill="none" stroke="midnightblue" points="1432.17,-267.34 1435.67,-277.34 1439.17,-267.34 1432.17,-267.34"/>
</g>
<!-- Node19 -->
<g id="node19" class="node">
<title>Node19</title>
<g id="a_node19"><a xlink:href="classcie_1_1fem_1_1maths_1_1AnsatzSpace.html" target="_top" xlink:title="A set of multidimensional functions constructed from the cartesian product of a set of scalar basis f...">
<polygon fill="white" stroke="black" points="2421.17,-106.5 2421.17,-229.5 2582.17,-229.5 2582.17,-106.5 2421.17,-106.5"/>
<text text-anchor="start" x="2429.17" y="-217.5" font-family="Helvetica,sans-Serif" font-size="10.00">cie::fem::maths::AnsatzSpace</text>
<text text-anchor="middle" x="2501.67" y="-206.5" font-family="Helvetica,sans-Serif" font-size="10.00">&lt; TScalarExpression, Dim &gt;</text>
<polyline fill="none" stroke="black" points="2421.17,-199.5 2582.17,-199.5 "/>
<text text-anchor="start" x="2429.17" y="-187.5" font-family="Helvetica,sans-Serif" font-size="10.00">+ Dimension</text>
<polyline fill="none" stroke="black" points="2421.17,-180.5 2582.17,-180.5 "/>
<text text-anchor="start" x="2429.17" y="-168.5" font-family="Helvetica,sans-Serif" font-size="10.00">+ AnsatzSpace()</text>
<text text-anchor="start" x="2429.17" y="-157.5" font-family="Helvetica,sans-Serif" font-size="10.00">+ AnsatzSpace()</text>
<text text-anchor="start" x="2429.17" y="-146.5" font-family="Helvetica,sans-Serif" font-size="10.00">+ AnsatzSpace()</text>
<text text-anchor="start" x="2429.17" y="-135.5" font-family="Helvetica,sans-Serif" font-size="10.00">+ evaluate()</text>
<text text-anchor="start" x="2429.17" y="-124.5" font-family="Helvetica,sans-Serif" font-size="10.00">+ makeDerivative()</text>
<text text-anchor="start" x="2429.17" y="-113.5" font-family="Helvetica,sans-Serif" font-size="10.00">+ size()</text>
</a>
</g>
</g>
<!-- Node18&#45;&gt;Node19 -->
<g id="edge19" class="edge">
<title>Node18&#45;&gt;Node19</title>
<path fill="none" stroke="midnightblue" d="M2577.51,-312.42C2564.29,-287.42 2547.94,-256.5 2533.81,-229.78"/>
<polygon fill="none" stroke="midnightblue" points="2574.47,-314.14 2582.23,-321.35 2580.65,-310.87 2574.47,-314.14"/>
</g>
<!-- Node20 -->
<g id="node20" class="node">
<title>Node20</title>
<g id="a_node20"><a xlink:href="classcie_1_1fem_1_1maths_1_1AnsatzSpaceDerivative.html" target="_top" xlink:title=" ">
<polygon fill="white" stroke="black" points="2600.67,-123 2600.67,-213 2806.67,-213 2806.67,-123 2600.67,-123"/>
<text text-anchor="start" x="2608.67" y="-201" font-family="Helvetica,sans-Serif" font-size="10.00">cie::fem::maths::AnsatzSpace</text>
<text text-anchor="middle" x="2703.67" y="-190" font-family="Helvetica,sans-Serif" font-size="10.00">Derivative&lt; TScalarExpression, Dim &gt;</text>
<polyline fill="none" stroke="black" points="2600.67,-183 2806.67,-183 "/>
<text text-anchor="start" x="2608.67" y="-171" font-family="Helvetica,sans-Serif" font-size="10.00">+ Dimension</text>
<polyline fill="none" stroke="black" points="2600.67,-164 2806.67,-164 "/>
<text text-anchor="start" x="2608.67" y="-152" font-family="Helvetica,sans-Serif" font-size="10.00">+ AnsatzSpaceDerivative()</text>
<text text-anchor="start" x="2608.67" y="-141" font-family="Helvetica,sans-Serif" font-size="10.00">+ evaluate()</text>
<text text-anchor="start" x="2608.67" y="-130" font-family="Helvetica,sans-Serif" font-size="10.00">+ size()</text>
</a>
</g>
</g>
<!-- Node18&#45;&gt;Node20 -->
<g id="edge20" class="edge">
<title>Node18&#45;&gt;Node20</title>
<path fill="none" stroke="midnightblue" d="M2627.93,-312.23C2643.97,-281.9 2664.59,-242.92 2680.26,-213.28"/>
<polygon fill="none" stroke="midnightblue" points="2624.69,-310.87 2623.11,-321.35 2630.88,-314.14 2624.69,-310.87"/>
</g>
</g>
</svg>
