<?xml version="1.0" encoding="UTF-8" standalone="no"?>
<!DOCTYPE svg PUBLIC "-//W3C//DTD SVG 1.1//EN"
 "http://www.w3.org/Graphics/SVG/1.1/DTD/svg11.dtd">
<!-- Generated by graphviz version 2.43.0 (0)
 -->
<!-- Title: cie::fem::Traits&lt; T &gt; Pages: 1 -->
<svg width="343pt" height="310pt"
 viewBox="0.00 0.00 342.50 310.00" xmlns="http://www.w3.org/2000/svg" xmlns:xlink="http://www.w3.org/1999/xlink">
<g id="graph0" class="graph" transform="scale(1 1) rotate(0) translate(4 306)">
<title>cie::fem::Traits&lt; T &gt;</title>
<polygon fill="white" stroke="transparent" points="-4,4 -4,-306 338.5,-306 338.5,4 -4,4"/>
<!-- Node1 -->
<g id="node1" class="node">
<title>Node1</title>
<g id="a_node1"><a xlink:title=" ">
<polygon fill="#bfbfbf" stroke="black" points="105.5,-0.5 105.5,-57.5 222.5,-57.5 222.5,-0.5 105.5,-0.5"/>
<text text-anchor="middle" x="164" y="-45.5" font-family="Helvetica,sans-Serif" font-size="10.00">cie::fem::Traits&lt; T &gt;</text>
<polyline fill="none" stroke="black" points="105.5,-38.5 222.5,-38.5 "/>
<text text-anchor="middle" x="164" y="-26.5" font-family="Helvetica,sans-Serif" font-size="10.00"> </text>
<polyline fill="none" stroke="black" points="105.5,-19.5 222.5,-19.5 "/>
<text text-anchor="middle" x="164" y="-7.5" font-family="Helvetica,sans-Serif" font-size="10.00"> </text>
</a>
</g>
</g>
<!-- Node2 -->
<g id="node2" class="node">
<title>Node2</title>
<g id="a_node2"><a xlink:href="structcie_1_1fem_1_1Kernel.html" target="_top" xlink:title=" ">
<polygon fill="white" stroke="black" points="15,-95.5 15,-174.5 145,-174.5 145,-95.5 15,-95.5"/>
<text text-anchor="start" x="23" y="-162.5" font-family="Helvetica,sans-Serif" font-size="10.00">cie::fem::Kernel&lt; T</text>
<text text-anchor="start" x="23" y="-151.5" font-family="Helvetica,sans-Serif" font-size="10.00">::Dimension, T::number</text>
<text text-anchor="middle" x="80" y="-140.5" font-family="Helvetica,sans-Serif" font-size="10.00">_type &gt;</text>
<polyline fill="none" stroke="black" points="15,-133.5 145,-133.5 "/>
<text text-anchor="start" x="23" y="-121.5" font-family="Helvetica,sans-Serif" font-size="10.00">+ dimension</text>
<polyline fill="none" stroke="black" points="15,-114.5 145,-114.5 "/>
<text text-anchor="middle" x="80" y="-102.5" font-family="Helvetica,sans-Serif" font-size="10.00"> </text>
</a>
</g>
</g>
<!-- Node2&#45;&gt;Node1 -->
<g id="edge1" class="edge">
<title>Node2&#45;&gt;Node1</title>
<path fill="none" stroke="midnightblue" d="M117.75,-87.26C125.9,-77.17 134.27,-66.8 141.61,-57.72"/>
<polygon fill="none" stroke="midnightblue" points="114.84,-85.3 111.28,-95.27 120.28,-89.69 114.84,-85.3"/>
</g>
<!-- Node3 -->
<g id="node3" class="node">
<title>Node3</title>
<g id="a_node3"><a xlink:href="structcie_1_1fem_1_1Kernel.html" target="_top" xlink:title=" ">
<polygon fill="white" stroke="black" points="0,-233.5 0,-301.5 160,-301.5 160,-233.5 0,-233.5"/>
<text text-anchor="start" x="8" y="-289.5" font-family="Helvetica,sans-Serif" font-size="10.00">cie::fem::Kernel&lt; Dimension,</text>
<text text-anchor="middle" x="80" y="-278.5" font-family="Helvetica,sans-Serif" font-size="10.00"> NT &gt;</text>
<polyline fill="none" stroke="black" points="0,-271.5 160,-271.5 "/>
<text text-anchor="start" x="8" y="-259.5" font-family="Helvetica,sans-Serif" font-size="10.00">+ dimension</text>
<polyline fill="none" stroke="black" points="0,-252.5 160,-252.5 "/>
<text text-anchor="middle" x="80" y="-240.5" font-family="Helvetica,sans-Serif" font-size="10.00"> </text>
</a>
</g>
</g>
<!-- Node3&#45;&gt;Node2 -->
<g id="edge2" class="edge">
<title>Node3&#45;&gt;Node2</title>
<path fill="none" stroke="orange" d="M80,-222.81C80,-207.26 80,-189.87 80,-174.77"/>
<polygon fill="orange" stroke="orange" points="76.5,-223.23 80,-233.23 83.5,-223.23 76.5,-223.23"/>
<text text-anchor="start" x="80" y="-207" font-family="Helvetica,sans-Serif" font-size="10.00"> &lt; T::Dimension, T::</text>
<text text-anchor="middle" x="128" y="-196" font-family="Helvetica,sans-Serif" font-size="10.00">number_type &gt;</text>
</g>
<!-- Node4 -->
<g id="node4" class="node">
<title>Node4</title>
<g id="a_node4"><a xlink:title=" ">
<polygon fill="white" stroke="#bfbfbf" points="163.5,-106.5 163.5,-163.5 334.5,-163.5 334.5,-106.5 163.5,-106.5"/>
<text text-anchor="middle" x="249" y="-151.5" font-family="Helvetica,sans-Serif" font-size="10.00">cie::fem::detail::SizeTraits&lt; T &gt;</text>
<polyline fill="none" stroke="#bfbfbf" points="163.5,-144.5 334.5,-144.5 "/>
<text text-anchor="middle" x="249" y="-132.5" font-family="Helvetica,sans-Serif" font-size="10.00"> </text>
<polyline fill="none" stroke="#bfbfbf" points="163.5,-125.5 334.5,-125.5 "/>
<text text-anchor="middle" x="249" y="-113.5" font-family="Helvetica,sans-Serif" font-size="10.00"> </text>
</a>
</g>
</g>
<!-- Node4&#45;&gt;Node1 -->
<g id="edge3" class="edge">
<title>Node4&#45;&gt;Node1</title>
<path fill="none" stroke="midnightblue" d="M219.88,-98.37C209.02,-85.08 196.86,-70.2 186.66,-57.73"/>
<polygon fill="none" stroke="midnightblue" points="217.41,-100.87 226.44,-106.4 222.83,-96.45 217.41,-100.87"/>
</g>
</g>
</svg>
