<?xml version="1.0" encoding="UTF-8" standalone="no"?>
<!DOCTYPE svg PUBLIC "-//W3C//DTD SVG 1.1//EN"
 "http://www.w3.org/Graphics/SVG/1.1/DTD/svg11.dtd">
<!-- Generated by graphviz version 2.43.0 (0)
 -->
<!-- Title: cie::fem::Kernel&lt; Dimension, NT &gt; Pages: 1 -->
<svg width="168pt" height="182pt"
 viewBox="0.00 0.00 168.00 182.00" xmlns="http://www.w3.org/2000/svg" xmlns:xlink="http://www.w3.org/1999/xlink">
<g id="graph0" class="graph" transform="scale(1 1) rotate(0) translate(4 178)">
<title>cie::fem::Kernel&lt; Dimension, NT &gt;</title>
<polygon fill="white" stroke="transparent" points="-4,4 -4,-178 164,-178 164,4 -4,4"/>
<!-- Node1 -->
<g id="node1" class="node">
<title>Node1</title>
<g id="a_node1"><a xlink:title=" ">
<polygon fill="#bfbfbf" stroke="black" points="0,-0.5 0,-68.5 160,-68.5 160,-0.5 0,-0.5"/>
<text text-anchor="start" x="8" y="-56.5" font-family="Helvetica,sans-Serif" font-size="10.00">cie::fem::Kernel&lt; Dimension,</text>
<text text-anchor="middle" x="80" y="-45.5" font-family="Helvetica,sans-Serif" font-size="10.00"> NT &gt;</text>
<polyline fill="none" stroke="black" points="0,-38.5 160,-38.5 "/>
<text text-anchor="middle" x="80" y="-26.5" font-family="Helvetica,sans-Serif" font-size="10.00"> </text>
<polyline fill="none" stroke="black" points="0,-19.5 160,-19.5 "/>
<text text-anchor="middle" x="80" y="-7.5" font-family="Helvetica,sans-Serif" font-size="10.00"> </text>
</a>
</g>
</g>
<!-- Node2 -->
<g id="node2" class="node">
<title>Node2</title>
<g id="a_node2"><a xlink:title=" ">
<polygon fill="white" stroke="#bfbfbf" points="32,-116.5 32,-173.5 128,-173.5 128,-116.5 32,-116.5"/>
<text text-anchor="middle" x="80" y="-161.5" font-family="Helvetica,sans-Serif" font-size="10.00">static const Size</text>
<polyline fill="none" stroke="#bfbfbf" points="32,-154.5 128,-154.5 "/>
<text text-anchor="middle" x="80" y="-142.5" font-family="Helvetica,sans-Serif" font-size="10.00"> </text>
<polyline fill="none" stroke="#bfbfbf" points="32,-135.5 128,-135.5 "/>
<text text-anchor="middle" x="80" y="-123.5" font-family="Helvetica,sans-Serif" font-size="10.00"> </text>
</a>
</g>
</g>
<!-- Node2&#45;&gt;Node1 -->
<g id="edge1" class="edge">
<title>Node2&#45;&gt;Node1</title>
<path fill="none" stroke="#404040" d="M80,-116.34C80,-105.53 80,-92.85 80,-80.77"/>
<polygon fill="none" stroke="#404040" points="80,-80.52 76,-74.52 80,-68.52 84,-74.52 80,-80.52"/>
<text text-anchor="middle" x="111.5" y="-90" font-family="Helvetica,sans-Serif" font-size="10.00"> +dimension</text>
</g>
</g>
</svg>
