<?xml version="1.0" encoding="UTF-8" standalone="no"?>
<!DOCTYPE svg PUBLIC "-//W3C//DTD SVG 1.1//EN"
 "http://www.w3.org/Graphics/SVG/1.1/DTD/svg11.dtd">
<!-- Generated by graphviz version 2.43.0 (0)
 -->
<!-- Title: Traits.hpp Pages: 1 -->
<!--zoomable 173 -->
<svg id="main" version="1.1" xmlns="http://www.w3.org/2000/svg" xmlns:xlink="http://www.w3.org/1999/xlink" xml:space="preserve" onload="init(evt)">
<style type="text/css"><![CDATA[
.edge:hover path { stroke: red; }
.edge:hover polygon { stroke: red; fill: red; }
]]></style>
<script type="text/javascript"><![CDATA[
var edges = document.getElementsByTagName('g');
if (edges && edges.length) {
  for (var i=0;i<edges.length;i++) {
    if (edges[i].id.substr(0,4)=='edge') {
      edges[i].setAttribute('class','edge');
    }
  }
}
]]></script>
        <defs>
                <circle id="rim" cx="0" cy="0" r="7"/>
                <circle id="rim2" cx="0" cy="0" r="3.5"/>
                <g id="zoomPlus">
                        <use xlink:href="#rim" fill="#404040">
                                <set attributeName="fill" to="#808080" begin="zoomplus.mouseover" end="zoomplus.mouseout"/>
                        </use>
                        <path d="M-4,0h8M0,-4v8" fill="none" stroke="white" stroke-width="1.5" pointer-events="none"/>
                </g>
                <g id="zoomMin">
                        <use xlink:href="#rim" fill="#404040">
                                <set attributeName="fill" to="#808080" begin="zoomminus.mouseover" end="zoomminus.mouseout"/>
                        </use>
                        <path d="M-4,0h8" fill="none" stroke="white" stroke-width="1.5" pointer-events="none"/>
                </g>
                <g id="dirArrow">
                        <path fill="none" stroke="white" stroke-width="1.5" d="M0,-3.0v7 M-2.5,-0.5L0,-3.0L2.5,-0.5"/>
                </g>
               <g id="resetDef">
                       <use xlink:href="#rim2" fill="#404040">
                               <set attributeName="fill" to="#808080" begin="reset.mouseover" end="reset.mouseout"/>
                       </use>
               </g>
        </defs>

<script type="text/javascript">
var viewWidth = 1256;
var viewHeight = 173;
var sectionId = 'dynsection-0';
</script>
<script xlink:href="svgpan.js"/>
<svg id="graph" class="graph">
<g id="viewport">
<title>Traits.hpp</title>
<polygon fill="white" stroke="transparent" points="-4,4 -4,-169 1252,-169 1252,4 -4,4"/>
<!-- Node1 -->
<g id="node1" class="node">
<title>Node1</title>
<g id="a_node1"><a xlink:title=" ">
<polygon fill="#bfbfbf" stroke="black" points="565.5,-145.5 565.5,-164.5 629.5,-164.5 629.5,-145.5 565.5,-145.5"/>
<text text-anchor="middle" x="597.5" y="-152.5" font-family="Helvetica,sans-Serif" font-size="10.00">Traits.hpp</text>
</a>
</g>
</g>
<!-- Node2 -->
<g id="node2" class="node">
<title>Node2</title>
<g id="a_node2"><a target="_parent" xlink:href="../../../linalg/docs/html/concepts_8hpp.html.html" xlink:title=" ">
<polygon fill="white" stroke="black" points="477,-78.5 477,-108.5 592,-108.5 592,-78.5 477,-78.5"/>
<text text-anchor="start" x="485" y="-96.5" font-family="Helvetica,sans-Serif" font-size="10.00">packages/matrix/inc</text>
<text text-anchor="middle" x="534.5" y="-85.5" font-family="Helvetica,sans-Serif" font-size="10.00">/concepts.hpp</text>
</a>
</g>
</g>
<!-- Node1&#45;&gt;Node2 -->
<g id="edge1" class="edge">
<title>Node1&#45;&gt;Node2</title>
<path fill="none" stroke="midnightblue" d="M588.47,-145.48C580.26,-137.72 567.79,-125.94 556.91,-115.66"/>
<polygon fill="midnightblue" stroke="midnightblue" points="559.02,-112.84 549.35,-108.52 554.21,-117.93 559.02,-112.84"/>
</g>
<!-- Node3 -->
<g id="node3" class="node">
<title>Node3</title>
<g id="a_node3"><a xlink:href="kernel_8hpp.html" target="_top" xlink:title=" ">
<polygon fill="white" stroke="black" points="610.5,-78.5 610.5,-108.5 712.5,-108.5 712.5,-78.5 610.5,-78.5"/>
<text text-anchor="start" x="618.5" y="-96.5" font-family="Helvetica,sans-Serif" font-size="10.00">packages/utilities</text>
<text text-anchor="middle" x="661.5" y="-85.5" font-family="Helvetica,sans-Serif" font-size="10.00">/inc/kernel.hpp</text>
</a>
</g>
</g>
<!-- Node1&#45;&gt;Node3 -->
<g id="edge2" class="edge">
<title>Node1&#45;&gt;Node3</title>
<path fill="none" stroke="midnightblue" d="M606.67,-145.48C615.09,-137.64 627.92,-125.71 639.06,-115.37"/>
<polygon fill="midnightblue" stroke="midnightblue" points="641.48,-117.9 646.42,-108.52 636.71,-112.77 641.48,-117.9"/>
</g>
<!-- Node4 -->
<g id="node4" class="node">
<title>Node4</title>
<g id="a_node4"><a xlink:title=" ">
<polygon fill="white" stroke="#bfbfbf" points="0,-11.5 0,-30.5 77,-30.5 77,-11.5 0,-11.5"/>
<text text-anchor="middle" x="38.5" y="-18.5" font-family="Helvetica,sans-Serif" font-size="10.00">Eigen/Dense</text>
</a>
</g>
</g>
<!-- Node3&#45;&gt;Node4 -->
<g id="edge3" class="edge">
<title>Node3&#45;&gt;Node4</title>
<path fill="none" stroke="midnightblue" d="M610.36,-79.7C607.04,-79.07 603.73,-78.49 600.5,-78 374.12,-43.4 309.35,-94.73 86.5,-42 79.3,-40.3 71.79,-37.63 64.9,-34.8"/>
<polygon fill="midnightblue" stroke="midnightblue" points="65.94,-31.43 55.38,-30.62 63.13,-37.84 65.94,-31.43"/>
</g>
<!-- Node5 -->
<g id="node5" class="node">
<title>Node5</title>
<g id="a_node5"><a target="_parent" xlink:href="../../../cieutils/docs/html/basic__concepts_8hpp.html.html" xlink:title=" ">
<polygon fill="white" stroke="black" points="95.5,-0.5 95.5,-41.5 227.5,-41.5 227.5,-0.5 95.5,-0.5"/>
<text text-anchor="start" x="103.5" y="-29.5" font-family="Helvetica,sans-Serif" font-size="10.00">packages/compile_time</text>
<text text-anchor="start" x="103.5" y="-18.5" font-family="Helvetica,sans-Serif" font-size="10.00">/packages/concepts/inc</text>
<text text-anchor="middle" x="161.5" y="-7.5" font-family="Helvetica,sans-Serif" font-size="10.00">/basic_concepts.hpp</text>
</a>
</g>
</g>
<!-- Node3&#45;&gt;Node5 -->
<g id="edge4" class="edge">
<title>Node3&#45;&gt;Node5</title>
<path fill="none" stroke="midnightblue" d="M610.35,-79.81C607.02,-79.15 603.72,-78.54 600.5,-78 443.46,-51.69 398.29,-70.24 237.85,-42.09"/>
<polygon fill="midnightblue" stroke="midnightblue" points="238.08,-38.57 227.62,-40.25 236.85,-45.46 238.08,-38.57"/>
</g>
<!-- Node6 -->
<g id="node6" class="node">
<title>Node6</title>
<g id="a_node6"><a target="_parent" xlink:href="../../../cieutils/docs/html/types_8hpp.html.html" xlink:title=" ">
<polygon fill="white" stroke="black" points="245.5,-6 245.5,-36 355.5,-36 355.5,-6 245.5,-6"/>
<text text-anchor="start" x="253.5" y="-24" font-family="Helvetica,sans-Serif" font-size="10.00">packages/types/inc</text>
<text text-anchor="middle" x="300.5" y="-13" font-family="Helvetica,sans-Serif" font-size="10.00">/types.hpp</text>
</a>
</g>
</g>
<!-- Node3&#45;&gt;Node6 -->
<g id="edge5" class="edge">
<title>Node3&#45;&gt;Node6</title>
<path fill="none" stroke="midnightblue" d="M610.31,-80.01C607,-79.3 603.71,-78.62 600.5,-78 496.36,-57.71 467.88,-65.89 364.5,-42 360.42,-41.06 356.22,-39.98 352.01,-38.83"/>
<polygon fill="midnightblue" stroke="midnightblue" points="352.83,-35.43 342.25,-36.04 350.9,-42.16 352.83,-35.43"/>
</g>
<!-- Node7 -->
<g id="node7" class="node">
<title>Node7</title>
<g id="a_node7"><a target="_parent" xlink:href="../../../cieutils/docs/html/StaticArray_8hpp.html.html" xlink:title=" ">
<polygon fill="white" stroke="black" points="374,-6 374,-36 505,-36 505,-6 374,-6"/>
<text text-anchor="start" x="382" y="-24" font-family="Helvetica,sans-Serif" font-size="10.00">packages/stl_extension</text>
<text text-anchor="middle" x="439.5" y="-13" font-family="Helvetica,sans-Serif" font-size="10.00">/inc/StaticArray.hpp</text>
</a>
</g>
</g>
<!-- Node3&#45;&gt;Node7 -->
<g id="edge6" class="edge">
<title>Node3&#45;&gt;Node7</title>
<path fill="none" stroke="midnightblue" d="M617.37,-78.49C581.86,-67.21 531.77,-51.3 493.79,-39.24"/>
<polygon fill="midnightblue" stroke="midnightblue" points="494.51,-35.8 483.92,-36.11 492.39,-42.47 494.51,-35.8"/>
</g>
<!-- Node8 -->
<g id="node8" class="node">
<title>Node8</title>
<g id="a_node8"><a target="_parent" xlink:href="../../../cieutils/docs/html/StrongTypeDef_8hpp.html.html" xlink:title=" ">
<polygon fill="white" stroke="black" points="523,-6 523,-36 654,-36 654,-6 523,-6"/>
<text text-anchor="start" x="531" y="-24" font-family="Helvetica,sans-Serif" font-size="10.00">packages/stl_extension</text>
<text text-anchor="middle" x="588.5" y="-13" font-family="Helvetica,sans-Serif" font-size="10.00">/inc/StrongTypeDef.hpp</text>
</a>
</g>
</g>
<!-- Node3&#45;&gt;Node8 -->
<g id="edge7" class="edge">
<title>Node3&#45;&gt;Node8</title>
<path fill="none" stroke="midnightblue" d="M646.73,-78.23C636.34,-68.2 622.26,-54.6 610.54,-43.29"/>
<polygon fill="midnightblue" stroke="midnightblue" points="612.88,-40.67 603.25,-36.25 608.01,-45.71 612.88,-40.67"/>
</g>
<!-- Node9 -->
<g id="node9" class="node">
<title>Node9</title>
<g id="a_node9"><a target="_parent" xlink:href="../../../linalg/docs/html/StaticEigenMatrix_8hpp.html.html" xlink:title=" ">
<polygon fill="white" stroke="black" points="672,-6 672,-36 799,-36 799,-6 672,-6"/>
<text text-anchor="start" x="680" y="-24" font-family="Helvetica,sans-Serif" font-size="10.00">packages/matrix/inc</text>
<text text-anchor="middle" x="735.5" y="-13" font-family="Helvetica,sans-Serif" font-size="10.00">/StaticEigenMatrix.hpp</text>
</a>
</g>
</g>
<!-- Node3&#45;&gt;Node9 -->
<g id="edge8" class="edge">
<title>Node3&#45;&gt;Node9</title>
<path fill="none" stroke="midnightblue" d="M676.48,-78.23C687.01,-68.2 701.28,-54.6 713.16,-43.29"/>
<polygon fill="midnightblue" stroke="midnightblue" points="715.72,-45.68 720.55,-36.25 710.89,-40.61 715.72,-45.68"/>
</g>
<!-- Node10 -->
<g id="node10" class="node">
<title>Node10</title>
<g id="a_node10"><a target="_parent" xlink:href="../../../linalg/docs/html/DynamicEigenMatrix_8hpp.html.html" xlink:title=" ">
<polygon fill="white" stroke="black" points="817,-6 817,-36 960,-36 960,-6 817,-6"/>
<text text-anchor="start" x="825" y="-24" font-family="Helvetica,sans-Serif" font-size="10.00">packages/matrix/inc</text>
<text text-anchor="middle" x="888.5" y="-13" font-family="Helvetica,sans-Serif" font-size="10.00">/DynamicEigenMatrix.hpp</text>
</a>
</g>
</g>
<!-- Node3&#45;&gt;Node10 -->
<g id="edge9" class="edge">
<title>Node3&#45;&gt;Node10</title>
<path fill="none" stroke="midnightblue" d="M706.62,-78.49C743.09,-67.16 794.59,-51.17 833.48,-39.09"/>
<polygon fill="midnightblue" stroke="midnightblue" points="834.57,-42.42 843.08,-36.11 832.49,-35.73 834.57,-42.42"/>
</g>
<!-- Node11 -->
<g id="node11" class="node">
<title>Node11</title>
<g id="a_node11"><a target="_parent" xlink:href="../../../linalg/docs/html/SparseEigenMatrix_8hpp.html.html" xlink:title=" ">
<polygon fill="white" stroke="black" points="978.5,-6 978.5,-36 1110.5,-36 1110.5,-6 978.5,-6"/>
<text text-anchor="start" x="986.5" y="-24" font-family="Helvetica,sans-Serif" font-size="10.00">packages/matrix/inc</text>
<text text-anchor="middle" x="1044.5" y="-13" font-family="Helvetica,sans-Serif" font-size="10.00">/SparseEigenMatrix.hpp</text>
</a>
</g>
</g>
<!-- Node3&#45;&gt;Node11 -->
<g id="edge10" class="edge">
<title>Node3&#45;&gt;Node11</title>
<path fill="none" stroke="midnightblue" d="M712.74,-85.67C774.1,-77.12 879.83,-61.26 969.5,-42 974.48,-40.93 979.62,-39.74 984.77,-38.49"/>
<polygon fill="midnightblue" stroke="midnightblue" points="985.79,-41.84 994.64,-36.03 984.09,-35.05 985.79,-41.84"/>
</g>
<!-- Node12 -->
<g id="node12" class="node">
<title>Node12</title>
<g id="a_node12"><a xlink:title=" ">
<polygon fill="white" stroke="#bfbfbf" points="1128.5,-11.5 1128.5,-30.5 1170.5,-30.5 1170.5,-11.5 1128.5,-11.5"/>
<text text-anchor="middle" x="1149.5" y="-18.5" font-family="Helvetica,sans-Serif" font-size="10.00">array</text>
</a>
</g>
</g>
<!-- Node3&#45;&gt;Node12 -->
<g id="edge11" class="edge">
<title>Node3&#45;&gt;Node12</title>
<path fill="none" stroke="midnightblue" d="M712.65,-89.92C815.91,-84.2 1045.73,-68.84 1119.5,-42 1123.42,-40.57 1127.34,-38.53 1130.99,-36.29"/>
<polygon fill="midnightblue" stroke="midnightblue" points="1133.08,-39.1 1139.34,-30.56 1129.12,-33.33 1133.08,-39.1"/>
</g>
<!-- Node13 -->
<g id="node13" class="node">
<title>Node13</title>
<g id="a_node13"><a xlink:title=" ">
<polygon fill="white" stroke="#bfbfbf" points="1189,-11.5 1189,-30.5 1248,-30.5 1248,-11.5 1189,-11.5"/>
<text text-anchor="middle" x="1218.5" y="-18.5" font-family="Helvetica,sans-Serif" font-size="10.00">complex</text>
</a>
</g>
</g>
<!-- Node3&#45;&gt;Node13 -->
<g id="edge12" class="edge">
<title>Node3&#45;&gt;Node13</title>
<path fill="none" stroke="midnightblue" d="M712.57,-89.96C825.41,-83.96 1092.8,-67.45 1179.5,-42 1185.07,-40.37 1190.78,-37.93 1196.05,-35.32"/>
<polygon fill="midnightblue" stroke="midnightblue" points="1197.79,-38.36 1204.95,-30.55 1194.48,-32.19 1197.79,-38.36"/>
</g>
</g>
</svg>
        <g id="navigator" transform="translate(0 0)" fill="#404254">
                <rect fill="#f2f5e9" fill-opacity="0.5" stroke="#606060" stroke-width=".5" x="0" y="0" width="60" height="60"/>
                <use id="zoomplus" xlink:href="#zoomPlus" x="17" y="9" onmousedown="handleZoom(evt,'in')"/>
                <use id="zoomminus" xlink:href="#zoomMin" x="42" y="9" onmousedown="handleZoom(evt,'out')"/>
                <use id="reset" xlink:href="#resetDef" x="30" y="36" onmousedown="handleReset()"/>
                <g id="arrowUp" xlink:href="#dirArrow" transform="translate(30 24)" onmousedown="handlePan(0,-1)">
                  <use xlink:href="#rim" fill="#404040">
                        <set attributeName="fill" to="#808080" begin="arrowUp.mouseover" end="arrowUp.mouseout"/>
                  </use>
                  <path fill="none" stroke="white" stroke-width="1.5" d="M0,-3.0v7 M-2.5,-0.5L0,-3.0L2.5,-0.5"/>
                </g>
                <g id="arrowRight" xlink:href="#dirArrow" transform="rotate(90) translate(36 -43)" onmousedown="handlePan(1,0)">
                  <use xlink:href="#rim" fill="#404040">
                        <set attributeName="fill" to="#808080" begin="arrowRight.mouseover" end="arrowRight.mouseout"/>
                  </use>
                  <path fill="none" stroke="white" stroke-width="1.5" d="M0,-3.0v7 M-2.5,-0.5L0,-3.0L2.5,-0.5"/>
                </g>
                <g id="arrowDown" xlink:href="#dirArrow" transform="rotate(180) translate(-30 -48)" onmousedown="handlePan(0,1)">
                  <use xlink:href="#rim" fill="#404040">
                        <set attributeName="fill" to="#808080" begin="arrowDown.mouseover" end="arrowDown.mouseout"/>
                  </use>
                  <path fill="none" stroke="white" stroke-width="1.5" d="M0,-3.0v7 M-2.5,-0.5L0,-3.0L2.5,-0.5"/>
                </g>
                <g id="arrowLeft" xlink:href="#dirArrow" transform="rotate(270) translate(-36 17)" onmousedown="handlePan(-1,0)">
                  <use xlink:href="#rim" fill="#404040">
                        <set attributeName="fill" to="#808080" begin="arrowLeft.mouseover" end="arrowLeft.mouseout"/>
                  </use>
                  <path fill="none" stroke="white" stroke-width="1.5" d="M0,-3.0v7 M-2.5,-0.5L0,-3.0L2.5,-0.5"/>
                </g>
        </g>
        <svg viewBox="0 0 15 15" width="100%" height="30px" preserveAspectRatio="xMaxYMin meet">
         <g id="arrow_out" transform="scale(0.3 0.3)">
          <a xlink:href="Traits_8hpp__incl_org.svg" target="_base">
           <rect id="button" ry="5" rx="5" y="6" x="6" height="38" width="38"
                fill="#f2f5e9" fill-opacity="0.5" stroke="#606060" stroke-width="1.0"/>
           <path id="arrow"
             d="M 11.500037,31.436501 C 11.940474,20.09759 22.043105,11.32322 32.158766,21.979434 L 37.068811,17.246167 C 37.068811,17.246167 37.088388,32 37.088388,32 L 22.160133,31.978069 C 22.160133,31.978069 26.997745,27.140456 26.997745,27.140456 C 18.528582,18.264221 13.291696,25.230495 11.500037,31.436501 z"
             style="fill:#404040;"/>
          </a>
         </g>
        </svg>
</svg>
